<svg xmlns="http://www.w3.org/2000/svg" viewBox="0 0 297 297">
  <path d="M148.5 71.388c19.49 0 35.346-15.857 35.346-35.346S167.99.696 148.5.696s-35.346 15.857-35.346 35.346S129.01 71.388 148.5 71.388zM155.932 82.821c-.786-.856-1.935-1.287-3.097-1.287h-8.67c-1.162 0-2.311.431-3.097 1.287a4.023 4.023 0 0 0-.53 4.738l4.634 6.987-2.17 18.302 4.272 11.365c.417 1.143 2.033 1.143 2.45 0l4.272-11.365-2.17-18.302 4.634-6.987a4.018 4.018 0 0 0-.528-4.738z"/>
  <path d="M94.069 164.469h108.86a5.041 5.041 0 0 0 5.035-5.035v-45.353c0-13.214-8.566-24.948-21.316-29.197l-9.94-3.051a3.573 3.573 0 0 0-4.41 2.194L148.5 149.323l-23.798-65.297a3.577 3.577 0 0 0-3.356-2.353 3.54 3.54 0 0 0-1.05.159l-9.864 3.026c-12.831 4.276-21.397 16.009-21.397 29.223v45.353a5.04 5.04 0 0 0 5.034 5.035zM35.345 89.454c19.49 0 35.346-15.856 35.346-35.345 0-19.49-15.857-35.346-35.346-35.346C15.856 18.763 0 34.62 0 54.109c0 19.49 15.856 35.345 35.345 35.345z"/>
  <path d="M95.511 186.619H67.359v-55.605C67.359 113.333 53.026 99 35.346 99S3.333 113.333 3.333 131.013v75.535c0 16.975 13.761 30.736 30.736 30.736h36.527v50.333a8.687 8.687 0 0 0 8.687 8.687h33.725a8.687 8.687 0 0 0 8.687-8.687v-74.814c0-14.461-11.723-26.184-26.184-26.184zM261.655 89.454c19.49 0 35.345-15.856 35.345-35.345 0-19.49-15.856-35.346-35.345-35.346s-35.346 15.857-35.346 35.346c-.001 19.49 15.856 35.345 35.346 35.345zM261.654 99c-17.681 0-32.013 14.333-32.013 32.013v55.605H201.49c-14.461 0-26.184 11.723-26.184 26.184v74.814a8.687 8.687 0 0 0 8.687 8.687h33.725a8.687 8.687 0 0 0 8.687-8.687v-50.333h36.527c16.975 0 30.736-13.761 30.736-30.736v-75.535c0-17.679-14.333-32.012-32.014-32.012z"/>
</svg>
