<?xml version="1.0" encoding="UTF-8"?>
<svg width="23px" height="23px" viewBox="0 0 100 100" version="1.1" xmlns="http://www.w3.org/2000/svg" xmlns:xlink="http://www.w3.org/1999/xlink">
    <!-- Generator: Sketch 57.1 (83088) - https://sketch.com -->
    <title>code</title>
    <desc>Created with Sketch.</desc>
    <g id="Page-1" stroke="none" stroke-width="1" fill="none" fill-rule="evenodd">
        <g id="code" fill="#000000" fill-rule="nonzero">
            <path d="M93.7964377,0.265642458 L5.99694656,0.265642458 C2.68956743,0.265642458 0,3.21899441 0,6.84916201 L0,93.2027933 C0,96.8329609 2.68956743,99.7860335 5.99694656,99.7860335 L93.7966921,99.7860335 C97.1030534,99.7860335 99.792621,96.8329609 99.792621,93.2027933 L99.792621,6.84916201 C99.792621,3.21927374 97.102799,0.265642458 93.7964377,0.265642458 Z M75.7150127,11.3206704 C75.7150127,9.97828122 76.7061697,8.88997329 77.9290076,8.88966479 L80.1435115,8.88966479 C80.7308083,8.88966479 81.2940629,9.14570776 81.7092968,9.60164188 C82.1245307,10.057576 82.3577089,10.6759563 82.3575065,11.3206704 L82.3575065,14.0756983 C82.3575065,15.4180423 81.3663082,16.5062703 80.1435115,16.5064246 L77.9290076,16.5064246 C76.7062108,16.5062703 75.7150127,15.4180423 75.7150127,14.0756983 L75.7150127,11.3206704 L75.7150127,11.3206704 Z M65.4180662,11.3206704 C65.4182067,9.97812697 66.4095915,8.88981904 67.63257,8.8896648 L69.8465649,8.8896648 C71.0695434,8.88981904 72.0609282,9.97812697 72.0610687,11.3206704 L72.0610687,14.0756983 C72.0609282,15.4181965 71.0695022,16.5064246 69.8465649,16.5064246 L67.63257,16.5064246 C66.4096327,16.5064246 65.4182067,15.4181965 65.4180662,14.0756983 L65.4180662,11.3206704 L65.4180662,11.3206704 Z M92.5961832,91.8857542 L7.19643766,91.8857542 L7.19643766,23.8086592 L92.5961832,23.8086592 L92.5961832,91.8857542 L92.5961832,91.8857542 Z M92.654453,14.0756983 C92.654453,15.4180423 91.6632548,16.5062703 90.440458,16.5064246 L88.2259542,16.5064246 C87.6386574,16.5065728 87.0753759,16.2505268 86.6600943,15.794645 C86.2448128,15.3387633 86.0115698,14.7204124 86.0117048,14.0756983 L86.0117048,11.3206704 C86.0117048,9.97817216 87.0030169,8.88981906 88.2259542,8.8896648 L90.440458,8.8896648 C91.0277342,8.8896648 91.5909496,9.14580568 92.0061688,9.60172373 C92.421388,10.0576418 92.6545879,10.675979 92.654453,11.3206704 L92.654453,14.0756983 L92.654453,14.0756983 Z" id="Shape"></path>
            <path d="M21.4211196,60.4145251 L37.473028,68.6089385 C38.4392896,69.1009279 39.5673698,69.0181595 40.4653944,68.3893855 C41.3650278,67.7621887 41.9091778,66.6727067 41.9071305,65.5027933 L41.9071305,65.4128492 C41.9071305,64.0854749 41.1984733,62.8664804 40.1015267,62.3072626 L30.0620865,57.1865922 L40.1015267,52.0653631 C41.2006854,51.5017962 41.904248,50.2917936 41.9071305,48.9600559 L41.9071305,48.8709497 C41.9071305,47.6949721 41.3679389,46.6153631 40.4653944,45.9843575 C39.9632679,45.633331 39.3800297,45.4476027 38.7847328,45.4491523 C38.3320611,45.4491523 37.878117,45.5583799 37.4717557,45.7656425 L21.4208651,53.9592179 C20.3224307,54.5234327 19.6195805,55.733233 19.6167938,57.0645251 L19.6167938,57.3094972 C19.6165394,58.6337989 20.324173,59.852514 21.4211196,60.4145251 L21.4211196,60.4145251 Z M42.0501272,77.1050279 C42.6385791,77.986391 43.5737854,78.5080056 44.5692112,78.5100649 L44.6496183,78.5100649 C46.0064566,78.5134713 47.2085904,77.5505214 47.6195929,76.1310056 L58.1933842,40.1642458 C58.4962368,39.1220583 58.3288934,37.9838413 57.7427481,37.099162 C57.1542976,36.2176494 56.2189449,35.6960058 55.2234097,35.694123 L55.143257,35.694123 C53.7859895,35.6903623 52.5832086,36.6531401 52.1715013,38.072905 L41.5966921,74.0424581 C41.2960865,75.0844251 41.4643945,76.2212031 42.0501272,77.1050279 L42.0501272,77.1050279 Z M57.8854889,48.9597765 C57.8854889,50.2851955 58.5936387,51.5041899 59.6908397,52.0667598 L69.7302799,57.1865922 L59.6908397,62.3067039 C58.5917831,62.8705025 57.8883532,64.0805562 57.8854889,65.4122905 L57.8854889,65.5022346 C57.8831864,66.6725096 58.4276095,67.7623647 59.3277354,68.3893855 C59.8289618,68.7405718 60.4112345,68.9268159 61.0058524,68.9268159 C61.4620865,68.9268159 61.9035623,68.8198324 62.321374,68.6078212 L78.3722646,60.4136872 C79.4681934,59.852514 80.1763359,58.6337989 80.1763359,57.3089385 L80.1763359,57.0639665 C80.1763359,55.7377095 79.4681934,54.5184358 78.3712468,53.9586592 L62.3203562,45.7650838 C61.9093384,45.5569148 61.4620682,45.449162 61.0094148,45.449162 C60.4101781,45.449162 59.8279898,45.6337989 59.3290076,45.9832402 C58.4282479,46.6098071 57.8834906,47.700052 57.8862595,48.8706704 L57.8862595,48.9594972 L57.8854889,48.9594972 L57.8854889,48.9597765 L57.8854889,48.9597765 Z" id="Shape"></path>
        </g>
    </g>
</svg>