<?xml version="1.0" encoding="UTF-8"?>
<svg viewBox="0 0 128 128" version="1.1" xmlns="http://www.w3.org/2000/svg" xmlns:xlink="http://www.w3.org/1999/xlink">
    <!-- Generator: Sketch 57.1 (83088) - https://sketch.com -->
    <title>gear</title>
    <desc>Created with Sketch.</desc>
    <g id="Page-1" stroke="none" stroke-width="1" fill="none" fill-rule="evenodd">
        <g id="gear" fill="#000000" fill-rule="nonzero">
            <path d="M124.988281,49.4257813 L115.15039,47.2871095 C114.294922,44.6679688 113.235352,42.1132813 111.984375,39.6523438 L117.430664,31.180664 C118.40332,29.6669923 118.189453,27.6796875 116.917969,26.408203 L101.591797,11.0820313 C100.320312,9.810547 98.3330078,9.59667975 96.819336,10.569336 L88.3476563,16.015625 C85.8867188,14.7646485 83.3320313,13.705078 80.7128905,12.8496095 L78.5742188,3.01171875 C78.1923827,1.25390625 76.6357423,0 74.836914,0 L53.163086,0 C51.3642578,0 49.8076173,1.25390625 49.4257813,3.01171875 L47.2871095,12.8496095 C44.6679688,13.705078 42.1132813,14.7646485 39.6523438,16.015625 L31.180664,10.569336 C29.6669923,9.59667975 27.6796875,9.810547 26.408203,11.0820313 L11.0820313,26.408203 C9.810547,27.6796875 9.59667975,29.6669923 10.569336,31.180664 L16.015625,39.6523438 C14.7646485,42.1132813 13.705078,44.6679688 12.8496095,47.2871095 L3.01171875,49.4257813 C1.25390625,49.8085938 0,51.3642578 0,53.163086 L0,74.836914 C0,76.6357423 1.25390625,78.1914063 3.01171875,78.5742188 L12.8496095,80.7128905 C13.705078,83.3320313 14.7646485,85.8867188 16.015625,88.3476563 L10.569336,96.819336 C9.59667975,98.3330078 9.810547,100.320313 11.0820313,101.591797 L26.408203,116.917969 C27.6796875,118.189453 29.6669923,118.40332 31.180664,117.430664 L39.6523438,111.984375 C42.1132813,113.235351 44.6679688,114.294922 47.2871095,115.150391 L49.4257813,124.988281 C49.8076173,126.746094 51.3642578,128 53.163086,128 L74.836914,128 C76.6357423,128 78.1923828,126.746094 78.5742188,124.988281 L80.7128905,115.150391 C83.3320313,114.294922 85.8867188,113.235352 88.3476563,111.984375 L96.819336,117.430664 C98.3330078,118.40332 100.320313,118.19043 101.591797,116.917969 L116.917969,101.591797 C118.189453,100.320313 118.40332,98.3330078 117.430664,96.819336 L111.984375,88.3476563 C113.235351,85.8867188 114.294922,83.3320313 115.15039,80.7128905 L124.988281,78.5742188 C126.746094,78.1914063 128,76.6357423 128,74.836914 L128,53.163086 C128,51.3642578 126.746094,49.8085938 124.988281,49.4257813 Z M86.9482423,64 C86.9482423,76.6533203 76.6533203,86.9482423 64,86.9482423 C51.3466797,86.9482423 41.0517577,76.6533203 41.0517577,64 C41.0517577,51.3466797 51.3466797,41.0517577 64,41.0517577 C76.6533203,41.0517577 86.9482423,51.3466797 86.9482423,64 Z" id="Shape"></path>
        </g>
    </g>
</svg>