<svg viewBox="0 0 128 128" xmlns="http://www.w3.org/2000/svg">
  <path d="M124.988 49.426l-9.838-2.139a53.54 53.54 0 00-3.166-7.635l5.447-8.471a3.826 3.826 0 00-.513-4.773l-15.326-15.326a3.826 3.826 0 00-4.773-.513l-8.471 5.447a53.54 53.54 0 00-7.635-3.166l-2.139-9.838A3.825 3.825 0 0074.837 0H53.163a3.825 3.825 0 00-3.737 3.012l-2.139 9.838a53.54 53.54 0 00-7.635 3.166l-8.471-5.447a3.826 3.826 0 00-4.773.513L11.082 26.408a3.826 3.826 0 00-.513 4.773l5.447 8.471a53.54 53.54 0 00-3.166 7.635l-9.838 2.139A3.825 3.825 0 000 53.163v21.674a3.825 3.825 0 003.012 3.737l9.838 2.139a53.54 53.54 0 003.166 7.635l-5.447 8.471a3.826 3.826 0 00.513 4.773l15.326 15.326a3.826 3.826 0 004.773.513l8.471-5.447a53.54 53.54 0 007.635 3.166l2.139 9.838A3.825 3.825 0 0053.163 128h21.674a3.825 3.825 0 003.737-3.012l2.139-9.838a53.54 53.54 0 007.635-3.166l8.471 5.447a3.824 3.824 0 004.773-.513l15.326-15.326a3.826 3.826 0 00.513-4.773l-5.447-8.471a53.54 53.54 0 003.166-7.635l9.838-2.139A3.825 3.825 0 00128 74.837V53.163a3.825 3.825 0 00-3.012-3.737zM86.948 64c0 12.653-10.295 22.948-22.948 22.948S41.052 76.653 41.052 64 51.347 41.052 64 41.052 86.948 51.347 86.948 64z" fill="#000" fill-rule="nonzero"/>
</svg>
