<svg xmlns="http://www.w3.org/2000/svg" viewBox="0 0 205.725 205.725">
  <path d="M192.305 84.932L108.121 2.153a7.5 7.5 0 0 0-10.518 0L13.42 84.932a7.5 7.5 0 0 0 5.258 12.847h7.413v100.446a7.5 7.5 0 0 0 7.5 7.5h138.541a7.5 7.5 0 0 0 7.5-7.5V97.78h7.413a7.5 7.5 0 0 0 5.26-12.848zm-63.383 72.309c-10.221 6.128-16.486 13.256-18.706 16.037a9.368 9.368 0 0 1-7.354 3.54 9.36 9.36 0 0 1-7.354-3.542c-2.218-2.778-8.484-9.905-18.705-16.035-12.583-7.544-18.963-17.212-18.963-28.735 0-14.065 9.324-29.015 26.605-29.015 8.016 0 14.138 2.676 18.417 5.891 4.279-3.214 10.401-5.891 18.417-5.891 17.28 0 26.604 14.949 26.604 29.015.001 11.524-6.379 21.192-18.961 28.735z"/>
</svg>
