<svg height="512pt" viewBox="0 0 512 512" width="512pt" xmlns="http://www.w3.org/2000/svg"><path d="m48 222h104v280h-104zm0 0" fill="#f5737f"/><path d="m152 334h104v168h-104zm0 0" fill="#cbe558"/><path d="m256 10h104v492h-104zm0 0" fill="#ffcb7c"/><path d="m360 118h104v384h-104zm0 0" fill="#91def5"/><path d="m502 492h-28v-374c0-5.523438-4.476562-10-10-10h-94v-98c0-5.523438-4.476562-10-10-10h-104c-5.523438 0-10 4.476562-10 10v314h-84v-102c0-5.523438-4.476562-10-10-10h-104c-5.523438 0-10 4.476562-10 10v100c0 5.523438 4.476562 10 10 10s10-4.476562 10-10v-90h84v260h-84v-90c0-5.523438-4.476562-10-10-10s-10 4.476562-10 10v90h-28c-5.523438 0-10 4.476562-10 10s4.476562 10 10 10h492c5.523438 0 10-4.476562 10-10s-4.476562-10-10-10zm-340-148h84v148h-84zm104-324h84v472h-84zm104 472v-364h84v364zm0 0"/><path d="m48 372c2.628906 0 5.210938-1.070312 7.070312-2.929688 1.859376-1.859374 2.929688-4.441406 2.929688-7.070312s-1.070312-5.210938-2.929688-7.070312c-1.859374-1.859376-4.441406-2.929688-7.070312-2.929688s-5.210938 1.070312-7.070312 2.929688c-1.859376 1.859374-2.929688 4.441406-2.929688 7.070312s1.070312 5.210938 2.929688 7.070312c1.859374 1.859376 4.441406 2.929688 7.070312 2.929688zm0 0"/></svg>