<svg xmlns="http://www.w3.org/2000/svg" width="512" height="512" viewBox="0 0 30.621 30.621">
  <path d="M0 28.741h30.621v-7.655C9.888 19.427 0 28.741 0 28.741z" data-original="#000000" class="active-path" data-old_color="#376dae" fill="#376dae"/>
  <path d="M23.109 15.828v-4.923c.945.138 1.676.791 1.676-1.467 0-2.481-1.963-7.558-1.963-7.558s-1.965 5.076-1.965 7.558c0 2.295.756 1.583 1.725 1.461v4.97a41.611 41.611 0 0 0-3.689.536v-6.08l.145.106a.598.598 0 0 0 .369.123.615.615 0 0 0 .369-1.106L18.32 8.356c.002-.02.008-.044.008-.065V7.27a.615.615 0 1 0-1.23 0v.172L15.68 6.379a.615.615 0 0 0-.736 0l-4.096 3.07a.614.614 0 1 0 .739.983l.143-.106v3.556C6.069 10.941 0 11.792 0 11.792v3.406s8.186-1.773 15.746 1.613a15.956 15.956 0 0 0-2.994-2.345V9.555l2.558-1.918 2.559 1.919v7.048C11.294 18.021 5.687 20.774 3 22.554c6.062-1.849 17.351-5.74 27.621-3.255v-3.251c-2.506-.397-5.039-.424-7.512-.22z" data-original="#000000" class="active-path" data-old_color="#376dae" fill="#376dae"/>
</svg>
