<svg xmlns="http://www.w3.org/2000/svg" viewBox="0 0 488.7 488.7" style="enable-background:new 0 0 488.7 488.7" xml:space="preserve">
  <path fill="#fff" d="M419.633 379.2c-6.2-9.4-18.7-11.5-28.1-5.2l-5.2 3.1-54.2-94.8c-4.2-6.2-10.4-10.4-17.7-10.4h-57.3v-43.7h37.5c11.5 0 20.8-9.4 20.8-20.8 0-11.5-9.4-20.8-20.8-20.8h-37.5v-26c0-11.5-9.4-20.8-20.8-20.8-11.3 0-20.6 9.2-20.8 20.4-83.8 7.4-150 78.2-150 163.9 0 90.6 74 164.6 164.6 164.6 54.7 0 104.4-26.6 134.9-68.9 11.5 10.5 21.3 5.4 24.4 3.3l25-15.6c9.3-6.4 11.4-18.9 5.2-28.3zm-189.6 69.8c-68.7 0-123.9-55.2-123.9-123.9 0-63.8 47.6-115.9 109.4-123.1v89.8c0 11.5 9.4 20.8 20.8 20.8h65.6l39.1 68c-21.3 41.4-63.8 68.4-111 68.4zM235.233 118.8c33.3 0 59.4-27.1 59.4-59.4s-26-59.4-59.4-59.4c-32.3 0-59.4 27.1-59.4 59.4.1 32.3 26.1 59.4 59.4 59.4zm0-79.2c10.4 0 19.8 8.3 18.7 18.7 0 10.4-8.3 18.7-18.7 18.7s-18.7-8.3-18.7-18.7c0-10.3 8.3-18.7 18.7-18.7z"/>
</svg>