<svg xmlns="http://www.w3.org/2000/svg" viewBox="0 0 512 512" style="enable-background:new 0 0 512 512" xml:space="preserve">
  <path d="m499.684 187.554-72.414-72.405-18.099 18.099c-1.664 1.664-3.849 2.5-6.033 2.5s-4.369-.836-6.033-2.5c-3.337-3.337-3.337-8.738 0-12.066l18.099-18.099-72.405-72.414c-3.336-3.328-8.738-3.328-12.066 0l-81.98 81.98V8.533A8.525 8.525 0 0 0 240.22 0h-102.4v25.6a8.53 8.53 0 0 1-8.533 8.533 8.536 8.536 0 0 1-8.533-8.533V0h-102.4A8.53 8.53 0 0 0 9.82 8.533v494.933a8.536 8.536 0 0 0 8.533 8.533h102.4v-25.6a8.53 8.53 0 0 1 8.533-8.533 8.525 8.525 0 0 1 8.533 8.533V512h102.4a8.53 8.53 0 0 0 8.533-8.533v-52.924L499.684 199.62c3.328-3.328 3.328-8.729 0-12.066zM137.82 437.035a8.53 8.53 0 0 1-8.533 8.533 8.536 8.536 0 0 1-8.533-8.533v-32.922a8.53 8.53 0 0 1 8.533-8.533 8.525 8.525 0 0 1 8.533 8.533v32.922zm0-82.287a8.525 8.525 0 0 1-8.533 8.533 8.53 8.53 0 0 1-8.533-8.533v-32.913a8.53 8.53 0 0 1 8.533-8.533 8.525 8.525 0 0 1 8.533 8.533v32.913zm0-82.296a8.525 8.525 0 0 1-8.533 8.533 8.53 8.53 0 0 1-8.533-8.533v-32.905a8.53 8.53 0 0 1 8.533-8.533 8.525 8.525 0 0 1 8.533 8.533v32.905zm0-82.278a8.525 8.525 0 0 1-8.533 8.533 8.53 8.53 0 0 1-8.533-8.533v-32.922a8.536 8.536 0 0 1 8.533-8.533 8.53 8.53 0 0 1 8.533 8.533v32.922zm0-82.287a8.525 8.525 0 0 1-8.533 8.533 8.53 8.53 0 0 1-8.533-8.533V74.974a8.53 8.53 0 0 1 8.533-8.533 8.525 8.525 0 0 1 8.533 8.533v32.913zM258.319 284.1l-12.066 12.066a8.51 8.51 0 0 1-6.033 2.5 8.522 8.522 0 0 1-6.033-2.5c-3.328-3.337-3.328-8.738 0-12.066l12.066-12.066c3.336-3.337 8.738-3.337 12.066 0 3.336 3.328 3.336 8.73 0 12.066zm58.027-58.026-23.211 23.211a8.51 8.51 0 0 1-6.033 2.5 8.538 8.538 0 0 1-6.033-2.5 8.55 8.55 0 0 1 0-12.075l23.211-23.202c3.337-3.337 8.738-3.337 12.066 0 3.336 3.327 3.336 8.729 0 12.066zm58.018-58.019-23.211 23.211c-1.664 1.664-3.849 2.5-6.033 2.5s-4.361-.836-6.033-2.5c-3.328-3.337-3.328-8.738 0-12.066l23.211-23.211a8.523 8.523 0 0 1 12.066 0 8.525 8.525 0 0 1 0 12.066z"/>
</svg>