<svg width="86" height="85" xmlns="http://www.w3.org/2000/svg">
  <path d="M68.477 39h.043c1.234 3.497 4.56 6.008 8.479 6.008a9 9 0 0 0 9-9 8.96 8.96 0 0 0-.66-3.368L76.481 6H77c1.65 0 3-1.35 3-3s-1.35-3-3-3H9C7.35 0 6 1.35 6 3s1.35 3 3 3h.519L.654 32.653A8.942 8.942 0 0 0 0 36.008a9 9 0 0 0 9 9 8.955 8.955 0 0 0 7-3.366v14.366h-5.5c-.825 0-1.5.674-1.5 1.5v10c0 .824.675 1.5 1.5 1.5s1.5-.676 1.5-1.5v-8.5h5.5c.825 0 1.5-.676 1.5-1.5V41.623a8.969 8.969 0 0 0 5 3.156v35.229H9.757a2 2 0 1 0 0 4H30V44.065A9.044 9.044 0 0 0 34.475 39h.052A8.999 8.999 0 0 0 41 44.775v39.232h4V44.775A9.001 9.001 0 0 0 51.473 39h.052A9.04 9.04 0 0 0 56 44.065v39.942h19.789a2 2 0 1 0 0-4H62V44.779A9.006 9.006 0 0 0 68.477 39zM6.955 33l9.043-27h54.004l9.043 27H6.955z" fill="#FFF" fill-rule="nonzero"/>
</svg>
