<svg height="512pt" viewBox="-39 0 512 512" width="512pt" xmlns="http://www.w3.org/2000/svg"><path d="M333.336 0H218c-55.14 0-100 44.86-100 100v58.79C51.352 168.507 0 226.03 0 295.335c0 11.043 8.953 20 20 20h236c11.047 0 20-8.957 20-20 0-69.305-51.352-126.828-118-136.547V100c0-33.086 26.914-60 60-60h115.332c33.086 0 60 26.914 60 60v392c0 11.047 8.953 20 20 20s20-8.953 20-20V100c.004-55.14-44.86-100-99.996-100zm-99.387 275.332H42.051c9.258-44.48 48.761-78 95.949-78s86.691 33.52 95.95 78zM158 364.168v30c0 11.047-8.953 20-20 20s-20-8.953-20-20v-30c0-11.047 8.953-20 20-20s20 8.953 20 20zM157.762 462v30c0 11.047-8.953 20-20 20-11.043 0-20-8.953-20-20v-30c0-11.047 8.957-20 20-20 11.047 0 20 8.953 20 20zm-78.309-97.832v30c0 11.047-8.957 20-20 20-11.047 0-20-8.953-20-20v-30c0-11.047 8.953-20 20-20 11.043 0 20 8.953 20 20zM79.215 462v30c0 11.047-8.953 20-20 20s-20-8.953-20-20v-30c0-11.047 8.953-20 20-20s20 8.953 20 20zm157.097-97.832v30c0 11.047-8.957 20-20 20-11.046 0-20-8.953-20-20v-30c0-11.047 8.954-20 20-20 11.043 0 20 8.953 20 20zM236.075 462v30c0 11.047-8.957 20-20 20-11.047 0-20-8.953-20-20v-30c0-11.047 8.953-20 20-20 11.043 0 20 8.953 20 20zm0 0"/></svg>