<svg xmlns="http://www.w3.org/2000/svg" viewBox="0 0 460 460" style="enable-background:new 0 0 460 460" xml:space="preserve">
  <path d="M400.573 0H59.427c-20.987 0-38 17.013-38 38v384c0 20.987 17.013 38 38 38h341.146c20.987 0 38-17.013 38-38V38c0-20.987-17.013-38-38-38zM144.5 395.85c0 5.789-4.693 10.483-10.483 10.483H80.983c-5.79 0-10.483-4.694-10.483-10.483v-53.034c0-5.79 4.693-10.483 10.483-10.483h53.034c5.79 0 10.483 4.693 10.483 10.483v53.034zm0-117.333c0 5.79-4.693 10.483-10.483 10.483H80.983c-5.79 0-10.483-4.693-10.483-10.483v-53.033c0-5.79 4.693-10.483 10.483-10.483h53.034c5.79 0 10.483 4.693 10.483 10.483v53.033zM267 395.85c0 5.789-4.694 10.483-10.483 10.483h-53.034c-5.79 0-10.483-4.694-10.483-10.483v-53.034c0-5.79 4.693-10.483 10.483-10.483h53.034c5.79 0 10.483 4.693 10.483 10.483v53.034zm0-117.333c0 5.79-4.693 10.483-10.483 10.483h-53.034c-5.79 0-10.483-4.693-10.483-10.483v-53.033c0-5.79 4.693-10.483 10.483-10.483h53.034c5.79 0 10.483 4.693 10.483 10.483v53.033zM389.5 395.85c0 5.789-4.693 10.483-10.483 10.483h-53.034c-5.79 0-10.483-4.694-10.483-10.483v-53.034c0-5.79 4.694-10.483 10.483-10.483h53.034c5.79 0 10.483 4.693 10.483 10.483v53.034zm0-117.333c0 5.79-4.693 10.483-10.483 10.483h-53.034c-5.79 0-10.483-4.693-10.483-10.483v-53.033c0-5.79 4.694-10.483 10.483-10.483h53.034c5.79 0 10.483 4.693 10.483 10.483v53.033zm0-127c0 5.79-4.693 10.483-10.483 10.483H80.983c-5.79 0-10.483-4.693-10.483-10.483V56.483C70.5 50.693 75.193 46 80.983 46h298.034c5.79 0 10.483 4.693 10.483 10.483v95.034z"/>
</svg>
