<svg height="596" viewBox="0 -19 447.001 447" width="596" xmlns="http://www.w3.org/2000/svg">
  <path d="M399.5 171.29h-14.652L256.012 50.75a34.994 34.994 0 0 0 3.488-15.273C259.488 15.87 243.582-.012 223.977 0 204.37.012 188.488 15.918 188.5 35.523a34.746 34.746 0 0 0 3.488 15.22L63.152 171.288H48.5c-26.469 0-48.5 21.785-48.5 48.25v141c0 26.469 22.031 47.75 48.5 47.75h351a47.414 47.414 0 0 0 47.5-47.75v-141c0-26.465-21.031-48.25-47.5-48.25zM224 16.04c10.77 0 19.5 8.73 19.5 19.5 0 10.769-8.73 19.5-19.5 19.5s-19.5-8.731-19.5-19.5c.012-10.767 8.734-19.49 19.5-19.5zm-21.969 47.23c12.84 10.289 31.11 10.277 43.938-.032L361.44 171.29H86.56zM431 360.29c0 17.67-14.328 32-32 32H48c-17.672 0-32-14.33-32-32v-141c0-17.673 14.328-32 32-32h351c17.672 0 32 14.327 32 32zm0 0"/>
  <path d="M229.355 198.645a7.999 7.999 0 0 0-10.48-.008L133.34 272.71a7.649 7.649 0 0 0-2.262 8.61 7.793 7.793 0 0 0 7.5 4.968H150v86.395a8.134 8.134 0 0 0 7.883 8.199l130.617 1.406h.074a8.722 8.722 0 0 0 8.426-8.398v-87.602h12.426a7.75 7.75 0 0 0 7.496-4.977 7.76 7.76 0 0 0-2.254-8.714zm-5.253 16.16l63.906 55.484H160.035zM238 365.422l-27-.25v-31.883h27zm43 .398l-27-.25v-39.98a8.354 8.354 0 0 0-8.102-8.3h-43.097c-4.418 0-7.801 3.882-7.801 8.3v39.43l-29-.266v-78.465h115zm0 0"/>
</svg>
