<svg xmlns="http://www.w3.org/2000/svg" viewBox="0 0 389.998 389.998" width="512" height="512">
  <path d="M374.998 54.999c-8.284 0-15 6.716-15 15v45h-30v-15.03a15 15 0 0 0-.102-1.738c-.429-11.359-5.055-21.977-13.136-30.06-8.492-8.494-19.784-13.172-31.795-13.172-11.511 0-22.021 4.353-29.982 11.493-8.261-7.427-18.825-11.493-30.018-11.493-11.511 0-22.02 4.353-29.981 11.492-8.26-7.426-18.825-11.492-30.017-11.492-11.511 0-22.02 4.353-29.982 11.493-8.261-7.427-18.825-11.493-30.018-11.493-24.794 0-44.965 20.173-44.965 44.97v15.03H15c-8.284 0-15 6.716-15 15 0 8.284 6.716 15 15 15h45.001L60 290.03c0 .583.035 1.164.103 1.738.429 11.359 5.055 21.977 13.136 30.059 8.492 8.494 19.784 13.172 31.795 13.172 11.511 0 22.021-4.352 29.982-11.492 8.26 7.427 18.825 11.492 30.018 11.492 11.51 0 22.02-4.352 29.981-11.491 8.26 7.426 18.825 11.491 30.017 11.491 11.511 0 22.02-4.352 29.982-11.492 8.26 7.427 18.825 11.492 30.018 11.492 24.794 0 44.965-20.173 44.965-44.969l.001-145.031h45.001c8.284 0 15-6.716 15-15v-60c-.001-8.284-6.717-15-15.001-15z" data-original="#000000" class="active-path" data-old_color="#ffffff" fill="#fff"/>
</svg>
