<svg xmlns="http://www.w3.org/2000/svg" height="512" viewBox="0 -105 512.001 512" width="512">
  <path d="M192.766 301.484c-5.188 0-10.227-2.691-13.004-7.5l-18.5-32.043c-4.145-7.175-1.688-16.351 5.488-20.492s16.348-1.683 20.488 5.492l18.5 32.043c4.145 7.172 1.688 16.348-5.488 20.489a14.938 14.938 0 0 1-7.484 2.011zm0 0M265.266 301.484c-5.188 0-10.227-2.691-13.004-7.5l-18.5-32.043c-4.145-7.175-1.688-16.351 5.488-20.492s16.348-1.683 20.488 5.492l18.5 32.043c4.145 7.172 1.688 16.348-5.488 20.489a14.938 14.938 0 0 1-7.484 2.011zm0 0M337.766 301.484c-5.188 0-10.227-2.691-13.004-7.5l-18.5-32.043c-4.145-7.175-1.688-16.351 5.488-20.492s16.348-1.683 20.488 5.492l18.5 32.043c4.145 7.172 1.688 16.348-5.488 20.489a14.938 14.938 0 0 1-7.484 2.011zm0 0M102.969 182.742l-4.852 32.746h315.766l-4.852-32.746zm0 0" data-original="#000000" class="active-path" data-old_color="#ffffff" fill="#fff"/>
  <path d="M468.863 0H43.137C19.352 0 0 19.352 0 43.133v129.219c0 23.785 19.352 43.136 43.137 43.136h24.656l.316-2.144.844-5.688 2.695-18.21 3.54-23.903a15.002 15.002 0 0 1 14.84-12.8h331.949a14.998 14.998 0 0 1 14.835 12.8l3.54 23.902 2.699 18.211.84 5.688.32 2.144h24.656c23.781 0 43.133-19.351 43.133-43.136V43.132C512 19.353 492.648 0 468.863 0zm-57.152 127.992c-8.902 0-16.149-7.246-16.149-16.148s7.247-16.149 16.149-16.149c8.902 0 16.148 7.246 16.148 16.149s-7.246 16.148-16.148 16.148zm0-42c-8.902 0-16.149-7.246-16.149-16.148s7.247-16.149 16.149-16.149c8.902 0 16.148 7.246 16.148 16.149s-7.246 16.148-16.148 16.148zm0 0" data-original="#000000" class="active-path" data-old_color="#ffffff" fill="#fff"/>
</svg>
