<svg xmlns="http://www.w3.org/2000/svg" viewBox="0 0 278.419 278.419">
  <path d="M234.916 26.102h-34.802v-8.701c0-5.22-3.48-8.701-8.701-8.701s-8.701 3.48-8.701 8.701v8.701H95.707v-8.701c0-5.22-3.48-8.701-8.701-8.701-5.22 0-8.701 3.48-8.701 8.701v8.701H43.503C19.141 26.102 0 45.243 0 69.605v156.611c0 24.362 19.141 43.503 43.503 43.503h191.413c24.362 0 43.503-19.141 43.503-43.503V69.605c0-24.362-19.141-43.503-43.503-43.503zM17.401 69.605c0-13.921 12.181-26.102 26.102-26.102h34.802v8.701c0 5.22 3.48 8.701 8.701 8.701 5.22 0 8.701-3.48 8.701-8.701v-8.701h87.006v8.701c0 5.22 3.48 8.701 8.701 8.701s8.701-3.48 8.701-8.701v-8.701h34.802c13.921 0 26.102 12.181 26.102 26.102v26.102H17.401V69.605zm243.617 156.611c0 13.921-12.181 26.102-26.102 26.102H43.503c-13.921 0-26.102-12.181-26.102-26.102V113.108h243.617v113.108z"/>
  <path d="M60.904 226.216c5.22 0 8.701-1.74 12.181-5.22 3.48-3.48 5.22-8.701 5.22-12.181s-1.74-8.701-5.22-12.181c-6.96-6.96-17.401-6.96-24.362 0-3.48 3.48-5.22 6.96-5.22 12.181 0 3.48 1.74 8.701 5.22 12.181s6.961 5.22 12.181 5.22zM60.904 174.012c5.22 0 8.701-1.74 12.181-5.22s5.22-8.701 5.22-12.181-1.74-8.701-5.22-12.181c-6.96-6.96-17.401-6.96-24.362 0-3.48 3.48-5.22 6.96-5.22 12.181 0 5.221 1.74 8.701 5.22 12.181s6.961 5.22 12.181 5.22zM113.108 226.216c5.22 0 8.701-1.74 12.181-5.22 3.48-3.48 5.22-8.701 5.22-12.181s-1.74-8.701-5.22-12.181c-6.96-6.96-17.401-6.96-24.362 0-3.48 3.48-5.22 8.701-5.22 12.181s1.74 8.701 5.22 12.181c3.48 3.48 6.961 5.22 12.181 5.22zM113.108 174.012c5.22 0 8.701-1.74 12.181-5.22 3.48-3.48 5.22-8.701 5.22-12.181s-1.74-8.701-5.22-12.181c-6.96-6.96-17.401-6.96-24.362 0-3.48 3.48-5.22 8.701-5.22 12.181s1.74 8.701 5.22 12.181c3.48 3.48 6.961 5.22 12.181 5.22zM165.311 226.216c5.22 0 8.701-1.74 12.181-5.22 3.48-3.48 5.22-6.96 5.22-12.181 0-5.221-1.74-8.701-5.22-12.181-6.96-6.96-17.401-6.96-24.362 0-3.48 3.48-5.22 8.701-5.22 12.181s1.74 8.701 5.22 12.181 6.961 5.22 12.181 5.22zM165.311 174.012c5.22 0 8.701-1.74 12.181-5.22s5.22-6.96 5.22-12.181c0-3.48-1.74-8.701-5.22-12.181-6.96-6.96-17.401-6.96-24.362 0-3.48 3.48-5.22 8.701-5.22 12.181s1.74 8.701 5.22 12.181 6.961 5.22 12.181 5.22zM217.515 226.216c5.22 0 8.701-1.74 12.181-5.22 3.48-3.48 5.22-8.701 5.22-12.181s-1.74-8.701-5.22-12.181c-6.96-6.96-17.401-6.96-24.362 0-3.48 3.48-5.22 6.96-5.22 12.181 0 3.48 1.74 8.701 5.22 12.181 3.48 3.48 6.961 5.22 12.181 5.22zM217.515 174.012c5.22 0 8.701-1.74 12.181-5.22s5.22-6.96 5.22-12.181c0-3.48-1.74-8.701-5.22-12.181-6.96-6.96-17.401-6.96-24.362 0-3.48 3.48-5.22 8.701-5.22 12.181s1.74 8.701 5.22 12.181c3.48 3.48 6.961 5.22 12.181 5.22z"/>
</svg>
