<svg xmlns="http://www.w3.org/2000/svg" height="512" viewBox="-40 0 480 480" width="512">
  <path d="M24 480h352c13.602 0 24-10.398 24-24V48c0-13.602-10.398-24-24-24h-96c0-13.602-10.398-24-24-24H144c-13.602 0-24 10.398-24 24H24C10.398 24 0 34.398 0 48v408c0 13.602 10.398 24 24 24zM136 24c0-4.8 3.2-8 8-8h112c4.8 0 8 3.2 8 8v40c0 4.8-3.2 8-8 8H144c-4.8 0-8-3.2-8-8zM16 48c0-4.8 3.2-8 8-8h96v24c0 13.602 10.398 24 24 24h112c10.398 0 19.2-6.398 22.398-16H352v304h-56v56H48V72h56V56H32v392h275.2l60.8-60.8V56h-88V40h96c4.8 0 8 3.2 8 8v408c0 4.8-3.2 8-8 8H24c-4.8 0-8-3.2-8-8zm324.8 344L312 420.8V392zm0 0" data-original="#000000" class="active-path" data-old_color="#000000" fill="#FFF"/>
  <path d="M168 40h64v16h-64zm0 0M72 264h256V136H72zm16-112h224v96H88zm0 0M144 104h112v16H144zm0 0M72 280h56v16H72zm0 0M144 280h184v16H144zm0 0M72 312h104v16H72zm0 0M192 312h136v16H192zm0 0M72 344h152v16H72zm0 0M240 344h88v16h-88zm0 0M72 376h200v16H72zm0 0" data-original="#000000" class="active-path" data-old_color="#000000" fill="#FFF"/>
</svg>
