<svg width="512" height="512" viewBox="-97 0 512 512" xmlns="http://www.w3.org/2000/svg">
  <path fill="currentColor" d="m68.822 394.263 21.259-49.604 51.65 51.65-16.93 34.695a31.985 31.985 0 0 1-6.418 8.877l-63.912 62.324c-12.504 12.193-32.56 12.023-44.961-.275-12.627-12.523-12.708-33.027-.073-45.543l52.492-51.994a32 32 0 0 0 6.893-10.13Zm25.076-180.83 26.489-10.52-18.105 82.627a16 16 0 0 0 3.489 13.846l.28.326L159.363 360l-.167.517.224-.46 32.816 44.244a31.978 31.978 0 0 1 5.28 11.056l18.488 71.534c4.45 17.218 22.205 27.473 39.384 22.87 16.869-4.52 27.116-21.762 22.878-38.705l-21.323-85.252a31.985 31.985 0 0 0-6.018-12.179l-54.38-68.24 16.859-65.748 9.711 25.748a32 32 0 0 0 10.579 14.186l33.912 25.773c14.026 10.66 34.04 7.965 44.762-6.013 10.783-14.057 8.104-34.213-5.99-44.947l-25.107-19.123a31.996 31.996 0 0 1-10.208-13.292l-21.681-52.748a29.167 29.167 0 0 0-14.053-15.086l.034-.135s-25.696-17.436-44.5-22.5c-19.553-5.265-50.639-1.941-54.17-1.538a31.864 31.864 0 0 0-11.834 2.238l-72.866 28.762a10.006 10.006 0 0 0-4.327 3.299l-33.134 44.146c-10.593 14.114-7.735 34.159 6.357 44.782 14.112 10.639 34.204 7.844 44.842-6.268l21.296-28.249a16.015 16.015 0 0 1 6.871-5.239ZM199.363 112c30.928 0 56-25.072 56-56s-25.072-56-56-56-56 25.072-56 56 25.072 56 56 56Z"/>
</svg>
