<?xml version="1.0" encoding="UTF-8"?>
<svg width="340px" height="530px" viewBox="0 0 340 530" version="1.1" xmlns="http://www.w3.org/2000/svg" xmlns:xlink="http://www.w3.org/1999/xlink">
    <title>elevator 2</title>
    <defs>
        <filter x="-3.7%" y="-2.3%" width="107.5%" height="104.7%" filterUnits="objectBoundingBox" id="filter-1">
            <feOffset dx="0" dy="2" in="SourceAlpha" result="shadowOffsetOuter1"></feOffset>
            <feGaussianBlur stdDeviation="2" in="shadowOffsetOuter1" result="shadowBlurOuter1"></feGaussianBlur>
            <feColorMatrix values="0 0 0 0 0   0 0 0 0 0   0 0 0 0 0  0 0 0 0.5 0" type="matrix" in="shadowBlurOuter1" result="shadowMatrixOuter1"></feColorMatrix>
            <feMerge>
                <feMergeNode in="shadowMatrixOuter1"></feMergeNode>
                <feMergeNode in="SourceGraphic"></feMergeNode>
            </feMerge>
        </filter>
    </defs>
    <g id="Page-1" stroke="none" stroke-width="1" fill="none" fill-rule="evenodd">
        <g id="elevator-2" transform="translate(9.000000, 9.000000)" fill="#FFFFFF" fill-rule="nonzero">
            <g id="elevator" filter="url(#filter-1)">
                <path d="M245.475,210.697 L168.595,77.534 C166.934,74.658 163.866,72.885 160.543,72.885 C157.221,72.885 154.152,74.658 152.491,77.534 L75.608,210.697 C73.947,213.573 73.947,217.119 75.608,219.995 C77.269,222.871 80.339,224.644 83.66,224.644 L237.424,224.644 C240.746,224.644 243.815,222.871 245.476,219.995 C247.137,217.119 247.137,213.573 245.475,210.697 Z M99.764,206.048 L160.543,100.778 L221.32,206.048 L99.764,206.048 Z" id="Shape"></path>
                <path d="M245.477,292.005 C243.816,289.129 240.748,287.356 237.425,287.356 L83.66,287.356 C80.338,287.356 77.269,289.129 75.608,292.005 C73.947,294.881 73.947,298.427 75.608,301.303 L95.407,335.596 C97.976,340.044 103.663,341.568 108.108,338.999 C112.555,336.432 114.078,330.745 111.511,326.298 L99.764,305.952 L221.32,305.952 L160.543,411.222 L129.887,358.125 C127.321,353.678 121.631,352.155 117.186,354.722 C112.739,357.289 111.216,362.976 113.783,367.423 L152.49,434.467 C154.151,437.343 157.219,439.116 160.542,439.116 C163.864,439.116 166.933,437.343 168.594,434.467 L245.476,301.304 C247.138,298.427 247.138,294.881 245.477,292.005 Z" id="Path"></path>
                <path d="M311.788,0 L92.359,0 C87.223,0 83.061,4.163 83.061,9.298 C83.061,14.433 87.223,18.596 92.359,18.596 L302.49,18.596 L302.49,418.402 C302.49,423.537 306.652,427.7 311.788,427.7 C316.924,427.7 321.086,423.537 321.086,418.402 L321.086,9.298 C321.086,4.163 316.924,0 311.788,0 Z" id="Path"></path>
                <path d="M311.788,441.337 C306.652,441.337 302.49,445.5 302.49,450.635 L302.49,493.405 L18.596,493.405 L18.596,18.596 L52.688,18.596 C57.824,18.596 61.986,14.433 61.986,9.298 C61.986,4.163 57.824,0 52.688,0 L9.298,0 C4.162,0 -2.84217094e-14,4.163 -2.84217094e-14,9.298 L-2.84217094e-14,502.702 C-2.84217094e-14,507.837 4.162,512 9.298,512 L311.787,512 C316.923,512 321.085,507.837 321.085,502.702 L321.085,450.634 C321.085,445.5 316.924,441.337 311.788,441.337 Z" id="Path"></path>
            </g>
        </g>
    </g>
</svg>