<svg width="56" height="56" style="enable-background:new 0 0 56 56" xml:space="preserve" xmlns="http://www.w3.org/2000/svg">
  <path d="M53 30.1c0-.4-.3-.8-.7-.9-.2-.1-5-1.5-8 .8l-.9.9v-2.2c1.5-1.2 6.4-5.4 6.4-10.7 0-6.1-6.5-10.8-6.8-11-.3-.2-.8-.2-1.2 0-.3.2-6.8 4.9-6.8 11 0 5.3 4.9 9.5 6.4 10.7v2.9c-.3-.4-.7-.8-1.1-1.1-3.1-2.2-7.8-.6-8-.6-.4.1-.7.5-.7.9 0 .2 0 5.2 3.1 7.4 1.3.9 2.8 1.2 4.2 1.2 1 0 1.8-.1 2.5-.3v2.2c0 3.3-2.7 6-6 6H17.3c-3.3 0-6-2.7-6-6V27.1c3.6-.5 6.4-3.6 6.4-7.3v-6.4c0-.6-.4-1-1-1h-2.2V8.7c0-.6-.4-1-1-1s-1 .4-1 1v3.8H8V8.7c0-.6-.4-1-1-1s-1 .4-1 1v3.8H4c-.6 0-1 .4-1 1v6.4c0 3.7 2.8 6.8 6.4 7.3v14.2c0 4.4 3.6 8 8 8h18.1c4.4 0 8-3.6 8-8v-2.6c.6.1 1.4.2 2.2.2 1.5 0 3.1-.3 4.5-1.3 2.9-2.4 2.8-7.4 2.8-7.6zM5 19.9v-5.4h10.7v5.4c0 3-2.4 5.4-5.4 5.4S5 22.8 5 19.9zm32-2c0-4.1 3.9-7.7 5.4-8.9 1.5 1.2 5.4 4.8 5.4 8.9 0 3.4-2.6 6.4-4.4 8.1v-8.1c0-.6-.4-1-1-1s-1 .4-1 1V26c-1.8-1.7-4.4-4.7-4.4-8.1zm-1.2 18.7c-1.7-1.2-2.1-3.8-2.3-5 1.2-.3 3.8-.7 5.5.5 1.7 1.2 2.1 3.8 2.3 5-1.4.4-3.9.6-5.5-.5zm13.1-.6c-1.6 1.2-4.2.9-5.5.7.1-1.3.5-3.8 2.1-5.1 1.6-1.2 4.2-.9 5.5-.7-.1 1.3-.5 3.9-2.1 5.1z"/>
</svg>
