<svg xmlns="http://www.w3.org/2000/svg" viewBox="0 0 512.04 512.04" style="enable-background:new 0 0 512.04 512.04" xml:space="preserve">
  <path d="M508.933 248.353 402.267 141.687c-4.267-4.053-10.987-3.947-15.04.213a10.763 10.763 0 0 0 0 14.827l88.427 88.427H36.4l88.427-88.427c4.053-4.267 3.947-10.987-.213-15.04a10.763 10.763 0 0 0-14.827 0L3.12 248.353a10.623 10.623 0 0 0 0 15.04L109.787 370.06c4.267 4.053 10.987 3.947 15.04-.213a10.763 10.763 0 0 0 0-14.827L36.4 266.593h439.147L387.12 355.02c-4.267 4.053-4.373 10.88-.213 15.04 4.053 4.267 10.88 4.373 15.04.213l.213-.213 106.667-106.667c4.266-4.053 4.266-10.88.106-15.04z"/>
</svg>
