<svg xmlns="http://www.w3.org/2000/svg" width="512" height="512">
  <path d="M475.348 482H444.81V235.074h-45V482h-30V235.074H141V482h-30V235.074H66V482H36.652c-8.284 0-15 6.716-15 15 0 8.284 6.716 15 15 15h438.695c8.284 0 15-6.716 15-15 .001-8.284-6.715-15-14.999-15zM280.146 289.177c0-8.284 6.716-15 15-15 8.284 0 15 6.716 15 15v10c0 8.284-6.716 15-15 15-8.284 0-15-6.716-15-15v-10zm22.691 146.237c-5.611-8.781-12.436-19.462-17.127-34.996a222.113 222.113 0 0 0-6.922 13.244 15 15 0 0 1-12.62 8.493 14.992 14.992 0 0 1-13.554-6.904c-7.339-11.504-17.213-26.981-22.853-51.352a331.63 331.63 0 0 0-4.544 7.751c-16.816 29.617-25.705 56.214-25.705 76.915 0 18.436 14.999 33.435 33.435 33.435h-53.868a62.994 62.994 0 0 1-9.567-33.435c0-26.371 10.049-57.381 29.868-92.168 14.38-25.241 28.649-43.054 29.249-43.801a15 15 0 1 1 26.685 9.405c0 24.4 4.288 41.246 9.86 54.182 9.488-15.42 17.781-25.785 18.285-26.411a15 15 0 0 1 26.685 9.404c0 31.961 9.136 46.258 17.971 60.085 7.065 11.058 14.372 22.491 14.372 39.593 0 8.295-1.92 16.146-5.326 23.146h-47.82c12.763 0 23.146-10.384 23.146-23.146.001-7.964-3.308-13.515-9.65-23.44zM66 151.063h378.809v54.012H66zM36.652 121.063h438.695c8.284 0 15-6.716 15-15 0-8.284-6.716-15-15-15H399.81V45c0-24.813-20.187-45-45-45s-45 20.186-45 45v46.063H201.124V15.002a15 15 0 0 0-25.607-10.606L88.96 91.063H36.652c-8.284 0-15 6.716-15 15 0 8.284 6.716 15 15 15z" data-original="#000000" class="active-path" data-old_color="#ffffff" fill="#fff"/>
</svg>
