<svg xmlns="http://www.w3.org/2000/svg" viewBox="0 0 476.164 476.164" width="512" height="512">
  <path d="M78.736 249.209h64.7c-12.79-25.061-34.581-57.28-71.556-91.496-7.211-6.673-16.897-10.5-26.577-10.5-10.177 0-20.15 3.945-29.643 11.727-29.601 24.263-9.415 54.24-2.523 62.851 9.107 11.378 18.639 27.408 27.039 46.482 8.893-11.58 22.866-19.064 38.56-19.064zM460.503 158.94c-9.493-7.781-19.466-11.727-29.643-11.727-9.679 0-19.366 3.827-26.577 10.5-36.976 34.216-58.766 66.435-71.555 91.496h64.7c15.689 0 29.659 7.48 38.551 19.054 8.402-19.072 17.938-35.094 27.046-46.473 6.893-8.61 27.079-38.588-2.522-62.85zM426.034 362.146v-64.33c0-15.773-12.832-28.606-28.605-28.606H78.736c-15.773 0-28.605 12.833-28.605 28.606v64.33c0 15.773 12.832 28.605 28.605 28.605h318.692c15.774 0 28.606-12.832 28.606-28.605zM361.503 410.751l4.719 37.36h24.067l4.719-37.36zM81.156 410.751l4.719 37.36h24.068l4.719-37.36zM310.398 249.209c13.707-29.733 37.827-66.87 80.301-106.176a59.507 59.507 0 0 1 20.426-12.393C384.207 70.678 316.8 28.053 238.082 28.053S91.945 70.673 65.026 130.636a59.52 59.52 0 0 1 20.438 12.397c42.474 39.305 66.594 76.441 80.301 106.176h144.633z" data-original="#000000" class="active-path" data-old_color="#ffffff" fill="#fff"/>
</svg>
