<svg xmlns="http://www.w3.org/2000/svg" viewBox="0 0 250.988 250.988" width="512" height="512">
  <path d="M201.345 135.041c-.983 0-1.992.141-2.998.418l-5.693 1.567-7.285-17.744c-3.352-8.166-13.261-14.811-22.088-14.811H87.589c-8.827 0-18.736 6.645-22.088 14.811l-7.272 17.715-5.586-1.538a11.324 11.324 0 0 0-2.999-.418c-5.385 0-9.294 4.113-9.294 9.781v.209c0 5.849 4.209 10.727 9.755 11.781-3.029 7.639-5.464 20.12-5.464 28.155v36.854c0 6.616 5.384 12 12 12h6.914c6.616 0 12-5.384 12-12v-7.693h99.762v7.693c0 6.616 5.384 12 12 12h6.914c6.616 0 12-5.384 12-12v-36.854c0-8.03-2.432-20.5-5.458-28.138 5.601-1.012 9.866-5.912 9.866-11.799v-.209c0-5.666-3.909-9.78-9.294-9.78zM65.944 149.317l11.57-28.188c2.005-4.885 7.966-8.881 13.245-8.881h69.352c5.279 0 11.24 3.996 13.245 8.881l11.572 28.188c2.005 4.885-.675 8.881-5.954 8.881H71.898c-5.279 0-7.959-3.997-5.954-8.881zm29.005 42.321c0 2.64-2.16 4.8-4.8 4.8h-23.05c-2.64 0-4.8-2.16-4.8-4.8v-9.809c0-2.64 2.16-4.8 4.8-4.8H90.15c2.64 0 4.8 2.16 4.8 4.8v9.809zm93.383 0c0 2.64-2.16 4.8-4.8 4.8h-23.051c-2.64 0-4.8-2.16-4.8-4.8v-9.809c0-2.64 2.16-4.8 4.8-4.8h23.051c2.64 0 4.8 2.16 4.8 4.8v9.809z" data-original="#000000" class="active-path" data-old_color="#000000" fill="#FFF"/>
  <path d="M228.488 13.264H22.5c-12.406 0-22.5 10.093-22.5 22.5v189.459c0 6.903 5.597 12.5 12.5 12.5s12.5-5.597 12.5-12.5V92.82h200.988v132.404c0 6.903 5.597 12.5 12.5 12.5s12.5-5.597 12.5-12.5V35.764c0-12.406-10.093-22.5-22.5-22.5zM25 64.083h200.988v4.369H25v-4.369zm0-10v-3.507h200.988v3.507H25zm0 28.737v-4.368h200.988v4.368H25z" data-original="#000000" class="active-path" data-old_color="#000000" fill="#FFF"/>
</svg>
