<svg xmlns="http://www.w3.org/2000/svg" height="512" viewBox="0 0 64 64" width="512">
  <path d="M54 2a2 2 0 0 0-2 2v13.232A8.97 8.97 0 0 1 54 17c.685 0 1.353.088 2 .238V4a2 2 0 0 0-2-2zM60.299 6a1.7 1.7 0 0 0-1.641 1.253L56 17l.589.392a9.019 9.019 0 0 1 2.516 1.223L61.94 8.22c.04-.146.06-.297.06-.448v-.071A1.7 1.7 0 0 0 60.299 6zM47.701 6A1.7 1.7 0 0 0 46 7.701v.071c0 .151.02.302.06.448l2.831 10.38a8.973 8.973 0 0 1 2.74-1.273L52 17l-2.658-9.747A1.7 1.7 0 0 0 47.701 6zM54 25h6.92c-.488-3.387-3.401-6-6.92-6-3.859 0-7 3.14-7 7 0 1.276.095 2.565.28 3.833l4.272 29.053C51.73 60.091 52.782 61 54 61s2.27-.909 2.447-2.114L57.019 55H54v-2h3.313l.294-2H54v-2h3.901l.294-2H54v-2h4.489l.294-2H54v-2h5.078l.294-2H54v-2h5.666l.294-2H54v-2h6.254l.294-2H54v-2h6.811c.076-.666.127-1.332.152-2H54zM23 44h-2c0-4.625-3.506-8.446-8-8.945V52c0 4.962 4.037 9 9 9s9-4.038 9-9V35.055c-4.494.499-8 4.32-8 8.945zm4 0h2v2h-2zm0 4h2v4a6.992 6.992 0 0 1-3.133 5.833l-1.107-1.666A4.997 4.997 0 0 0 27 52z" data-original="#000000" class="active-path" data-old_color="#000000" fill="#FFF"/>
  <path d="M33 10c-.702 0-1.382.089-2.038.241C30.575 5.626 26.714 2 22 2s-8.575 3.626-8.962 8.241A9.007 9.007 0 0 0 11 10a9 9 0 0 0-9 9 8.965 8.965 0 0 0 2.786 6.5A8.965 8.965 0 0 0 2 32a9 9 0 0 0 9 9v-8.179l2.221.247A10.98 10.98 0 0 1 22 39.406a10.98 10.98 0 0 1 8.779-6.338L33 32.821V41a9 9 0 0 0 9-9 8.965 8.965 0 0 0-2.786-6.5A8.965 8.965 0 0 0 42 19a9 9 0 0 0-9-9zM7 17h2v2H7zm4 13H9v-2h2zm6-6h-2v-2h2zm2-7h-2v-2h2zm4 13h-2v-2h2zm0-19V9h2v2zm4 11h-2v-2h2zm4 6h-2v-2h2zm2-10h2v2h-2zm4 15h-2v-2h2z" data-original="#000000" class="active-path" data-old_color="#000000" fill="#FFF"/>
</svg>
