<svg xmlns="http://www.w3.org/2000/svg" viewBox="0 0 437.364 437.364">
  <path d="M437.364 64.611c0-15.22-12.383-27.603-27.603-27.603h-19.74a7.5 7.5 0 0 0-7.5 7.5v45.878h-21.05V56.685c0-10.848-8.825-19.673-19.673-19.673s-19.673 8.825-19.673 19.673v33.702h-21.053V56.685c0-10.848-8.825-19.673-19.673-19.673-10.849 0-19.674 8.825-19.674 19.673v33.702h-21.052V56.685c0-10.848-8.825-19.673-19.673-19.673-10.849 0-19.674 8.825-19.674 19.673v33.702h-21.052V56.685c0-10.848-8.825-19.673-19.673-19.673-10.849 0-19.674 8.825-19.674 19.673v33.702h-22.835V44.508a7.5 7.5 0 0 0-7.5-7.5H55.119c-15.228 0-27.615 12.382-27.615 27.603v21.094H7.5a7.5 7.5 0 0 0-7.5 7.5v58.058a7.5 7.5 0 0 0 7.5 7.5h20.004v185.899c0 15.22 12.388 27.603 27.615 27.603h2.634c3.077 15.98 17.16 28.092 34.025 28.092 19.109 0 34.656-15.546 34.656-34.656 0-8.588-3.147-16.45-8.339-22.511v-24.303h22.835v33.704c0 10.848 8.825 19.673 19.674 19.673 10.848 0 19.673-8.826 19.673-19.673v-33.704h21.052v33.704c0 10.848 8.825 19.673 19.674 19.673 10.848 0 19.673-8.826 19.673-19.673v-33.704h21.052v33.704c0 10.848 8.825 19.673 19.674 19.673 10.848 0 19.673-8.826 19.673-19.673v-33.704h21.053v33.704c0 10.848 8.825 19.673 19.673 19.673s19.673-8.826 19.673-19.673v-33.704h21.05v17.08c-10.101 6.063-16.877 17.12-16.877 29.734 0 19.109 15.547 34.656 34.656 34.656s34.656-15.546 34.656-34.656c0-2.724-.326-5.372-.923-7.916a27.342 27.342 0 0 0 3.33-13.123V64.611zM14.998 143.762v-43.058h12.504v43.058H14.998zm43.164 213.502h-3.045c-6.956 0-12.615-5.653-12.615-12.603V64.611c0-6.949 5.659-12.603 12.615-12.603h47.976v280.944a34.493 34.493 0 0 0-11.317-1.907c-16.201-.001-29.836 11.174-33.614 26.219zm33.613 28.092c-10.839 0-19.656-8.817-19.656-19.656s8.817-19.656 19.656-19.656 19.656 8.817 19.656 19.656-8.817 19.656-19.656 19.656zm28.104-81.47v-198.5h21.049v198.5h-21.049zm45.395 48.704a4.679 4.679 0 0 1-4.673 4.673 4.68 4.68 0 0 1-4.674-4.673V56.685a4.679 4.679 0 0 1 4.674-4.673 4.68 4.68 0 0 1 4.673 4.673V352.59zm15-48.704v-198.5h21.052v198.5h-21.052zm45.399 48.704a4.679 4.679 0 0 1-4.673 4.673 4.68 4.68 0 0 1-4.674-4.673V56.685A4.679 4.679 0 0 1 221 52.012a4.68 4.68 0 0 1 4.673 4.673V352.59zm15-48.704v-198.5h21.052v198.5h-21.052zm45.398 48.704a4.679 4.679 0 0 1-4.673 4.673 4.68 4.68 0 0 1-4.674-4.673V56.685a4.679 4.679 0 0 1 4.674-4.673 4.68 4.68 0 0 1 4.673 4.673V352.59zm15-48.704v-198.5h21.053v198.5h-21.053zm45.399 48.704c0 2.577-2.097 4.673-4.673 4.673s-4.673-2.097-4.673-4.673V56.685c0-2.577 2.097-4.673 4.673-4.673s4.673 2.097 4.673 4.673V352.59zm36.048-48.704H361.47v-198.5h21.048v198.5zm15.001-251.878h12.24c6.949 0 12.603 5.653 12.603 12.603v274.385c-5.998-4.964-13.688-7.951-22.063-7.951-.937 0-1.861.048-2.779.121V52.008zm2.779 333.348c-10.839 0-19.656-8.817-19.656-19.656s8.817-19.656 19.656-19.656 19.656 8.817 19.656 19.656-8.817 19.656-19.656 19.656z"/>
</svg>