<svg xmlns="http://www.w3.org/2000/svg" width="493.971" height="493.971" style="enable-background:new 0 0 493.971 493.971" xml:space="preserve">
  <path d="M260.878 14.696 248.239 4.165l-.063.061-.049-.037-11.923 10.275L55.691 169.188v1.087L0 218.354l24.366 28.232 31.319-27.048v270.267h390.37V215.721l24.192 19.948 23.724-28.777L260.878 14.696zM408.777 452.51H324.43c7.131-7.88 12.282-16.544 15.168-26.037 7.588-24.905 2.99-57.396-20.52-91.483-6.863-9.956-13.227-17.537-20.149-24.369-12.665-12.471-23.602-23.248-23.577-50.747l.012-1.833-1.011 1.522c-12.641 19.022-9.158 42.277-6.101 62.785 3.55 23.729 6.612 44.231-14.821 52.8a23.074 23.074 0 0 1-6.142.857c-8.789-.006-16.51-5.455-20.657-14.57-4.481-9.883-14.397-47.496 46.296-116.863 37.053-44.957 31.006-78.222 27.432-97.762-7.897 46.847-72.753 103.217-72.753 103.217-30.945 34.69-62.953 70.568-73.277 111.706-7.49 36.413-2.195 66.03 15.731 88.019.792.969 1.739 1.827 2.582 2.759H93V187.352L248.611 53.037l160.178 133.459V452.51h-.012z"/>
</svg>