<svg xmlns="http://www.w3.org/2000/svg" viewBox="0 0 491.52 491.52" style="enable-background:new 0 0 491.52 491.52" xml:space="preserve">
  <path fill="#FFFFFF" d="M460.798 40.96h-102.4c-11.305 0-20.48 9.155-20.48 20.48v81.92h-20.48V40.96h20.48c11.305 0 20.48-9.155 20.48-20.48S349.223 0 337.918 0h-40.96c-.123 0-.246.061-.369.061-1.659.041-3.236.553-4.833.983-.983.266-2.048.287-2.97.696-.922.389-1.679 1.167-2.54 1.72-1.393.881-2.847 1.659-3.994 2.847-.082.102-.205.123-.307.225l-266.24 286.72c-7.68 8.294-7.209 21.258 1.065 28.938a20.444 20.444 0 0 0 13.947 5.489 20.458 20.458 0 0 0 15.012-6.554l5.468-5.878v32.911c-11.305 0-20.48 9.155-20.48 20.48v102.4c0 11.325 9.175 20.48 20.48 20.48h409.6c11.305 0 20.48-9.155 20.48-20.48V61.44c.001-11.325-9.174-20.48-20.479-20.48zm-307.2 204.8c-11.305 0-20.48 9.155-20.48 20.48v81.92h-40.96v-77.025l61.44-66.171v40.796zm122.88-102.4h-20.48c-11.305 0-20.48 9.155-20.48 20.48v81.92h-40.96v-81.92c0-.881-.389-1.618-.492-2.458l82.412-88.74v70.718z"/>
</svg>