<svg xmlns="http://www.w3.org/2000/svg" viewBox="0 0 60 60" style="enable-background:new 0 0 60 60" xml:space="preserve">
  <path d="M13 2h8a1 1 0 1 0 0-2h-8a1 1 0 1 0 0 2zM30 2h18a1 1 0 1 0 0-2H30a1 1 0 1 0 0 2zM7 50h46V19H7v31zm6-29a1 1 0 0 1 1 1h32a1 1 0 1 1 2 0c0 1.103-.897 2-2 2H14c-1.103 0-2-.897-2-2a1 1 0 0 1 1-1zm-2 9.138A4.142 4.142 0 0 1 15.138 26h29.724A4.142 4.142 0 0 1 49 30.138v13.725A4.142 4.142 0 0 1 44.862 48H15.138A4.142 4.142 0 0 1 11 43.862V30.138z"/>
  <path d="M15.138 46h29.724A2.14 2.14 0 0 0 47 43.862V30.138a2.134 2.134 0 0 0-1.861-2.11c.483.07.861.469.861.972a1 1 0 0 1-2 0c0-.536.424-.965.954-.991-.031-.001-.061-.009-.092-.009H39a1 1 0 1 1 0 2 1 1 0 0 1 0-2h-6a1 1 0 1 1 0 2 1 1 0 0 1 0-2h-6a1 1 0 1 1 0 2 1 1 0 0 1 0-2h-6a1 1 0 1 1 0 2 1 1 0 0 1 0-2h-5.862c-.032 0-.061.008-.092.009A.995.995 0 0 1 15 30a1 1 0 0 1-1-1c0-.503.378-.902.861-.972A2.134 2.134 0 0 0 13 30.138v13.725A2.14 2.14 0 0 0 15.138 46zM45 34a1 1 0 1 1 0 2 1 1 0 0 1 0-2zm0 6a1 1 0 1 1 0 2 1 1 0 0 1 0-2zm-3-9a1 1 0 1 1 0 2 1 1 0 0 1 0-2zm0 6a1 1 0 1 1 0 2 1 1 0 0 1 0-2zm0 6a1 1 0 1 1 0 2 1 1 0 0 1 0-2zm-3-9a1 1 0 1 1 0 2 1 1 0 0 1 0-2zm0 6a1 1 0 1 1 0 2 1 1 0 0 1 0-2zm-3-9a1 1 0 1 1 0 2 1 1 0 0 1 0-2zm0 6a1 1 0 1 1 0 2 1 1 0 0 1 0-2zm0 6a1 1 0 1 1 0 2 1 1 0 0 1 0-2zm-3-9a1 1 0 1 1 0 2 1 1 0 0 1 0-2zm0 6a1 1 0 1 1 0 2 1 1 0 0 1 0-2zm-3-9a1 1 0 1 1 0 2 1 1 0 0 1 0-2zm0 6a1 1 0 1 1 0 2 1 1 0 0 1 0-2zm0 6a1 1 0 1 1 0 2 1 1 0 0 1 0-2zm-3-9a1 1 0 1 1 0 2 1 1 0 0 1 0-2zm0 6a1 1 0 1 1 0 2 1 1 0 0 1 0-2zm-3-9a1 1 0 1 1 0 2 1 1 0 0 1 0-2zm0 6a1 1 0 1 1 0 2 1 1 0 0 1 0-2zm0 6a1 1 0 1 1 0 2 1 1 0 0 1 0-2zm-3-9a1 1 0 1 1 0 2 1 1 0 0 1 0-2zm0 6a1 1 0 1 1 0 2 1 1 0 0 1 0-2zm-3-9a1 1 0 1 1 0 2 1 1 0 0 1 0-2zm0 6a1 1 0 1 1 0 2 1 1 0 0 1 0-2zm0 6a1 1 0 1 1 0 2 1 1 0 0 1 0-2zm-3-9a1 1 0 1 1 0 2 1 1 0 0 1 0-2zm0 6a1 1 0 1 1 0 2 1 1 0 0 1 0-2zM49.33 3H10.67A3.674 3.674 0 0 0 7 6.67V17h46V6.67A3.674 3.674 0 0 0 49.33 3zM15 15c-2.206 0-4-1.794-4-4s1.794-4 4-4 4 1.794 4 4-1.794 4-4 4zm10 0c-2.206 0-4-1.794-4-4s1.794-4 4-4 4 1.794 4 4-1.794 4-4 4zm10 0c-2.206 0-4-1.794-4-4s1.794-4 4-4 4 1.794 4 4-1.794 4-4 4zm10 0c-2.206 0-4-1.794-4-4s1.794-4 4-4 4 1.794 4 4-1.794 4-4 4zM7 56.33A3.674 3.674 0 0 0 10.67 60h38.66A3.674 3.674 0 0 0 53 56.33V52H7v4.33z"/>
</svg>