<svg xmlns="http://www.w3.org/2000/svg" viewBox="0 0 416.833 416.833" width="512" height="512"><path d="M408.833 368.375V48.442c4.262-.177 7.666-3.678 7.666-7.983a8 8 0 0 0-8-8H8a8 8 0 0 0 0 16v319.925c-4.341.09-7.834 3.629-7.834 7.992a8 8 0 0 0 8 8h400.667a8 8 0 0 0 0-16.001zm-16-319.917v319.917H111.979v-95.917a8 8 0 0 0-8-8H48.354a8 8 0 0 0-8 8v95.917H24V48.458h368.833zM56.354 328.226a8.04 8.04 0 0 0 5.285-2.322 8.05 8.05 0 0 0 2.34-5.66c0-2.1-.85-4.16-2.34-5.65a8.044 8.044 0 0 0-5.285-2.321v-31.815h39.625v87.917H56.354v-40.149z" data-original="#000000" class="active-path" data-old_color="#ffffff" fill="#fff"/><path d="M368.583 264.459h-56.604a8 8 0 0 0-8 8v55.667a8 8 0 0 0 8 8h56.604a8 8 0 0 0 8-8v-55.667a8 8 0 0 0-8-8zm-8 55.666h-40.604v-39.667h40.604v39.667zM224.333 336.125h55.646a8 8 0 0 0 8-8v-55.667a8 8 0 0 0-8-8h-55.646a8 8 0 0 0-8 8v55.667a8 8 0 0 0 8 8zm8-55.666h39.646v39.667h-39.646v-39.667zM191.875 264.459h-55.646a8 8 0 0 0-8 8v55.667a8 8 0 0 0 8 8h55.646a8 8 0 0 0 8-8v-55.667a8 8 0 0 0-8-8zm-8 55.666h-39.646v-39.667h39.646v39.667zM224.333 240.125h144.896a8 8 0 0 0 8-8V80.792a8 8 0 0 0-8-8H224.333a8 8 0 0 0-8 8v151.333a8 8 0 0 0 8 8zm8-72.083h32.333v56.083h-32.333v-56.083zm80 0v56.083h-31.667v-56.083h31.667zm-31.666-16v-63.25h31.667v63.25h-31.667zm47.666 72.083v-56.083h32.896v56.083h-32.896zm32.896-72.083h-32.896v-63.25h32.896v63.25zm-96.562-63.25v63.25h-32.333v-63.25h32.333zM48.354 240.125H193.25a8 8 0 0 0 8-8V80.792a8 8 0 0 0-8-8H48.354a8 8 0 0 0-8 8v151.333a8 8 0 0 0 8 8zm8-72.083h32.333v56.083H56.354v-56.083zm80 0v56.083h-31.667v-56.083h31.667zm-31.666-16v-63.25h31.667v63.25h-31.667zm47.666 72.083v-56.083h32.896v56.083h-32.896zm32.896-72.083h-32.896v-63.25h32.896v63.25zm-96.562-63.25v63.25H56.354v-63.25h32.334z" data-original="#000000" class="active-path" data-old_color="#ffffff" fill="#fff"/></svg>