<svg xmlns="http://www.w3.org/2000/svg" width="23.14" height="23.139" style="enable-background:new 0 0 23.14 23.139" xml:space="preserve">
  <path fill="#FFFFFF" d="M20.021 12.567 13.18 4.786c-.885-1.181-2.334-1.181-3.22 0l-6.841 7.781c-.886 1.182-.403 2.146 1.073 2.146h.671v5.365a2.691 2.691 0 0 0 2.683 2.684h8.049a2.691 2.691 0 0 0 2.683-2.684v-5.365h.672c1.474.001 1.956-.964 1.071-2.146zm-7.086 8.199c0 .706-.578 1.283-1.284 1.283h-.162a1.287 1.287 0 0 1-1.284-1.283v-2.568c0-.705.578-1.283 1.284-1.283h.162c.706 0 1.284.578 1.284 1.283v2.568z"/>
  <circle fill="#FFFFFF" cx=".88" cy="6.539" r=".88"/>
  <circle fill="#FFFFFF" cx="2.64" cy="4.778" r=".88"/>
  <circle fill="#FFFFFF" cx="4.401" cy="3.017" r=".88"/>
  <circle fill="#FFFFFF" cx="6.162" cy="1.257" r=".88"/>
  <circle fill="#FFFFFF" cx="3.144" cy="8.299" r=".88"/>
  <circle fill="#FFFFFF" cx="4.904" cy="6.539" r=".88"/>
  <circle fill="#FFFFFF" cx="6.665" cy="4.778" r=".88"/>
  <circle fill="#FFFFFF" cx="8.426" cy="3.017" r=".88"/>
  <circle fill="#FFFFFF" cx="10.187" cy="1.257" r=".88"/>
  <circle fill="#FFFFFF" cx="22.26" cy="6.539" r=".88"/>
  <circle fill="#FFFFFF" cx="20.5" cy="4.778" r=".88"/>
  <circle fill="#FFFFFF" cx="18.738" cy="3.017" r=".88"/>
  <circle fill="#FFFFFF" cx="16.979" cy="1.257" r=".88"/>
  <circle fill="#FFFFFF" cx="19.996" cy="8.299" r=".88"/>
  <circle fill="#FFFFFF" cx="18.236" cy="6.539" r=".88"/>
  <circle fill="#FFFFFF" cx="16.475" cy="4.778" r=".88"/>
  <circle fill="#FFFFFF" cx="14.714" cy="3.017" r=".88"/>
  <circle fill="#FFFFFF" cx="12.953" cy="1.257" r=".88"/>
</svg>
