<svg xmlns="http://www.w3.org/2000/svg" width="637.76" height="550.32">
  <defs>
    <style>
      .a{fill:#fff}
    </style>
  </defs>
  <path class="a" d="M574.793 518.91H360.469v-65.232a164.677 164.677 0 0 0 31.381-5.031 163.966 163.966 0 0 0 29.126-10.662 165.891 165.891 0 0 0 26.276-15.7 166.974 166.974 0 0 0 22.832-20.146 166.555 166.555 0 0 0 18.793-24 165.175 165.175 0 0 0 14.16-27.252 164.022 164.022 0 0 0 8.932-29.91A165.71 165.71 0 0 0 515.078 289a165.675 165.675 0 0 0-3.109-31.975 164.09 164.09 0 0 0-8.932-29.91 165.18 165.18 0 0 0-14.16-27.25 166.555 166.555 0 0 0-18.793-24 167 167 0 0 0-22.832-20.146 165.7 165.7 0 0 0-26.276-15.7 164.264 164.264 0 0 0-29.126-10.664 164.6 164.6 0 0 0-31.381-5.031V51.256h214.324v467.652zm-230.44 0H130.029V51.256h214.324v72.842a164.971 164.971 0 0 0-32.208 4.3 164.149 164.149 0 0 0-29.948 10.213 165.7 165.7 0 0 0-27.062 15.5 166.782 166.782 0 0 0-23.548 20.166 166.653 166.653 0 0 0-19.407 24.2 165.126 165.126 0 0 0-14.638 27.6 164.039 164.039 0 0 0-9.243 30.381 165.644 165.644 0 0 0-3.22 32.533 165.644 165.644 0 0 0 3.22 32.533 164 164 0 0 0 9.243 30.383 165.265 165.265 0 0 0 14.638 27.6 166.522 166.522 0 0 0 19.407 24.2 166.782 166.782 0 0 0 23.548 20.166 165.67 165.67 0 0 0 27.062 15.5 163.856 163.856 0 0 0 29.948 10.215 165.208 165.208 0 0 0 32.208 4.3v65.006zm0-105.492a124.521 124.521 0 0 1-24.14-3.387 123.967 123.967 0 0 1-22.438-7.783 124.857 124.857 0 0 1-20.266-11.713 125.639 125.639 0 0 1-17.629-15.176 125.339 125.339 0 0 1-14.524-18.174 124.113 124.113 0 0 1-10.952-20.705 123.187 123.187 0 0 1-6.914-22.773 124.37 124.37 0 0 1-2.408-24.375 123.774 123.774 0 0 1 5.861-37.863 122.861 122.861 0 0 1 17.191-34.068l96.221 95.957zm16.115-.348v-83.645l61.279 61.113A123.93 123.93 0 0 1 392.6 405.96a123.422 123.422 0 0 1-32.131 7.109zm91.556-52.469l-91.556-91.307V164.862a124.357 124.357 0 0 1 23.313 4.1 124.1 124.1 0 0 1 21.615 8.217 124.947 124.947 0 0 1 19.481 11.9 125.721 125.721 0 0 1 16.914 15.15 123.549 123.549 0 0 1 33.289 84.436 123.767 123.767 0 0 1-5.862 37.863 122.806 122.806 0 0 1-17.2 34.068zm-399.166-32.08H0V221.865h52.858v106.656zm-42.717-35.842l16.286 22.322 16.281-22.322H10.142zm16.286-57.3l-16.286 22.326h32.566l-16.281-22.326zm317.926 17.84l-65.94-65.76a123.733 123.733 0 0 1 31.3-16.193 123.777 123.777 0 0 1 34.637-6.648v88.6z"/>
  <path class="a" d="M67.062 0v550.32h48.823V39.69h473.052v510.63h48.823V0z"/>
</svg>
