<svg xmlns="http://www.w3.org/2000/svg" height="512" width="512">
  <path d="M68 283.52v-40.88h91.02l40 40.88zm401.54 157.378L511.64 483l-28.28 28.285-483-483L28.64 0l67.524 67.52H452c33.086 0 60 26.917 60 60v256c0 26.984-17.906 49.859-42.46 57.378zM136.163 107.52l46.121 46.12H472v-26.12c0-11.028-8.973-20-20-20zM472 383.52v-170H242.164l30.121 30.12H333v39.88h-20.84l120 120H452c11.027 0 20-8.973 20-20zM60 403.64c-11.027 0-20-9.093-20-20.12v-170h88.453l-60-59.88H40v-26.12c0-.782.055-1.547.145-2.31L9.738 94.81C3.59 104.227 0 115.457 0 127.519v256c0 33.086 26.914 60 60 60h298.45l-40-39.878zm0 0" data-original="#000000" class="active-path" data-old_color="#ffffff" fill="#fff"/>
</svg>
