<svg xmlns="http://www.w3.org/2000/svg" height="512" viewBox="0 -78 512 512" width="512">
  <path d="M255.797 135.023c-23.817 0-48.106 13.372-73.992 40.797 25.886 27.426 50.175 40.797 73.992 40.797 23.832 0 48.223-13.367 74.312-40.797-26.09-27.43-50.48-40.797-74.312-40.797zm.195 70.29c-16.262 0-29.492-13.231-29.492-29.493 0-16.261 13.23-29.492 29.492-29.492s29.492 13.23 29.492 29.492-13.23 29.493-29.492 29.493zm0 0" data-original="#000000" class="active-path" data-old_color="#ffffff" fill="#fff"/>
  <path d="M493.672 4.168c-78.871 17.93-158.836 27.023-237.68 27.023-78.836 0-158.8-9.09-237.664-27.023L0 0v356.184l18.328-4.164c78.863-17.934 158.828-27.024 237.668-27.024s158.805 9.09 237.676 27.024L512 356.184V0zM112.328 190.824H89.051v22.13l-40.774-37.138 40.774-37.12v22.12h23.277zm249.363-5.187c-35.507 41.035-70.148 60.984-105.894 60.984-35.766 0-70.29-19.96-105.543-61.027l-8.387-9.774 8.387-9.773c35.254-41.067 69.777-61.027 105.543-61.027 35.746 0 70.387 19.945 105.894 60.984l8.497 9.816zm61.188 27.32v-22.133h-23.277v-30.008h23.277v-22.125l40.77 37.125zm0 0" data-original="#000000" class="active-path" data-old_color="#ffffff" fill="#fff"/>
</svg>
