<svg xmlns="http://www.w3.org/2000/svg" viewBox="0 0 478.769 478.769" style="enable-background:new 0 0 478.769 478.769" xml:space="preserve">
  <path fill="#fff" d="m454.7 254.246-14.86-14.86 14.863-14.863c6.342 2.33 13.734.967 18.826-4.125 6.987-6.987 6.987-18.314 0-25.301-6.987-6.987-18.314-6.987-25.301 0-5.089 5.089-6.453 12.475-4.129 18.815l-14.866 14.866-27.363-27.363 14.863-14.863c6.342 2.328 13.733.966 18.824-4.126 6.987-6.987 6.987-18.314 0-25.301-6.987-6.987-18.314-6.987-25.301 0-5.089 5.089-6.453 12.477-4.128 18.817l-14.865 14.865-27.363-27.361 14.864-14.864c6.341 2.328 13.731.964 18.822-4.126 6.987-6.987 6.987-18.314 0-25.301s-18.314-6.987-25.301 0c-5.09 5.09-6.453 12.478-4.127 18.819l-14.865 14.865-27.363-27.363 14.864-14.864c6.341 2.327 13.731.964 18.821-4.127 6.987-6.987 6.987-18.314 0-25.301-6.987-6.987-18.315-6.987-25.301 0-5.09 5.09-6.453 12.479-4.127 18.82l-14.864 14.864-27.363-27.363 14.865-14.865c6.341 2.326 13.729.963 18.819-4.127 6.987-6.987 6.987-18.315 0-25.301-6.987-6.987-18.315-6.987-25.301 0-5.091 5.091-6.454 12.481-4.126 18.822l-14.864 14.864-27.363-27.363 14.865-14.865c6.34 2.325 13.728.961 18.817-4.128 6.987-6.987 6.987-18.315 0-25.301-6.987-6.987-18.314-6.987-25.301 0-5.091 5.091-6.454 12.482-4.126 18.824l-14.863 14.863-14.859-14.859c2.331-6.343.968-13.736-4.124-18.829-6.987-6.987-18.314-6.987-25.301 0-6.987 6.987-6.987 18.315 0 25.301 5.088 5.088 12.473 6.452 18.813 4.13l14.864 14.864-27.365 27.363-14.859-14.859c2.33-6.343.968-13.735-4.124-18.827-6.987-6.987-18.315-6.987-25.301 0-6.987 6.987-6.987 18.314 0 25.301 5.088 5.088 12.474 6.452 18.814 4.129l14.863 14.863-27.363 27.363-14.859-14.859c2.329-6.342.967-13.734-4.125-18.826-6.987-6.987-18.315-6.987-25.301 0-6.987 6.987-6.987 18.314 0 25.301 5.089 5.089 12.476 6.453 18.816 4.128l14.863 14.863-27.363 27.363-14.86-14.86c2.328-6.342.965-13.733-4.126-18.824-6.987-6.987-18.314-6.987-25.301 0-6.987 6.987-6.987 18.314 0 25.301 5.089 5.089 12.477 6.453 18.818 4.128l14.862 14.862-27.363 27.363-14.86-14.86c2.328-6.341.965-13.732-4.126-18.822-6.987-6.987-18.314-6.987-25.301 0-6.987 6.987-6.987 18.314 0 25.301 5.09 5.09 12.478 6.453 18.819 4.127l14.861 14.861-27.363 27.363-14.861-14.861c2.327-6.341.963-13.73-4.127-18.821-6.987-6.987-18.314-6.987-25.301 0-6.987 6.987-6.987 18.314 0 25.301 5.09 5.09 12.479 6.453 18.821 4.127l14.861 14.861-14.858 14.858c-6.342-2.328-13.732-.965-18.823 4.126-6.987 6.987-6.987 18.314 0 25.301 6.987 6.987 18.314 6.987 25.301 0 5.089-5.089 6.453-12.477 4.128-18.818l14.86-14.86 27.363 27.363-14.858 14.858c-6.341-2.328-13.732-.964-18.822 4.126-6.987 6.987-6.987 18.314 0 25.301 6.987 6.987 18.314 6.987 25.301 0 5.09-5.09 6.453-12.478 4.127-18.819l14.859-14.859 27.363 27.363-14.859 14.859c-6.341-2.327-13.731-.964-18.821 4.127-6.987 6.987-6.987 18.314 0 25.301 6.987 6.987 18.315 6.987 25.301 0 5.09-5.09 6.453-12.479 4.127-18.82l14.859-14.859 27.362 27.362-14.859 14.86c-6.341-2.326-13.729-.962-18.818 4.127-6.987 6.987-6.987 18.314 0 25.301 6.987 6.987 18.315 6.987 25.301 0 5.091-5.091 6.454-12.481 4.126-18.823l14.858-14.858 27.363 27.363-14.86 14.86c-6.34-2.325-13.728-.961-18.817 4.128-6.987 6.987-6.987 18.315 0 25.301 6.987 6.987 18.314 6.987 25.301 0 5.091-5.091 6.454-12.482 4.125-18.824l14.858-14.858 27.363 27.363-14.86 14.86c-6.34-2.325-13.727-.961-18.816 4.128-6.987 6.987-6.987 18.315 0 25.301 6.987 6.987 18.314 6.987 25.301 0 5.092-5.092 6.454-12.484 4.125-18.826l14.857-14.857 14.863 14.863c-2.327 6.341-.963 13.73 4.127 18.821 6.987 6.987 18.315 6.987 25.301 0 6.987-6.987 6.987-18.315 0-25.301-5.09-5.09-12.479-6.453-18.82-4.127l-20.147-20.147-.018-.02-.02-.018-32.647-32.647 27.363-27.363 27.363 27.363-11.158 11.158a7.5 7.5 0 1 0 10.608 10.607l11.158-11.158 14.863 14.863c-2.326 6.341-.962 13.729 4.127 18.819 6.987 6.987 18.315 6.987 25.301 0 6.987-6.987 6.987-18.314 0-25.301-5.091-5.091-12.481-6.454-18.822-4.126l-14.862-14.862 27.363-27.363 14.863 14.863c-2.325 6.34-.962 13.728 4.128 18.818 6.987 6.987 18.314 6.987 25.301 0 6.987-6.987 6.987-18.314 0-25.301-5.091-5.091-12.482-6.454-18.824-4.126l-14.861-14.861 27.363-27.363 14.864 14.864c-2.324 6.34-.96 13.727 4.128 18.816 6.987 6.987 18.314 6.987 25.301 0s6.987-18.314 0-25.301c-5.092-5.092-12.483-6.454-18.825-4.125l-14.861-14.861 27.363-27.363 14.865 14.865c-2.323 6.34-.959 13.725 4.129 18.814 6.987 6.987 18.314 6.987 25.301 0 6.987-6.987 6.987-18.314 0-25.301-5.092-5.092-12.485-6.455-18.827-4.124l-14.86-14.86 27.363-27.363 14.865 14.865c-2.323 6.339-.958 13.724 4.13 18.813 6.987 6.987 18.314 6.987 25.301 0 6.987-6.987 6.987-18.314 0-25.301-5.096-5.093-12.489-6.455-18.832-4.124zm-74.045-52.83-27.363 27.363-27.363-27.363 27.363-27.363 27.363 27.363zm-130.667 0 27.363-27.363 27.363 27.363-27.363 27.363-27.363-27.363zm16.756 37.97-27.363 27.363-27.363-27.363 27.363-27.363 27.363 27.363zm-27.363-48.577-27.363-27.363 27.363-27.363 27.363 27.363-27.363 27.363zm-10.607 10.607-27.363 27.363-27.363-27.363 27.363-27.363 27.363 27.363zm-37.971 37.97L163.44 266.75l-27.363-27.363 27.363-27.363 27.363 27.362zm10.608 10.608 27.363 27.363-27.364 27.363-27.363-27.363 27.364-27.363zm37.97 37.97 27.363 27.363-27.363 27.363-27.363-27.363 27.363-27.363zm10.607-10.607 27.363-27.363 27.363 27.363-27.363 27.363-27.363-27.363zm37.971-37.971 27.363-27.363 27.363 27.363-27.363 27.363-27.363-27.363zm54.726-75.94-27.363 27.363-27.363-27.363 27.363-27.363 27.363 27.363zm-37.971-37.971-27.363 27.363-27.363-27.363 27.363-27.363 27.363 27.363zm-65.333-65.333 27.363 27.363-27.363 27.363-27.363-27.363 27.363-27.363zM201.41 98.113l27.363 27.363-27.363 27.363-27.363-27.363 27.363-27.363zm-37.97 37.97 27.363 27.363-27.363 27.363-27.363-27.363 27.363-27.363zm-37.97 37.97 27.363 27.363-27.363 27.363-27.363-27.363 27.363-27.363zm-65.334 65.333 27.363-27.363 27.363 27.363-27.363 27.363-27.363-27.363zm37.971 37.971 27.363-27.363 27.363 27.363-27.363 27.363-27.363-27.363zm37.971 37.971 27.363-27.363 27.363 27.363-27.364 27.362-27.362-27.362zm65.333 65.333-27.363-27.363 27.363-27.363 27.363 27.363-27.363 27.363zm75.94 0-27.363-27.363 27.363-27.363 27.363 27.363-27.363 27.363zm37.971-37.971-27.363-27.363 27.363-27.363 27.363 27.363-27.363 27.363zm37.97-37.97-27.363-27.363 27.363-27.363 27.363 27.363-27.363 27.363zm37.97-37.971-27.363-27.363 27.363-27.363 27.363 27.363-27.363 27.363z"/>
</svg>