<svg xmlns="http://www.w3.org/2000/svg" height="512" width="512">
  <path d="M497 482h-45v-33.141A105.937 105.937 0 0 1 436.5 450c-4.919 0-9.758-.346-14.5-1.001V482H181v-62h-30v62H15c-8.284 0-15 6.716-15 15s6.716 15 15 15h482c8.284 0 15-6.716 15-15s-6.716-15-15-15zM76 390h75V271h-30c-8.284 0-15-6.716-15-15s6.716-15 15-15h45c8.284 0 15 6.716 15 15v44h30c8.284 0 15 6.716 15 15s-6.716 15-15 15h-30v60h75c41.355 0 75-33.645 75-75v-60c0-36.219-25.809-66.524-60-73.493V165c0-57.897-47.103-105-105-105S61 107.103 61 165v16.826C26.252 188.81 0 219.567 0 256.34V314c0 41.907 34.093 76 76 76zM436.5 0C394.869 0 361 33.869 361 75.5v269c0 36.671 26.284 67.306 61 74.088V286c0-8.284 6.716-15 15-15s15 6.716 15 15v132.393c34.22-7.17 60-37.574 60-73.893v-269C512 33.869 478.131 0 436.5 0z" data-original="#000000" class="active-path" data-old_color="#000000" fill="#FFF"/>
</svg>
