<svg xmlns="http://www.w3.org/2000/svg" height="512" viewBox="0 0 511 511.999" width="512">
  <path d="M157.824 295.898C108.687 271.395 47.266 279.594 6.36 320.504c-7.812 7.808-7.812 20.473 0 28.281 7.809 7.809 20.473 7.813 28.282 0 35.578-35.578 93.46-35.578 129.039 0 .004 0 .004 0 .004.004 51.289 51.285 134.308 51.293 185.605-.004 35.574-35.578 93.465-35.578 129.04 0 7.812 7.813 20.476 7.813 28.284 0 7.809-7.808 7.809-20.473 0-28.281-20.496-20.496-46.14-32.774-72.804-36.852V98.66C433.809 44.258 389.55 0 335.145 0c-54.399 0-98.66 44.258-98.66 98.66 0 11.047 8.953 20 20 20 11.042 0 20-8.953 20-20 0-32.348 26.316-58.664 58.66-58.664 32.347 0 58.664 26.316 58.664 58.664v97.996H197.82V98.66C197.82 44.258 153.563 0 99.16 0S.5 44.258.5 98.66c0 11.047 8.953 20 20 20 11.043 0 19.996-8.953 19.996-20 0-32.348 26.317-58.664 58.664-58.664s58.664 26.316 58.664 58.664zm235.985-59.246v47c-26.664 4.078-52.309 16.356-72.805 36.852-34.063 34.062-87.652 35.285-123.184 5.351v-89.203zm112.804 208.594c7.809 7.813 7.809 20.473 0 28.281-7.812 7.813-20.472 7.813-28.285 0-35.574-35.574-93.465-35.574-129.039 0-51.297 51.301-134.32 51.29-185.605 0-35.579-35.574-93.465-35.574-129.043 0-7.809 7.813-20.473 7.813-28.282 0-7.808-7.808-7.812-20.472 0-28.28 51.172-51.173 134.434-51.173 185.606 0 35.664 35.663 93.383 35.66 129.043 0 51.168-51.173 134.433-51.173 185.605 0zm0 0" data-original="#000000" class="active-path" data-old_color="#ffffff" fill="#fff"/>
</svg>
