<svg xmlns="http://www.w3.org/2000/svg" width="512" height="512" viewBox="0 0 602.437 602.438">
  <path d="M359.512 351.527l-42.726-110.782c13.139-4.408 16.064-16.534 16.064-32.035 0 0-6.436 11.657-22.691 14.143l-4.494-11.676c-.717-1.846-2.744-3.194-4.495-3.117-1.989.019-3.758 1.224-4.446 3.079l-3.491 9.39c-4.876-2.993-5.929-8.08-5.929-12.412 0-7.65 1.195-16.371 22.711-16.371V153h11.446l11.39-86.062-13.264-13.99V0h-9.562v42.869l-4.38-4.619h-20.32l-3.987 4.312V0h-9.562v52.919l-12.938 14.019L270.227 153h11.112v25.704s-14.066 1.195-14.066 33.928c0 15.529 6.722 23.591 18.886 26.957l-39.723 109.309-93.216 71.852h295.997l-89.705-69.223zM295.845 61.755c7.478 0 13.549 6.062 13.549 13.55s-6.062 13.55-13.549 13.55c-7.487 0-13.55-6.062-13.55-13.55s6.072-13.55 13.55-13.55zm5.374 243.938l-40.679 30.305 35.2-94.746c2.295.191 4.666.315 7.21.315 1.577 0 2.84-.21 4.255-.306l37.849 97.088-43.835-32.656zM319.588 497.25h57.375v105.188h28.688V468.562h-229.5v133.875h143.438V497.25zm-28.687 57.375h-66.937V497.25h66.938v57.375z" data-original="#000000" class="active-path" data-old_color="#ffffff" fill="#fff"/>
</svg>
