<svg height="512pt" viewBox="0 -1 512 512" width="512pt" xmlns="http://www.w3.org/2000/svg">
  <path d="M512 214.965c0-18.645-12.242-35.035-34.469-46.149-14.215-7.109-31.89-11.66-50.84-13.214L256.13 0 0 233.66l26.945 29.535 23.285-21.242v208.895c0 33.066 26.903 59.972 59.97 59.972h141.929c24.402 0 47.656-4.91 65.48-13.82 5.438-2.719 10.27-5.754 14.48-9.062 4.208 3.308 9.044 6.343 14.481 9.062 17.825 8.91 41.078 13.82 65.48 13.82 24.4 0 47.657-4.91 65.481-13.82C499.758 485.883 512 469.496 512 450.848V217.965h-.113c.07-.992.113-1.992.113-3zm-39.98 0c0 .691-2.149 5.281-12.372 10.39-12.199 6.102-29.546 9.602-47.597 9.602s-35.399-3.5-47.602-9.602c-10.219-5.109-12.37-9.695-12.37-10.39 0-.692 2.151-5.281 12.37-10.39 12.203-6.102 29.551-9.598 47.602-9.598s35.398 3.496 47.597 9.597c10.223 5.11 12.372 9.7 12.372 10.39zM90.21 450.848V205.48L256.13 54.117l115.746 105.594c-9.191 2.27-17.742 5.324-25.305 9.105-22.226 11.114-34.468 27.504-34.468 46.149 0 1.008.043 2.004.113 3h-.113V323.62c-17.098-7.566-38.11-11.703-59.973-11.703-24.399 0-47.656 4.906-65.48 13.82-22.227 11.114-34.47 27.504-34.47 46.149 0 .336.012.668.024 1h-.023v77.96c0 7.04 1.746 13.758 5.117 19.989h-47.098c-11.023.004-19.988-8.965-19.988-19.988zm221.888-77.961c0 .61-2.235 4.996-12.118 9.77-12.14 5.859-29.582 9.222-47.851 9.222-18.05 0-35.399-3.5-47.602-9.602-10.218-5.109-12.367-9.695-12.367-10.39 0-.692 2.149-5.282 12.367-10.39 12.203-6.102 29.551-9.599 47.602-9.599 17.84 0 35.101 3.637 47.355 9.973 9.625 4.98 12.614 9.817 12.614 11.016zm-12.368 88.351c-12.203 6.102-29.55 9.598-47.601 9.598-18.05 0-35.399-3.496-47.602-9.598-10.218-5.11-12.367-9.699-12.367-10.39v-30.274c16.98 7.293 38.004 11.281 59.969 11.281 23.059 0 43.598-3.933 59.969-10.824v29.817c0 .691-2.149 5.28-12.368 10.39zm159.918 0c-12.199 6.102-29.546 9.598-47.597 9.598s-35.399-3.496-47.602-9.598c-10.219-5.11-12.37-9.699-12.37-10.39v-30.274c16.983 7.293 38.007 11.281 59.972 11.281 21.965 0 42.988-3.988 59.969-11.28v30.273c0 .691-2.149 5.28-12.372 10.39zm0-78.96c-12.199 6.1-29.546 9.597-47.597 9.597s-35.399-3.496-47.602-9.598c-10.219-5.109-12.37-9.699-12.37-10.39v-28.274c16.983 7.293 38.007 11.282 59.972 11.282 21.965 0 42.988-3.989 59.969-11.282v28.274c0 .691-2.149 5.281-12.372 10.39zm0-76.962c-12.199 6.102-29.546 9.598-47.597 9.598s-35.399-3.496-47.602-9.598c-10.219-5.109-12.37-9.699-12.37-10.39v-31.274c16.983 7.293 38.007 11.282 59.972 11.282 21.965 0 42.988-3.989 59.969-11.282v31.274c0 .691-2.149 5.281-12.372 10.39zm0 0"/>
</svg>
