<svg xmlns="http://www.w3.org/2000/svg" viewBox="0 0 512 512">
  <path d="M491.841 156.427c-19.471-45.946-51.936-85.013-92.786-112.637C358.217 16.166 308.893-.007 256 0c-35.254-.002-68.946 7.18-99.571 20.158-45.945 19.472-85.013 51.935-112.638 92.785C16.167 153.779-.007 203.104 0 256c-.002 35.255 7.181 68.948 20.159 99.573 19.471 45.946 51.937 85.013 92.786 112.637C153.783 495.834 203.107 512.007 256 512c35.253.002 68.946-7.18 99.571-20.158 45.945-19.471 85.013-51.935 112.638-92.785C495.834 358.22 512.007 308.894 512 256c.002-35.256-7.181-68.948-20.159-99.573zm-31.428 185.83c-16.851 39.781-45.045 73.723-80.476 97.676-35.443 23.953-78.02 37.926-123.936 37.933-30.619-.002-59.729-6.218-86.255-17.454-39.781-16.851-73.724-45.044-97.677-80.475C48.114 344.495 34.14 301.917 34.133 256c.002-30.62 6.219-59.731 17.454-86.257 16.851-39.781 45.045-73.723 80.476-97.676C167.506 48.113 210.084 34.14 256 34.133c30.619.002 59.729 6.218 86.255 17.454 39.781 16.85 73.724 45.044 97.677 80.475 23.953 35.443 37.927 78.02 37.934 123.939-.002 30.619-6.218 59.73-17.453 86.256z"/>
  <path d="M389.594 239.301H122.406c-9.222 0-16.699 7.477-16.699 16.699s7.477 16.699 16.699 16.699h267.189c9.222 0 16.699-7.477 16.699-16.699s-7.477-16.699-16.7-16.699zM302.156 136.301a50.202 50.202 0 0 0-18.132-22.026 49.973 49.973 0 0 0-13.13-6.311 50.144 50.144 0 0 0-14.891-2.255 50.034 50.034 0 0 0-19.506 3.943 50.202 50.202 0 0 0-22.026 18.132 49.958 49.958 0 0 0-6.311 13.13 50.144 50.144 0 0 0-2.256 14.891 50.034 50.034 0 0 0 3.943 19.506 50.208 50.208 0 0 0 18.132 22.026 49.958 49.958 0 0 0 13.13 6.311A50.144 50.144 0 0 0 256 205.903a50.034 50.034 0 0 0 19.506-3.943 50.202 50.202 0 0 0 22.026-18.132 49.973 49.973 0 0 0 6.311-13.13 50.144 50.144 0 0 0 2.255-14.891 50.008 50.008 0 0 0-3.942-19.506zm-30.763 25.998a16.826 16.826 0 0 1-6.069 7.362 16.549 16.549 0 0 1-9.325 2.842 16.577 16.577 0 0 1-6.495-1.306 16.83 16.83 0 0 1-7.362-6.068 16.58 16.58 0 0 1-2.094-4.353 16.686 16.686 0 0 1-.748-4.972 16.573 16.573 0 0 1 1.306-6.495 16.83 16.83 0 0 1 6.068-7.362 16.549 16.549 0 0 1 9.325-2.842c2.352.002 4.507.468 6.495 1.306a16.826 16.826 0 0 1 7.362 6.069 16.58 16.58 0 0 1 2.094 4.353c.483 1.557.747 3.206.748 4.972a16.536 16.536 0 0 1-1.305 6.494zM302.154 336.69a50.208 50.208 0 0 0-18.132-22.026 49.973 49.973 0 0 0-13.13-6.311 50.144 50.144 0 0 0-14.891-2.256 50.034 50.034 0 0 0-19.506 3.943 50.202 50.202 0 0 0-22.026 18.132 49.973 49.973 0 0 0-6.311 13.13 50.144 50.144 0 0 0-2.256 14.891 50.034 50.034 0 0 0 3.943 19.506 50.202 50.202 0 0 0 18.132 22.026 49.958 49.958 0 0 0 13.13 6.311 50.144 50.144 0 0 0 14.891 2.256 50.034 50.034 0 0 0 19.506-3.943 50.202 50.202 0 0 0 22.026-18.132 49.973 49.973 0 0 0 6.311-13.13 50.144 50.144 0 0 0 2.255-14.891 50.016 50.016 0 0 0-3.942-19.506zm-30.761 26.001a16.83 16.83 0 0 1-6.068 7.362 16.549 16.549 0 0 1-9.325 2.842 16.577 16.577 0 0 1-6.495-1.306 16.83 16.83 0 0 1-7.362-6.068 16.58 16.58 0 0 1-2.094-4.353 16.686 16.686 0 0 1-.748-4.972 16.573 16.573 0 0 1 1.306-6.495 16.826 16.826 0 0 1 6.069-7.362 16.549 16.549 0 0 1 9.325-2.842c2.352.002 4.507.468 6.495 1.306a16.83 16.83 0 0 1 7.362 6.068 16.58 16.58 0 0 1 2.094 4.353c.483 1.557.747 3.206.748 4.972a16.577 16.577 0 0 1-1.307 6.495z"/>
</svg>
