<svg xmlns="http://www.w3.org/2000/svg" viewBox="0 0 509.838 509.838" width="512" height="512">
  <path d="M509.838 129.036v-2.526h-3.173a85.025 85.025 0 0 1 3.173 2.526zM509.838 96.511V25.265c0-8.284-6.716-15-15-15H15c-8.284 0-15 6.716-15 15v71.246h509.838zM79.43 84.763H62.475c-8.284 0-15-6.716-15-15s6.716-15 15-15H79.43c8.284 0 15 6.716 15 15s-6.716 15-15 15zm124.047 0h-62.566c-8.284 0-15-6.716-15-15s6.716-15 15-15h62.566c8.284 0 15 6.716 15 15s-6.716 15-15 15zM276.919 193.042c0-8.126 1.19-15.976 3.367-23.408H120.393c-8.284 0-15-6.716-15-15s6.716-15 15-15h175.929a84.152 84.152 0 0 1 13.77-13.123H0v71.245c0 8.284 6.716 15 15 15h261.919v-19.714zM509.838 428.07H306.919v18.095c0 29.449 23.959 53.408 53.408 53.408h96.103c29.449 0 53.408-23.959 53.408-53.408V428.07zm-86.46 30.415c0 8.284-6.716 15-15 15s-15-6.716-15-15v-1.072c0-8.284 6.716-15 15-15s15 6.716 15 15v1.072zM509.838 193.042c0-29.449-23.959-53.408-53.408-53.408h-96.103c-29.449 0-53.408 23.959-53.408 53.408V398.07h202.919V193.042zm-89.747-3.853l27.744 34.682c5.175 6.47 4.125 15.908-2.344 21.084a14.944 14.944 0 0 1-9.36 3.287c-4.4 0-8.761-1.928-11.724-5.631l-16.029-20.039-16.028 20.039c-5.176 6.469-14.612 7.518-21.084 2.344-6.469-5.175-7.519-14.614-2.344-21.084l27.742-34.682a14.999 14.999 0 0 1 23.427 0zm27.744 152.673l-27.744 34.682a14.999 14.999 0 0 1-23.427 0l-27.742-34.682c-5.175-6.47-4.125-15.909 2.344-21.084 6.469-5.174 15.907-4.125 21.084 2.344l16.028 20.039 16.029-20.039c5.175-6.469 14.615-7.518 21.084-2.344 6.469 5.176 7.519 14.615 2.344 21.084zm-11.714-45.289h-55.485c-8.284 0-15-6.716-15-15s6.716-15 15-15h55.485c8.284 0 15 6.716 15 15s-6.716 15-15 15z" data-original="#000000" class="active-path" data-old_color="#ffffff" fill="#fff"/>
</svg>
