<svg xmlns="http://www.w3.org/2000/svg" height="512" width="512"><path d="M241 181h30v90h-30zm0 0" data-original="#000000" class="active-path" data-old_color="#ffffff" fill="#fff"/><path d="M146.605 146.605l4.395-4.394V256c0 8.29 6.71 15 15 15h45V166c0-8.293 6.71-15 15-15h60c8.29 0 15 6.707 15 15v105h45c8.29 0 15-6.71 15-15V142.21l4.395 4.395c5.859 5.86 15.351 5.86 21.21 0 5.86-5.859 5.86-15.351 0-21.21l-120-121c-5.859-5.86-15.351-5.86-21.21 0l-120 121c-5.86 5.859-5.86 15.351 0 21.21 5.859 5.86 15.351 5.86 21.21 0zM256 91c8.285 0 15 6.715 15 15s-6.715 15-15 15-15-6.715-15-15 6.715-15 15-15zm0 0M55.3 444.398L95.5 476.5l30 31c2.7 3 6.602 4.5 10.5 4.5h90c8.402 0 15-6.602 15-15v-66.102c0-19.41-7.234-38.433-21.898-53.097L142 300.699c-12.145-11.535-30.316-11.668-42.598 0-11.699 11.7-11.699 30.903 0 42.598l52.621 52.515c5.797 6.204 5.262 15.258-.273 20.793-5.86 5.86-15.352 5.86-21.21 0l-56.356-56.367C65.688 351.77 61 340.477 61 328.45V181c0-16.57-13.43-30-30-30S0 164.43 0 181v150c.73 3-2.484 66.547 55.3 113.398zm0 0M481 151c-16.57 0-30 13.43-30 30v147.45c0 12.027-4.688 23.32-13.184 31.788l-56.351 56.367c-5.86 5.86-15.356 5.86-21.211 0-5.535-5.535-6.074-14.59-.277-20.793l52.62-52.515c11.704-11.7 11.704-30.899 0-42.598-12.28-11.668-30.452-11.535-42.597 0l-77.102 77.102C278.234 392.465 271 411.488 271 430.898V497c0 8.398 6.598 15 15 15h90c3.898 0 7.8-1.5 10.5-4.5l30-31 40.2-32.102C514.483 397.547 511.27 334 512 331V181c0-16.57-14.43-30-31-30zm0 0" data-original="#000000" class="active-path" data-old_color="#ffffff" fill="#fff"/></svg>