<svg xmlns="http://www.w3.org/2000/svg" viewBox="0 0 285.002 285.002" style="enable-background:new 0 0 285.002 285.002" xml:space="preserve">
  <path fill="#fff" d="M33.35 142.502c0-58.701 46.628-106.597 104.767-108.929l-14.244 9.97a6.072 6.072 0 0 0-1.497 8.449 6.052 6.052 0 0 0 4.973 2.585 6.015 6.015 0 0 0 3.477-1.095l30.318-21.22c1.62-1.138 2.591-2.994 2.591-4.973s-.971-3.834-2.591-4.966l-30.32-21.22c-2.746-1.93-6.538-1.262-8.449 1.491a6.063 6.063 0 0 0 1.497 8.442l14.838 10.378C73.602 23.455 21.228 76.917 21.228 142.502c0 54.223 35.768 100.232 84.956 115.707-.007-.161-.063-.334-.063-.495 0-4.045 1.262-7.867 3.358-11.207-44.091-14.021-76.129-55.336-76.129-104.005zM263.774 142.502c0-54.217-35.761-100.227-84.949-115.701.006.167.062.322.062.489 0 4.045-1.262 7.867-3.358 11.207 44.086 14.027 76.124 55.336 76.124 104.005 0 58.694-46.622 106.591-104.76 108.916l14.243-9.964a6.056 6.056 0 0 0 1.497-8.437c-1.917-2.746-5.721-3.414-8.448-1.496l-30.318 21.232a6.06 6.06 0 0 0-2.592 4.96c0 1.979.971 3.835 2.592 4.973l30.318 21.227a6.107 6.107 0 0 0 3.476 1.089 6.067 6.067 0 0 0 4.973-2.585 6.072 6.072 0 0 0-1.497-8.449L146.3 263.59c65.107-2.041 117.474-55.503 117.474-121.088z"/>
  <path fill="#fff" d="M218.297 139.106a9.102 9.102 0 0 0 6.902-3.161 9.09 9.09 0 0 0-.978-12.828l-75.789-65.164a9.1 9.1 0 0 0-11.863 0L60.78 123.117a9.09 9.09 0 0 0-.978 12.828c3.278 3.804 9.023 4.249 12.827.965l69.872-60.067 69.871 60.068a9.041 9.041 0 0 0 5.925 2.195z"/>
  <path fill="#fff" d="m140.522 86.034-57.111 49.281a3.057 3.057 0 0 0-1.051 2.294v71.244a3.038 3.038 0 0 0 3.03 3.043h114.223a3.038 3.038 0 0 0 3.03-3.043v-71.244c0-.884-.39-1.713-1.051-2.294l-57.111-49.281a3.04 3.04 0 0 0-3.959 0zm-3.575 105.521a4.545 4.545 0 0 1-4.553 4.539h-17.688a4.545 4.545 0 0 1-4.552-4.539v-17.708a4.545 4.545 0 0 1 4.552-4.539h17.688a4.545 4.545 0 0 1 4.553 4.539v17.708zm0-37.902a4.556 4.556 0 0 1-4.553 4.552h-17.688a4.556 4.556 0 0 1-4.552-4.552v-17.72a4.55 4.55 0 0 1 4.552-4.546h17.688a4.55 4.55 0 0 1 4.553 4.546v17.72zm11.108-17.719a4.55 4.55 0 0 1 4.553-4.546h17.688a4.55 4.55 0 0 1 4.552 4.546v17.72a4.556 4.556 0 0 1-4.552 4.552h-17.688a4.556 4.556 0 0 1-4.553-4.552v-17.72zm0 37.913a4.545 4.545 0 0 1 4.553-4.539h17.688a4.545 4.545 0 0 1 4.552 4.539v17.708a4.545 4.545 0 0 1-4.552 4.539h-17.688a4.545 4.545 0 0 1-4.553-4.539v-17.708z"/>
</svg>