<svg xmlns="http://www.w3.org/2000/svg" viewBox="0 0 143.734 143.734" style="enable-background:new 0 0 143.734 143.734" xml:space="preserve">
  <path style="fill:#010002" d="m119.743 103.298-29.84-29.84 24.22-24.22c7.864 1.826 16.457-.269 22.597-6.408 6.719-6.713 8.562-16.367 5.74-24.81l-11.403 11.397c-4.034 4.046-10.693 3.92-14.893-.28-4.183-4.189-4.314-10.848-.286-14.887l11.397-11.397c-8.425-2.84-18.074-.985-24.804 5.74-6.128 6.122-8.216 14.714-6.385 22.591l-24.22 24.214-24.209-24.209c1.826-7.87-.28-16.463-6.402-22.597C34.542 1.873 24.894.024 16.451 2.846l11.397 11.403c4.04 4.034 3.92 10.699-.286 14.893-4.189 4.189-10.836 4.314-14.887.286L1.277 18.026c-2.828 8.431-.979 18.092 5.752 24.81 6.116 6.134 14.708 8.216 22.591 6.396l24.208 24.202-29.834 29.834c-5.43-.376-10.979 1.426-15.114 5.585-7.626 7.614-7.626 19.965 0 27.591 7.602 7.608 19.959 7.608 27.573 0 4.147-4.147 5.943-9.702 5.597-15.132l29.816-29.828 29.84 29.84c-.37 5.43 1.438 10.985 5.585 15.126 7.608 7.62 19.971 7.62 27.585 0 7.614-7.614 7.614-19.965 0-27.585-4.148-4.146-9.703-5.948-15.133-5.567zM25.311 132.56l-9.923-2.649-2.643-9.923 7.25-7.262 9.923 2.655 2.655 9.917-7.262 7.262zm103.024-2.631-9.917 2.643-7.262-7.262 2.649-9.917 9.923-2.655 7.268 7.262-2.661 9.929z"/>
</svg>
