<svg xmlns="http://www.w3.org/2000/svg" width="512" height="512">
  <path d="M416 176v-32h-49.28c-2.72-18.928-10.176-36.304-21.152-50.944l33.744-33.744-22.624-22.624-33.744 33.744C308.304 59.456 290.928 52 272 49.28V0h-32v49.28c-18.928 2.72-36.304 10.176-50.944 21.152l-33.744-33.744-22.624 22.624 33.744 33.744C155.456 107.696 148 125.072 145.28 144H96v32h49.28c2.72 18.928 10.176 36.304 21.152 50.944l-33.744 33.744 22.624 22.624 33.744-33.744A111.317 111.317 0 0 0 240 270.72V320h32v-49.28c18.928-2.72 36.304-10.176 50.944-21.152l33.744 33.744 22.624-22.624-33.744-33.744A111.317 111.317 0 0 0 366.72 176H416zm-160 64c-44.112 0-80-35.888-80-80s35.888-80 80-80 80 35.888 80 80-35.888 80-80 80zM432.256 369.008C409.936 360.656 386.88 352 341.296 352c-45.584 0-68.656 8.656-90.992 17.008C229.76 376.72 210.352 384 170.592 384c-39.744 0-59.136-7.28-79.664-14.992C68.608 360.656 45.552 352 0 352v32c39.744 0 59.136 7.28 79.664 14.992C101.984 407.344 125.04 416 170.592 416c45.584 0 68.64-8.656 90.96-17.008C282.112 391.28 301.52 384 341.296 384c39.76 0 59.168 7.28 79.712 14.992C443.344 407.344 466.416 416 512 416v-32c-39.776 0-59.184-7.28-79.744-14.992zM432.336 465.008C410.016 456.656 386.96 448 341.408 448c-45.584 0-68.64 8.656-90.96 17.008C229.888 472.72 210.48 480 170.704 480c-39.76 0-59.168-7.28-79.712-14.992C68.656 456.656 45.584 448 0 448v32c39.776 0 59.184 7.28 79.744 14.992 22.32 8.352 45.376 17.008 90.96 17.008 45.584 0 68.656-8.656 90.992-17.008C282.24 487.28 301.648 480 341.408 480c39.744 0 59.136 7.28 79.664 14.992C443.392 503.344 466.448 512 512 512v-32c-39.744 0-59.136-7.28-79.664-14.992z" data-original="#000000" class="active-path" data-old_color="#ffffff" fill="#fff"/>
</svg>
