<svg xmlns="http://www.w3.org/2000/svg" viewBox="0 0 59.619 59.619" style="enable-background:new 0 0 59.619 59.619" xml:space="preserve">
  <path fill="#FFFFFF" d="M59.526 6.998C56.48 2.724 51.959.271 47.122.271c-2.963 0-5.867.949-8.398 2.744-3.068 2.176-5.278 5.406-6.484 9.056-.961-3.208-2.93-6.014-5.697-7.711-1.753-1.074-3.725-1.642-5.703-1.642-3.906 0-7.589 2.162-9.854 5.784a.5.5 0 0 0 .547.749c2.389-.606 4.983-.553 7.491.153a.499.499 0 0 0 .633-.422l.122-1.025 1.111 1.998a.498.498 0 0 0 .236.215 17.07 17.07 0 0 1 2.092 1.073c.501.308 1.011.662 1.56 1.085a.5.5 0 0 0 .802-.349l.094-.985.954 2.899a.493.493 0 0 0 .117.192 19.47 19.47 0 0 1 3.683 5.338c-2.328-2.892-5.654-4.675-9.209-4.675-.706 0-1.419.069-2.12.205-6.152 1.2-10.623 7.479-10.399 14.604a.498.498 0 0 0 .5.484.5.5 0 0 0 .405-.206 17.73 17.73 0 0 1 6.264-5.365.5.5 0 0 0 .22-.67l-.565-1.125 2.14.88a.502.502 0 0 0 .354.011 16.77 16.77 0 0 1 2.308-.644c.568-.11 1.181-.191 1.874-.247a.499.499 0 0 0 .401-.734l-.604-1.133 2.529 1.784a.495.495 0 0 0 .248.09c2.171.176 4.266.798 6.152 1.804l-2.074 12.736-12.185-7.034a2.001 2.001 0 0 0-2 0l-4.348 2.511a2.001 2.001 0 0 0-1.999-1.925H6.402a2 2 0 0 0-2 2v3.34L1 38.078a2 2 0 0 0-1 1.732v15.78a2 2 0 0 0 2 2h7.073a2 2 0 0 0 2-2v-4.408a4.6 4.6 0 0 1 4.593-4.594 4.6 4.6 0 0 1 4.594 4.594v4.408a2 2 0 0 0 2 2h3.274l-.192 1.178a.502.502 0 0 0 .494.58h11.872a.5.5 0 0 0 .467-.679l-1.337-16.297a.5.5 0 0 0-.6-.448l-2.631.548c.639-.989 1.679-2.594 2.783-4.269a.5.5 0 0 0 .081-.316l-1.1-13.395a16.204 16.204 0 0 1 4.891-2.629.49.49 0 0 0 .212-.137l1.985-2.168-.329 1.063a.5.5 0 0 0 .101.476.488.488 0 0 0 .458.165 16.103 16.103 0 0 1 1.809-.199 15.642 15.642 0 0 1 2.284.076.544.544 0 0 0 .338-.091l1.788-1.27-.309 1.096a.503.503 0 0 0 .364.622 15.746 15.746 0 0 1 6.824 3.604.5.5 0 0 0 .829-.447c-1.042-6.816-6.31-11.735-12.412-11.419-1.759.083-3.422.612-4.916 1.475l1.043-3.893.314 2.081a.5.5 0 0 0 .824.302 24.583 24.583 0 0 1 2.015-1.607 23.24 23.24 0 0 1 2.729-1.645.506.506 0 0 0 .219-.227l1.561-3.241.325 1.851a.503.503 0 0 0 .662.385c3.325-1.197 6.797-1.52 10.056-.937a.495.495 0 0 0 .49-.78z"/>
</svg>