<svg xmlns="http://www.w3.org/2000/svg" data-name="Layer 1" width="512" height="512">
  <path d="M289.671 85h-67.342C215.178 85 209 90.469 209 97.62V110h94V97.62c0-7.151-6.178-12.62-13.329-12.62zM260.284 351.393L283 323.266l-21.85-18.072a5.972 5.972 0 0 1-2.15-4.624v-23.892a6.219 6.219 0 0 1 2.23-4.809l22.927-18.328-.835-61.541H227v201.907l23.714 31.859 32.837-38.2-23.258-28.62a6 6 0 0 1-.009-7.553z" data-original="#000000" class="active-path" fill="#FFF"/>
  <path d="M298.207 36h-84.414C185.722 36 163 58.168 163 86.239v71.568A22.16 22.16 0 0 0 185.339 180h141.322A22.16 22.16 0 0 0 349 157.807V86.239C349 58.168 326.278 36 298.207 36zM315 116.115c0 3.314-3.047 5.885-6.36 5.885H203.36c-3.313 0-6.36-2.571-6.36-5.885V97.62C197 83.853 208.562 73 222.329 73h67.342C303.438 73 315 83.853 315 97.62zM406.152 313.19a28.654 28.654 0 0 0-7.578 13.81H283v12h115.574A23.731 23.731 0 0 0 406 352.79v.074c6 5.475 12.738 8.249 19.929 8.249a28.068 28.068 0 1 0-19.777-47.923zM421.044 420.086a27.813 27.813 0 0 0-19.853 8.142A28.538 28.538 0 0 0 393.613 442h-4.835c-8.543 0-15.778-6.787-15.778-15.33v-13.3A27.177 27.177 0 0 0 345.792 386H288v12h57.792A15.165 15.165 0 0 1 361 413.371v13.3c0 15.16 12.618 27.33 27.778 27.33h4.835a25.133 25.133 0 0 0 7.578 13.934 28.051 28.051 0 1 0 19.853-47.848zM440.947 206.974a28.137 28.137 0 0 0-39.73.087 29.089 29.089 0 0 0-7.6 13.939h-4.835C373.618 221 361 233.161 361 248.321v10.8c0 8.543-6.665 15.874-15.208 15.874H265v12h80.792C360.952 287 373 274.286 373 259.126v-10.8c0-8.543 7.235-15.321 15.778-15.321h4.835a28.531 28.531 0 0 0 7.578 13.768 28.064 28.064 0 0 0 19.905 8.168c7.189 0 13.9-2.786 19.9-8.26a28.058 28.058 0 0 0-.049-39.707zM105.848 313.19a28.105 28.105 0 1 0 0 39.706 25.029 25.029 0 0 0 7.578-13.9H220V327H113.426a28.654 28.654 0 0 0-7.578-13.81zM139 413.371v13.3c0 8.543-7.235 15.33-15.778 15.33h-4.835a28.542 28.542 0 0 0-7.577-13.771 28.141 28.141 0 1 0 0 39.7 25.127 25.127 0 0 0 7.577-13.93h4.835c15.16 0 27.778-12.17 27.778-27.33v-13.3A15.165 15.165 0 0 1 166.208 398H220v-12h-53.792A27.177 27.177 0 0 0 139 413.371zM151 259.126v-10.8C151 233.161 138.382 221 123.222 221h-4.835a29.045 29.045 0 0 0-7.578-13.938A28.08 28.08 0 0 0 71 246.676c6 5.474 12.715 8.212 19.9 8.212a27.958 27.958 0 0 0 19.879-8.124 28.568 28.568 0 0 0 7.6-13.767h4.835c8.543 0 15.778 6.778 15.778 15.321v10.8C139 274.286 151.048 287 166.208 287H220v-12h-53.792c-8.543 0-15.208-7.331-15.208-15.874z" data-original="#000000" class="active-path" fill="#FFF"/>
</svg>
