<svg xmlns="http://www.w3.org/2000/svg" height="512" viewBox="-16 0 479 480" width="512">
  <path d="M209.723 192l5.336-32h-55.782l-5.336 32zm0 0M271.059 304h-63.782l-5.336 32h63.782zm0 0M287.059 208h-63.782l-5.336 32h63.782zm0 0M207.059 208h-55.782l-5.336 32h55.782zm0 0M279.059 256h-63.782l-5.336 32h63.782zm0 0M351.059 304h-63.782l-5.336 32h63.782zm0 0" data-original="#000000" class="active-path" data-old_color="#ffffff" fill="#fff"/>
  <path d="M152.5 72c-40.09.004-73.992 29.68-79.293 69.418-5.305 39.742 19.629 77.27 58.316 87.781l13.09-78.52A7.997 7.997 0 0 1 152.5 144h79.594c-4.156-40.852-38.531-71.95-79.594-72zm0 0M391.277 160l-5.336 32h55.782l5.328-32zm0 0M199.059 256h-55.782l-5.336 32h55.782zm0 0M191.059 304h-55.782l-5.336 32h55.782zm0 0M377.941 240h55.782l5.328-32h-55.774zm0 0M262.746 384l-12 48h43.508l-12-48zm0 0M361.941 336h55.782l5.336-32h-55.782zm0 0M128.5 352h288v16h-288zm0 0M353.723 288l5.336-32h-63.782l-5.336 32zm0 0M369.941 288h55.782l5.328-32h-55.774zm0 0M375.059 160h-63.782l-5.336 32h63.782zm0 0M367.059 208h-63.782l-5.336 32h63.782zm0 0M225.941 192h63.782l5.336-32h-63.782zm0 0M331.555 448h-118.11l-8 16H168.5v16h208v-16h-36.945zm0 0M144.5 0h16v32h-16zm0 0M69.57 24.363l13.86-8 15.996 27.715-13.856 8zm0 0M16.86 82.934l8-13.86 27.71 16-8 13.856zm0 0M.5 144h32v16H.5zm0 0M16.86 221.07l27.714-15.996 8 13.856-27.715 16zm0 0M69.57 279.637l15.996-27.715 13.86 8-16 27.715zm0 0M252.418 85.066l27.715-15.996 8 13.856-27.715 16zm0 0M205.574 44.074L221.57 16.36l13.856 8L219.43 52.07zm0 0" data-original="#000000" class="active-path" data-old_color="#ffffff" fill="#fff"/>
</svg>
