<svg xmlns="http://www.w3.org/2000/svg" width="512" height="512" viewBox="0 0 359.152 359.152">
  <path d="M31.489 194.384l7.575-7.548 22.458 149.268c0 6.232 5.17 11.289 11.553 11.289h216.95c6.383 0 11.553-5.057 11.553-11.289l21.93-145.743 4.372 4.233a18.374 18.374 0 0 0 12.832 5.2c4.815 0 9.625-1.873 13.24-5.614 7.092-7.32 6.905-18.993-.408-26.085L203.31 22.562c-6.965-6.966-16.23-10.803-26.084-10.803-9.851 0-19.11 3.837-26.084 10.803L5.404 168.299c-7.206 7.2-7.206 18.885 0 26.085 7.209 7.206 18.879 7.206 26.085 0zm149.867 77.174c-25.187 0-45.606-20.423-45.606-45.606 0-25.185 20.419-45.606 45.606-45.606 25.185 0 45.606 20.422 45.606 45.606-.005 25.183-20.421 45.606-45.606 45.606z" data-original="#000000" class="active-path" data-old_color="#ffffff" fill="#fff"/>
</svg>
