<svg height="512pt" viewBox="0 -25 512 512" width="512pt" xmlns="http://www.w3.org/2000/svg">
  <path d="M31.102 311.277V461.36h450.242v-90.05H512l-105.383-162.13-9.558 13.989-81.907-102.383-11.996 17.996L194.836 0 0 311.277zm420.226 30.016v90.05h-30.015v-30.015h-30.016v30.016h-30.02v-90.051h-8.586l53.301-77.996 50.7 77.996zm-133.969-169.7l61.993 77.489-83.524 122.23h35.434v60.032h-90.047V311.277h-16.98zM197.543 52.25l88.074 112.844-117.469 176.199H211.2v90.05H61.117V281.263H54.2zm0 0"/>
  <path d="M391.297 341.293h30.015v30.016h-30.015zm0 0"/>
</svg>
