<?xml version="1.0"?>
<svg xmlns="http://www.w3.org/2000/svg" xmlns:xlink="http://www.w3.org/1999/xlink" version="1.1" id="Capa_1" x="0px" y="0px" viewBox="0 0 511.999 511.999" style="enable-background:new 0 0 511.999 511.999;" xml:space="preserve" width="512px" height="512px" class=""><g><g>
	<g>
		<path d="M498.871,231.525c-8.218-1.035-15.721,4.79-16.756,13.009l-13.047,103.618h-70.514c-8.284,0-15,6.716-15,15v93.528    c0,8.284,6.716,15,15,15s15-6.716,15-15v-78.529h53.729v78.529c0,8.284,6.716,15,15,15s15-6.716,15-15v-92.468l14.597-115.931    C512.915,240.062,507.091,232.561,498.871,231.525z" data-original="#000000" class="active-path" data-old_color="#000000" fill="#FFFFFF"/>
	</g>
</g><g>
	<g>
		<path d="M369.92,287.62H271v-71.727c-4.666,0.23-9.528,0.358-14.621,0.358c-5.368,0-10.483-0.139-15.379-0.391v71.759h-95.95    c-8.284,0-15,6.716-15,15s6.716,15,15,15h28.447v138.866c0,8.284,6.716,15,15,15s15-6.716,15-15V317.62h105.506v138.866    c0,8.284,6.716,15,15,15c8.284,0,15-6.716,15-15V317.62h30.918c8.284,0,15-6.716,15-15S378.204,287.62,369.92,287.62z" data-original="#000000" class="active-path" data-old_color="#000000" fill="#FFFFFF"/>
	</g>
</g><g>
	<g>
		<path d="M451.185,145.228c-20.578-33.242-49.457-60.865-83.516-79.883c-17.185-9.595-35.527-16.906-54.487-21.798    c0.665,0.591,1.33,1.184,1.996,1.791c35.507,32.383,55.507,73.444,57.837,118.745c0.117,2.269-0.283,4.533-1.169,6.625    c-0.623,1.469-3.043,6.537-8.985,12.788c8.371,3.068,18.746,5.184,31.464,5.184c0.038,0,0.082,0,0.12,0    c33.811-0.034,51.971-18.111,57.372-28.787C454.176,155.23,453.937,149.673,451.185,145.228z" data-original="#000000" class="active-path" data-old_color="#000000" fill="#FFFFFF"/>
	</g>
</g><g>
	<g>
		<path d="M144.33,65.345c-34.06,19.018-62.939,46.641-83.517,79.883c-2.751,4.445-2.991,10.002-0.631,14.666    c5.4,10.676,23.561,28.753,57.371,28.787c0.04,0,0.08,0,0.12,0c12.736,0,23.122-2.122,31.5-5.198    c-5.953-6.227-8.379-11.272-9.004-12.737c-0.898-2.101-1.304-4.38-1.186-6.662c2.331-45.302,22.331-86.362,57.838-118.745    c0.666-0.607,1.331-1.2,1.996-1.791C179.856,48.439,161.515,55.749,144.33,65.345z" data-original="#000000" class="active-path" data-old_color="#000000" fill="#FFFFFF"/>
	</g>
</g><g>
	<g>
		<path d="M113.443,348.153H42.93L29.883,244.534c-1.034-8.22-8.537-14.042-16.756-13.009c-8.219,1.035-14.043,8.537-13.008,16.757    l14.597,115.931v92.468c0,8.284,6.716,15,15,15c8.284,0,15-6.716,15-15v-78.529h53.729v78.529c0,8.284,6.716,15,15,15    c8.284,0,15-6.716,15-15v-93.528C128.443,354.869,121.728,348.153,113.443,348.153z" data-original="#000000" class="active-path" data-old_color="#000000" fill="#FFFFFF"/>
	</g>
</g><g>
	<g>
		<path d="M295.693,68.175c-15.777-14.552-31.509-23.642-39.696-27.858c-8.173,4.209-23.911,13.3-39.693,27.857    c-28.249,26.057-44.059,57.224-47.041,92.706c5.608,6.751,26.574,25.371,87.114,25.371c60.037,0.001,80.809-18.604,86.357-25.34    C339.759,125.418,323.949,94.237,295.693,68.175z" data-original="#000000" class="active-path" data-old_color="#000000" fill="#FFFFFF"/>
	</g>
</g></g> </svg>
