<svg xmlns="http://www.w3.org/2000/svg" height="512" viewBox="-6 0 463 464" width="512"><path d="M179.508 432c-22.305 0-42.29 12.566-52.176 32h104.344c-9.88-19.434-29.863-32-52.168-32zm0 0M185.988 391.031l2.793-2.793c-4.351-.16-8.84.907-12.867 2.914l-11.582 5.793V384c0-6.625.887-13.266 2.61-19.672-10.731 4.512-19.938 12.098-26.489 21.91l-8.144 12.168-8.114-12.168a59.496 59.496 0 0 0-26.488-21.902A75.166 75.166 0 0 1 100.332 384v12.945l-11.574-5.793c-4.028-2.015-8.496-3.168-12.867-2.914l3.625 3.625c8.265 8.274 12.816 19.266 12.816 30.961v5.45a74.29 74.29 0 0 1 23.152 24.124c12.16-20.43 33.473-34.015 57.551-36.093 1.61-9.496 6.106-18.426 12.953-25.274zm0 0M51.508 432C30.707 432 11.02 444.719.5 464h103.223a58.474 58.474 0 0 0-52.215-32zm0 0M252.332 464h4.688l16-16h-20.688zm0 0M252.332 424v8h20.688l-15.442-15.441c-3.047 1.128-5.246 4-5.246 7.441zm0 0M236.332 384v8c0 4.414 3.582 8 8 8h28.688l-16-16zm0 0M104.02 32H73.043L1.926 160h45.207zm0 0M236.332 360v8h20.688l16-16h-28.688c-4.418 0-8 3.586-8 8zm0 0M121.531 32L64.645 160h53.261l9.274-41.734 15.632 3.468L134.31 160h46.863l14.223-128h-32.649l-16.383 73.734-15.625-3.468L146.355 32zm0 0M20.332 176h400v16h-400zm0 0M211.492 32L197.27 160h46.125L229.172 32zm0 0M367.195 100.754l-14.625 6.492L319.133 32h-24.824l28.437 128h53.274l-16.336-36.754 14.625-6.492L393.53 160h45.207L367.621 32h-30.976zm0 0M423.645 400h4.687c4.414 0 8-3.586 8-8v-8h-28.687zm0 0M76.332 0h288v16h-288zm0 0M277.914 32H245.27l14.222 128h46.863zm0 0M436.332 360c0-4.414-3.586-8-8-8h-4.687l-16 16h28.687zm0 0M279.645 416l16 16h41.375l-16-16zm0 0M143.645 288l-16 16H313.02l-16-16zm0 0M148.332 240h144v32h-144zm0 0M308.332 276.688l16 16V240h-16zm0 0M132.332 240h-16v52.688l16-16zm0 0M279.645 464h41.375l16-16h-41.375zm0 0M407.645 464h36.687c4.414 0 8-3.586 8-8v-8h-28.687zm0 0M444.332 416h-36.687l16 16h28.687v-8c0-4.414-3.586-8-8-8zm0 0" data-original="#000000" class="active-path" data-old_color="#ffffff" fill="#fff"/><path d="M36.332 417.793C41.293 416.656 46.363 416 51.508 416c8.566 0 16.808 1.574 24.578 4.29-.586-6.458-3.25-12.474-7.89-17.106l-21.368-21.368 9.918-4.968c8.242-4.121 17.594-5.45 26.508-4.055a60.418 60.418 0 0 0-5.242-15.52l-8.625-17.257 23.465 5.879a75.615 75.615 0 0 1 39.48 24.57c10.207-12.09 23.961-20.695 39.488-24.57l23.457-5.88-8.625 17.258c-2.449 4.895-4.207 10.153-5.242 15.52 8.938-1.395 18.274-.066 26.504 4.055l9.922 4.968-20.527 20.528c-3.954 3.953-6.633 8.976-7.97 14.351 18.513 2.45 35.184 11.672 47 25.578V424c0-3.16.65-6.16 1.763-8.93-10.211-2.757-17.77-12.007-17.77-23.07v-32c0-13.23 10.77-24 24-24h160V208h-368zm64-177.793c0-8.824 7.176-16 16-16h208c8.824 0 16 7.176 16 16v80h-240zm0 0" data-original="#000000" class="active-path" data-old_color="#ffffff" fill="#fff"/><path d="M279.645 368h41.375l16-16h-41.375zm0 0M343.645 368h41.375l16-16h-41.375zm0 0M279.645 384l16 16h41.375l-16-16zm0 0M343.645 464h41.375l16-16h-41.375zm0 0M343.645 416l16 16h41.375l-16-16zm0 0M343.645 384l16 16h41.375l-16-16zm0 0" data-original="#000000" class="active-path" data-old_color="#ffffff" fill="#fff"/></svg>