<svg xmlns="http://www.w3.org/2000/svg" viewBox="0 0 297 297" width="512" height="512">
  <path d="M252.032 262.489c5.775 0 10.458-4.682 10.458-10.458V10.458C262.489 4.682 257.807 0 252.032 0H44.968C39.193 0 34.51 4.682 34.51 10.458v241.574c0 5.775 4.682 10.458 10.458 10.458h207.064zm-95.804-24.234a11.014 11.014 0 0 1-7.731 3.205 11.02 11.02 0 0 1-7.732-3.205 11.011 11.011 0 0 1-3.204-7.731c0-2.876 1.169-5.698 3.204-7.732a11.02 11.02 0 0 1 7.732-3.204c2.887 0 5.698 1.169 7.731 3.204a10.975 10.975 0 0 1 3.205 7.732c0 2.875-1.16 5.697-3.205 7.731zm37.24-49.952a7.526 7.526 0 0 1-2.351 5.468c1.141-11.265-3.019-28.851-5.094-36.68a10.458 10.458 0 0 0-16.343-5.717c-.108.081-1.239.921-2.984 2.285-4.834-8.17-9.323-14.69-9.592-15.079a10.46 10.46 0 0 0-17.211.001c-.268.389-4.756 6.909-9.591 15.078-1.745-1.363-2.876-2.204-2.984-2.285a10.46 10.46 0 0 0-16.343 5.717c-2.076 7.829-6.235 25.415-5.094 36.68a7.531 7.531 0 0 1-2.351-5.468v-62.351a7.558 7.558 0 0 1 7.558-7.558h74.821a7.558 7.558 0 0 1 7.558 7.558v62.351zM92.234 276.085H27.713c-5.775 0-10.458 4.682-10.458 10.458 0 5.775 4.682 10.458 10.458 10.458h30.501c11.571-.001 27.529-5.46 34.02-20.916zM204.765 276.085c6.491 15.457 22.449 20.915 34.02 20.915h30.502c5.775 0 10.458-4.682 10.458-10.458 0-5.775-4.682-10.458-10.458-10.458h-64.522z" data-original="#000000" class="active-path" data-old_color="#ffffff" fill="#fff"/>
</svg>
