<svg xmlns="http://www.w3.org/2000/svg" height="512" viewBox="0 -8 464 464" width="512">
  <path d="M176 280a8 8 0 0 1 8-8h64a8 8 0 0 1 8 8v88h40V0H136v368h40zm48-256a8 8 0 0 1 8-8h40a8 8 0 0 1 8 8v40a8 8 0 0 1-8 8h-40a8 8 0 0 1-8-8zm0 72a8 8 0 0 1 8-8h40a8 8 0 0 1 8 8v40a8 8 0 0 1-8 8h-40a8 8 0 0 1-8-8zm0 72a8 8 0 0 1 8-8h40a8 8 0 0 1 8 8v40a8 8 0 0 1-8 8h-40a8 8 0 0 1-8-8zM152 24a8 8 0 0 1 8-8h40a8 8 0 0 1 8 8v40a8 8 0 0 1-8 8h-40a8 8 0 0 1-8-8zm0 72a8 8 0 0 1 8-8h40a8 8 0 0 1 8 8v40a8 8 0 0 1-8 8h-40a8 8 0 0 1-8-8zm0 112v-40a8 8 0 0 1 8-8h40a8 8 0 0 1 8 8v40a8 8 0 0 1-8 8h-40a8 8 0 0 1-8-8zm0 0M8 192h112v24H8zm0 0M32 312a8 8 0 0 1 8-8h48a8 8 0 0 1 8 8v56h24V232H8v136h24zm0 0M376 192h16v64h-16zm0 0M344 192h16v64h-16zm0 0M352 312a8 8 0 0 1 8-8h48a8 8 0 0 1 8 8v56h40v-96H312v96h40zm0 0M408 192h16v64h-16zm0 0M312 192h16v64h-16zm0 0M440 192h16v64h-16zm0 0" data-original="#000000" class="active-path" data-old_color="#ffffff" fill="#fff"/>
  <path d="M192 288h48v80h-48zm0 0M168 32h24v24h-24zm0 0M240 32h24v24h-24zm0 0M168 104h24v24h-24zm0 0M240 104h24v24h-24zm0 0M168 176h24v24h-24zm0 0M240 176h24v24h-24zm0 0M48 320h32v48H48zm0 0M368 320h32v48h-32zm0 0M464 408v-24H0v24h40v16H0v24h464v-24h-40v-16zm-352 16H64v-16h48zm72 0h-48v-16h48zm72 0h-48v-16h48zm72 0h-48v-16h48zm72 0h-48v-16h48zm0 0" data-original="#000000" class="active-path" data-old_color="#ffffff" fill="#fff"/>
</svg>
