<svg xmlns="http://www.w3.org/2000/svg" height="512" width="512">
  <path d="M511.398 396.4L398.46 10.8C396.585 4.4 390.695 0 384 0s-12.586 4.4-14.461 10.8L335.63 126.575l76.558 261.392c2.671 9.127 2.306 18.824-.8 27.633h85.549c4.741 0 9.206-2.223 12.05-6s3.738-8.667 2.411-13.2zM283.389 415.6h85.548c4.741 0 9.205-2.223 12.05-6s3.737-8.667 2.411-13.2L270.461 10.8C268.586 4.4 262.695 0 256 0s-12.586 4.4-14.461 10.8L207.63 126.575l76.558 261.393c2.672 9.125 2.307 18.822-.799 27.632zM252.987 409.6a14.953 14.953 0 0 0 2.411-13.2L142.461 10.8C140.586 4.4 134.695 0 128 0s-12.585 4.4-14.46 10.8L.602 396.4c-1.327 4.533-.434 9.423 2.41 13.2s7.309 6 12.05 6h225.874c4.743 0 9.207-2.223 12.051-6zM80.866 497c0 8.284 6.716 15 15 15h64.267c8.284 0 15-6.716 15-15v-51.4H80.866zM208.866 497c0 8.284 6.716 15 15 15h64.267c8.284 0 15-6.716 15-15v-51.4h-94.267zM336.866 497c0 8.284 6.716 15 15 15h64.267c8.284 0 15-6.716 15-15v-51.4h-94.267z" data-original="#000000" class="active-path" data-old_color="#ffffff" fill="#fff"/>
</svg>
