<svg xmlns="http://www.w3.org/2000/svg" viewBox="0 0 512.001 512.001" width="512" height="512"><path d="M87.772 299.886H43.886v131.657H21.943C9.826 431.544 0 441.368 0 453.486s9.826 21.943 21.943 21.943H146.286V299.886H87.772zM490.057 431.544h-21.943V299.886h-102.4V475.429H490.057c12.12 0 21.943-9.825 21.943-21.943s-9.821-21.942-21.943-21.942zM510.11 225.145L451.596 93.487a21.944 21.944 0 0 0-20.053-13.03h-65.829V58.515c0-12.118-9.823-21.943-21.943-21.943-12.117 0-21.943 9.825-21.943 21.943v21.943H80.457a21.942 21.942 0 0 0-20.051 13.03L1.892 225.145a21.94 21.94 0 0 0 1.654 20.871 21.94 21.94 0 0 0 18.397 9.985H146.286v-21.943c0-6.908 3.253-13.41 8.777-17.554l5.851-4.389 81.92-61.44a21.947 21.947 0 0 1 26.333 0l81.92 61.44 5.851 4.389a21.943 21.943 0 0 1 8.777 17.554v21.943h124.343a21.947 21.947 0 0 0 18.4-9.985 21.948 21.948 0 0 0 1.652-20.871z" data-original="#000000" class="active-path" data-old_color="#ffffff" fill="#fff"/><path d="M307.202 234.058l-29.257-21.943L256 195.658l-21.943 16.457-29.257 21.943-14.629 10.971V475.429h43.886V409.591c0-12.12 9.826-21.943 21.943-21.943 12.121 0 21.944 9.823 21.944 21.943V475.429h43.886V245.03l-14.628-10.972z" data-original="#000000" class="active-path" data-old_color="#ffffff" fill="#fff"/></svg>