<svg xmlns="http://www.w3.org/2000/svg" width="512" height="512" viewBox="0 0 340 340">
  <path d="M159.485 98.525c-5.798 0-17.802.245-21.546.592v61.596c3.252.316 14.198.471 18.518.471 27.021 0 40.721-11.152 40.721-33.146 0-19.584-12.681-29.513-37.693-29.513z" data-original="#000000" class="active-path" data-old_color="#000000" fill="#FFF"/>
  <path d="M301.192.05H38.808C17.373.05 0 17.426 0 38.859V301.14c0 21.435 17.373 38.811 38.808 38.811h262.384c21.436 0 38.808-17.376 38.808-38.811V38.859C340 17.426 322.627.05 301.192.05zm-75.403 177.698c-15.581 16.513-40.41 25.604-69.938 25.604-3.407 0-14.24-.052-17.912-.283v61.216c0 10.522-8.53 19.055-19.055 19.055h-4.326c-10.524 0-19.057-8.531-19.057-19.055V77.886c0-9.65 7.215-17.777 16.797-18.92 12.813-1.53 33.252-2.306 46.582-2.306 28.065 0 49.686 6.609 64.258 19.643 13.775 11.99 21.361 29.924 21.361 50.522 0 20.948-6.296 38.08-18.71 50.923z" data-original="#000000" class="active-path" data-old_color="#000000" fill="#FFF"/>
</svg>
