<svg height="512pt" viewBox="0 0 512 512" width="512pt" xmlns="http://www.w3.org/2000/svg">
  <path d="M98.332 138c0-11.047 8.953-20 20-20H315c11.047 0 20 8.953 20 20s-8.953 20-20 20H118.332c-11.043 0-20-8.953-20-20zm20 138H315c11.047 0 20-8.953 20-20s-8.953-20-20-20H118.332c-11.047 0-20 8.953-20 20s8.957 20 20 20zm118.004 78H118.332c-11.047 0-20 8.953-20 20s8.953 20 20 20h118.004c11.043 0 20-8.953 20-20s-8.953-20-20-20zM512 374v118c0 11.047-8.953 20-20 20H59.328C26.613 512 0 485.387 0 452.672V59.328C0 26.613 26.613 0 59.328 0h314.676c32.715 0 59.332 26.613 59.332 59.328v227.723l72.805 72.808A19.983 19.983 0 0 1 512 374zM59.328 472h255.344v-98c0-5.305 2.105-10.39 5.855-14.14l72.809-72.817V59.328c0-10.656-8.672-19.328-19.332-19.328H59.328C48.672 40 40 48.672 40 59.328v393.344C40 463.328 48.672 472 59.328 472zM472 382.285l-58.668-58.672-58.66 58.668V472H472zm0 0"/>
</svg>
