<?xml version="1.0" encoding="iso-8859-1"?>
<!-- Generator: Adobe Illustrator 19.0.0, SVG Export Plug-In . SVG Version: 6.00 Build 0)  -->
<svg version="1.1" id="Capa_1" xmlns="http://www.w3.org/2000/svg" xmlns:xlink="http://www.w3.org/1999/xlink" x="0px" y="0px"
	 viewBox="0 0 512.007 512.007" style="enable-background:new 0 0 512.007 512.007;" xml:space="preserve">
<g>
	<g>
		<path d="M469.772,239.628H81.79L293.455,27.971c6.408-6.39,6.408-16.765,0.009-23.172c-6.399-6.399-16.773-6.399-23.172,0
			L30.653,244.421c-0.345,0.346-0.667,0.71-0.977,1.082c-0.027,0.032-0.057,0.061-0.084,0.093c-0.147,0.179-0.276,0.37-0.415,0.554
			c-0.188,0.248-0.381,0.492-0.555,0.751c-0.063,0.094-0.114,0.193-0.175,0.288c-0.231,0.36-0.456,0.723-0.659,1.102
			c-0.015,0.029-0.027,0.059-0.043,0.088c-0.724,1.37-1.262,2.852-1.574,4.417c-0.014,0.072-0.02,0.145-0.033,0.217
			c-0.084,0.451-0.159,0.904-0.204,1.366c-0.054,0.54-0.083,1.085-0.083,1.632s0.028,1.092,0.083,1.632
			c0.046,0.46,0.12,0.911,0.203,1.359c0.014,0.074,0.019,0.151,0.034,0.225c0.312,1.566,0.851,3.049,1.576,4.42
			c0.014,0.027,0.026,0.056,0.04,0.083c0.212,0.396,0.446,0.776,0.689,1.152c0.049,0.076,0.091,0.157,0.142,0.233
			c0.214,0.319,0.449,0.622,0.685,0.925c0.095,0.122,0.179,0.251,0.278,0.371c0.199,0.242,0.418,0.466,0.63,0.696
			c0.149,0.161,0.286,0.332,0.442,0.488l239.621,239.621c3.204,3.195,7.384,4.792,11.582,4.792c4.189,0,8.387-1.589,11.582-4.792
			c6.408-6.399,6.408-16.765,0-23.172L81.781,272.385h387.992c9.044,0,16.383-7.322,16.383-16.374S478.825,239.628,469.772,239.628z
			"/>
	</g>
</g>
<g>
</g>
<g>
</g>
<g>
</g>
<g>
</g>
<g>
</g>
<g>
</g>
<g>
</g>
<g>
</g>
<g>
</g>
<g>
</g>
<g>
</g>
<g>
</g>
<g>
</g>
<g>
</g>
<g>
</g>
</svg>
