<?xml version="1.0" encoding="iso-8859-1"?>
<!-- Generator: Adobe Illustrator 19.0.0, SVG Export Plug-In . SVG Version: 6.00 Build 0)  -->
<svg version="1.1" id="Layer_1" xmlns="http://www.w3.org/2000/svg" xmlns:xlink="http://www.w3.org/1999/xlink" x="0px" y="0px"
	 viewBox="0 0 512 512" style="enable-background:new 0 0 512 512;" xml:space="preserve">
<path style="fill:#C1C1C1;" d="M503.916,471.579L503.916,471.579c0,17.86-14.477,32.337-32.337,32.337H40.421
	c-17.86,0-32.337-14.477-32.337-32.337l0,0c0-17.86,14.477-32.337,32.337-32.337h29.745h371.67h29.743
	C489.439,439.242,503.916,453.719,503.916,471.579z"/>
<path style="fill:#81BC82;" d="M428.463,126.653v344.926H256V126.653c0-11.906,9.651-21.558,21.558-21.558h129.347
	C418.812,105.095,428.463,114.746,428.463,126.653z"/>
<path style="fill:#699E69;" d="M353.01,126.653v344.926H180.547V126.653c0-11.906,9.651-21.558,21.558-21.558h129.347
	C343.359,105.095,353.01,114.746,353.01,126.653z"/>
<path style="fill:#FEAF50;" d="M331.453,29.642v441.937H158.989V29.642c0-11.906,9.651-21.558,21.558-21.558h129.347
	C321.801,8.084,331.453,17.736,331.453,29.642z"/>
<path style="fill:#FE8332;" d="M277.558,288.337v183.242H105.095V288.337c0-11.906,9.651-21.558,21.558-21.558H256
	C267.906,266.779,277.558,276.43,277.558,288.337z"/>
<path style="fill:#FE5A3A;" d="M256,288.337v183.242H83.537V288.337c0-11.906,9.651-21.558,21.558-21.558h129.347
	C246.349,266.779,256,276.43,256,288.337z"/>
<path d="M512,471.579C512,493.868,493.868,512,471.579,512H40.421C18.132,512,0,493.868,0,471.579
	c0-22.289,18.132-40.421,40.421-40.421h17.965c4.466,0,8.084,3.62,8.084,8.084c0,4.465-3.618,8.084-8.084,8.084H40.421
	c-13.372,0-24.253,10.879-24.253,24.253c0,13.373,10.88,24.253,24.253,24.253h431.158c13.372,0,24.253-10.879,24.253-24.253
	c0-13.373-10.88-24.253-24.253-24.253h-16.438c-4.466,0-8.084-3.62-8.084-8.084c0-4.465,3.618-8.084,8.084-8.084h16.438
	C493.868,431.158,512,449.29,512,471.579z M53.895,471.579c0,4.465,3.618,8.084,8.084,8.084h75.453c4.466,0,8.084-3.62,8.084-8.084
	s-3.618-8.084-8.084-8.084H91.621V288.337c0-7.43,6.044-13.474,13.474-13.474h129.347c7.43,0,13.474,6.044,13.474,13.474v175.158
	h-78.147c-4.466,0-8.084,3.62-8.084,8.084s3.618,8.084,8.084,8.084h280.253c4.466,0,8.084-3.62,8.084-8.084
	s-3.618-8.084-8.084-8.084h-13.474V126.653c0-16.345-13.298-29.642-29.642-29.642h-42.577c-4.466,0-8.084,3.62-8.084,8.084
	s3.618,8.084,8.084,8.084h42.577c7.43,0,13.474,6.044,13.474,13.474v336.842h-80.842V29.642C339.537,13.297,326.239,0,309.895,0
	H180.547c-16.344,0-29.642,13.297-29.642,29.642v208.573c0,4.465,3.618,8.084,8.084,8.084c4.466,0,8.084-3.62,8.084-8.084V29.642
	c0-7.43,6.044-13.474,13.474-13.474h129.347c7.43,0,13.474,6.044,13.474,13.474v433.853h-59.284V288.337
	c0-16.345-13.298-29.642-29.642-29.642H105.095c-16.344,0-29.642,13.297-29.642,29.642v175.158H61.979
	C57.513,463.495,53.895,467.114,53.895,471.579z"/>
<g>
</g>
<g>
</g>
<g>
</g>
<g>
</g>
<g>
</g>
<g>
</g>
<g>
</g>
<g>
</g>
<g>
</g>
<g>
</g>
<g>
</g>
<g>
</g>
<g>
</g>
<g>
</g>
<g>
</g>
</svg>
