<?xml version="1.0" encoding="iso-8859-1"?>
<!-- Generator: Adobe Illustrator 19.0.0, SVG Export Plug-In . SVG Version: 6.00 Build 0)  -->
<svg version="1.1" id="Capa_1" xmlns="http://www.w3.org/2000/svg" xmlns:xlink="http://www.w3.org/1999/xlink" x="0px" y="0px"
	 viewBox="0 0 512 512" style="enable-background:new 0 0 512 512;" xml:space="preserve">
<polygon style="fill:#43D490;" points="444.367,67.633 183.551,328.449 67.633,212.531 9.674,270.49 183.551,444.367 
	502.326,125.592 "/>
<path style="fill:#485761;" d="M444.367,67.633l-46.271,46.271c-20.315,37.219-21.995,81.814-4.54,120.458l108.77-108.77
	L444.367,67.633z"/>
<path style="fill:#171C1F;" d="M449.486,72.753l-5.12-5.12l-46.271,46.271c-20.315,37.219-21.995,81.814-4.54,120.458l7.341-7.341
	C377.414,170.626,397.922,105.514,449.486,72.753z"/>
<g style="opacity:0.1;">
	<polygon points="485.421,118.347 183.551,420.217 26.579,263.245 19.334,270.49 183.551,434.707 492.666,125.592 	"/>
</g>
<path style="fill:#171C1F;" d="M506.335,111.924l-48.299-48.299c-7.539-7.549-19.774-7.554-27.323-0.014
	c-0.005,0.005-0.01,0.01-0.014,0.014L183.551,310.771L81.302,208.522c-7.539-7.549-19.774-7.554-27.323-0.014
	c-0.005,0.005-0.01,0.01-0.014,0.014L5.665,256.821c-7.549,7.539-7.554,19.774-0.014,27.323c0.005,0.005,0.01,0.01,0.014,0.014
	l164.217,164.217c7.54,7.549,19.774,7.554,27.323,0.014c0.005-0.005,0.01-0.01,0.014-0.014l309.115-309.115
	c7.549-7.54,7.554-19.774,0.014-27.323C506.344,111.933,506.339,111.928,506.335,111.924z M183.551,434.707L19.334,270.49
	l48.299-48.299L169.883,324.44l13.669,13.669l13.669-13.669L444.367,77.293l0,0l48.299,48.299L183.551,434.707z"/>
<g>
</g>
<g>
</g>
<g>
</g>
<g>
</g>
<g>
</g>
<g>
</g>
<g>
</g>
<g>
</g>
<g>
</g>
<g>
</g>
<g>
</g>
<g>
</g>
<g>
</g>
<g>
</g>
<g>
</g>
</svg>
