<svg xmlns="http://www.w3.org/2000/svg" viewBox="0 0 512 512">
  <path fill="#fcd577" d="M431.746 200.343l-1.084 1.084v286.097H81.091V201.427l-1.084-1.084L255.876 24.5z"/>
  <path fill="#eac36e" d="M81.091 245.061l174.785-174.76 174.786 174.76v-43.634l1.084-1.084L255.876 24.5 80.007 200.343l1.084 1.084z"/>
  <path fill="#ff6f52" d="M412.626 181.247V39.983h-81.265v60"/>
  <path fill="#cfdce5" d="M120.761 276.343h119.387v211.165H120.761z"/>
  <path fill="#4ebfed" d="M277.811 276.343h119.387V395.73H277.811z"/>
  <path fill="#415e72" d="M217.119 133.703h77.509v77.509h-77.509z"/>
  <path d="M509.42 265.453L340.298 96.331V48.792h63.648v95.567a8.809 8.809 0 0 0 17.616 0V39.984a8.809 8.809 0 0 0-8.808-8.808H331.49a8.809 8.809 0 0 0-8.808 8.808v38.732l-60.455-60.455a8.806 8.806 0 0 0-12.456 0L176.42 91.612c-3.44 3.44-3.44 9.017 0 12.455 3.44 3.44 9.017 3.44 12.455 0L256 36.945l69.228 69.228c.023.025.048.048.072.072l96.683 96.683v275.775H249.082V276.341a8.809 8.809 0 0 0-8.808-8.808H120.89a8.809 8.809 0 0 0-8.808 8.808v202.363H90.016V202.929l76.954-76.954c3.44-3.44 3.44-9.017 0-12.455-3.44-3.44-9.017-3.44-12.455 0L2.58 265.453c-3.44 3.44-3.44 9.017 0 12.455 1.719 1.719 3.974 2.58 6.228 2.58s4.508-.86 6.228-2.58L72.4 220.544v266.967a8.809 8.809 0 0 0 8.808 8.808H430.79a8.809 8.809 0 0 0 8.808-8.808V220.545l57.365 57.365c1.719 1.719 3.974 2.58 6.228 2.58s4.508-.86 6.228-2.58a8.806 8.806 0 0 0 .001-12.457zM129.698 478.704V285.149h101.768v193.555H129.698z"/>
  <path d="M269.136 276.341v119.384a8.809 8.809 0 0 0 8.808 8.808h119.385a8.809 8.809 0 0 0 8.808-8.808V276.341a8.809 8.809 0 0 0-8.808-8.808H277.944a8.808 8.808 0 0 0-8.808 8.808zm17.615 68.499h42.077v42.077h-42.077V344.84zm59.693 42.077V344.84h42.077v42.077h-42.077zm42.077-59.693h-42.077v-42.077h42.077v42.077zm-59.693-42.075v42.077h-42.077v-42.077h42.077zM294.759 124.899H217.25a8.809 8.809 0 0 0-8.808 8.808v77.509a8.809 8.809 0 0 0 8.808 8.808h77.509a8.809 8.809 0 0 0 8.808-8.808v-77.509a8.807 8.807 0 0 0-8.808-8.808zm-8.807 77.509h-59.893v-59.893h59.893v59.893z"/>
  <circle cx="209.427" cy="381.497" r="8.808"/>
</svg>
