<?xml version="1.0" encoding="iso-8859-1"?>
<!-- Generator: Adobe Illustrator 19.0.0, SVG Export Plug-In . SVG Version: 6.00 Build 0)  -->
<svg version="1.1" id="Layer_1" xmlns="http://www.w3.org/2000/svg" xmlns:xlink="http://www.w3.org/1999/xlink" x="0px" y="0px"
	 viewBox="0 0 512 512" style="enable-background:new 0 0 512 512;" xml:space="preserve">
<rect x="45.862" y="195.747" style="fill:#CFDCE5;" width="420.017" height="293.661"/>
<rect x="45.862" y="195.747" style="fill:#BAC6CC;" width="420.017" height="31.589"/>
<polygon style="fill:#FCD577;" points="503.096,195.747 8.646,195.747 52.964,102.501 69.332,68.069 442.41,68.069 "/>
<polygon style="fill:#EAC36E;" points="110.538,68.069 97.341,125.549 52.964,102.501 69.332,68.069 "/>
<rect x="102.021" y="258.925" style="fill:#4EBFED;" width="138.056" height="120.506"/>
<polygon style="fill:#92DDF4;" points="240.076,258.925 240.076,379.432 143.753,379.432 184.222,258.925 "/>
<rect x="308.8" y="258.925" style="fill:#DCE8EF;" width="106.771" height="230.483"/>
<rect x="338.049" y="288.174" style="fill:#4EBFED;" width="48.273" height="171.985"/>
<rect x="97.341" y="22.592" style="fill:#FF6F52;" width="79.558" height="102.957"/>
<rect x="88.566" y="379.432" style="fill:#DCE8EF;" width="164.965" height="29.249"/>
<path d="M202.181,76.844h171.4c4.847,0,8.775-3.929,8.775-8.775s-3.928-8.775-8.775-8.775h-171.4c-4.846,0-8.775,3.929-8.775,8.775
	S197.335,76.844,202.181,76.844z"/>
<path d="M511.149,191.98L450.463,64.302c-1.453-3.059-4.538-5.009-7.924-5.009H402.83c-4.847,0-8.775,3.929-8.775,8.775
	c0,4.846,3.928,8.775,8.775,8.775h34.163l52.344,110.129h-23.329H45.991h-23.33L75.005,76.843h13.69v48.706
	c0,4.846,3.929,8.775,8.775,8.775h79.558c4.846,0,8.775-3.929,8.775-8.775V22.591c0-4.846-3.929-8.775-8.775-8.775H97.469
	c-4.846,0-8.775,3.929-8.775,8.775v36.702H69.461c-3.387,0-6.471,1.949-7.925,5.009L0.849,191.98
	c-1.292,2.719-1.1,5.909,0.508,8.454c1.609,2.545,4.408,4.088,7.418,4.088h28.442v284.886c0,4.846,3.929,8.775,8.775,8.775h420.017
	c4.847,0,8.775-3.929,8.775-8.775V204.522h28.442c3.009,0,5.81-1.543,7.418-4.088C512.251,197.889,512.442,194.699,511.149,191.98z
	 M106.244,31.367h62.008v85.407h-62.008V31.367z M457.234,480.634h-32.759V336.143c0-4.846-3.928-8.775-8.775-8.775
	s-8.775,3.929-8.775,8.775v144.491h-89.219V267.7h89.219v39.194c0,4.846,3.928,8.775,8.775,8.775s8.775-3.929,8.775-8.775v-47.969
	c0-4.846-3.928-8.775-8.775-8.775H308.931c-4.847,0-8.775,3.929-8.775,8.775v221.708H54.766V204.522h402.468V480.634z"/>
<path d="M386.451,279.4h-48.27c-4.847,0-8.775,3.929-8.775,8.775v171.985c0,4.846,3.928,8.775,8.775,8.775h48.27
	c4.847,0,8.775-3.929,8.775-8.775V288.174C395.226,283.328,391.298,279.4,386.451,279.4z M346.955,339.068h30.721v26.324h-30.721
	V339.068z M346.955,382.942h30.721v26.324h-30.721V382.942z M377.676,296.949v24.569h-30.721v-24.569H377.676z M346.955,451.385
	v-24.569h30.721v24.569H346.955z"/>
<path d="M88.695,417.456h14.625c4.846,0,8.775-3.929,8.775-8.775c0-4.846-3.929-8.775-8.775-8.775h-5.85v-11.7h4.68h142.736v11.7
	H126.719c-4.846,0-8.775,3.929-8.775,8.775c0,4.846,3.929,8.775,8.775,8.775H253.66c4.846,0,8.775-3.929,8.775-8.775v-29.249
	c0-4.846-3.928-8.775-8.775-8.775h-4.68V258.925c0-4.846-3.929-8.775-8.775-8.775H102.149c-4.846,0-8.775,3.929-8.775,8.775v111.732
	h-4.68c-4.846,0-8.775,3.929-8.775,8.775v29.249C79.92,413.527,83.849,417.456,88.695,417.456z M179.952,370.657v-42.704h51.478
	v42.704H179.952z M231.43,310.404h-51.478V267.7h51.478V310.404z M162.403,267.7v42.704h-51.478V267.7H162.403z M110.924,327.953
	h51.478v42.704h-51.478V327.953z"/>
<g>
</g>
<g>
</g>
<g>
</g>
<g>
</g>
<g>
</g>
<g>
</g>
<g>
</g>
<g>
</g>
<g>
</g>
<g>
</g>
<g>
</g>
<g>
</g>
<g>
</g>
<g>
</g>
<g>
</g>
</svg>
