<?xml version="1.0" encoding="iso-8859-1"?>
<!-- Generator: Adobe Illustrator 19.0.0, SVG Export Plug-In . SVG Version: 6.00 Build 0)  -->
<svg version="1.1" id="Capa_1" xmlns="http://www.w3.org/2000/svg" xmlns:xlink="http://www.w3.org/1999/xlink" x="0px" y="0px"
	 viewBox="0 0 512 512" style="enable-background:new 0 0 512 512;" xml:space="preserve">
<path style="fill:#EFF2FA;" d="M469.851,193.607h-98.73c-13.659,0-25.828-8.628-30.348-21.517l-2.647-7.546
	c-5.538-15.789-20.445-26.358-37.177-26.358h-88.991c-17.172,0-32.366,11.122-37.555,27.491l-1.74,5.488
	c-4.236,13.362-16.639,22.442-30.657,22.442H42.15c-19.136,0-34.649,15.513-34.649,34.649V468.05c0,19.136,15.513,34.65,34.65,34.65
	h427.701c19.136,0,34.649-15.513,34.649-34.649V228.256C504.5,209.12,488.987,193.607,469.851,193.607z"/>
<rect x="233.24" y="9.3" style="fill:#FF6679;" width="54.06" height="169.37"/>
<path style="fill:#BBD7FF;" d="M238.219,427.858l-74.802-11.364l-72.263,11.233c-25.868,4.021-44.946,26.294-44.946,52.472V502.7
	h237.137v-22.342C283.345,454.11,264.169,431.8,238.219,427.858z"/>
<polygon style="fill:#5B5D6E;" points="174.567,471.698 157.162,471.698 153.355,502.7 178.374,502.7 "/>
<path style="fill:#515262;" d="M179.462,461.364c0,7.51-6.088,13.597-13.597,13.597l0,0c-7.51,0-13.597-6.088-13.597-13.597v-8.974
	h27.195v8.974H179.462z"/>
<polygon style="fill:#F4AB98;" points="207.472,452.39 126.432,452.39 120.836,395.864 210.881,395.007 "/>
<path style="fill:#F29D86;" d="M209.772,413.668l-3.569,4.547c-8.525,5.502-16.257,7.538-21.71,8.34
	c-34.972,5.138-61.546-27.986-63.651-30.691l90.045-0.856L209.772,413.668z"/>
<path style="fill:#F7B89C;" d="M206.073,399.582l-22.582,12.668c-4.96,2.782-10.551,4.244-16.238,4.244h-3.956
	c-5.629,0-11.165-1.432-16.089-4.16l-23.057-12.778c-8.997-4.987-14.58-14.463-14.58-24.75v-93.197h110.954v93.295
	C220.526,385.137,214.999,394.574,206.073,399.582z"/>
<path style="fill:#F4AB98;" d="M201.502,281.608l-2.188-4.623l-66.899,2.719c0,0,3.535,9.518,7.498,14.957
	c3.962,5.439,17.521,10.878,28.127,11.966c0.565,0.058,1.174,0.12,1.82,0.186c16.706,1.706,29.415,15.777,29.415,32.569v31.675
	c0,10.235-5.527,19.672-14.453,24.679l-22.582,12.668c-4.463,2.504-9.438,3.933-14.533,4.196c4.797,2.553,10.149,3.894,15.589,3.894
	h3.956c5.687,0,11.278-1.461,16.238-4.243l22.582-12.668c8.926-5.007,14.453-14.444,14.453-24.679v-93.295h-19.023V281.608z"/>
<path style="fill:#515262;" d="M188.359,238.117l-42.305-2.895c-7.334-0.502-13.56,5.312-13.56,12.664l0,0
	c-22.873,0-41.414,18.542-41.414,41.414v13.725c0,2.02,0.379,4.022,1.116,5.903l6.982,17.804c1.677,4.276,5.801,7.089,10.394,7.089
	l0,0v-24.747h3.528c12.301,0,22.274-9.972,22.274-22.274l0,0l0,0c4.83,6.11,12.302,10.036,20.696,10.036h44.38
	c11.088,0,20.076,8.988,20.076,20.076v16.999l0,0c4.54-0.054,8.528-3.027,9.877-7.362l4.114-13.222
	c0.821-2.639,1.239-5.388,1.239-8.152v-16.31C235.755,262.12,215.042,239.943,188.359,238.117z"/>
<path style="fill:#464754;" d="M188.359,238.117l-42.305-2.895c-7.334-0.502-13.56,5.312-13.56,12.664l0,0
	c-5.518,10.062-6.605,25.563,2.88,38.914l0,0l0,0c4.83,6.11,12.302,10.036,20.696,10.036h44.38c11.088,0,20.076,8.988,20.076,20.076
	v16.999l0,0c4.54-0.054,8.528-3.027,9.877-7.362l4.114-13.222c0.821-2.639,1.239-5.388,1.239-8.152v-16.31
	C235.755,262.12,215.042,239.943,188.359,238.117z"/>
<g>
	<path style="fill:#373842;" d="M130.76,296.837c-1.888,0-3.974-0.508-6.074-1.295c-7.069-2.651-14.897-0.411-19.7,5.414
		c-3.158,3.83-7.571,6.587-12.61,7.642c-0.074,0.135-0.107,0.196-0.181,0.331l6.982,17.804c1.677,4.276,5.801,7.089,10.394,7.089
		l0,0v-24.747h3.528c8.69,0,16.212-4.979,19.883-12.238L130.76,296.837L130.76,296.837z"/>
	<path style="fill:#373842;" d="M188.359,238.117l-42.378-2.9c-2.328-0.159-4.542,0.323-6.48,1.288l23.548,1.611
		c26.684,1.826,47.396,24.003,47.396,50.749v10.638c6.022,3.466,10.081,9.961,10.081,17.408v16.999l0,0
		c4.54-0.054,8.528-3.027,9.877-7.362l4.114-13.222c0.821-2.639,1.239-5.388,1.239-8.152v-16.31
		C235.755,262.12,215.042,239.943,188.359,238.117z"/>
</g>
<g>
	<path style="fill:#859FFF;" d="M122.96,414.385l42.547,38.005l-27.269,20.058c-1.878,1.434-4.6,0.772-5.609-1.364l-21.922-46.396
		l7.677-9.886C119.501,413.363,121.602,413.172,122.96,414.385z"/>
	<path style="fill:#859FFF;" d="M208.227,414.415l-42.719,37.975l27.486,20.058c1.878,1.434,4.6,0.772,5.609-1.364l21.922-45.914
		l-7.694-10.288C211.73,413.407,209.602,413.192,208.227,414.415z"/>
	<path style="fill:#859FFF;" d="M60.132,444.368L60.132,444.368c-8.69,9.505-13.923,22.13-13.923,35.831V502.7h41.426v-30.829
		C87.635,456.681,75.321,444.368,60.132,444.368z"/>
	<path style="fill:#859FFF;" d="M241.919,471.036V502.7h41.426v-22.342c0-13.78-5.291-26.469-14.067-35.99h-0.691
		C253.859,444.368,241.919,456.307,241.919,471.036z"/>
</g>
<path d="M444.466,249.19H276.58c-4.143,0-7.5,3.357-7.5,7.5s3.357,7.5,7.5,7.5h167.886c4.143,0,7.5-3.357,7.5-7.5
	S448.608,249.19,444.466,249.19z"/>
<path d="M444.466,298.47H276.58c-4.143,0-7.5,3.357-7.5,7.5s3.357,7.5,7.5,7.5h167.886c4.143,0,7.5-3.357,7.5-7.5
	S448.608,298.47,444.466,298.47z"/>
<path d="M444.466,353.102H341.99c-4.143,0-7.5,3.357-7.5,7.5s3.357,7.5,7.5,7.5h102.476c4.143,0,7.5-3.357,7.5-7.5
	S448.608,353.102,444.466,353.102z"/>
<path d="M444.466,395.034H341.99c-4.143,0-7.5,3.357-7.5,7.5s3.357,7.5,7.5,7.5h102.476c4.143,0,7.5-3.357,7.5-7.5
	S448.608,395.034,444.466,395.034z"/>
<path d="M444.466,436.967H341.99c-4.143,0-7.5,3.357-7.5,7.5s3.357,7.5,7.5,7.5h102.476c4.143,0,7.5-3.357,7.5-7.5
	S448.608,436.967,444.466,436.967z"/>
<circle cx="310.05" cy="357.92" r="7.66"/>
<circle cx="310.05" cy="402.53" r="7.66"/>
<circle cx="310.05" cy="444.45" r="7.66"/>
<path d="M469.852,186.106H407.37c-4.143,0-7.5,3.357-7.5,7.5s3.357,7.5,7.5,7.5h62.481c14.97,0,27.148,12.18,27.148,27.149V468.05
	c0,14.97-12.179,27.149-27.149,27.149H290.845v-14.843c0-0.045,0-0.09-0.001-0.136c-0.467-25.82-14.16-41.071-25.566-49.319
	c-7.7-5.566-16.443-9.089-25.933-10.46l-14.306-2.173l-7.457-9.601l0.54-9.08c6.251-6.566,9.904-15.368,9.904-24.686V339.03
	l12.945-21.885c0.297-0.501,0.533-1.034,0.706-1.59c1.047-3.365,1.578-6.857,1.578-10.38v-16.311
	c0-30.567-23.888-56.146-54.384-58.231l-42.379-2.899c-5.562-0.379-11.087,1.592-15.152,5.41c-2.272,2.135-3.998,4.761-5.071,7.636
	c-24.043,3.067-42.689,23.657-42.689,48.52v13.726c0,2.969,0.55,5.876,1.634,8.641c0.216,0.549,0.495,1.071,0.833,1.555
	l16.025,22.959v38.624c0,10.248,4.4,19.855,11.825,26.56l0.707,6.086c-0.025,0.031-0.053,0.059-0.078,0.09l-7.915,10.192
	l-16.608,2.582c-29.722,4.621-51.294,29.806-51.294,59.884v14.775C25.358,493.276,15,481.854,15,468.051c0-4.143-3.357-7.5-7.5-7.5
	s-7.5,3.357-7.5,7.5C0,491.292,18.908,510.2,42.15,510.2h4.058h107.146h25.02h104.971h186.506c23.241,0,42.149-18.908,42.149-42.149
	V228.256C512,205.015,493.092,186.106,469.852,186.106z M139.721,300.119c4.851,2.685,10.423,4.218,16.348,4.218h44.381
	c6.934,0,12.575,5.642,12.575,12.576v16.999v40.99c0,7.513-4.07,14.463-10.621,18.139l-22.582,12.668
	c-3.831,2.148-8.177,3.284-12.569,3.284h-3.956c-4.346,0-8.652-1.113-12.453-3.22c0,0-25.541-14.459-25.87-14.666
	c-4.936-3.906-7.903-9.889-7.903-16.303v-40.983V316.31C126.999,314.981,135.391,308.738,139.721,300.119z M165.617,443.247
	l-33.773-30.854l11.73,6.501c6.021,3.336,12.841,5.1,19.724,5.1h3.956c6.957,0,13.841-1.799,19.907-5.202l13.537-7.594
	L165.617,443.247z M121.39,423.159l31.432,28.716l-15.411,11.769l-17.954-37.996L121.39,423.159z M160.756,464.689l4.861-3.712
	l5.178,3.954c-1.118,1.531-2.928,2.53-4.93,2.53C163.729,467.462,161.846,466.361,160.756,464.689z M178.412,451.875l31.431-28.716
	l1.934,2.489l-17.953,37.995L178.412,451.875z M98.579,303.026V289.3c0-18.7,15.214-33.914,33.915-33.914
	c1.997,0,3.911-0.796,5.318-2.212c1.408-1.416,2.193-3.335,2.182-5.332c-0.009-1.44,0.565-2.778,1.615-3.765
	c1.052-0.986,2.426-1.471,3.859-1.378l42.379,2.899c22.658,1.55,40.407,20.555,40.407,43.267v16.311c0,1.74-0.228,3.468-0.677,5.147
	l-0.255,0.43c-2.806-12.249-13.786-21.418-26.873-21.418h-44.381c-10.407,0-18.874-8.467-18.874-18.874v-2.996
	c0-4.143-3.357-7.5-7.5-7.5s-7.5,3.357-7.5,7.5v2.996c0,6.814,2.03,13.159,5.506,18.478c-1.042,7.133-7.183,12.633-14.601,12.633
	h-3.528c-4.143,0-7.5,3.357-7.5,7.5v0.899l-3.139-4.496C98.698,304.683,98.579,303.861,98.579,303.026z M53.708,480.199
	c0-22.634,16.233-41.585,38.599-45.062l14.014-2.179l21.489,45.479c0.968,2.048,2.809,3.548,5.009,4.083
	c0.586,0.143,1.181,0.213,1.772,0.213c1.629,0,3.231-0.531,4.552-1.539l9.679-7.391c0.144,0.197,0.305,0.38,0.456,0.572
	L146.72,495.2H53.708V480.199z M161.832,495.2l1.584-12.894c0.805,0.093,1.619,0.156,2.448,0.156c0.83,0,1.644-0.062,2.449-0.153
	l1.583,12.892L161.832,495.2L161.832,495.2z M185.01,495.2l-2.55-20.764c0.098-0.125,0.203-0.243,0.298-0.37l9.334,7.128
	c1.32,1.008,2.923,1.539,4.552,1.539c0.592,0,1.187-0.07,1.772-0.213c2.2-0.535,4.041-2.035,5.009-4.083l21.284-45.046l12.438,1.889
	c7.12,1.029,13.628,3.646,19.344,7.777c8.625,6.237,18.979,17.782,19.355,37.368V495.2H185.01z"/>
<path d="M7.5,440.455c4.143,0,7.5-3.357,7.5-7.5V228.256c0-14.971,12.179-27.149,27.149-27.149h99.857
	c17.365,0,32.559-11.122,37.807-27.676l1.739-5.486c4.221-13.313,16.439-22.258,30.406-22.258h13.781v25.478h-3.471
	c-4.143,0-7.5,3.357-7.5,7.5s3.357,7.5,7.5,7.5h10.971h54.063h11.835c4.143,0,7.5-3.357,7.5-7.5s-3.357-7.5-7.5-7.5h-4.335v-25.478
	h6.146c13.527,0,25.623,8.575,30.1,21.34l2.647,7.547c5.566,15.87,20.606,26.533,37.425,26.533c4.143,0,7.5-3.357,7.5-7.5
	s-3.357-7.5-7.5-7.5c-10.458,0-19.81-6.63-23.271-16.498l-2.647-7.547c-6.581-18.767-24.365-31.375-44.254-31.375h-6.146V9.3
	c0-4.143-3.357-7.5-7.5-7.5H233.24c-4.143,0-7.5,3.357-7.5,7.5v121.387h-13.781c-20.534,0-38.5,13.151-44.705,32.726l-1.739,5.486
	c-3.263,10.293-12.71,17.208-23.508,17.208H42.149C18.908,186.106,0,205.015,0,228.256v204.699C0,437.098,3.357,440.455,7.5,440.455
	z M240.74,16.8h39.063v154.364H240.74V16.8z"/>
<g>
</g>
<g>
</g>
<g>
</g>
<g>
</g>
<g>
</g>
<g>
</g>
<g>
</g>
<g>
</g>
<g>
</g>
<g>
</g>
<g>
</g>
<g>
</g>
<g>
</g>
<g>
</g>
<g>
</g>
</svg>
