<svg xmlns="http://www.w3.org/2000/svg" xmlns:xlink="http://www.w3.org/1999/xlink" width="300" height="110" viewBox="0 0 300 110"><defs><style>.a{clip-path:url(#b);}.b{fill:#fff;}.c{fill:#ffc400;}.d{fill:rgba(0,108,255,0);}</style><clipPath id="b"><rect width="300" height="110"/></clipPath></defs><g id="a" class="a"><rect class="d" width="300" height="110"/><path class="b" d="M8.88,0V-55.92H21.36v44.8H45.2V0Zm80.8,0H78.4V-5.2A14.14,14.14,0,0,1,66.92.64,17.071,17.071,0,0,1,55.44-3.32,13.185,13.185,0,0,1,50.8-13.88q0-6.6,4.8-9.88t13.12-3.28h8.96v-.24q0-6.88-7.28-6.88a19.678,19.678,0,0,0-6.6,1.24,21.408,21.408,0,0,0-5.88,3.08L52.56-37.6a32.1,32.1,0,0,1,19.36-6.16q7.84,0,12.8,3.92t4.96,12.4ZM77.6-16.4v-2.08H70.08q-7.2,0-7.2,4.48a4.122,4.122,0,0,0,1.72,3.56A8.328,8.328,0,0,0,69.52-9.2a8.747,8.747,0,0,0,5.64-1.96A6.378,6.378,0,0,0,77.6-16.4ZM110.64-24V0h-12V-43.04h12v4.8q5.44-5.52,12.24-5.52a15.154,15.154,0,0,1,11.4,4.8q4.6,4.8,4.6,12.8V0h-12V-24.32q0-9.92-7.28-9.92a8.73,8.73,0,0,0-6.28,2.6Q110.64-29.04,110.64-24ZM166.96.64q-7.6,0-13.6-6.48a22.77,22.77,0,0,1-6-16.08q0-9.6,5.84-15.72a18.33,18.33,0,0,1,13.68-6.12,16.419,16.419,0,0,1,12.8,5.52V-59.36h12V0h-12V-5.68A15.61,15.61,0,0,1,166.96.64Zm-7.52-22.08a11.942,11.942,0,0,0,3.12,8.52,9.7,9.7,0,0,0,7.28,3.32,9.094,9.094,0,0,0,7.08-3.32,12.485,12.485,0,0,0,2.92-8.56,13.1,13.1,0,0,0-2.92-8.72,9.008,9.008,0,0,0-7.16-3.48,9.312,9.312,0,0,0-7.28,3.52A12.871,12.871,0,0,0,159.44-21.44ZM215.04,0h-12V-43.04h12ZM204-48.48a7.005,7.005,0,0,1-2-5.04,6.8,6.8,0,0,1,2.04-5,6.8,6.8,0,0,1,5-2.04,6.8,6.8,0,0,1,5,2.04,6.8,6.8,0,0,1,2.04,5,6.8,6.8,0,0,1-2.04,5,6.8,6.8,0,0,1-5,2.04A7.005,7.005,0,0,1,204-48.48ZM262.96,0H251.68V-5.2A14.14,14.14,0,0,1,240.2.64a17.071,17.071,0,0,1-11.48-3.96,13.185,13.185,0,0,1-4.64-10.56q0-6.6,4.8-9.88T242-27.04h8.96v-.24q0-6.88-7.28-6.88a19.678,19.678,0,0,0-6.6,1.24,21.409,21.409,0,0,0-5.88,3.08l-5.36-7.76a32.1,32.1,0,0,1,19.36-6.16q7.84,0,12.8,3.92t4.96,12.4ZM250.88-16.4v-2.08h-7.52q-7.2,0-7.2,4.48a4.122,4.122,0,0,0,1.72,3.56A8.328,8.328,0,0,0,242.8-9.2a8.747,8.747,0,0,0,5.64-1.96A6.378,6.378,0,0,0,250.88-16.4Z" transform="translate(17.12 81.56)"/><path class="c" d="M215.04,0h-12V-43.04h12ZM204-48.48a7.005,7.005,0,0,1-2-5.04,6.8,6.8,0,0,1,2.04-5,6.8,6.8,0,0,1,5-2.04,6.8,6.8,0,0,1,5,2.04,6.8,6.8,0,0,1,2.04,5,6.8,6.8,0,0,1-2.04,5,6.8,6.8,0,0,1-5,2.04A7.005,7.005,0,0,1,204-48.48Z" transform="translate(17.12 81.56)"/></g></svg>