<?xml version="1.0" encoding="UTF-8"?>
<svg width="282px" height="57px" viewBox="0 0 282 57" version="1.1" xmlns="http://www.w3.org/2000/svg" xmlns:xlink="http://www.w3.org/1999/xlink">
    <!-- Generator: Sketch 53.2 (72643) - https://sketchapp.com -->
    <title>landia_experiment</title>
    <desc>Created with Sketch.</desc>
    <g id="Page-1" stroke="none" stroke-width="1" fill="none" fill-rule="evenodd">
        <g id="landia_experiment" transform="translate(0.000000, -21.000000)" fill-rule="nonzero">
            <rect id="Rectangle" fill-opacity="0" fill="#006CFF" x="25.751073" y="1.2047162" width="274.248927" height="100.429185"></rect>
            <path d="M0,76.3901738 L0,24.968833 L11.4224832,24.968833 L11.4224832,66.164757 L33.242355,66.164757 L33.242355,76.3901738 L0,76.3901738 Z M73.9532567,76.3901738 L63.6290892,76.3901738 L63.6290892,71.6085041 C61.1885978,74.9903223 57.279533,76.9882241 53.121869,76.978687 C49.2936062,77.0998066 45.5544204,75.803939 42.6146489,73.3372616 C39.7901744,70.927214 38.2244004,67.3470305 38.3678282,63.6267938 C38.3678282,59.5807656 39.8322491,56.5523747 42.761091,54.5416213 C45.6899328,52.5308679 49.6926834,51.5254912 54.7693426,51.5254912 L62.9700997,51.5254912 L62.9700997,51.3047987 C62.9700997,47.0871208 60.7490613,44.9782818 56.3069845,44.9782818 C54.2432507,45.0078105 52.1999236,45.3935073 50.2662482,46.1185261 C48.3366787,46.7757414 46.5209418,47.7312984 44.8845013,48.9507459 L39.9786912,41.8150234 C45.119001,38.049251 51.337053,36.0615091 57.6981844,36.1505838 C62.4819594,36.1505838 66.3870819,37.3521316 69.4135518,39.7552272 C72.4400217,42.1583227 73.9532567,45.9591371 73.9532567,51.1576704 L73.9532567,76.3901738 Z M62.8968787,61.3095231 L62.8968787,59.3968552 L56.0141003,59.3968552 C51.6208376,59.3968552 49.4242062,60.7700527 49.4242062,63.5164476 C49.3598414,64.8057902 49.9530724,66.039394 50.9984587,66.7900523 C52.3449032,67.6314606 53.9190124,68.0300463 55.501553,67.9302966 C57.3793963,67.9564238 59.206615,67.3184574 60.6636368,66.1279749 C62.131318,64.9723654 62.961184,63.1818431 62.8968787,61.3095231 Z M93.1371708,54.3209289 L93.1371708,76.3901738 L82.1540138,76.3901738 L82.1540138,36.8126612 L93.1371708,36.8126612 L93.1371708,41.2265102 C96.4565249,37.8425593 100.190798,36.1505838 104.339991,36.1505838 C108.284545,36.0638907 112.079165,37.6691123 114.77399,40.5644328 C117.580797,43.5069988 118.9842,47.4304201 118.9842,52.3346968 L118.9842,76.3901738 L108.001043,76.3901738 L108.001043,54.0266723 C108.001043,47.9453692 105.780005,44.9047177 101.337928,44.9047177 C99.1791761,44.8888215 97.1058832,45.7512134 95.5900758,47.2955525 C93.9548058,48.8894424 93.1371708,51.2312346 93.1371708,54.3209289 Z M144.684787,76.978687 C140.047454,76.978687 135.898262,74.992455 132.237209,71.0199909 C128.557098,66.9995108 126.586429,61.6933694 126.745631,56.2335968 C126.745631,50.3484648 128.527343,45.5300129 132.090767,41.7782413 C135.27555,38.1955876 139.830479,36.1483078 144.611566,36.1505838 C149.073236,36.0104568 153.365992,37.8703824 156.326934,41.2265102 L156.326934,21.8055746 L167.310091,21.8055746 L167.310091,76.3901738 L156.326934,76.3901738 L156.326934,71.1671192 C153.598973,74.8686524 149.268779,77.0302138 144.684787,76.978687 Z M137.802009,56.6749817 C137.69089,59.5622561 138.716903,62.3771902 140.65763,64.5095636 C142.337997,66.443002 144.765949,67.5554432 147.320745,67.5624759 C149.82821,67.577456 152.208774,66.4559155 153.800808,64.5095636 C155.639524,62.3135682 156.592997,59.5053564 156.473376,56.6381996 C156.576227,53.7287183 155.626832,50.880254 153.800808,48.6197072 C152.229495,46.5885072 149.808035,45.4060816 147.247524,45.4196667 C144.651763,45.4228911 142.198953,46.6144226 140.584409,48.6564893 C138.701633,50.8915139 137.710306,53.7483812 137.802009,56.6749817 L137.802009,56.6749817 Z M281.974249,76.5740842 L271.650081,76.5740842 L271.650081,71.7924145 C269.20959,75.1742327 265.300525,77.1721344 261.142861,77.1625974 C257.314598,77.283717 253.575413,75.9878494 250.635641,73.521172 C247.811167,71.1111244 246.245393,67.5309408 246.38882,63.8107042 C246.38882,59.764676 247.853241,56.7362851 250.782083,54.7255317 C253.710925,52.7147782 257.713676,51.7094015 262.790335,51.7094015 L270.991092,51.7094015 L270.991092,51.4887091 C270.991092,47.2710312 268.770054,45.1621922 264.327977,45.1621922 C262.264243,45.1917209 260.220916,45.5774176 258.28724,46.3024365 C256.357677,46.9596656 254.541942,47.9152215 252.905494,49.1346563 L247.999683,41.9989337 C253.139993,38.2331614 259.358045,36.2454194 265.719177,36.3344942 C270.502952,36.3344942 274.408074,37.536042 277.434544,39.9391375 C280.461014,42.3422331 281.974249,46.1430475 281.974249,51.3415808 L281.974249,76.5740842 Z M270.917871,61.4934335 L270.917871,59.5807656 L264.035093,59.5807656 C259.64183,59.5807656 257.445198,60.953963 257.445198,63.700358 C257.380834,64.9897006 257.974065,66.2233044 259.019451,66.9739627 C260.365895,67.815371 261.940005,68.2139567 263.522545,68.114207 C265.400389,68.1403341 267.227607,67.5023678 268.684629,66.3118853 C270.15231,65.1562758 270.982176,63.3657535 270.917871,61.4934335 L270.917871,61.4934335 Z" id="Shape" fill="#FFFFFF"></path>
            <path d="M223.289116,32.8512226 C222.085752,31.6230055 221.426816,29.9624886 221.460592,28.2433428 C221.42466,26.5274541 222.099659,24.8730427 223.325686,23.6720335 C224.526696,22.4460065 226.181107,21.7710067 227.896996,21.8069393 C229.612884,21.7710067 231.267296,22.4460065 232.468305,23.6720335 C233.694332,24.8730427 234.369332,26.5274541 234.333399,28.2433428 C234.369332,29.9592315 233.694332,31.6136429 232.468305,32.8146521 C231.267296,34.0406791 229.612884,34.7156789 227.896996,34.6797464 C226.17785,34.7135222 224.517333,34.0545869 223.289116,32.8512226 L223.289116,32.8512226 Z" id="Shape" fill="#FFC400"></path>
            <g id="cityscape" transform="translate(173.819742, 25.668236)">
                <g id="Group" fill="#08446D">
                    <polygon id="Path" points="56.8182289 51.8298869 0 51.8298869 0 40.3771538 8.3556219 34.2746026 56.8182289 34.2746026"></polygon>
                    <rect id="Rectangle" x="22.2816584" y="0" width="7.79858044" height="5.0157955"></rect>
                </g>
                <polyline id="Path" fill="#00233F" points="22.9105762 0 30.2419606 0 30.2419606 4.5464813"></polyline>
                <rect id="Rectangle" fill="#08446D" x="15.5791918" y="1.81859252" width="21.0777301" height="17.276629"></rect>
                <g id="Group" transform="translate(10.997077, 1.818593)" fill="#00233F">
                    <polyline id="Path" points="4.48029045 0 25.7616701 0 25.7616701 16.6704314"></polyline>
                    <rect id="Rectangle" x="0" y="5.83465101" width="30.2419606" height="44.1766433"></rect>
                </g>
                <rect id="Rectangle" fill="#22EFAB" x="23.8269992" y="11.8208514" width="5.49853828" height="3.63718504"></rect>
                <polyline id="Path" fill="#0DD396" points="29.3255375 11.8208514 29.3255375 15.4580364 23.8269992 15.4580364"></polyline>
                <rect id="Rectangle" fill="#22EFAB" x="23.8269992" y="18.1859252" width="5.49853828" height="3.63718504"></rect>
                <polyline id="Path" fill="#0DD396" points="29.3255375 18.1859252 29.3255375 21.8231103 23.8269992 21.8231103"></polyline>
                <rect id="Rectangle" fill="#22EFAB" x="23.8269992" y="23.6417028" width="5.49853828" height="3.63718504"></rect>
                <polyline id="Path" fill="#0DD396" points="29.3255375 23.6417028 29.3255375 27.2788878 23.8269992 27.2788878"></polyline>
                <rect id="Rectangle" fill="#22EFAB" x="23.8269992" y="30.0067766" width="5.49853828" height="3.63718504"></rect>
                <polyline id="Path" fill="#0DD396" points="29.3255375 30.0067766 29.3255375 33.6439616 23.8269992 33.6439616"></polyline>
                <rect id="Rectangle" fill="#22EFAB" x="23.8269992" y="35.4625542" width="5.49853828" height="3.63718504"></rect>
                <polyline id="Path" fill="#0DD396" points="29.3255375 35.4625542 29.3255375 39.0997392 23.8269992 39.0997392"></polyline>
                <rect id="Rectangle" fill="#22EFAB" x="15.5791918" y="18.1859252" width="5.49853828" height="3.63718504"></rect>
                <polyline id="Path" fill="#0DD396" points="21.0777301 18.1859252 21.0777301 21.8231103 15.5791918 21.8231103"></polyline>
                <rect id="Rectangle" fill="#22EFAB" x="15.5791918" y="23.6417028" width="5.49853828" height="3.63718504"></rect>
                <polyline id="Path" fill="#0DD396" points="21.0777301 23.6417028 21.0777301 27.2788878 15.5791918 27.2788878"></polyline>
                <rect id="Rectangle" fill="#22EFAB" x="15.5791918" y="30.0067766" width="5.49853828" height="3.63718504"></rect>
                <polyline id="Path" fill="#0DD396" points="21.0777301 30.0067766 21.0777301 33.6439616 15.5791918 33.6439616"></polyline>
                <rect id="Rectangle" fill="#22EFAB" x="15.5791918" y="35.4625542" width="5.49853828" height="3.63718504"></rect>
                <polyline id="Path" fill="#0DD396" points="21.0777301 35.4625542 21.0777301 39.0997392 15.5791918 39.0997392"></polyline>
                <rect id="Rectangle" fill="#22EFAB" x="15.5791918" y="11.8208514" width="5.49853828" height="3.63718504"></rect>
                <polyline id="Path" fill="#0DD396" points="21.0777301 11.8208514 21.0777301 15.4580364 15.5791918 15.4580364"></polyline>
                <rect id="Rectangle" fill="#22EFAB" x="31.1583836" y="11.8208514" width="5.49853828" height="3.63718504"></rect>
                <polyline id="Path" fill="#0DD396" points="36.6569219 11.8208514 36.6569219 15.4580364 31.1583836 15.4580364"></polyline>
                <rect id="Rectangle" fill="#22EFAB" x="31.1583836" y="18.1859252" width="5.49853828" height="3.63718504"></rect>
                <polyline id="Path" fill="#0DD396" points="36.6569219 18.1859252 36.6569219 21.8231103 31.1583836 21.8231103"></polyline>
                <rect id="Rectangle" fill="#22EFAB" x="31.1583836" y="23.6417028" width="5.49853828" height="3.63718504"></rect>
                <polyline id="Path" fill="#0DD396" points="36.6569219 23.6417028 36.6569219 27.2788878 31.1583836 27.2788878"></polyline>
                <rect id="Rectangle" fill="#22EFAB" x="31.1583836" y="30.0067766" width="5.49853828" height="3.63718504"></rect>
                <polyline id="Path" fill="#0DD396" points="36.6569219 30.0067766 36.6569219 33.6439616 31.1583836 33.6439616"></polyline>
                <rect id="Rectangle" fill="#22EFAB" x="31.1583836" y="35.4625542" width="5.49853828" height="3.63718504"></rect>
                <polyline id="Path" fill="#0DD396" points="36.6569219 35.4625542 36.6569219 39.0997392 31.1583836 39.0997392"></polyline>
                <path d="M30.2419606,50.9205906 L30.2419606,44.5353102 C30.2419606,43.9695258 29.5088221,43.6462205 28.7756837,43.6462205 L24.272119,43.6462205 C23.5389806,43.6462205 22.9105762,44.0503522 22.9105762,44.5353102 L22.9105762,50.9205906 L30.2419606,50.9205906 Z" id="Path" fill="#C6640C"></path>
                <g id="Group" transform="translate(44.904729, 0.909296)" fill="#08446D">
                    <rect id="Rectangle" x="0" y="19.8228741" width="21.0777301" height="30.8819513"></rect>
                    <rect id="Rectangle" x="3.32806265" y="14.8149901" width="14.4216048" height="11.6850626"></rect>
                    <rect id="Rectangle" x="6.65612529" y="8.97245881" width="7.76547951" height="10.8504153"></rect>
                    <polygon id="Path" points="6.10144818 20.4071273 10.538865 0.0417323666 14.9762819 20.4071273 10.538865 23.7457166"></polygon>
                </g>
                <g id="Group" transform="translate(49.486845, 23.641703)" fill="#5A8CA8">
                    <rect id="Rectangle" x="0" y="0" width="1.09970766" height="24.550999"></rect>
                    <rect id="Rectangle" x="5.49853828" y="0" width="1.09970766" height="24.550999"></rect>
                    <rect id="Rectangle" x="9.89736891" y="0" width="1.09970766" height="24.550999"></rect>
                </g>
            </g>
        </g>
    </g>
</svg>