<?xml version="1.0" encoding="UTF-8"?>
<!DOCTYPE svg PUBLIC "-//W3C//DTD SVG 1.1//EN" "http://www.w3.org/Graphics/SVG/1.1/DTD/svg11.dtd">
<svg xmlns="http://www.w3.org/2000/svg" xml:space="preserve" width="1024px" height="1024px"
	 shape-rendering="geometricPrecision" text-rendering="geometricPrecision" image-rendering="optimizeQuality"
	 fill-rule="evenodd" clip-rule="evenodd" viewBox="0 0 400 400" xmlns:xlink="http://www.w3.org/1999/xlink">
<style type="text/css">
	.st0{fill:#C8E1E7;}
	.st1{fill:#F1F8F9;}
	.st2{fill:#1A1A1A;}
</style>
<g>
	<circle class="st0" cx="200" cy="200" r="195"/>
</g>
<g>
	<g>
		<path class="st1" d="M200,306c-58.4,0-106-47.6-106-106c0-58.4,47.6-106,106-106c58.4,0,106,47.6,106,106
			C306,258.4,258.4,306,200,306z"/>
		<path class="st2" d="M200,99c55.7,0,101,45.3,101,101s-45.3,101-101,101S99,255.7,99,200S144.3,99,200,99 M200,89
			c-61.3,0-111,49.7-111,111s49.7,111,111,111s111-49.7,111-111S261.3,89,200,89L200,89z"/>
	</g>
	<g>
		<path class="st2" d="M200.5,236.6c-26.3,0-45.9,16.2-46.7,16.9c-2.3,1.9-2.6,5.3-0.7,7.6c1.9,2.3,5.3,2.6,7.6,0.7
			c0.2-0.1,17.5-14.3,39.7-14.3c22.3,0,39.6,14.2,39.7,14.3c1,0.9,2.2,1.3,3.5,1.3c1.5,0,3.1-0.7,4.1-1.9c1.9-2.3,1.6-5.7-0.7-7.6
			C246.4,252.8,226.8,236.6,200.5,236.6z"/>
		<ellipse class="st2" cx="174.5" cy="194.1" rx="10.1" ry="15.8"/>
		<ellipse class="st2" cx="222.7" cy="194.1" rx="10.1" ry="15.8"/>
		<path class="st2" d="M154.4,178c6.5-13.6,23.2-11.4,23.9-11.3c2.9,0.4,5.7-1.6,6.1-4.5c0.4-2.9-1.6-5.7-4.5-6.2
			c-1-0.2-25.2-3.6-35.3,17.3c-1.3,2.7-0.2,5.9,2.5,7.2c0.8,0.4,1.6,0.5,2.3,0.5C151.6,181.1,153.5,180,154.4,178z"/>
		<path class="st2" d="M212.6,150.9c0.2,0,17.3-2.5,23.9,11.3c0.9,1.9,2.9,3.1,4.9,3.1c0.8,0,1.6-0.2,2.3-0.5
			c2.7-1.3,3.8-4.5,2.5-7.2c-10.1-20.8-34.2-17.4-35.3-17.3c-3,0.4-5,3.2-4.5,6.1C206.9,149.3,209.7,151.4,212.6,150.9z"/>
	</g>
</g>
</svg>
