<?xml version="1.0" encoding="iso-8859-1"?>
<!-- Generator: Adobe Illustrator 19.0.0, SVG Export Plug-In . SVG Version: 6.00 Build 0)  -->
<svg version="1.1" id="Layer_1" xmlns="http://www.w3.org/2000/svg" xmlns:xlink="http://www.w3.org/1999/xlink" x="0px" y="0px"
	 viewBox="0 0 512 512" style="enable-background:new 0 0 512 512;" xml:space="preserve">
<g>
	<rect x="134.024" y="153.985" style="fill:#707682;" width="49.105" height="123.367"/>
	<rect x="181.339" y="153.985" style="fill:#707682;" width="49.105" height="123.367"/>
	<rect x="228.641" y="153.985" style="fill:#707682;" width="49.105" height="123.367"/>
	<rect x="275.956" y="153.985" style="fill:#707682;" width="49.105" height="123.367"/>
	<rect x="323.258" y="153.985" style="fill:#707682;" width="49.105" height="123.367"/>
</g>
<path style="fill:#B1C6D3;" d="M431.989,337.915c0,90.694-73.523,164.216-164.216,164.216h-26.179
	c-90.694,0-164.216-73.523-164.216-164.216V202.83h354.611v67.416V337.915z"/>
<path id="SVGCleanerId_0" style="fill:#707682;" d="M254.684,274.898c-31.457,0-56.96,25.502-56.96,56.96
	c0,22.339,11.437,41.523,30.155,50.856v55.245h53.61v-55.245c17.416-9.743,30.155-29.481,30.155-50.856
	C311.644,300.4,286.142,274.898,254.684,274.898z"/>
<rect x="76.959" y="202.089" style="fill:#8D93A4;" width="355.048" height="32.986"/>
<g>
	<path id="SVGCleanerId_0_1_" style="fill:#707682;" d="M254.684,274.898c-31.457,0-56.96,25.502-56.96,56.96
		c0,22.339,11.437,41.523,30.155,50.856v55.245h53.61v-55.245c17.416-9.743,30.155-29.481,30.155-50.856
		C311.644,300.4,286.142,274.898,254.684,274.898z"/>
</g>
<path d="M433.304,280.116c5.451,0,9.868-4.417,9.868-9.868v-59.522c0-5.451-4.417-9.868-9.868-9.868h-16.781v-39.036
	c0-16.129-2.393-32.079-7.116-47.405c-1.605-5.209-7.128-8.126-12.337-6.526c-5.209,1.605-8.13,7.129-6.526,12.337
	c4.142,13.443,6.242,27.438,6.242,41.594v39.036h-18.496v-54.593c0-5.451-4.417-9.868-9.868-9.868h-45.63h-45.63h-45.631h-45.627
	h-45.63c-5.451,0-9.868,4.417-9.868,9.868v54.593h-17.826v-39.036c0-78.346,64.069-142.085,142.821-142.085
	c15.167,0,30.093,2.355,44.364,6.999c5.182,1.687,10.751-1.147,12.438-6.33c1.687-5.183-1.147-10.751-6.33-12.438
	C289.629,2.68,272.647,0,255.401,0C165.767,0,92.844,72.592,92.844,161.82v39.036h-14.15c-5.451,0-9.868,4.417-9.868,9.868v127.19
	c0,95.99,78.095,174.085,174.085,174.085h26.179c95.99,0,174.085-78.095,174.085-174.085v-13.441c0-5.451-4.417-9.868-9.868-9.868
	c-5.451,0-9.868,4.417-9.868,9.868v13.441c0,85.108-69.24,154.348-154.348,154.348h-26.179c-85.108,0-154.348-69.24-154.348-154.348
	V220.593h334.875v49.653C423.436,275.698,427.854,280.116,433.304,280.116z M358.555,200.857h-25.893v-44.724h25.893V200.857z
	 M312.926,200.857h-25.893v-44.724h25.893V200.857z M267.296,200.857h-25.894v-44.724h25.894V200.857L267.296,200.857z
	 M221.666,200.857h-25.893v-44.724h25.893V200.857z M150.143,156.132h25.893v44.724h-25.893V156.132L150.143,156.132z"/>
<path d="M229.194,447.828h53.61c5.416,0,9.821-4.366,9.868-9.783l0.436-49.839c18.216-12.504,29.719-34.01,29.719-56.349
	c0-36.85-29.979-66.828-66.828-66.828s-66.828,29.979-66.828,66.828c0,23.985,11.659,46.024,30.155,57.89v48.213
	C219.325,443.41,223.744,447.828,229.194,447.828z M256,284.766c25.965,0,47.091,21.126,47.091,47.091
	c0,17.295-9.666,33.876-24.622,42.244c-0.109,0.062-0.209,0.133-0.314,0.197c-0.137,0.083-0.275,0.166-0.408,0.255
	c-0.155,0.105-0.303,0.217-0.45,0.33c-0.103,0.079-0.207,0.155-0.307,0.24c-0.158,0.13-0.307,0.267-0.455,0.407
	c-0.083,0.078-0.164,0.153-0.245,0.234c-0.145,0.145-0.283,0.297-0.417,0.451c-0.078,0.087-0.154,0.174-0.228,0.264
	c-0.121,0.147-0.236,0.301-0.347,0.455c-0.079,0.111-0.158,0.22-0.233,0.333c-0.092,0.139-0.179,0.283-0.264,0.426
	c-0.083,0.137-0.162,0.278-0.238,0.42c-0.067,0.126-0.129,0.254-0.189,0.384c-0.078,0.164-0.153,0.33-0.222,0.5
	c-0.049,0.118-0.091,0.238-0.134,0.357c-0.066,0.182-0.129,0.362-0.183,0.549c-0.037,0.124-0.068,0.249-0.1,0.375
	c-0.045,0.179-0.089,0.357-0.125,0.539c-0.03,0.151-0.051,0.304-0.074,0.458c-0.024,0.158-0.047,0.316-0.063,0.476
	c-0.018,0.192-0.026,0.385-0.034,0.579c-0.004,0.099-0.016,0.193-0.017,0.295l-0.397,45.464h-33.96v-44.061
	c0-0.043-0.005-0.086-0.007-0.13c-0.003-0.204-0.016-0.408-0.03-0.611c-0.011-0.134-0.018-0.266-0.033-0.397
	c-0.02-0.17-0.049-0.337-0.076-0.504c-0.028-0.162-0.053-0.322-0.087-0.48c-0.029-0.133-0.066-0.262-0.101-0.392
	c-0.049-0.184-0.096-0.368-0.155-0.549c-0.036-0.109-0.079-0.216-0.118-0.324c-0.07-0.191-0.139-0.382-0.22-0.567
	c-0.049-0.111-0.105-0.217-0.158-0.326c-0.083-0.174-0.164-0.346-0.258-0.513c-0.072-0.132-0.154-0.257-0.233-0.384
	c-0.084-0.137-0.166-0.276-0.257-0.409c-0.103-0.149-0.216-0.292-0.326-0.436c-0.08-0.104-0.157-0.209-0.239-0.309
	c-0.125-0.15-0.261-0.292-0.395-0.434c-0.083-0.088-0.163-0.18-0.25-0.264c-0.132-0.13-0.272-0.251-0.412-0.375
	c-0.104-0.091-0.207-0.186-0.316-0.272c-0.124-0.1-0.254-0.192-0.383-0.287c-0.139-0.103-0.279-0.204-0.424-0.3
	c-0.109-0.071-0.222-0.137-0.336-0.203c-0.176-0.105-0.354-0.208-0.537-0.303c-0.038-0.02-0.074-0.043-0.112-0.063
	c-14.998-7.479-24.69-24.49-24.69-43.34C208.907,305.891,230.033,284.766,256,284.766z"/>
<g>
</g>
<g>
</g>
<g>
</g>
<g>
</g>
<g>
</g>
<g>
</g>
<g>
</g>
<g>
</g>
<g>
</g>
<g>
</g>
<g>
</g>
<g>
</g>
<g>
</g>
<g>
</g>
<g>
</g>
</svg>
