<svg xmlns="http://www.w3.org/2000/svg" viewBox="0 0 512 512">
  <path d="M344.465 35.957c-14.475-14.473-32.45-25.175-51.984-30.947-1.279-.378-4.758-1.406-13.244 1.593l-5.614-5.597-2.893-.309C266.413.235 262.013 0 257.652 0c-67.695 0-122.77 55.075-122.77 122.77v16.516c0 16.36 3.168 32.249 9.414 47.226l15.243-6.356c-5.402-12.953-8.141-26.703-8.141-40.87V122.77c0-58.588 47.666-106.254 106.254-106.254 2.822 0 5.661.113 8.473.337l9.327 9.3 5.183-2.318c2.778-1.243 6.406-2.473 7.999-2.735 16.578 5.048 31.828 14.213 44.152 26.537 20.068 20.068 31.12 46.752 31.12 75.133v16.516c0 14.165-2.738 27.914-8.139 40.864l15.243 6.356c6.245-14.976 9.412-30.863 9.412-47.222v-16.516c-.001-32.793-12.771-63.623-35.957-86.811z"/>
  <path d="M298.142 113.623l-8.251-9.205-5.345 11.146c-14.125 29.46-44.347 48.496-76.994 48.496-14.011 0-27.901-3.469-40.167-10.032l-7.791 14.563c3.583 1.917 7.284 3.61 11.071 5.079v32.781c-.001 24.644 10.654 48.082 29.232 64.302 15.533 13.562 35.456 21.032 56.1 21.032 20.646 0 40.571-7.471 56.103-21.035 18.576-16.22 29.23-39.656 29.23-64.298v-49.949c4.711.952 9.514 1.597 14.393 1.878l.957-16.489c-22.582-1.309-43.372-11.35-58.538-28.269zm26.674 92.829c0 19.873-8.594 38.774-23.577 51.858-12.524 10.936-28.591 16.959-45.241 16.959-16.648 0-32.714-6.022-45.238-16.957-14.985-13.084-23.58-31.986-23.58-51.861v-27.946c6.687 1.363 13.517 2.071 20.372 2.071 35.127 0 67.9-18.462 86.365-47.856 9.159 8.2 19.612 14.576 30.898 18.953v54.779z"/>
  <circle cx="222.968" cy="195.441" r="11.011"/>
  <circle cx="289.032" cy="195.441" r="11.011"/>
  <path d="M392.577 349.762c-16.451-25.509-39.609-45.862-66.966-58.859l-7.089 14.918c1.665.792 3.309 1.616 4.935 2.466l-6.217 18.649-21.877-10.939L256 296.316l-39.363 19.682-21.877 10.939-6.217-18.649c1.626-.85 3.27-1.676 4.936-2.466l-7.086-14.918c-27.36 12.997-50.517 33.35-66.97 58.859-16.899 26.2-25.831 56.602-25.831 87.915V512h324.817v-74.323c0-31.313-8.932-61.714-25.832-87.915zM256 314.781l20.695 10.347-5.443 27.216h-30.503l-5.443-27.215L256 314.781zm-40.679 180.703h-50.159v-68.817h-16.516v68.817h-38.538v-57.806c0-48.494 24.517-93.763 63.932-120.671l11.072 33.218 34.882-17.441 5.664 28.32-10.337 134.38zm16.564 0l9.741-126.624h28.748l9.741 126.624h-48.23zm170.007 0h-38.538v-68.817h-16.516v68.817h-50.159l-10.337-134.38 5.664-28.32 34.882 17.441 11.072-33.218c39.415 26.907 63.932 72.178 63.932 120.67v57.807z"/>
</svg>
