<svg xmlns="http://www.w3.org/2000/svg" width="436.54" height="115" viewBox="0 0 436.54 115"><defs><style>.a,.c{fill:#fff;stroke:#fff;}.a,.b,.c{stroke-width:3px;}.b{fill:#ec935e;stroke:#ec935e;}.c{font-size:80px;font-family:NotoSans-Regular, Noto Sans;}</style></defs><g transform="translate(-339 -112)"><path class="a" d="M76-43.68q1.2,0,2.56.12a20.471,20.471,0,0,1,2.48.36l-.88,6.48a23.131,23.131,0,0,0-2.32-.4,18.858,18.858,0,0,0-2.32-.16,11.421,11.421,0,0,0-6.16,1.8,12.962,12.962,0,0,0-4.6,5.04,15.892,15.892,0,0,0-1.72,7.56V0H56V-42.88h5.76l.8,7.84h.32a20.277,20.277,0,0,1,5.32-6.08A12.405,12.405,0,0,1,76-43.68Zm48.72,22.16q0,10.64-5.4,16.48T104.72.8A19.651,19.651,0,0,1,94.6-1.8a18.108,18.108,0,0,1-7-7.6,26.341,26.341,0,0,1-2.56-12.12q0-10.64,5.32-16.4t14.6-5.76a20.024,20.024,0,0,1,10.24,2.6,17.874,17.874,0,0,1,7,7.52A26.187,26.187,0,0,1,124.72-21.52Zm-32.4,0q0,7.6,3,12.04t9.56,4.44q6.48,0,9.52-4.44t3.04-12.04q0-7.6-3.04-11.92t-9.6-4.32q-6.56,0-9.52,4.32T92.32-21.52Zm63.92-22.16A16.146,16.146,0,0,1,169-38.16q4.84,5.52,4.84,16.64,0,10.96-4.84,16.64A16.03,16.03,0,0,1,156.16.8a16.44,16.44,0,0,1-8.2-1.84,15.613,15.613,0,0,1-5.08-4.4h-.48q.08,1.36.28,3.44t.2,3.6V19.2h-7.04V-42.88h5.76l.96,5.84h.32a16.477,16.477,0,0,1,5.04-4.72A15.75,15.75,0,0,1,156.24-43.68Zm-1.28,5.92q-6.56,0-9.28,3.68t-2.8,11.2v1.36q0,7.92,2.6,12.2t9.64,4.28a9.7,9.7,0,0,0,6.4-2.12,12.485,12.485,0,0,0,3.8-5.88,27.285,27.285,0,0,0,1.24-8.56q0-7.36-2.84-11.76T154.96-37.76Zm46.64-5.92a18,18,0,0,1,9.44,2.4,15.684,15.684,0,0,1,6.12,6.76,23.076,23.076,0,0,1,2.12,10.2v4.24H189.92q.16,7.28,3.72,11.08t9.96,3.8a31.109,31.109,0,0,0,7.24-.76,40.83,40.83,0,0,0,6.52-2.2V-2A33.394,33.394,0,0,1,210.88.12a37.014,37.014,0,0,1-7.6.68,22.574,22.574,0,0,1-10.8-2.48,17.376,17.376,0,0,1-7.24-7.36,25.456,25.456,0,0,1-2.6-12.08A28.292,28.292,0,0,1,185-33.2a17.937,17.937,0,0,1,6.64-7.76A18.168,18.168,0,0,1,201.6-43.68Zm-.08,5.76a10.176,10.176,0,0,0-7.96,3.24q-2.92,3.24-3.48,9h21.84a15.032,15.032,0,0,0-2.56-8.84Q206.88-37.92,201.52-37.92Zm48.64-5.76q1.2,0,2.56.12a20.471,20.471,0,0,1,2.48.36l-.88,6.48a23.132,23.132,0,0,0-2.32-.4,18.858,18.858,0,0,0-2.32-.16,11.421,11.421,0,0,0-6.16,1.8,12.962,12.962,0,0,0-4.6,5.04,15.892,15.892,0,0,0-1.72,7.56V0h-7.04V-42.88h5.76l.8,7.84h.32a20.277,20.277,0,0,1,5.32-6.08A12.405,12.405,0,0,1,250.16-43.68ZM282.52-4.96a23.182,23.182,0,0,0,3.28-.24,12.809,12.809,0,0,0,2.72-.64V-.48a11.971,11.971,0,0,1-3.2.92,23.46,23.46,0,0,1-4,.36,16.242,16.242,0,0,1-6.2-1.16,9.591,9.591,0,0,1-4.6-4.04q-1.76-2.88-1.76-8.08V-37.44h-6.08V-40.8l6.16-2.8,2.8-9.12h4.16v9.84h12.4v5.44H275.8v24.8q0,3.92,1.88,5.8A6.551,6.551,0,0,0,282.52-4.96ZM345.4,0H314.04V-4.64l23.04-32.8H315.4v-5.44h29.44v5.28L322.12-5.44H345.4Zm26.48-43.68a18,18,0,0,1,9.44,2.4,15.684,15.684,0,0,1,6.12,6.76,23.076,23.076,0,0,1,2.12,10.2v4.24H360.2q.16,7.28,3.72,11.08t9.96,3.8a31.109,31.109,0,0,0,7.24-.76,40.83,40.83,0,0,0,6.52-2.2V-2A33.4,33.4,0,0,1,381.16.12a37.014,37.014,0,0,1-7.6.68,22.574,22.574,0,0,1-10.8-2.48,17.376,17.376,0,0,1-7.24-7.36,25.456,25.456,0,0,1-2.6-12.08,28.292,28.292,0,0,1,2.36-12.08,17.937,17.937,0,0,1,6.64-7.76A18.168,18.168,0,0,1,371.88-43.68Zm-.08,5.76a10.176,10.176,0,0,0-7.96,3.24q-2.92,3.24-3.48,9H382.2a15.032,15.032,0,0,0-2.56-8.84Q377.16-37.92,371.8-37.92ZM415.64.8a16.063,16.063,0,0,1-12.8-5.56q-4.8-5.56-4.8-16.6t4.84-16.68a16.08,16.08,0,0,1,12.84-5.64,15.984,15.984,0,0,1,8.12,1.84A17.27,17.27,0,0,1,429-37.36h.48q-.16-1.04-.32-3.08T429-43.68V-60.8h7.04V0h-5.68l-1.04-5.76H429a16.6,16.6,0,0,1-5.12,4.64A15.836,15.836,0,0,1,415.64.8Zm1.12-5.84q6.8,0,9.56-3.72T429.08-20v-1.28q0-8-2.64-12.28t-9.76-4.28a9.4,9.4,0,0,0-8.52,4.52q-2.84,4.52-2.84,12.12,0,7.68,2.84,11.92T416.76-5.04Z" transform="translate(338 201)"/><path class="b" d="M295.68-58.96a4.2,4.2,0,0,1,2.84,1.08,4.279,4.279,0,0,1,1.24,3.4,4.279,4.279,0,0,1-1.24,3.4A4.2,4.2,0,0,1,295.68-50a4.263,4.263,0,0,1-2.96-1.08,4.358,4.358,0,0,1-1.2-3.4,4.358,4.358,0,0,1,1.2-3.4A4.263,4.263,0,0,1,295.68-58.96Zm3.44,16.08V0h-7.04V-42.88Z" transform="translate(344 202)"/><text class="c" transform="translate(342 201)"><tspan x="0" y="0">P</tspan></text></g></svg>