<?xml version="1.0" encoding="iso-8859-1"?>
<!-- Generator: Adobe Illustrator 19.0.0, SVG Export Plug-In . SVG Version: 6.00 Build 0)  -->
<svg xmlns="http://www.w3.org/2000/svg" xmlns:xlink="http://www.w3.org/1999/xlink" version="1.1" id="Layer_1" x="0px" y="0px" viewBox="0 0 512 512" style="enable-background:new 0 0 512 512;" xml:space="preserve" width="512px" height="512px">
<g>
	<g>
		<polygon points="328.863,495.913 328.863,327.531 347.008,341.524 356.833,328.784 181.395,193.5 5.955,328.784 15.78,341.524     33.927,327.531 33.927,364.532 50.014,364.532 50.014,315.126 181.395,213.816 312.775,315.126 312.775,495.913 204.243,495.913     204.243,512 397.292,512 397.292,495.913   " fill="#FFFFFF"/>
	</g>
</g>
<g>
	<g>
		<path d="M182.793,281.414c-34.004,0-61.668,27.664-61.668,61.668v61.668h123.337v-61.668    C244.462,309.078,216.798,281.414,182.793,281.414z M174.749,388.663h-37.537v-37.537h37.537V388.663z M174.749,335.039h-36.812    c3.345-18.695,18.118-33.467,36.812-36.812V335.039z M190.837,298.226c18.696,3.345,33.468,18.118,36.812,36.812h-36.812V298.226z     M228.374,388.663h-37.537v-37.537h37.537V388.663z" fill="#FFFFFF"/>
	</g>
</g>
<g>
	<g>
		<polygon points="187.158,4.14 182.57,0 176.873,4.674 58.657,101.27 68.835,113.727 82.429,102.619 82.429,174.164     43.369,174.164 43.369,190.252 214.968,190.252 214.968,174.164 98.517,174.164 98.517,89.768 182.071,21.218 257.782,89.538     257.782,139.308 273.869,139.308 273.869,103.77 284.664,113.479 295.422,101.518   " fill="#FFFFFF"/>
	</g>
</g>
<g>
	<g>
		<rect x="11.194" y="174.162" width="16.087" height="16.087" fill="#FFFFFF"/>
	</g>
</g>
<g>
	<g>
		<path d="M177.431,56.19c-19.22,0-34.856,15.637-34.856,34.856v34.856h69.712V91.046C212.287,71.827,196.651,56.19,177.431,56.19z     M196.199,109.815h-37.537V91.046c0-10.349,8.42-18.769,18.769-18.769c10.348,0,18.769,8.42,18.769,18.769V109.815z" fill="#FFFFFF"/>
	</g>
</g>
<g>
	<g>
		<polygon points="480.41,200.203 498.09,216.105 508.848,204.144 370.553,79.753 365.368,75.075 360.097,79.399 207.734,203.896     217.912,216.353 239.099,199.041 239.099,225.108 255.187,225.108 255.187,186.281 364.867,96.294 464.323,186.052     464.323,345.763 343.667,345.763 343.667,361.851 504.541,361.851 504.541,345.763 480.41,345.763   " fill="#FFFFFF"/>
	</g>
</g>
<g>
	<g>
		<path d="M365.117,163.44c-28.09,0-50.943,22.854-50.943,50.943v50.943h101.887v-50.943    C416.061,186.293,393.207,163.44,365.117,163.44z M357.073,249.239h-26.812v-26.812h26.812V249.239z M357.073,206.339h-25.865    c3.03-12.769,13.096-22.836,25.865-25.865V206.339z M373.161,180.474c12.769,3.03,22.837,13.096,25.865,25.865h-25.865V180.474z     M399.973,249.239h-26.812v-26.812h26.812V249.239z" fill="#FFFFFF"/>
	</g>
</g>
<g>
	<g>
		<rect x="483.094" y="495.91" width="16.087" height="16.087" fill="#FFFFFF"/>
	</g>
</g>
<g>
	<g>
		<rect x="418.744" y="495.91" width="16.087" height="16.087" fill="#FFFFFF"/>
	</g>
</g>
<g>
	<g>
		<rect x="450.919" y="495.91" width="16.087" height="16.087" fill="#FFFFFF"/>
	</g>
</g>
<g>
	<g>
		<path d="M155.981,442.288c-4.626,0-9.175,0.924-13.388,2.679c-5.832-10.984-15.942-19.143-28.056-22.475    c-5.428-25.781-28.14-44.554-55.079-44.554c-31.047,0-56.306,25.258-56.306,56.306V512h152.83    c19.22,0,34.856-15.637,34.856-34.856C190.838,457.925,175.201,442.288,155.981,442.288z M155.981,495.913H19.238v-61.668    c0-22.177,18.042-40.219,40.219-40.219c20.687,0,37.884,15.492,40.003,36.036l0.648,6.292l6.269,0.853    c11.795,1.604,21.402,10.077,24.473,21.586l3.284,12.304l9.7-8.252c3.388-2.883,7.704-4.469,12.148-4.469    c10.348,0,18.769,8.42,18.769,18.769C174.749,487.492,166.33,495.913,155.981,495.913z" fill="#FFFFFF"/>
	</g>
</g>
<g>
</g>
<g>
</g>
<g>
</g>
<g>
</g>
<g>
</g>
<g>
</g>
<g>
</g>
<g>
</g>
<g>
</g>
<g>
</g>
<g>
</g>
<g>
</g>
<g>
</g>
<g>
</g>
<g>
</g>
</svg>
