<svg xmlns="http://www.w3.org/2000/svg" viewBox="0 0 512 512" width="512" height="512">
  <path d="M328.863 495.913V327.531l18.145 13.993 9.825-12.74L181.395 193.5 5.955 328.784l9.825 12.74 18.147-13.993v37.001h16.087v-49.406l131.381-101.31 131.38 101.31v180.787H204.243V512h193.049v-16.087"/>
  <path d="M182.793 281.414c-34.004 0-61.668 27.664-61.668 61.668v61.668h123.337v-61.668c0-34.004-27.664-61.668-61.669-61.668zm-8.044 107.249h-37.537v-37.537h37.537v37.537zm0-53.624h-36.812c3.345-18.695 18.118-33.467 36.812-36.812v36.812zm16.088-36.813c18.696 3.345 33.468 18.118 36.812 36.812h-36.812v-36.812zm37.537 90.437h-37.537v-37.537h37.537v37.537zM187.158 4.14L182.57 0l-5.697 4.674L58.657 101.27l10.178 12.457 13.594-11.108v71.545h-39.06v16.088h171.599v-16.088H98.517V89.768l83.554-68.55 75.711 68.32v49.77h16.087V103.77l10.795 9.709 10.758-11.961M11.194 174.162h16.087v16.087H11.194z"/>
  <path d="M177.431 56.19c-19.22 0-34.856 15.637-34.856 34.856v34.856h69.712V91.046c0-19.219-15.636-34.856-34.856-34.856zm18.768 53.625h-37.537V91.046c0-10.349 8.42-18.769 18.769-18.769 10.348 0 18.769 8.42 18.769 18.769v18.769zm284.211 90.388l17.68 15.902 10.758-11.961L370.553 79.753l-5.185-4.678-5.271 4.324-152.363 124.497 10.178 12.457 21.187-17.312v26.067h16.088v-38.827l109.68-89.987 99.456 89.758v159.711H343.667v16.088h160.874v-16.088H480.41"/>
  <path d="M365.117 163.44c-28.09 0-50.943 22.854-50.943 50.943v50.943h101.887v-50.943c0-28.09-22.854-50.943-50.944-50.943zm-8.044 85.799h-26.812v-26.812h26.812v26.812zm0-42.9h-25.865c3.03-12.769 13.096-22.836 25.865-25.865v25.865zm16.088-25.865c12.769 3.03 22.837 13.096 25.865 25.865h-25.865v-25.865zm26.812 68.765h-26.812v-26.812h26.812v26.812zm83.121 246.671h16.087v16.087h-16.087zm-64.35 0h16.087v16.087h-16.087zm32.175 0h16.087v16.087h-16.087zm-294.938-53.622c-4.626 0-9.175.924-13.388 2.679-5.832-10.984-15.942-19.143-28.056-22.475-5.428-25.781-28.14-44.554-55.079-44.554-31.047 0-56.306 25.258-56.306 56.306V512h152.83c19.22 0 34.856-15.637 34.856-34.856s-15.637-34.856-34.857-34.856zm0 53.625H19.238v-61.668c0-22.177 18.042-40.219 40.219-40.219 20.687 0 37.884 15.492 40.003 36.036l.648 6.292 6.269.853c11.795 1.604 21.402 10.077 24.473 21.586l3.284 12.304 9.7-8.252c3.388-2.883 7.704-4.469 12.148-4.469 10.348 0 18.769 8.42 18.769 18.769-.002 10.347-8.421 18.768-18.77 18.768z"/>
</svg>
