<?xml version="1.0" encoding="iso-8859-1"?>
<!-- Generator: Adobe Illustrator 19.0.0, SVG Export Plug-In . SVG Version: 6.00 Build 0)  -->
<svg xmlns="http://www.w3.org/2000/svg" xmlns:xlink="http://www.w3.org/1999/xlink" version="1.1" id="Layer_1" x="0px" y="0px" viewBox="0 0 512 512" style="enable-background:new 0 0 512 512;" xml:space="preserve" width="512px" height="512px">
<g>
	<g>
		<path d="M443.389,68.734C399.124,24.41,340.194,0,277.452,0c-62.812,0-121.89,24.309-166.35,68.446    C66.559,112.665,42.029,171.52,42.029,234.169c0,44.248,12.27,85.677,33.57,121.07L15.99,414.781    c-0.035,0.034-0.069,0.069-0.102,0.103c-21.111,21.711-21.173,57.691-0.137,80.206c0.1,0.106,0.202,0.211,0.306,0.313    C27.346,506.473,42.012,512,56.581,512c14.609,0,29.121-5.559,40.024-16.661l59.538-59.472    c35.338,21.311,76.696,33.586,120.868,33.586c62.76,0,121.766-24.423,166.149-68.769c44.383-44.345,68.825-103.299,68.825-165.999    C511.986,171.965,487.624,113.029,443.389,68.734z M82.402,481.256c-14.072,14.329-37.438,14.318-52.185,0.021    c-13.694-14.826-13.722-38.27-0.038-52.397l56.688-56.624c0.181,0.248,0.368,0.492,0.549,0.739    c0.724,0.988,1.452,1.974,2.191,2.95c0.032,0.042,0.065,0.084,0.097,0.126c12.853,16.967,27.949,32.138,44.841,45.072    c0.383,0.294,0.763,0.591,1.148,0.882c0.734,0.555,1.474,1.103,2.215,1.648c0.409,0.303,0.814,0.613,1.225,0.913L82.402,481.256z     M429.023,386.535c-40.607,40.571-94.592,62.916-152.012,62.916c-43.438,0-83.9-12.98-117.746-35.254    c-1.129-0.744-2.255-1.494-3.371-2.26c-0.375-0.257-0.746-0.517-1.119-0.777c-1.202-0.836-2.398-1.68-3.583-2.541    c-0.225-0.163-0.448-0.328-0.673-0.492c-18.078-13.245-34.212-29.419-47.414-47.551c-0.018-0.023-0.035-0.048-0.053-0.072    c-1.033-1.419-2.045-2.854-3.042-4.297c-0.103-0.148-0.207-0.297-0.31-0.447c-0.956-1.393-1.894-2.797-2.816-4.21    c-22.03-33.784-34.856-74.107-34.856-117.379c0.001-118.094,96.639-214.169,215.424-214.169    c57.394,0,111.298,22.326,151.784,62.866c40.464,40.519,62.748,94.435,62.748,151.816    C491.984,292.04,469.624,345.967,429.023,386.535z" fill="#FFFFFF"/>
	</g>
</g>
<g>
	<g>
		<path d="M236.845,410.334C155.634,391.812,96.69,317.96,96.69,234.728c0-5.522-4.477-10.001-10.001-10.001    c-5.523,0-10.001,4.478-10.001,10.001c0,45.542,15.79,90.143,44.463,125.585c28.242,34.912,67.75,59.601,111.245,69.522    c0.749,0.17,1.496,0.252,2.233,0.252c4.562,0,8.685-3.143,9.742-7.779C245.599,416.924,242.23,411.563,236.845,410.334z" fill="#FFFFFF"/>
	</g>
</g>
<g>
	<g>
		<path d="M285.351,422.889c-0.122-0.64-0.322-1.27-0.572-1.88c-0.25-0.6-0.55-1.18-0.91-1.72c-0.369-0.55-0.79-1.06-1.25-1.52    s-0.97-0.881-1.52-1.24c-0.54-0.36-1.12-0.67-1.72-0.92c-0.61-0.25-1.24-0.45-1.87-0.58c-1.3-0.26-2.62-0.26-3.91,0    c-0.64,0.13-1.271,0.33-1.87,0.58c-0.61,0.25-1.19,0.56-1.729,0.92c-0.551,0.359-1.061,0.78-1.521,1.24s-0.88,0.97-1.24,1.52    c-0.359,0.54-0.67,1.12-0.92,1.72c-0.25,0.61-0.439,1.24-0.569,1.88c-0.131,0.641-0.2,1.301-0.2,1.95    c0,2.63,1.069,5.21,2.93,7.071c0.46,0.46,0.97,0.88,1.521,1.24c0.539,0.359,1.119,0.67,1.729,0.92c0.6,0.25,1.23,0.439,1.87,0.569    c0.64,0.131,1.3,0.2,1.95,0.2c0.649,0,1.309-0.069,1.96-0.2c0.63-0.13,1.26-0.319,1.87-0.569c0.6-0.25,1.18-0.561,1.72-0.92    c0.55-0.36,1.06-0.78,1.52-1.24c1.86-1.86,2.931-4.44,2.931-7.071C285.551,424.191,285.481,423.529,285.351,422.889z" fill="#FFFFFF"/>
	</g>
</g>
<g>
	<g>
		<path d="M432.871,109.142c-28.242-34.911-67.75-59.601-111.245-69.522c-5.391-1.223-10.747,2.143-11.975,7.527    c-1.228,5.385,2.142,10.746,7.527,11.975c81.211,18.522,140.155,92.375,140.155,175.606c0,5.522,4.478,10.001,10.001,10.001    c5.522,0,10.001-4.478,10.001-10.001C477.334,189.185,461.544,144.585,432.871,109.142z" fill="#FFFFFF"/>
	</g>
</g>
<g>
	<g>
		<path d="M288.28,42.662c-0.13-0.641-0.319-1.261-0.569-1.87c-0.25-0.601-0.561-1.181-0.921-1.721    c-0.369-0.55-0.779-1.06-1.25-1.52c-2.319-2.33-5.779-3.39-9.021-2.74c-0.64,0.13-1.27,0.32-1.87,0.57    c-0.61,0.25-1.189,0.56-1.729,0.92c-0.551,0.37-1.061,0.79-1.521,1.25s-0.88,0.97-1.24,1.52c-0.359,0.54-0.67,1.12-0.92,1.721    c-0.25,0.609-0.439,1.229-0.569,1.87c-0.131,0.649-0.2,1.31-0.2,1.96c0,2.63,1.069,5.21,2.93,7.07    c0.458,0.459,0.968,0.879,1.519,1.24c0.54,0.36,1.119,0.67,1.729,0.92c0.601,0.25,1.23,0.44,1.87,0.57c0.64,0.13,1.3,0.2,1.95,0.2    c0.66,0,1.31-0.07,1.96-0.2c0.64-0.13,1.269-0.32,1.87-0.57c0.6-0.25,1.18-0.56,1.72-0.92c0.55-0.36,1.06-0.78,1.52-1.24    c1.86-1.859,2.931-4.439,2.931-7.07C288.47,43.972,288.409,43.311,288.28,42.662z" fill="#FFFFFF"/>
	</g>
</g>
<g>
	<g>
		<path d="M277.013,74.55c-88.415,0-160.345,71.856-160.345,160.178c0,41.803,16.02,81.349,45.111,111.364    c0.6,0.642,1.22,1.273,1.854,1.907c30.292,30.247,70.558,46.905,113.379,46.905c42.3,0,82.206-16.31,112.366-45.923    c30.94-30.358,47.98-70.935,47.98-114.255C437.358,146.406,365.428,74.55,277.013,74.55z M277.01,374.569    c-36.678,0-71.214-13.962-97.524-39.366l0.579-5.27c1.035-7.913,6.225-14.783,13.565-17.945l44.223-19.069l16.516,31.155    l12.34,23.282c1.734,3.271,5.133,5.317,8.836,5.317c0.001,0,0.001,0,0.001,0c1.389,0,2.735-0.288,3.967-0.82    c0.091-0.039,0.175-0.094,0.265-0.137c0.314-0.147,0.627-0.296,0.924-0.475c1.53-0.92,2.814-2.25,3.681-3.886l9.396-17.724    l19.465-36.715l44.224,19.074c7.34,3.159,12.532,10.03,13.568,17.942l0.852,7.742C345.937,361.503,312.434,374.569,277.01,374.569    z M238.042,176.446c0.153-18.678,16.919-33.83,37.506-33.83c20.588,0,37.355,15.152,37.508,33.831l-0.419,7.585    c-0.193,3.499,1.459,6.846,4.355,8.818c0.17,0.115,0.343,0.225,0.518,0.33l-0.957,10.964c-0.438,0.221-0.862,0.476-1.269,0.764    c-2.487,1.761-4.035,4.559-4.207,7.601l-0.249,4.434c-1.215,13.349-7.511,24.272-17.287,29.985    c-3.068,1.793-4.955,5.08-4.955,8.635v20.588c0,4.004,2.386,7.608,6.041,9.184l-8.634,16.285l-10.446,19.701l-3.96-7.47    l-15.114-28.519c3.654-1.574,6.039-5.179,6.039-9.183v-20.588c0-3.554-1.886-6.841-4.953-8.634    c-9.767-5.709-16.062-16.635-17.289-29.991l-0.249-4.438c-0.174-3.087-1.766-5.92-4.313-7.675    c-0.379-0.261-0.773-0.493-1.178-0.697l-0.957-10.927c0.164-0.097,0.325-0.198,0.484-0.306c2.928-1.967,4.603-5.332,4.407-8.855    L238.042,176.446z M388.989,319.26c-3.845-11.363-12.393-20.812-23.606-25.639l-52.692-22.727c-0.088-0.038-0.177-0.065-0.265-0.1    c-0.028-0.012-0.054-0.026-0.082-0.037l-3.758-1.458V260.9c12.079-9.082,19.911-23.307,21.939-40.05    c3.021-2.173,5.122-5.6,5.485-9.606l1.964-22.499c0.328-3.532-0.746-6.978-3.023-9.699c-0.578-0.691-1.216-1.314-1.904-1.864    c0.008-0.16,0.012-0.32,0.012-0.48c0-29.824-25.799-54.089-57.51-54.089c-31.71,0-57.508,24.265-57.508,54.089    c0,0.157,0.004,0.314,0.011,0.471c-0.687,0.548-1.324,1.168-1.902,1.856c-2.279,2.713-3.36,6.151-3.047,9.666l1.975,22.55    c0.309,3.535,1.977,6.734,4.698,9.011c0.262,0.219,0.53,0.427,0.805,0.624c2.042,16.732,9.872,30.945,21.933,40.019v8.402    l-3.76,1.458c-0.035,0.014-0.068,0.032-0.103,0.047c-0.079,0.031-0.159,0.055-0.238,0.089l-52.698,22.726    c-10.337,4.453-18.403,12.831-22.613,23.014c-17.157-23.714-26.43-52.157-26.43-81.906c0-77.294,62.958-140.176,140.343-140.176    s140.343,62.883,140.343,140.176C417.357,265.696,407.399,295.06,388.989,319.26z" fill="#FFFFFF"/>
	</g>
</g>
<g>
</g>
<g>
</g>
<g>
</g>
<g>
</g>
<g>
</g>
<g>
</g>
<g>
</g>
<g>
</g>
<g>
</g>
<g>
</g>
<g>
</g>
<g>
</g>
<g>
</g>
<g>
</g>
<g>
</g>
</svg>
