<?xml version="1.0" encoding="iso-8859-1"?>
<!-- Generator: Adobe Illustrator 19.0.0, SVG Export Plug-In . SVG Version: 6.00 Build 0)  -->
<svg version="1.1" id="Layer_1" xmlns="http://www.w3.org/2000/svg" xmlns:xlink="http://www.w3.org/1999/xlink" x="0px" y="0px"
	 viewBox="0 0 512 512" style="enable-background:new 0 0 512 512;" xml:space="preserve">
<path style="fill:#C1C1C1;" d="M460.8,503.916H51.2c-23.812,0-43.116-19.304-43.116-43.116V51.2
	c0-23.812,19.304-43.116,43.116-43.116h409.6c23.812,0,43.116,19.304,43.116,43.116v409.6
	C503.916,484.612,484.612,503.916,460.8,503.916z"/>
<path style="fill:#DBDBDB;" d="M503.916,379.958H8.084V148.211h495.832V379.958z"/>
<g>
	<path style="fill:#848484;" d="M148.211,439.242L148.211,439.242c-14.882,0-26.947-12.065-26.947-26.947V99.705
		c0-14.882,12.065-26.947,26.947-26.947l0,0c14.882,0,26.947,12.065,26.947,26.947v312.589
		C175.158,427.177,163.093,439.242,148.211,439.242z"/>
	<path style="fill:#848484;" d="M363.789,439.242L363.789,439.242c-14.883,0-26.947-12.065-26.947-26.947V99.705
		c0-14.882,12.065-26.947,26.947-26.947l0,0c14.883,0,26.947,12.065,26.947,26.947v312.589
		C390.737,427.177,378.672,439.242,363.789,439.242z"/>
</g>
<path style="fill:#FE9443;" d="M175.158,256v156.295c0,14.883-12.065,26.947-26.947,26.947c-14.883,0-26.947-12.065-26.947-26.947
	V256H175.158z"/>
<path style="fill:#FE5A3A;" d="M390.737,212.884v199.411c0,14.883-12.065,26.947-26.947,26.947s-26.947-12.065-26.947-26.947
	V212.884H390.737z"/>
<path style="fill:#DD6400;" d="M175.158,331.453h-53.895v-53.895h53.895V331.453z"/>
<path style="fill:#A62C18;" d="M390.737,266.779h-53.895v-53.895h53.895V266.779z"/>
<path style="fill:#6583B7;" d="M223.663,256L223.663,256c0,23.812-19.304,43.116-43.116,43.116H94.316
	c-11.906,0-21.558-9.651-21.558-21.558v-43.116c0-11.906,9.651-21.558,21.558-21.558h86.232
	C204.359,212.884,223.663,232.188,223.663,256z M396.126,148.211h-86.232c-11.906,0-21.558,9.651-21.558,21.558v43.116
	c0,11.906,9.651,21.558,21.558,21.558h86.232c23.812,0,43.116-19.304,43.116-43.116l0,0
	C439.242,167.515,419.938,148.211,396.126,148.211z"/>
<path style="fill:#819AD1;" d="M222.305,245.221H72.758v-10.779c0-11.906,9.651-21.558,21.558-21.558h86.232
	C200.637,212.884,217.518,226.625,222.305,245.221z M396.126,148.211h-86.232c-11.906,0-21.558,9.651-21.558,21.558v10.779h149.547
	C433.097,161.952,416.216,148.211,396.126,148.211z"/>
<path d="M512,51.2v409.6c0,28.231-22.969,51.2-51.2,51.2H51.2C22.969,512,0,489.031,0,460.8V115.874c0-4.466,3.62-8.084,8.084-8.084
	s8.084,3.618,8.084,8.084V460.8c0,19.317,15.716,35.032,35.032,35.032h409.6c19.317,0,35.032-15.715,35.032-35.032V51.2
	c0-19.317-15.715-35.032-35.032-35.032H51.2c-19.316,0-35.032,15.715-35.032,35.032v26.947c0,4.466-3.62,8.084-8.084,8.084
	S0,82.613,0,78.147V51.2C0,22.969,22.969,0,51.2,0h409.6C489.031,0,512,22.969,512,51.2z M183.242,99.705V204.87
	c26.983,1.407,48.505,23.802,48.505,51.13c0,28.231-22.969,51.2-51.2,51.2H94.316c-16.345,0-29.642-13.298-29.642-29.642v-43.116
	c0-16.344,13.297-29.642,29.642-29.642h18.863V99.705c0-19.317,15.716-35.032,35.032-35.032S183.242,80.388,183.242,99.705z
	 M129.347,204.8h37.726V99.705c0-10.401-8.463-18.863-18.863-18.863c-10.401,0-18.863,8.463-18.863,18.863V204.8z M180.547,220.968
	H94.316c-7.43,0-13.474,6.044-13.474,13.474v43.116c0,7.43,6.044,13.474,13.474,13.474h86.232c19.316,0,35.032-15.715,35.032-35.032
	S199.863,220.968,180.547,220.968z M336.842,258.695c-4.466,0-8.084,3.618-8.084,8.084v145.516
	c0,19.317,15.715,35.032,35.032,35.032c19.317,0,35.032-15.715,35.032-35.032V266.779c0-4.466-3.618-8.084-8.084-8.084
	s-8.084,3.618-8.084,8.084v145.516c0,10.401-8.463,18.863-18.863,18.863s-18.863-8.463-18.863-18.863V266.779
	C344.926,262.313,341.308,258.695,336.842,258.695z M121.263,323.368c-4.465,0-8.084,3.618-8.084,8.084v80.842
	c0,19.317,15.716,35.032,35.032,35.032s35.032-15.715,35.032-35.032v-80.842c0-4.466-3.62-8.084-8.084-8.084
	c-4.465,0-8.084,3.618-8.084,8.084v80.842c0,10.401-8.463,18.863-18.863,18.863c-10.401,0-18.863-8.463-18.863-18.863v-80.842
	C129.347,326.987,125.728,323.368,121.263,323.368z M398.821,99.705v40.491c26.983,1.407,48.505,23.802,48.505,51.13
	c0,28.231-22.969,51.2-51.2,51.2h-86.232c-16.344,0-29.642-13.298-29.642-29.642v-43.116c0-16.344,13.298-29.642,29.642-29.642
	h18.863V99.705c0-19.317,15.715-35.032,35.032-35.032C383.106,64.674,398.821,80.388,398.821,99.705z M344.926,140.126h37.726
	V99.705c0-10.401-8.463-18.863-18.863-18.863s-18.863,8.463-18.863,18.863V140.126z M396.126,156.295h-86.232
	c-7.43,0-13.474,6.044-13.474,13.474v43.116c0,7.43,6.044,13.474,13.474,13.474h86.232c19.317,0,35.032-15.715,35.032-35.032
	S415.443,156.295,396.126,156.295z"/>
<g>
</g>
<g>
</g>
<g>
</g>
<g>
</g>
<g>
</g>
<g>
</g>
<g>
</g>
<g>
</g>
<g>
</g>
<g>
</g>
<g>
</g>
<g>
</g>
<g>
</g>
<g>
</g>
<g>
</g>
</svg>
