<?xml version="1.0" encoding="iso-8859-1"?>
<!-- Generator: Adobe Illustrator 19.0.0, SVG Export Plug-In . SVG Version: 6.00 Build 0)  -->
<svg version="1.1" id="Capa_1" xmlns="http://www.w3.org/2000/svg" xmlns:xlink="http://www.w3.org/1999/xlink" x="0px" y="0px"
	 viewBox="0 0 512 512" style="enable-background:new 0 0 512 512;" xml:space="preserve">
<path style="fill:#F97DA3;" d="M199.476,160.643H62.206v-18.459c0-12.69,12.028-22.977,26.865-22.977l41.771-6.908l41.771,6.908
	c14.838,0,26.865,10.287,26.865,22.977v18.459H199.476z"/>
<path d="M199.476,168.719H62.206c-4.459,0-8.075-3.616-8.075-8.075v-18.46c0-16.914,15.296-30.713,34.239-31.046l41.154-6.805
	c0.871-0.146,1.762-0.146,2.634,0l41.154,6.805c18.943,0.333,34.239,14.131,34.239,31.046v18.46
	C207.551,165.104,203.936,168.719,199.476,168.719z M70.281,152.57h121.122v-10.385c0-8.216-8.43-14.902-18.789-14.902
	c-0.442,0-0.882-0.036-1.317-0.109l-40.454-6.689l-40.454,6.689c-0.436,0.073-0.875,0.109-1.317,0.109
	c-10.36,0-18.789,6.685-18.789,14.902C70.281,142.184,70.281,152.57,70.281,152.57z"/>
<path style="fill:#FFDD95;" d="M150.273,112.194H111.09c-8.693,0-15.734-7.046-15.734-15.734V60.714
	c0-18.924,15.342-34.266,34.266-34.266h2.128c18.924,0,34.266,15.342,34.266,34.266v35.747
	C166.007,105.15,158.962,112.194,150.273,112.194z"/>
<path d="M150.273,120.308H111.09c-13.149,0-23.846-10.697-23.846-23.846V60.715c0-23.367,19.012-42.378,42.378-42.378h2.127
	c23.367,0,42.376,19.012,42.376,42.378v35.747C174.113,109.613,163.415,120.308,150.273,120.308z M129.623,34.56
	c-14.422,0-26.154,11.731-26.154,26.154v35.747c0,4.203,3.419,7.622,7.622,7.622h39.183c4.203,0,7.627-3.422,7.629-7.629V60.715
	c0-14.422-11.731-26.154-26.153-26.154h-2.127V34.56z"/>
<path style="fill:#2BBBE9;" d="M482.095,435.186H344.823v-18.459c0-12.69,12.028-22.977,26.865-22.977l41.771-6.908l41.771,6.908
	c14.838,0,26.865,10.287,26.865,22.977V435.186z"/>
<path d="M482.095,443.262H344.823c-4.459,0-8.075-3.616-8.075-8.075v-18.46c0-16.914,15.298-30.715,34.239-31.046l41.154-6.809
	c0.867-0.141,1.766-0.141,2.634,0l41.154,6.809c18.941,0.331,34.239,14.131,34.239,31.046v18.46
	C490.17,439.646,486.554,443.262,482.095,443.262z M352.898,427.112H474.02v-10.385c0-8.216-8.43-14.903-18.791-14.903
	c-0.442,0-0.884-0.036-1.317-0.107l-40.453-6.691l-40.453,6.691c-0.434,0.071-0.875,0.107-1.317,0.107
	c-10.362,0-18.791,6.687-18.791,14.903v10.385H352.898z"/>
<path style="fill:#FFDD95;" d="M432.891,386.738h-39.183c-8.692,0-15.734-7.046-15.734-15.734v-35.747
	c0-18.924,15.342-34.266,34.266-34.266h2.128c18.924,0,34.266,15.342,34.266,34.266v35.747
	C448.625,379.692,441.579,386.738,432.891,386.738z"/>
<path d="M432.893,394.848H393.71c-13.149,0-23.846-10.697-23.846-23.846v-35.745c0-23.369,19.008-42.376,42.376-42.376h2.125
	c23.369,0,42.376,19.008,42.376,42.376v35.745C456.73,384.155,446.034,394.848,432.893,394.848z M412.24,309.101
	c-14.422,0-26.156,11.734-26.156,26.156v35.745c0,4.203,3.422,7.625,7.625,7.625h39.183c4.203,0,7.625-3.426,7.629-7.633v-35.738
	c0-14.422-11.734-26.156-26.156-26.156h-2.125V309.101z"/>
<path d="M474.02,249.467h-16.15c0-107.268-80.282-196.981-186.745-208.676l1.766-16.053
	C387.551,37.334,474.02,133.947,474.02,249.467z"/>
<path d="M247.926,475.561c-124.668,0-226.094-101.423-226.094-226.094h16.15c0,115.764,94.181,209.944,209.944,209.944V475.561z"/>
<polygon points="289.656,84.376 252.282,28.315 308.912,0 316.135,14.446 275.868,34.58 303.092,75.417 "/>
<polygon points="226.353,512 213.878,501.749 245.04,463.831 206.984,439.772 215.615,426.123 269.13,459.952 "/>
<g>
</g>
<g>
</g>
<g>
</g>
<g>
</g>
<g>
</g>
<g>
</g>
<g>
</g>
<g>
</g>
<g>
</g>
<g>
</g>
<g>
</g>
<g>
</g>
<g>
</g>
<g>
</g>
<g>
</g>
</svg>
