<?xml version="1.0" encoding="utf-8"?>
<!-- Generator: Adobe Illustrator 22.1.0, SVG Export Plug-In . SVG Version: 6.00 Build 0)  -->
<svg version="1.1" id="Layer_1" xmlns="http://www.w3.org/2000/svg" xmlns:xlink="http://www.w3.org/1999/xlink" x="0px" y="0px"
	 viewBox="0 0 1066 479" style="enable-background:new 0 0 1066 479;" xml:space="preserve">
<style type="text/css">
	.st0{fill:#3D009A;}
	.st1{fill:#662D91;}
	.st2{fill:#DB6309;}
	.st3{fill:#C14006;}
	.st4{fill:#F4CD27;}
	.st5{fill:#EDB811;}
	.st6{fill:#F7E263;}
</style>
<g>
	<path class="st0" d="M762.7,18c7.4,7.4,7.4,18.8,0,26.2L645.5,150.5c-7.4,7.4-13.8,12.4-20.8,5.4l-6.4-6.4
		c-7.4-7.4-2-13.8,5.4-20.8L730,11.6c7.4-7.4,18.8-7.4,26.2,0L762.7,18z"/>
	<path class="st1" d="M756.2,11.6l6.4,6.4c7.4,7.4,7.4,18.8,0,26.2L645.5,150.5c-7.4,7.4-13.8,12.4-20.8,5.4l-6.4-6.4"/>
	<circle class="st2" cx="616.8" cy="157.4" r="29.2"/>
	<path class="st3" d="M596.1,137.1c11.4-11.4,29.7-11.4,41,0c11.4,11.4,11.4,29.7,0,41"/>
	<rect x="535.3" y="210.8" class="st4" width="24.7" height="24.7"/>
	<polygon class="st5" points="560,235 550.6,222.2 539.2,210.8 560,210.8 	"/>
	<rect x="510.5" y="245.4" class="st4" width="19.8" height="19.8"/>
	<polygon class="st5" points="530.3,265.2 522.4,252.8 513,245.4 530.3,245.4 	"/>
	<rect x="490.8" y="270.1" class="st4" width="14.8" height="14.8"/>
	<polygon class="st5" points="505.6,282 499.7,275.6 492.2,270.1 505.6,270.1 	"/>
	
		<rect x="526.8" y="175.8" transform="matrix(0.7074 -0.7068 0.7068 0.7074 26.2165 432.6398)" class="st4" width="17.8" height="17.8"/>
	<polygon class="st5" points="535.7,196.9 536.7,184.6 535.7,171.7 548.1,184.6 	"/>
	
		<rect x="496.4" y="178.2" transform="matrix(0.7075 -0.7067 0.7067 0.7075 16.4998 409.6092)" class="st4" width="13.3" height="13.3"/>
	<polygon class="st5" points="503.1,194 504.1,184.6 503.1,175.2 512.5,184.6 	"/>
	
		<rect x="472.6" y="179.8" transform="matrix(0.7071 -0.7071 0.7071 0.7071 9.3261 391.5201)" class="st4" width="9.4" height="9.4"/>
	<polygon class="st5" points="476.9,191 477.4,184.6 476.9,178.2 483.8,184.6 	"/>
	
		<rect x="577.6" y="232.6" transform="matrix(0.7074 -0.7068 0.7068 0.7074 0.9506 485.2214)" class="st4" width="17.8" height="17.8"/>
	<polygon class="st5" points="599,241.4 586.7,240.5 573.8,241.4 586.7,229.1 	"/>
	<g>
		
			<rect x="573.4" y="384.3" transform="matrix(0.7074 -0.7068 0.7068 0.7074 -109.14 530.4013)" class="st4" width="25.4" height="25.4"/>
		<polygon class="st5" points="603.9,397 586.2,395.6 567.9,397 586.2,379.4 		"/>
	</g>
	
		<rect x="579.7" y="267.4" transform="matrix(0.7071 -0.7071 0.7071 0.7071 -22.0435 494.8789)" class="st4" width="13.3" height="13.3"/>
	<polygon class="st5" points="596.1,274.1 586.7,273.1 577.3,274.1 586.7,264.7 	"/>
	
		<rect x="581.7" y="295.5" transform="matrix(0.7076 -0.7066 0.7066 0.7076 -40.6839 502.101)" class="st4" width="9.4" height="9.4"/>
	<polygon class="st5" points="593.1,300.3 586.7,299.8 580.2,300.3 586.7,293.8 	"/>
	<polygon class="st6" points="567.4,206.8 581.2,165.8 555,131.2 598.5,131.7 623.7,96.1 636.6,137.6 678.1,150.5 642.5,175.7 
		643,218.7 608.4,193 	"/>
	<polygon class="st4" points="567.4,206.8 595.1,165.8 555,131.2 607.9,140.6 623.7,96.1 636.6,137.6 678.1,150.5 642.5,175.7 
		643,218.7 608.4,193 	"/>
	<polyline class="st5" points="636.6,137.6 678.1,150.5 642.5,175.7 643,218.7 608.4,193 567.4,206.8 	"/>
	<circle class="st6" cx="572.8" cy="107.5" r="1.5"/>
	<circle class="st6" cx="554.5" cy="63" r="6.4"/>
	<circle class="st6" cx="596.6" cy="96.1" r="4.4"/>
	<circle class="st6" cx="627.7" cy="63.5" r="7.9"/>
	<circle class="st6" cx="709.3" cy="155.4" r="5.4"/>
	<circle class="st6" cx="683.6" cy="179.6" r="3"/>
	<circle class="st6" cx="673.7" cy="190" r="4"/>
	<circle class="st6" cx="706.8" cy="202.4" r="5.4"/>
	<circle class="st6" cx="669.7" cy="218.2" r="4.4"/>
	<circle class="st6" cx="636.1" cy="256.3" r="3.5"/>
	<circle class="st6" cx="519.9" cy="137.1" r="2.5"/>
	<circle class="st6" cx="553" cy="165.8" r="3.5"/>
	<circle class="st6" cx="532.3" cy="103" r="4.4"/>
	<circle class="st6" cx="494.2" cy="159.9" r="1"/>
	<circle class="st6" cx="622.3" cy="224.1" r="4.9"/>
	<circle class="st6" cx="586.1" cy="352.3" r="3.5"/>
	<circle class="st6" cx="586.3" cy="327.1" r="4.9"/>
	<circle class="st6" cx="681.1" cy="139.1" r="2"/>
	<g>
		<path class="st0" d="M79.1,405c-1.2,1.2-2.8,1.8-4.6,1.8H21.3c1,6.5,4,11.8,8.9,15.8c4.9,4,10.9,6,18,6c2.8,0,5.7-0.5,8.8-1.5
			c3-1,5.5-2.3,7.5-3.8c1.3-1,2.8-1.5,4.6-1.5c1.8,0,3.2,0.5,4.2,1.4c1.7,1.4,2.5,3,2.5,4.8c0,1.7-0.7,3.1-2.2,4.2
			c-3.2,2.5-7.1,4.6-11.8,6.2c-4.7,1.6-9.2,2.4-13.5,2.4c-7.7,0-14.5-1.7-20.6-5c-6.1-3.3-10.8-7.9-14.2-13.8
			c-3.4-5.9-5.1-12.6-5.1-20c0-7.5,1.6-14.2,4.8-20.1c3.2-5.9,7.7-10.5,13.4-13.9c5.7-3.3,12.3-5,19.5-5c7.2,0,13.4,1.6,18.6,4.8
			c5.2,3.2,9.2,7.6,12,13.3c2.8,5.7,4.2,12.2,4.2,19.6C80.9,402.4,80.3,403.8,79.1,405z M29.5,380.6c-4.2,3.7-6.9,8.7-8.1,15h46.6
			c-0.8-6.3-3.2-11.2-7-15c-3.8-3.7-8.8-5.6-15-5.6C39.3,375,33.7,376.8,29.5,380.6z"/>
		<path class="st0" d="M154.6,367c5.1,2.8,9.1,6.9,12,12.3c2.9,5.4,4.3,11.8,4.3,19.4v34.4c0,2.1-0.7,3.8-2,5.1
			c-1.4,1.4-3.1,2-5.1,2c-2.1,0-3.8-0.7-5.1-2c-1.4-1.4-2-3.1-2-5.1v-34.4c0-7.6-2-13.3-6.1-17.1c-4.1-3.9-9.4-5.8-16.2-5.8
			c-3.9,0-7.5,0.8-10.7,2.4c-3.2,1.6-5.7,3.7-7.6,6.4c-1.8,2.7-2.7,5.7-2.7,9.1v39.5c0,2.1-0.7,3.8-2,5.1c-1.3,1.4-3,2-5.2,2
			c-2.1,0-3.8-0.7-5.1-2c-1.4-1.4-2-3.1-2-5.1v-62.4c0-2.1,0.7-3.9,2-5.2c1.4-1.3,3.1-2,5.1-2c2.1,0,3.9,0.7,5.2,2
			c1.3,1.3,2,3,2,5.2v1.5c3-3,6.5-5.3,10.6-6.9c4.1-1.6,8.5-2.5,13.2-2.5C143.7,362.8,149.5,364.2,154.6,367z"/>
		<path class="st0" d="M256.1,375.5c0.9,1,1.4,2.2,1.4,3.6c0,2.1-1,3.8-3.1,5.2c-0.9,0.7-2,1-3.2,1c-2.1,0-4-0.8-5.5-2.5
			c-2.3-2.5-4.9-4.4-7.6-5.5c-2.8-1.2-5.9-1.8-9.4-1.8c-7.2,0-13,2.4-17.5,7.2c-4.5,4.8-6.7,11.2-6.7,19.1c0,5,1.1,9.5,3.1,13.5
			c2.1,4,5,7.1,8.8,9.3c3.8,2.2,8.1,3.4,12.9,3.4c6.3,0,11.5-1.6,15.4-4.9c1.8-1.3,3.5-2,5.2-2c1.3,0,2.5,0.4,3.6,1.3
			c1.8,1.5,2.7,3.2,2.7,5c0,1.4-0.6,2.7-1.7,3.8c-6.7,6.3-15.1,9.4-25.2,9.4c-7.4,0-14-1.7-19.9-5c-5.9-3.4-10.5-8-13.8-13.9
			c-3.3-5.9-5-12.5-5-19.8c0-7.5,1.6-14.2,4.8-20.1c3.2-5.9,7.7-10.5,13.5-13.9c5.8-3.3,12.3-5,19.6-5
			C239.7,362.9,248.8,367.1,256.1,375.5z"/>
		<path class="st0" d="M333.3,367.9c5.8,3.3,10.4,7.9,13.7,13.8c3.3,5.9,5,12.6,5,20.2c0,7.5-1.6,14.1-4.9,20
			c-3.3,5.9-7.8,10.5-13.6,13.8c-5.8,3.3-12.5,5-20,5c-7.5,0-14.1-1.7-20-5c-5.9-3.3-10.5-7.9-13.7-13.8c-3.3-5.9-4.9-12.6-4.9-20
			c0-7.6,1.6-14.3,4.9-20.2c3.3-5.9,7.8-10.5,13.7-13.8c5.9-3.3,12.6-5,20-5C320.9,362.9,327.5,364.6,333.3,367.9z M300.7,378.9
			c-3.8,2.2-6.7,5.4-8.9,9.4c-2.1,4-3.2,8.5-3.2,13.6s1.1,9.5,3.2,13.5c2.1,4,5.1,7.1,8.9,9.3c3.8,2.2,8.1,3.4,12.8,3.4
			c4.8,0,9-1.1,12.8-3.4c3.8-2.2,6.7-5.3,8.8-9.3c2.1-4,3.1-8.5,3.1-13.5s-1.1-9.6-3.1-13.6c-2.1-4-5-7.1-8.8-9.4
			c-3.8-2.2-8-3.4-12.8-3.4C308.7,375.5,304.5,376.7,300.7,378.9z"/>
		<path class="st0" d="M444.5,332.7c1.3,1.3,2,3,2,5.2v63.8c0,7.3-1.7,13.9-5.1,19.8c-3.4,5.9-8,10.6-13.9,14
			c-5.8,3.4-12.3,5.1-19.5,5.1c-7.2,0-13.7-1.7-19.7-5.1c-5.9-3.4-10.6-8.1-13.9-14c-3.4-5.9-5-12.5-5-19.8c0-7.3,1.6-13.9,4.7-19.8
			c3.1-5.9,7.4-10.6,12.9-13.9c5.5-3.4,11.5-5,18.3-5c5.4,0,10.5,1.1,15.1,3.4c4.7,2.2,8.6,5.4,11.9,9.4v-37.8c0-2.1,0.7-3.9,2-5.2
			c1.4-1.3,3.1-2,5.1-2C441.5,330.7,443.2,331.4,444.5,332.7z M420.7,424.6c3.8-2.3,6.7-5.4,8.9-9.5c2.1-4,3.2-8.5,3.2-13.4
			c0-4.9-1.1-9.4-3.2-13.4c-2.1-4-5.1-7.1-8.9-9.4c-3.8-2.3-8-3.4-12.7-3.4c-4.7,0-8.9,1.1-12.7,3.4c-3.8,2.3-6.8,5.4-9,9.4
			c-2.2,4-3.3,8.4-3.3,13.4c0,4.9,1.1,9.4,3.3,13.4c2.2,4,5.2,7.2,9,9.5c3.8,2.3,8,3.4,12.7,3.4C412.7,428,416.9,426.9,420.7,424.6z
			"/>
		<path class="st0" d="M538.6,405c-1.2,1.2-2.8,1.8-4.6,1.8h-53.2c1,6.5,4,11.8,8.9,15.8c4.9,4,10.9,6,18,6c2.8,0,5.7-0.5,8.8-1.5
			c3-1,5.5-2.3,7.5-3.8c1.3-1,2.8-1.5,4.6-1.5c1.8,0,3.2,0.5,4.2,1.4c1.7,1.4,2.5,3,2.5,4.8c0,1.7-0.7,3.1-2.2,4.2
			c-3.2,2.5-7.1,4.6-11.8,6.2c-4.7,1.6-9.2,2.4-13.5,2.4c-7.7,0-14.5-1.7-20.6-5c-6.1-3.3-10.8-7.9-14.2-13.8
			c-3.4-5.9-5.1-12.6-5.1-20c0-7.5,1.6-14.2,4.8-20.1c3.2-5.9,7.7-10.5,13.4-13.9c5.7-3.3,12.3-5,19.5-5c7.2,0,13.4,1.6,18.6,4.8
			c5.2,3.2,9.2,7.6,12,13.3c2.8,5.7,4.2,12.2,4.2,19.6C540.4,402.4,539.8,403.8,538.6,405z M489,380.6c-4.2,3.7-6.9,8.7-8,15h46.6
			c-0.8-6.3-3.2-11.2-7-15c-3.8-3.7-8.8-5.6-15-5.6C498.7,375,493.2,376.8,489,380.6z"/>
	</g>
	<g>
		<path class="st1" d="M731.4,370.8c5,5.3,7.5,12.7,7.5,22.3v40c0,2.1-0.7,3.8-2,5.1c-1.3,1.4-3,2-5.2,2c-2.1,0-3.8-0.7-5.1-2
			c-1.4-1.4-2-3.1-2-5.1v-40c0-5.7-1.4-10-4.3-13c-2.8-2.9-6.6-4.4-11.4-4.4c-4.9,0-8.8,1.7-12,5c-3.1,3.4-4.7,7.7-4.7,12.9v39.5
			c0,2.1-0.7,3.8-2,5.1c-1.3,1.4-3,2-5.2,2c-2.1,0-3.8-0.7-5.1-2c-1.4-1.4-2-3.1-2-5.1v-40c0-5.7-1.4-10-4.3-13
			c-2.8-2.9-6.7-4.4-11.4-4.4c-4.9,0-9,1.7-12.1,5c-3.1,3.4-4.7,7.7-4.7,12.9v39.5c0,2.1-0.7,3.8-2,5.1c-1.3,1.4-3,2-5.2,2
			c-2.1,0-3.8-0.7-5.1-2c-1.4-1.4-2-3.1-2-5.1v-62.3c0-2.1,0.7-3.9,2-5.2c1.4-1.3,3.1-2,5.1-2c2.1,0,3.7,0.6,5,1.9
			c1.3,1.3,2,2.9,2.1,5c2.4-2.4,5.3-4.3,8.7-5.7c3.4-1.4,7-2,10.9-2c4.8,0,9,1,12.8,2.9c3.8,1.9,6.9,4.6,9.3,8.2
			c2.8-3.5,6.3-6.2,10.5-8.1c4.2-2,8.9-2.9,14-2.9C719.8,362.8,726.4,365.5,731.4,370.8z"/>
		<path class="st1" d="M816.8,368.1c5.8,3.4,10.5,8.1,13.9,14c3.4,5.9,5.1,12.5,5.1,19.8v31.2c0,2.1-0.7,3.8-2,5.1
			c-1.4,1.4-3.1,2-5.1,2c-2.1,0-3.8-0.7-5.1-2c-1.4-1.4-2-3.1-2-5.1v-5.2c-3.3,4-7.2,7.1-11.9,9.4c-4.7,2.2-9.7,3.4-15.1,3.4
			c-6.7,0-12.8-1.7-18.3-5c-5.5-3.4-9.8-8-12.9-13.9c-3.1-5.9-4.7-12.5-4.7-19.8c0-7.3,1.7-13.9,5-19.8c3.4-5.9,8-10.6,13.9-14
			c5.9-3.4,12.5-5.1,19.7-5.1C804.4,362.9,810.9,364.6,816.8,368.1z M809.9,424.6c3.8-2.3,6.7-5.4,8.9-9.4c2.1-4,3.2-8.4,3.2-13.4
			c0-4.9-1.1-9.4-3.2-13.4c-2.1-4-5.1-7.2-8.9-9.5c-3.8-2.3-8-3.4-12.7-3.4c-4.7,0-8.9,1.1-12.7,3.4c-3.8,2.3-6.8,5.4-9,9.5
			c-2.2,4-3.3,8.5-3.3,13.4c0,4.9,1.1,9.4,3.3,13.4c2.2,4,5.2,7.1,9,9.4c3.8,2.3,8,3.4,12.7,3.4C801.9,428,806.1,426.9,809.9,424.6z
			"/>
		<path class="st1" d="M911.6,367.9c5.8,3.3,10.4,7.9,13.7,13.8c3.3,5.9,5,12.6,5,20.2v30.2c0,7.4-1.6,14.1-4.9,20.2
			c-3.3,6.1-7.9,10.9-13.8,14.4c-5.9,3.5-12.6,5.3-20.1,5.3c-6.7,0-13-1.3-18.8-4s-10.6-6.5-14.6-11.4c-1-1.3-1.5-2.6-1.5-3.9
			c0-2,1-3.6,2.9-5c1.3-0.8,2.6-1.3,3.9-1.3c2.3,0,4.2,1,5.7,2.9c2.5,3.3,5.7,5.8,9.5,7.5c3.8,1.7,8.2,2.6,13,2.6
			c4.6,0,8.7-1.1,12.5-3.3c3.7-2.2,6.7-5.4,9-9.7c2.2-4.2,3.4-9.3,3.4-15.2v-6.9c-2.9,5.1-6.7,9.1-11.5,12
			c-4.8,2.9-10.1,4.3-16.1,4.3c-6.9,0-13.1-1.7-18.5-5c-5.5-3.3-9.7-7.9-12.7-13.8c-3-5.9-4.6-12.6-4.6-20c0-7.6,1.6-14.3,4.9-20.2
			c3.3-5.9,7.8-10.5,13.7-13.8c5.9-3.3,12.6-5,20-5C899.1,362.9,905.7,364.6,911.6,367.9z M904.6,424.7c3.8-2.2,6.7-5.3,8.8-9.3
			c2.1-4,3.1-8.5,3.1-13.5s-1-9.6-3.1-13.6c-2.1-4-5-7.1-8.8-9.4c-3.8-2.2-8-3.4-12.8-3.4s-9,1.1-12.8,3.4c-3.8,2.2-6.7,5.4-8.9,9.4
			c-2.1,4-3.2,8.5-3.2,13.6s1.1,9.5,3.2,13.5c2.1,4,5.1,7.1,8.9,9.3c3.8,2.2,8.1,3.4,12.8,3.4S900.8,426.9,904.6,424.7z"/>
		<path class="st1" d="M966.6,335.3c1.8,1.8,2.7,4,2.7,6.5c0,2.5-0.9,4.7-2.7,6.5c-1.8,1.8-4,2.7-6.5,2.7c-2.5,0-4.7-0.9-6.5-2.7
			c-1.8-1.8-2.7-4-2.7-6.5c0-2.5,0.9-4.7,2.7-6.5c1.8-1.8,4-2.7,6.5-2.7C962.6,332.6,964.8,333.5,966.6,335.3z M955,365.5
			c1.4-1.3,3.1-2,5.1-2c2.1,0,3.9,0.7,5.2,2c1.3,1.3,2,3,2,5.2v62.3c0,2.1-0.7,3.8-2,5.1c-1.3,1.4-3,2-5.2,2c-2.1,0-3.8-0.7-5.1-2
			c-1.4-1.4-2-3.1-2-5.1v-62.3C952.9,368.5,953.6,366.8,955,365.5z"/>
		<path class="st1" d="M1055.3,375.5c0.9,1,1.4,2.2,1.4,3.6c0,2.1-1,3.8-3.1,5.2c-0.9,0.7-2,1-3.2,1c-2.1,0-4-0.8-5.5-2.5
			c-2.3-2.5-4.9-4.4-7.6-5.5c-2.8-1.2-5.9-1.8-9.5-1.8c-7.2,0-13,2.4-17.5,7.2c-4.5,4.8-6.7,11.2-6.7,19.1c0,5,1,9.5,3.1,13.5
			c2.1,4,5,7.1,8.8,9.3c3.8,2.2,8.1,3.4,13,3.4c6.3,0,11.5-1.6,15.4-4.9c1.8-1.3,3.5-2,5.2-2c1.3,0,2.5,0.4,3.6,1.3
			c1.8,1.5,2.7,3.2,2.7,5c0,1.4-0.6,2.7-1.7,3.8c-6.7,6.3-15.1,9.4-25.2,9.4c-7.4,0-14-1.7-19.9-5c-5.9-3.4-10.5-8-13.8-13.9
			c-3.3-5.9-5-12.5-5-19.8c0-7.5,1.6-14.2,4.8-20.1c3.2-5.9,7.7-10.5,13.5-13.9c5.8-3.3,12.3-5,19.6-5
			C1038.8,362.9,1048,367.1,1055.3,375.5z"/>
	</g>
</g>
</svg>
