<?xml version="1.0" encoding="iso-8859-1"?>
<!-- Generator: Adobe Illustrator 19.0.0, SVG Export Plug-In . SVG Version: 6.00 Build 0)  -->
<svg version="1.1" id="Capa_1" xmlns="http://www.w3.org/2000/svg" xmlns:xlink="http://www.w3.org/1999/xlink" x="0px" y="0px"
	 viewBox="0 0 469.086 469.086" style="enable-background:new 0 0 469.086 469.086;" xml:space="preserve">
<polygon style="fill:#D1DBE0;" points="334.2,463.6 135.252,463.6 89.172,159.326 380.28,159.326 "/>
<polygon style="fill:#BECAD3;" points="144.76,159.326 190.84,463.6 334.2,463.6 380.28,159.326 "/>
<path style="fill:#33363A;" d="M334.2,469.086H135.617c-2.56,0-5.12-1.829-5.486-4.754l-46.08-304.274
	c-0.366-1.463,0.366-3.291,1.097-4.389c1.097-1.097,2.56-1.829,4.023-1.829H380.28c1.463,0,3.291,0.731,4.023,1.829
	c0.731,1.097,1.463,2.926,1.097,4.389l-46.08,304.274C338.954,467.257,336.76,469.086,334.2,469.086z M140.006,458.115h189.44
	l44.617-293.303H95.754L140.006,458.115z"/>
<rect x="201.203" y="28.559" transform="matrix(0.9448 0.3276 -0.3276 0.9448 30.0453 -80.651)" style="fill:#BECAD3;" width="106.421" height="40.594"/>
<polygon style="fill:#D1DBE0;" points="204.006,25.109 304.577,60.217 311.526,46.686 210.589,11.943 "/>
<path style="fill:#33363A;" d="M297.994,90.937c-0.731,0-1.097,0-1.829-0.366L195.594,55.829c-2.926-1.097-4.389-4.023-3.291-6.949
	l13.531-38.4c0.366-1.463,1.463-2.56,2.926-3.291c1.463-0.731,2.926-0.731,4.023-0.366l100.571,34.743
	c1.463,0.366,2.56,1.463,3.291,2.926c0.731,1.463,0.731,2.926,0.366,4.023l-13.531,38.4
	C302.383,89.475,300.189,90.937,297.994,90.937z M204.372,47.052l90.331,31.451l9.874-28.16l-90.331-31.451L204.372,47.052z"/>
<rect x="86.307" y="55.246" transform="matrix(0.9448 0.3276 -0.3276 0.9448 40.4151 -74.9403)" style="fill:#BECAD3;" width="312.681" height="54.491"/>
<rect x="90.676" y="56.153" transform="matrix(-0.9448 -0.3276 0.3276 -0.9448 457.5718 216.4468)" style="fill:#D1DBE0;" width="312.681" height="27.062"/>
<g>
	<path style="fill:#33363A;" d="M381.377,164.812c-0.731,0-1.097,0-1.829-0.366L84.052,62.046c-2.926-1.097-4.389-4.023-3.291-6.949
		l17.92-51.2c0.366-1.463,1.463-2.56,2.926-3.291c1.463-0.731,2.926-0.731,4.023-0.366l295.497,102.4
		c1.463,0.366,2.56,1.463,3.291,2.926c0.731,1.463,0.731,2.926,0.366,4.023l-17.92,51.2
		C385.766,163.715,383.572,164.812,381.377,164.812z M92.829,53.635l284.891,98.743l14.263-40.96L107.092,12.674L92.829,53.635z"/>
	<path style="fill:#33363A;" d="M349.56,469.086h-59.246c-2.926,0-5.486-2.56-5.486-5.486s2.56-5.486,5.486-5.486h59.246
		c2.926,0,5.486,2.56,5.486,5.486S352.852,469.086,349.56,469.086z"/>
	<path style="fill:#33363A;" d="M383.206,469.086h-11.703c-2.926,0-5.486-2.56-5.486-5.486s2.56-5.486,5.486-5.486h11.703
		c2.926,0,5.486,2.56,5.486,5.486S386.497,469.086,383.206,469.086z"/>
	<path style="fill:#33363A;" d="M408.806,469.086h-0.731c-2.926,0-5.486-2.56-5.486-5.486s2.56-5.486,5.486-5.486h0.731
		c2.926,0,5.486,2.56,5.486,5.486S412.097,469.086,408.806,469.086z"/>
	<path style="fill:#33363A;" d="M178.772,469.086h-59.246c-2.926,0-5.486-2.56-5.486-5.486s2.56-5.486,5.486-5.486h59.246
		c2.926,0,5.486,2.56,5.486,5.486S182.063,469.086,178.772,469.086z"/>
	<path style="fill:#33363A;" d="M97.949,469.086H86.246c-2.926,0-5.486-2.56-5.486-5.486s2.56-5.486,5.486-5.486h11.703
		c2.926,0,5.486,2.56,5.486,5.486S100.874,469.086,97.949,469.086z"/>
	<path style="fill:#33363A;" d="M61.012,469.086H60.28c-2.926,0-5.486-2.56-5.486-5.486s2.56-5.486,5.486-5.486h0.731
		c2.926,0,5.486,2.56,5.486,5.486S63.937,469.086,61.012,469.086z"/>
	<path style="fill:#33363A;" d="M101.972,202.846h-7.314c-2.926,0-5.486-2.56-5.486-5.486s2.56-5.486,5.486-5.486h7.314
		c2.926,0,5.486,2.56,5.486,5.486S105.263,202.846,101.972,202.846z"/>
	<path style="fill:#33363A;" d="M144.76,202.846h-7.314c-2.926,0-5.486-2.56-5.486-5.486s2.56-5.486,5.486-5.486h7.314
		c2.926,0,5.486,2.56,5.486,5.486S147.686,202.846,144.76,202.846z"/>
	<path style="fill:#33363A;" d="M187.183,202.846h-7.314c-2.926,0-5.486-2.56-5.486-5.486s2.56-5.486,5.486-5.486h7.314
		c2.926,0,5.486,2.56,5.486,5.486S190.109,202.846,187.183,202.846z"/>
	<path style="fill:#33363A;" d="M229.606,202.846h-7.314c-2.926,0-5.486-2.56-5.486-5.486s2.56-5.486,5.486-5.486h7.314
		c2.926,0,5.486,2.56,5.486,5.486S232.897,202.846,229.606,202.846z"/>
	<path style="fill:#33363A;" d="M272.394,202.846h-7.314c-2.926,0-5.486-2.56-5.486-5.486s2.56-5.486,5.486-5.486h7.314
		c2.926,0,5.486,2.56,5.486,5.486S275.32,202.846,272.394,202.846z"/>
	<path style="fill:#33363A;" d="M314.817,202.846h-7.314c-2.926,0-5.486-2.56-5.486-5.486s2.56-5.486,5.486-5.486h7.314
		c2.926,0,5.486,2.56,5.486,5.486S317.743,202.846,314.817,202.846z"/>
	<path style="fill:#33363A;" d="M357.606,202.846h-7.314c-2.926,0-5.486-2.56-5.486-5.486s2.56-5.486,5.486-5.486h7.314
		c2.926,0,5.486,2.56,5.486,5.486S360.532,202.846,357.606,202.846z"/>
	<path style="fill:#33363A;" d="M175.114,435.074c-2.56,0-5.12-1.829-5.486-4.754l-29.623-194.56
		c-0.366-2.926,1.463-5.851,4.754-6.217c2.926-0.366,5.851,1.463,6.217,4.754l29.623,194.56c0.366,2.926-1.463,5.851-4.754,6.217
		C175.846,435.074,175.48,435.074,175.114,435.074z"/>
	<path style="fill:#33363A;" d="M294.337,435.074c-0.366,0-0.731,0-0.731,0c-2.926-0.366-5.12-3.291-4.754-6.217l29.623-194.56
		c0.366-2.926,3.291-5.12,6.217-4.754s5.12,3.291,4.754,6.217l-29.623,194.56C299.092,432.88,296.897,435.074,294.337,435.074z"/>
	<path style="fill:#33363A;" d="M217.172,435.074c-2.926,0-5.12-2.194-5.486-5.12l-14.629-194.56
		c-0.366-2.926,2.194-5.486,5.12-5.851c2.926-0.366,5.486,2.194,5.851,5.12l14.629,194.56c0.366,2.926-2.194,5.486-5.12,5.851
		H217.172z"/>
	<path style="fill:#33363A;" d="M252.28,435.074h-0.366c-2.926-0.366-5.12-2.926-5.12-5.851l14.629-194.56
		c0.366-2.926,2.926-5.12,5.851-5.12c2.926,0.366,5.12,2.926,5.12,5.851l-14.629,194.56
		C257.4,432.88,255.206,435.074,252.28,435.074z"/>
</g>
<g>
</g>
<g>
</g>
<g>
</g>
<g>
</g>
<g>
</g>
<g>
</g>
<g>
</g>
<g>
</g>
<g>
</g>
<g>
</g>
<g>
</g>
<g>
</g>
<g>
</g>
<g>
</g>
<g>
</g>
</svg>
