<?xml version="1.0" encoding="iso-8859-1"?>
<!-- Generator: Adobe Illustrator 19.0.0, SVG Export Plug-In . SVG Version: 6.00 Build 0)  -->
<svg version="1.1" id="Layer_1" xmlns="http://www.w3.org/2000/svg" xmlns:xlink="http://www.w3.org/1999/xlink" x="0px" y="0px"
	 viewBox="0 0 512.001 512.001" style="enable-background:new 0 0 512.001 512.001;" xml:space="preserve">
<rect x="104" y="239.988" style="fill:#1595A3;" width="304.068" height="24.011"/>
<rect x="104" y="239.988" style="fill:#ACF0F2;" width="71.875" height="24.011"/>
<rect x="111.847" y="264.002" style="fill:#FB9138;" width="288.143" height="240.114"/>
<rect x="111.847" y="264.002" style="fill:#FDB275;" width="64.031" height="240.114"/>
<circle style="fill:#FFFFFF;" cx="255.924" cy="376.06" r="24.011"/>
<rect x="111.847" y="472.107" style="fill:#2E343E;" width="288.143" height="32.015"/>
<rect x="111.847" y="472.107" style="fill:#51565E;" width="64.031" height="32.015"/>
<g>
	<rect x="207.916" y="304.52" style="fill:#FFFFFF;" width="15.758" height="15.758"/>
	<rect x="247.835" y="304.52" style="fill:#FFFFFF;" width="15.758" height="15.758"/>
	<rect x="288.805" y="304.52" style="fill:#FFFFFF;" width="14.707" height="15.758"/>
</g>
<path d="M103.973,256.126v255.876h303.891l0.224-255.876H103.973L103.973,256.126z M119.73,496.242V479.96h16.75v-15.758h-16.75
	V271.883h272.585l-0.167,192.32h-16.153v15.758h16.139l-0.014,16.283H119.73V496.242z"/>
<path d="M255.923,344.168c-17.584,0-31.89,14.306-31.89,31.89c0,14.791,10.123,27.258,23.802,30.848v25.78h15.758v-25.676
	c13.892-3.444,24.221-16.012,24.221-30.952C287.813,358.474,273.507,344.168,255.923,344.168z M255.923,392.192
	c-8.896,0-16.133-7.237-16.133-16.133s7.238-16.133,16.133-16.133c8.895,0,16.133,7.237,16.133,16.133
	S264.817,392.192,255.923,392.192z"/>
<rect x="152.239" y="464.197" width="208" height="15.758"/>
<path d="M375.856,232.106V119.933C375.856,53.802,322.053,0,255.922,0S135.989,53.802,135.989,119.933v112.115l-32.071-0.007
	l-0.004,15.758l304.152,0.072l0.004-15.758L375.856,232.106z M151.746,119.933c0-57.443,46.733-104.175,104.176-104.175
	c57.443,0,104.175,46.733,104.175,104.175v112.169l-208.352-0.049V119.933z"/>
<g>
	<polygon style="fill:#FFFFFF;" points="375.995,408.525 360.238,408.525 360.238,304.525 344.48,304.525 344.48,288.768 
		375.995,288.768 	"/>
	<rect x="360.239" y="423.227" style="fill:#FFFFFF;" width="15.758" height="16.808"/>
</g>
<g>
</g>
<g>
</g>
<g>
</g>
<g>
</g>
<g>
</g>
<g>
</g>
<g>
</g>
<g>
</g>
<g>
</g>
<g>
</g>
<g>
</g>
<g>
</g>
<g>
</g>
<g>
</g>
<g>
</g>
</svg>
