<?xml version="1.0" standalone="no"?>
<!DOCTYPE svg PUBLIC "-//W3C//DTD SVG 20010904//EN"
 "http://www.w3.org/TR/2001/REC-SVG-20010904/DTD/svg10.dtd">
<svg version="1.0" xmlns="http://www.w3.org/2000/svg"
 width="592.000000pt" height="592.000000pt" viewBox="0 0 592.000000 592.000000"
 preserveAspectRatio="xMidYMid meet">
<metadata>
Created by potrace 1.14, written by Peter Selinger 2001-2017
</metadata>
<g transform="translate(0.000000,592.000000) scale(0.100000,-0.100000)"
fill="#000000" stroke="none">
<path d="M2937 5829 c-31 -8 -97 -41 -142 -70 -16 -10 -37 -22 -45 -26 -8 -3
-17 -9 -20 -13 -3 -3 -31 -19 -62 -35 -32 -17 -58 -33 -58 -37 0 -5 -5 -8 -10
-8 -8 0 -553 -313 -928 -533 -26 -15 -55 -30 -64 -33 -10 -4 -18 -10 -18 -15
0 -5 -5 -9 -10 -9 -6 0 -65 -31 -131 -70 -66 -38 -124 -70 -129 -70 -4 0 -10
-3 -12 -8 -3 -6 -104 -67 -218 -130 -25 -14 -47 -29 -48 -34 -2 -4 -7 -6 -12
-3 -4 3 -13 -2 -20 -10 -7 -8 -18 -15 -25 -15 -7 0 -18 -7 -25 -15 -7 -9 -15
-13 -18 -10 -3 3 -12 -1 -21 -8 -9 -8 -86 -54 -171 -102 -185 -106 -226 -144
-235 -219 -3 -28 -7 -669 -8 -1425 -3 -1529 -8 -1419 64 -1474 46 -34 205
-127 218 -127 6 0 11 -4 11 -8 0 -4 15 -15 33 -23 17 -9 61 -33 97 -54 79 -46
78 -45 318 -184 106 -61 198 -111 203 -111 5 0 9 -4 9 -10 0 -5 4 -10 9 -10 5
0 49 -23 98 -51 48 -29 108 -63 133 -77 25 -14 57 -33 72 -43 14 -11 30 -19
35 -19 4 -1 44 -23 88 -50 44 -27 100 -60 125 -73 25 -14 61 -34 80 -46 19
-11 46 -26 60 -33 14 -6 32 -17 40 -24 8 -6 40 -25 70 -41 64 -35 158 -89 180
-103 8 -6 22 -13 30 -17 8 -4 38 -22 67 -40 29 -18 54 -33 57 -33 3 0 65 -35
138 -78 176 -103 201 -114 251 -111 37 2 182 68 197 90 3 4 21 14 40 23 19 9
49 24 65 34 89 55 348 202 356 202 5 0 9 5 9 10 0 6 4 10 10 10 5 0 38 17 72
38 35 20 77 44 93 52 17 8 36 21 44 28 7 7 31 21 52 30 22 9 39 20 39 24 0 5
4 8 8 8 9 0 333 185 409 233 24 15 44 27 46 27 5 0 392 223 417 240 8 6 24 15
35 20 11 6 43 24 70 41 28 16 58 33 68 36 9 3 17 9 17 14 0 5 4 9 9 9 5 0 49
23 98 51 48 28 104 60 123 71 95 53 141 91 162 131 l21 42 3 1405 3 1405 -26
53 c-14 28 -32 52 -40 52 -7 0 -13 3 -13 8 0 4 -10 12 -23 18 -12 6 -81 45
-154 87 -126 73 -157 91 -248 142 -22 13 -86 50 -143 84 -57 34 -105 61 -107
61 -1 0 -44 25 -94 55 -51 30 -93 55 -96 55 -2 0 -38 20 -79 45 -42 25 -81 45
-86 45 -6 0 -10 4 -10 9 0 5 -9 13 -20 16 -17 5 -120 63 -170 95 -8 6 -31 18
-50 28 -19 9 -37 20 -40 23 -3 3 -12 9 -20 13 -8 4 -24 12 -35 19 -18 10 -391
225 -563 325 -31 18 -66 37 -77 42 -11 6 -33 19 -50 29 -32 19 -81 47 -155 89
-25 14 -61 35 -80 47 -40 25 -102 36 -143 24z"/>
</g>
</svg>
