<?xml version="1.0" standalone="no"?>
<!DOCTYPE svg PUBLIC "-//W3C//DTD SVG 20010904//EN"
 "http://www.w3.org/TR/2001/REC-SVG-20010904/DTD/svg10.dtd">
<svg version="1.0" xmlns="http://www.w3.org/2000/svg"
 width="896.000000pt" height="896.000000pt" viewBox="0 0 896.000000 896.000000"
 preserveAspectRatio="xMidYMid meet">
<metadata>
Created by potrace 1.14, written by Peter Selinger 2001-2017
</metadata>
<g transform="translate(0.000000,896.000000) scale(0.100000,-0.100000)"
fill="#000000" stroke="none">
<path d="M4468 8805 c-3 -3 -63 -7 -134 -10 -123 -4 -197 -9 -274 -20 -19 -2
-55 -7 -80 -10 -38 -5 -104 -16 -230 -39 -133 -24 -555 -151 -586 -176 -6 -6
-14 -7 -17 -3 -4 3 -14 0 -23 -8 -9 -7 -21 -14 -28 -15 -6 -1 -42 -17 -81 -35
-38 -18 -72 -33 -75 -34 -23 -5 -327 -170 -340 -184 -8 -9 -43 -30 -70 -42
-14 -6 -59 -12 -100 -13 -61 -1 -87 -7 -142 -33 -76 -36 -180 -133 -213 -198
-11 -22 -23 -42 -27 -45 -3 -3 -15 -31 -26 -64 -17 -49 -35 -75 -118 -160 -55
-56 -118 -124 -141 -151 -23 -28 -53 -63 -68 -80 -15 -16 -38 -47 -52 -67 -14
-21 -30 -38 -34 -38 -5 0 -9 -6 -9 -14 0 -7 -7 -19 -16 -27 -8 -7 -32 -38 -52
-68 -20 -31 -39 -58 -42 -61 -10 -8 -120 -189 -120 -197 0 -3 -6 -14 -14 -22
-15 -17 -141 -263 -179 -351 -13 -30 -41 -100 -61 -155 -21 -55 -41 -109 -46
-120 -9 -21 -39 -119 -46 -145 -2 -8 -11 -42 -20 -75 -9 -33 -17 -67 -19 -75
-2 -8 -9 -37 -15 -65 -7 -27 -14 -59 -16 -70 -1 -11 -5 -31 -8 -45 -10 -44
-15 -74 -21 -115 -3 -22 -8 -53 -10 -70 -5 -28 -11 -77 -20 -165 -3 -29 -17
-343 -17 -375 0 -43 13 -265 17 -285 2 -14 6 -55 10 -92 3 -37 8 -77 11 -90 2
-13 6 -39 9 -58 3 -19 7 -46 10 -60 3 -14 9 -47 15 -75 13 -70 18 -94 24 -113
3 -9 7 -28 10 -42 12 -75 107 -369 147 -457 10 -24 19 -50 19 -58 0 -8 5 -15
12 -15 6 0 8 -3 5 -7 -4 -3 0 -17 8 -30 9 -13 13 -23 11 -23 -7 0 133 -276
182 -360 24 -41 62 -100 83 -132 22 -31 39 -61 39 -67 0 -5 3 -11 8 -13 4 -1
29 -33 55 -70 80 -114 187 -244 284 -347 28 -30 50 -58 48 -61 -15 -24 -22
-229 -12 -350 10 -125 61 -286 101 -319 9 -7 16 -19 16 -25 1 -6 24 -29 53
-52 46 -36 72 -52 140 -86 9 -4 45 -16 80 -25 70 -18 317 -24 402 -9 28 4 59
9 70 11 11 1 27 4 35 8 8 3 44 13 80 22 36 9 84 23 108 32 36 13 47 14 67 3
l24 -13 -5 -161 c-3 -89 -6 -175 -6 -191 -1 -17 1 -38 5 -48 3 -9 3 -17 -1
-17 -4 0 -9 -73 -11 -163 -2 -89 -4 -200 -6 -247 -4 -123 2 -151 36 -164 16
-6 29 -14 29 -18 0 -4 8 -8 18 -8 31 0 32 -10 7 -66 -13 -30 -24 -57 -24 -59
0 -3 -14 -32 -32 -65 -42 -78 -91 -126 -168 -162 -169 -81 -227 -238 -130
-350 33 -37 109 -76 167 -85 90 -14 260 -5 317 17 11 4 25 8 30 9 47 6 265
102 305 134 8 7 27 19 43 27 15 7 27 17 27 22 0 4 5 8 11 8 6 0 25 11 43 25
17 14 42 33 55 42 53 40 99 80 155 135 32 32 63 58 67 58 5 0 9 4 9 9 0 4 10
19 23 33 12 13 27 35 34 49 14 29 33 99 27 99 -3 0 0 9 6 20 6 11 7 20 2 20
-4 0 -5 24 -2 53 3 28 3 69 -1 91 -6 36 -3 41 42 88 27 28 49 54 49 59 0 5 6
17 14 26 8 10 45 56 83 103 73 92 222 245 292 300 24 19 48 40 55 45 39 36 73
47 150 52 77 4 82 3 92 -19 7 -13 25 -48 41 -78 34 -63 50 -108 58 -165 11
-71 22 -128 25 -132 2 -2 3 -6 4 -10 7 -29 19 -53 26 -53 5 0 2 -19 -6 -42
-44 -127 -29 -241 44 -320 34 -36 143 -98 173 -98 8 0 68 -27 134 -60 67 -33
130 -62 140 -64 11 -2 45 -11 75 -20 110 -31 185 -40 325 -40 61 1 133 4 160
8 28 4 59 9 70 11 11 1 37 7 58 13 20 6 37 7 37 4 0 -4 4 -2 8 3 4 6 26 19 48
29 74 32 110 110 75 166 -23 37 -76 85 -129 116 -26 15 -70 42 -99 60 -28 19
-56 34 -62 34 -6 0 -11 5 -11 10 0 6 -5 10 -10 10 -6 0 -29 12 -53 27 -23 15
-60 37 -83 49 -23 11 -50 27 -62 35 -21 15 -21 15 8 46 88 93 188 291 256 503
25 80 49 152 51 160 3 8 7 24 8 36 2 11 8 38 14 60 5 21 13 53 16 69 3 17 8
37 10 45 2 8 4 20 4 26 1 6 42 36 92 65 151 89 158 93 179 112 11 9 22 17 25
17 13 0 197 138 203 153 2 4 10 7 18 7 8 0 14 4 14 8 0 4 21 24 48 44 60 47
312 283 312 293 0 2 17 21 38 43 21 22 58 64 83 93 24 29 52 61 62 71 9 10 17
20 17 23 0 3 9 16 20 27 42 46 224 310 252 368 7 14 15 27 19 30 7 6 9 11 97
182 68 132 127 265 174 393 39 107 87 265 81 265 -3 0 -1 6 5 13 5 6 13 26 16
42 9 42 14 63 27 115 6 25 13 59 16 75 2 17 6 39 8 50 2 11 4 20 5 20 2 0 7
24 13 75 4 25 8 54 10 65 17 77 30 264 37 510 2 81 -14 364 -24 425 -3 19 -8
53 -11 75 -3 22 -8 54 -11 70 -3 17 -7 41 -9 55 -11 72 -20 114 -71 325 -7 29
-9 34 -29 100 -11 33 -20 62 -20 65 -1 3 -4 12 -8 20 -3 8 -15 44 -27 80 -12
36 -28 79 -35 95 -40 87 -63 144 -59 148 3 2 -2 10 -11 17 -8 7 -15 18 -15 25
0 15 -114 238 -141 276 -10 15 -19 31 -19 35 0 4 -11 24 -23 43 -13 20 -55 83
-92 141 -38 58 -72 107 -75 110 -3 3 -30 39 -61 80 -31 41 -65 85 -75 96 -11
12 -39 46 -64 75 -89 105 -303 314 -425 414 -27 22 -57 48 -67 58 -10 9 -20
17 -23 17 -3 0 -31 20 -62 44 -179 135 -441 288 -668 391 -44 20 -88 40 -98
46 -10 5 -22 7 -27 4 -6 -4 -10 -1 -10 4 0 6 -5 11 -11 11 -6 0 -38 11 -72 24
-67 26 -93 35 -105 37 -4 0 -22 7 -41 15 -19 8 -36 12 -39 9 -3 -3 -10 -1 -16
4 -11 8 -94 34 -146 45 -14 3 -52 13 -85 21 -33 9 -74 17 -91 19 -17 1 -35 5
-40 8 -8 5 -34 10 -138 23 -15 3 -35 6 -45 9 -9 2 -47 8 -86 12 -38 3 -86 8
-105 10 -19 2 -93 6 -163 8 -70 3 -136 7 -146 11 -9 3 -20 3 -23 0z"/>
</g>
</svg>
