<?xml version="1.0" encoding="UTF-8"?>
<svg width="1414px" height="328px" viewBox="0 0 1414 328" version="1.1" xmlns="http://www.w3.org/2000/svg" xmlns:xlink="http://www.w3.org/1999/xlink">
    <!-- Generator: Sketch 49.3 (51167) - http://www.bohemiancoding.com/sketch -->
    <title>wip</title>
    <desc>Created with Sketch.</desc>
    <defs></defs>
    <g id="Page-1" stroke="none" stroke-width="1" fill="none" fill-rule="evenodd">
        <g id="right_side" opacity="0.753611866" transform="translate(1110.000000, 1.000000)" fill-rule="nonzero">
            <g id="closing" transform="translate(253.000000, 163.000000)">
                <path d="M44.6811428,26.8795661 L30.9604765,35.5615719 C29.5811946,36.4337131 27.9341644,36.779979 26.321844,36.5360604 L10.1168306,34.0844688 C9.28379534,33.9588607 8.43181092,34.1456765 7.72741147,34.6092495 L6.35979062,35.5098509 L2.52895816,27.9913386 L0.93877551,24.8703848 C2.10187273,24.152403 3.17742107,23.3088132 4.14537815,22.3553962 C5.11333522,21.4030738 5.97488534,20.3409242 6.71089712,19.1879208 C8.00363226,17.1628675 10.2454664,15.915909 12.6454533,15.9603324 C13.1917,15.9709138 13.7389487,16.0289288 14.2799115,16.1377526 L16.6492882,16.6129104 L16.6492882,16.6140051 L28.739778,19.0402379 C29.8564133,19.2650918 30.6198467,20.2459656 30.6198467,21.3345686 C30.6198467,21.5214756 30.5966158,21.711484 30.5502449,21.9004889 C30.2476046,23.1199907 29.0623697,23.9033762 27.8244778,23.7016918 L18.7665861,22.2277813 C18.6464228,22.2088079 18.5282637,22.1992299 18.4101957,22.1992299 C17.2945625,22.1992299 16.3287008,23.051303 16.2242981,24.2021172 C16.1198954,25.3476406 16.913939,26.379232 18.046426,26.5713384 L28.4793179,28.3408884 C29.406188,28.4982405 30.3593866,28.3355977 31.1829472,27.880508 L41.7993182,22.002745 C42.2326897,21.7631137 42.7019552,21.6489992 43.166939,21.6489992 C44.104377,21.6489992 45.0174908,22.1156737 45.5552649,22.9592635 C46.398868,24.2833017 46.0065835,26.041267 44.6811428,26.8795661 Z" id="Shape" fill="#F9EADE"></path>
                <g id="Group" transform="translate(0.938776, 15.959184)" fill="#EDDFD6">
                    <path d="M15.4899747,0.700771214 L15.4899747,0.701872334 C15.4899747,0.701872334 10.0042177,0.657276968 6.74443149,6.55074728 C5.51293683,8.77794629 3.57154908,10.6631557 1.63230709,12.1468234 L0.0717045675,9.00734632 C1.21316618,8.28510327 2.26870748,7.43650667 3.21865889,6.47743103 C4.1686103,5.5194565 5.01413411,4.45100292 5.73645481,3.29115636 C7.00514286,1.25408409 9.20527502,-0.000275280037 11.5606181,0.0444118459 C12.0967036,0.0550560074 12.6337726,0.113415375 13.1646725,0.22288507 L15.4899747,0.700771214 Z" id="Shape"></path>
                    <path d="M29.962585,11.9158634 L34.2529679,4.69958079 C34.7743907,3.82391499 35.6876851,3.33309069 36.6273547,3.33309069 C37.0644665,3.33309069 37.5080155,3.44017462 37.9199145,3.66287617 C38.9838601,4.23802793 39.5326414,5.41962161 39.3768047,6.57423784" id="Shape"></path>
                </g>
                <path d="M34.3987485,0.93877551 C31.3494208,0.93877551 28.7067302,2.7074047 27.4085917,5.29133014 L24.6061122,5.29133014 L22.1485352,7.06536714 L19.6908681,5.29133014 L17.8720864,6.41569655 L16.0533947,5.29133014 L13.1428571,8.25141926 L13.1428571,8.25169423 L13.1428571,10.2900724 L14.5494142,12.5454046 L27.4085917,12.5454046 C28.7068203,15.1294217 31.3495109,16.8979592 34.3987485,16.8979592 C38.7319751,16.8979592 42.244898,13.3251376 42.244898,8.91822986 C42.244898,4.51132214 38.7319751,0.93877551 34.3987485,0.93877551 Z M36.8027921,6.79680975 C37.9550207,6.79680975 38.8890603,7.74675133 38.8890603,8.91859649 C38.8890603,10.0904416 37.9550207,11.0403832 36.8027921,11.0403832 C35.6505635,11.0403832 34.7165238,10.0904416 34.7165238,8.91859649 C34.7165238,7.74675133 35.6505635,6.79680975 36.8027921,6.79680975 Z" id="Shape" fill="#FCD577"></path>
                <path d="M45.438063,23.1115123 C44.4817619,21.6336645 42.5691597,21.0874321 40.9725394,21.7903509 C40.7272649,20.843678 40.087305,20.0142763 39.1769143,19.5415598 C38.6643534,19.2753966 38.0894408,19.1346534 37.5146179,19.1346534 C36.2586866,19.1346534 35.1180253,19.7652963 34.4628818,20.822066 L30.2589844,27.6143204 L30.2293358,27.6304407 C29.5748212,27.9872145 28.8082709,28.115646 28.0708302,27.9926175 L17.7822379,26.2745585 C17.0717504,26.1559587 16.5661974,25.5087525 16.6311547,24.8012279 C16.6662838,24.4187678 16.855226,24.07838 17.1632118,23.8429518 C17.4711077,23.6075236 17.8523164,23.5119529 18.2369392,23.5735114 L27.1696035,25.0045925 C28.7786224,25.2623412 30.3470316,24.2422409 30.7398302,22.682374 C30.9447647,21.8680298 30.8067641,21.0293279 30.3513441,20.3207404 C29.8959242,19.6121528 29.1855265,19.1311105 28.3510541,18.9662753 L14.0909013,16.1478684 C13.5156293,16.0341401 12.9264314,15.9711644 12.3398389,15.960447 C9.74073763,15.9121745 7.24181254,17.250342 5.81598594,19.4491777 C4.43589002,21.5771546 2.55329578,23.4017675 0.371340842,24.725409 C0.00441734927,24.9479941 -0.109954249,25.4215963 0.115824091,25.7832416 C0.34160243,26.1449755 0.821999079,26.257641 1.18883273,26.0351445 C3.56979245,24.5906002 5.62434838,22.599735 7.13022611,20.277428 C8.26612566,18.5257996 10.2532086,17.4630954 12.3112685,17.4979048 C12.8047824,17.5068507 13.3004525,17.5599062 13.784443,17.6555655 L28.0445957,20.4739724 C28.4572498,20.5555486 28.8086303,20.7934568 29.0338696,21.1439419 C29.2591987,21.4943385 29.3273904,21.9091279 29.2260462,22.3119599 C29.027311,23.1011492 28.2338973,23.6173553 27.4199093,23.4867094 L18.4873348,22.0556284 C17.6828703,21.926754 16.8516323,22.1351673 16.2074497,22.6278128 C15.5632672,23.1202811 15.1515115,23.8619065 15.0779291,24.6624333 C14.9398387,26.1647274 16.0133864,27.5388558 17.5219594,27.7907587 L27.8105517,29.5088177 C28.8945213,29.6898618 30.0218857,29.5007575 30.984386,28.9762256 L41.4541939,23.2696159 C42.3813855,22.7644816 43.5537617,23.0581026 44.1234635,23.9385226 C44.4133905,24.386527 44.5083558,24.9188534 44.3908396,25.4373623 C44.2733235,25.9558713 43.9577909,26.3978527 43.5021912,26.6817306 L29.9712136,35.111885 C28.7699075,35.8601534 27.3346472,36.1570516 25.9293949,35.9478411 L17.8440507,34.7436852 C17.4185488,34.6804438 17.0207189,34.9691932 16.9563905,35.3891199 C16.8920621,35.808958 17.1851337,36.2008069 17.6110848,36.2642255 L25.6964291,37.4683814 C26.0677549,37.5236512 26.4406081,37.5510204 26.8121137,37.5510204 C28.2176355,37.5510204 29.6036612,37.1598801 30.8044282,36.4117888 L44.3354058,27.9816344 C45.1442726,27.4776515 45.7045407,26.6931566 45.913069,25.7725242 C46.1212379,24.8518033 45.9526903,23.9069018 45.438063,23.1115123 Z M35.7940127,21.6235671 C36.1631823,21.0279993 36.8063765,20.6724655 37.5144382,20.6724655 C37.8369787,20.6724655 38.1604176,20.7518273 38.4498056,20.9021364 C39.0869803,21.2329582 39.487775,21.8740528 39.5201189,22.5664314 L33.016391,26.1112291 L35.7940127,21.6235671 Z" id="Shape" fill="#000000"></path>
                <path d="M15.3079417,33.6459993 L10.148902,32.9009443 C9.15379128,32.7573954 8.14245691,32.9693049 7.3014711,33.4980672 L5.97756652,34.3303642 C5.62434895,34.5523888 5.52638971,35.0061314 5.75863511,35.34372 C5.90570623,35.5574839 6.14985487,35.6734694 6.39885297,35.6734694 C6.54319075,35.6734694 6.68920381,35.6345266 6.81872867,35.5530164 L8.14263325,34.7207194 C8.66769831,34.3906328 9.29918712,34.2580419 9.92027163,34.3479812 L15.0793113,35.0931205 C15.4975118,35.1533048 15.8873208,34.8785136 15.9505402,34.4789706 C16.0134951,34.079259 15.7257894,33.7063522 15.3079417,33.6459993 Z" id="Shape" fill="#000000"></path>
                <path d="M13.748236,12.3516075 C13.893174,12.5731978 14.1449948,12.7073345 14.41557,12.7073345 L26.9372319,12.7073345 C28.4981379,15.3040269 31.3400885,16.8979592 34.467272,16.8979592 C39.2735333,16.8979592 43.1836735,13.1078031 43.1836735,8.44902372 C43.1836735,6.54728298 42.5471115,4.75143965 41.3428149,3.25546244 C41.0743336,2.92188564 40.5777024,2.86240661 40.2334746,3.1227377 C39.8893378,3.38298055 39.8280669,3.86437246 40.0965482,4.19786101 C41.0820721,5.42203491 41.6029204,6.89197901 41.6029204,8.44884722 C41.6029204,12.2627419 38.4019023,15.3657121 34.4670899,15.3657121 C31.7724444,15.3657121 29.3362657,13.9199479 28.1093908,11.5925879 C27.9742853,11.3363162 27.7025265,11.1750874 27.4055492,11.1750874 L14.8500199,11.1750874 L14.2645322,10.2804309 L17.513074,10.2804309 C17.9495268,10.2804309 18.303405,9.93741161 18.303405,9.51435152 C18.303405,9.09129142 17.9495268,8.74827211 17.513074,8.74827211 L13.7848347,8.74827211 L13.7848347,8.12409521 L16.0547717,5.92390032 L17.361672,6.69395088 C17.6139479,6.84247198 17.9304081,6.84247198 18.182684,6.69395088 L19.5758916,5.87315781 L21.6347035,7.28953548 C21.9086473,7.47803285 22.2756354,7.47803285 22.5495792,7.28953548 L24.8264354,5.72287176 L27.4055492,5.72287176 C27.7024354,5.72287176 27.9742853,5.56155473 28.1093908,5.30537128 C29.3362657,2.97792301 31.7723534,1.53224707 34.4670899,1.53224707 C35.9091868,1.53224707 37.2982065,1.94692362 38.4841127,2.73153507 C38.844728,2.97006896 39.336443,2.87996792 39.582437,2.53059477 C39.8285221,2.18113336 39.7356598,1.70441858 39.3751356,1.46597295 C37.9254823,0.506983782 36.2282871,0 34.4669988,0 C31.3399064,0 28.4979558,1.5939323 26.9369588,4.19062469 L24.5744326,4.19062469 C24.4104669,4.19062469 24.2505981,4.24004348 24.1169492,4.33199771 L22.0918227,5.7253427 L20.0666052,4.33199771 C19.809413,4.15506082 19.4682806,4.14323561 19.1987068,4.3020817 L17.7719049,5.14273053 L16.345103,4.3020817 C16.0337411,4.11870271 15.6335228,4.16529756 15.3757844,4.41503892 L12.4356001,7.26500258 C12.2872935,7.4085818 12.2040816,7.603786 12.2040816,7.807109 L12.2040816,9.76965249 C12.2040816,9.91499666 12.2467801,10.0572522 12.3270787,10.1800049 L13.748236,12.3516075 Z" id="Shape" fill="#000000"></path>
                <path d="M36.6122449,5.63265306 C35.0592395,5.63265306 33.7959184,6.89597415 33.7959184,8.44897959 C33.7959184,10.001985 35.0592395,11.2653061 36.6122449,11.2653061 C38.1651619,11.2653061 39.4285714,10.001985 39.4285714,8.44897959 C39.4285714,6.89597415 38.1651619,5.63265306 36.6122449,5.63265306 Z M36.6122449,9.72920041 C35.9063494,9.72920041 35.3321126,9.15496355 35.3321126,8.44906807 C35.3321126,7.74317259 35.9063494,7.16893574 36.6122449,7.16893574 C37.3180519,7.16893574 37.8923772,7.74317259 37.8923772,8.44906807 C37.8923772,9.15496355 37.3180519,9.72920041 36.6122449,9.72920041 Z" id="Shape" fill="#000000"></path>
                <path d="M19.5676391,8.44897959 C19.1301934,8.44897959 18.7755102,8.65915241 18.7755102,8.91836735 C18.7755102,9.17758229 19.1301934,9.3877551 19.5676391,9.3877551 L26.4323609,9.3877551 C26.8698066,9.3877551 27.2244898,9.17758229 27.2244898,8.91836735 C27.2244898,8.65915241 26.8698066,8.44897959 26.4323609,8.44897959 L19.5676391,8.44897959 Z" id="Shape" fill="#000000"></path>
            </g>
            <g id="wheelbarrow" transform="translate(154.000000, 0.000000)">
                <rect id="Rectangle-path" fill="#8DE0A8" transform="translate(42.903226, 34.193548) rotate(-25.158123) translate(-42.903226, -34.193548) " x="28.3870968" y="27.7419355" width="29.0322581" height="12.9032258"></rect>
                <rect id="Rectangle-path" fill="#4EBFED" transform="translate(36.451613, 23.225806) rotate(-25.158123) translate(-36.451613, -23.225806) " x="23.2258065" y="16.7741935" width="26.4516129" height="12.9032258"></rect>
                <rect id="Rectangle-path" fill="#FF6F52" transform="translate(29.032258, 11.612903) rotate(-25.158123) translate(-29.032258, -11.612903) " x="17.4193548" y="5.16129032" width="23.2258065" height="12.9032258"></rect>
                <circle id="Oval" fill="#415E72" cx="30.6451613" cy="51.9354839" r="8.06451613"></circle>
                <circle id="Oval" fill="#CFDCE5" cx="30.6451613" cy="51.9354839" r="3.5483871"></circle>
                <polyline id="Shape" fill="#3BA4BC" points="53.5483871 22.5806452 22.5806452 24.8152677 27.0822253 34.8387097"></polyline>
                <polyline id="Shape" fill="#E25749" points="42.5806452 12.9032258 18.0645161 15.1201608 21.6283303 22.5806452"></polyline>
                <path d="M34.7508608,52.403762 C34.1745691,52.2004945 33.5385719,52.4923688 33.330586,53.0557068 C33.112772,53.6454587 32.6733357,54.1169481 32.0926213,54.383369 C30.8942145,54.9337401 29.4612861,54.4283928 28.898385,53.2569332 C28.3354839,52.0857137 28.8524389,50.685173 30.0509686,50.135042 C30.9264014,49.7329494 31.9577315,49.8814679 32.6775126,50.513122 C33.1335338,50.9131736 33.8351331,50.8763141 34.2442253,50.4305183 C34.6535632,49.9848426 34.6157253,49.29928 34.1597041,48.8992284 C32.7745646,47.6841858 30.7912658,47.3987948 29.1073537,48.1720038 C26.8014495,49.2306037 25.806606,51.9250688 26.8896562,54.1787808 C27.6756538,55.8138056 29.3421211,56.7744336 31.078736,56.7741935 C31.7356177,56.7741935 32.4029417,56.6366007 33.0357448,56.3460471 C34.1528245,55.8332558 34.9986503,54.9261761 35.4174477,53.791696 C35.6259251,53.2284782 35.3272755,52.6069094 34.7508608,52.403762 Z" id="Shape" fill="#000000"></path>
                <path d="M57.1644438,38.6961949 L38.4769542,47.4169237 C36.2556021,43.8771233 31.8457818,42.2965658 27.8614136,43.6118291 L8.75495266,3.19970483 C8.57637078,2.8219735 8.19412395,2.58064516 7.77383245,2.58064516 L1.08385279,2.58064516 C0.485219449,2.58064516 0,3.06282492 0,3.65744174 C0,4.25205856 0.485339464,4.73423831 1.08385279,4.73423831 L7.08542811,4.73423831 L25.8992932,44.5271837 C22.0322994,46.9223436 20.4853099,51.8792326 22.469753,56.0763665 C24.0227433,59.3608882 27.3163068,61.290561 30.7480073,61.2903226 C32.0462063,61.2903226 33.3649279,61.0139396 34.6158412,60.4302923 C36.8232716,59.4001159 38.4948364,57.5776339 39.3225778,55.298488 C40.026344,53.360588 40.0459064,51.2904582 39.3995072,49.3657931 L53.7439047,42.6719124 L54.7961937,44.8975225 C54.9807763,45.2878926 55.3709441,45.5168207 55.7779139,45.5168207 C55.9322528,45.5168207 56.0891121,45.4839122 56.2380503,45.4143992 C56.7800367,45.1615052 57.0128652,44.5201489 56.7583141,43.9819295 L55.7059051,41.7562001 L58.0862768,40.645422 C58.6282632,40.3925281 58.8610917,39.7511717 58.6065405,39.2129523 C58.3518693,38.6747329 57.7065502,38.4434201 57.1644438,38.6961949 Z M37.283288,54.5675874 C36.6520106,56.3056523 35.3773344,57.6954364 33.6941282,58.4808267 C30.2189824,60.1022813 26.0640734,58.6130565 24.4318734,55.1607734 C22.7996734,51.7083712 24.2987771,47.5803926 27.7736828,45.9588188 C28.7144781,45.5198015 29.7200813,45.2987428 30.729405,45.2987428 C31.5261826,45.2987428 32.3252405,45.4363381 33.0969351,45.7129595 C34.8463894,46.3400078 36.2452808,47.6065047 37.0358176,49.2787528 C37.8265945,50.9514777 37.9144453,52.8296418 37.283288,54.5675874 Z" id="Shape" fill="#000000"></path>
                <path d="M38.4771679,45.8064516 C38.6276594,45.8064516 38.7806083,45.7716351 38.9258337,45.6980914 L49.7147591,40.2352989 C50.2430004,39.9677413 50.4702588,39.289197 50.2220533,38.7197698 C49.9738477,38.1500903 49.3442646,37.9053653 48.8161403,38.1729229 L38.0272149,43.6355892 C37.4987395,43.9031468 37.2717151,44.5816911 37.5199207,45.1511183 C37.6997849,45.5642495 38.0802263,45.8064516 38.4771679,45.8064516 Z" id="Shape" fill="#000000"></path>
                <path d="M59.897465,33.8312461 L54.3369209,21.9148464 C54.2153104,21.6542874 53.9960775,21.4531921 53.7271979,21.3556477 C53.4584377,21.2579831 53.1618706,21.2717979 52.9031351,21.3940888 L27.5556561,33.3786014 L22.9113075,23.4261847 L27.5067255,21.2534182 C28.0454394,20.9986254 28.2772033,20.3524535 28.024077,19.8101929 C27.7708314,19.267692 27.1288859,19.0348827 26.5902913,19.2894352 L21.9948733,21.4622018 L17.3507634,11.5097851 L36.3470515,2.52836805 L40.9911614,12.4807848 L30.0723594,17.6433126 C29.5334068,17.8981055 29.3018816,18.5442774 29.5550079,19.086538 C29.8081342,19.6290389 30.450199,19.861728 30.9887936,19.6072956 L44.9739923,12.9950554 L48.6699228,20.915136 C48.8534722,21.3084371 49.241456,21.5390841 49.6461478,21.5390841 C49.7996228,21.5390841 49.955604,21.5059286 50.1037085,21.4358936 C50.6426611,21.1811008 50.8741864,20.5349289 50.6210601,19.9926682 L46.4668527,11.0905361 C46.2137264,10.5482755 45.5717809,10.3153461 45.033067,10.5697785 L42.942418,11.5581969 L37.8396732,0.623848757 C37.5865469,0.0815881224 36.9446014,-0.151461419 36.4058875,0.103091147 L15.4585815,10.0072162 C14.9198677,10.262009 14.6881037,10.9081809 14.94123,11.4504415 L28.8755887,41.3115358 C29.0591381,41.7048369 29.4471219,41.9354839 29.8518137,41.9354839 C30.0052887,41.9354839 30.1612698,41.9023284 30.3093744,41.8322934 C30.848327,41.5775006 31.0798522,40.9313287 30.8267259,40.389068 L28.4718516,35.3427045 L52.8438217,23.8194859 L57.4879317,33.7719026 L52.1960284,36.2739417 C51.6570758,36.5287345 51.4255506,37.1749064 51.6786769,37.717167 C51.9318032,38.2596679 52.5739874,38.4923571 53.1124626,38.2379246 L59.3798748,35.2745916 C59.9189467,35.0197988 60.1505913,34.3736269 59.897465,33.8312461 Z" id="Shape" fill="#000000"></path>
            </g>
            <g id="studying" transform="translate(0.000000, 93.000000)">
                <rect id="Rectangle-path" fill="#CFDCE5" x="2" y="2" width="52" height="67"></rect>
                <path d="M62.0001428,13.5871182 L67.5000714,2 L73,13.5871182 L73,65.6532921 C73,67.5016162 71.4722421,69 69.5873645,69 L65.4126355,69 C63.5279008,69 62,67.5017563 62,65.6532921 L62,13.5871182 L62.0001428,13.5871182 Z" id="Shape" fill="#4EBFED"></path>
                <path d="M73,60 L73,66.212347 C73,68.3039508 71.4716746,70 69.5869113,70 L65.4113743,70 C63.5266111,70 62,68.3039508 62,66.212347 L62,60 L73,60 Z" id="Shape" fill="#FF6F52"></path>
                <rect id="Rectangle-path" fill="#97E1F7" x="67" y="13" width="3" height="46"></rect>
                <path d="M62,65.6532991 C62,67.5016194 63.3888889,69 65.1024362,69 L66.048491,69 C65.1893148,69 64.4927277,67.5017595 64.4927277,65.6532991 L64.4927277,13.5870939 L67,2 L62,13.5870939 L62,65.6532991 Z" id="Shape" fill="#3BA4BC"></path>
                <polygon id="Shape" fill="#FCD577" points="73 13 62 13 67.4991428 2"></polygon>
                <path d="M67,70 L65.8299544,70 C63.7139283,70 62,68.3039508 62,66.212347 L62,60 L65.0774042,60 L65.0774042,66.212347 C65.0774042,68.3039508 65.9391801,70 67,70 Z" id="Shape" fill="#D33F22"></path>
                <polygon id="Shape" fill="#EAC36E" points="64.4922713 13 62 13 67 2"></polygon>
                <path d="M52.7134135,0 L1.28644283,0 C0.575918403,0 0,0.565722117 0,1.26335201 L0,8.29791608 C0,8.99554597 0.575918403,9.56126809 1.28644283,9.56126809 C1.99696725,9.56126809 2.57288566,8.99568705 2.57288566,8.29791608 L2.57288566,2.52670402 L51.427258,2.52670402 L51.427258,67.473296 L2.572742,67.473296 L2.572742,12.5089484 C2.572742,11.8113185 1.9968236,11.2455964 1.28629917,11.2455964 C0.575774747,11.2455964 0,11.8111774 0,12.5089484 L0,68.736648 C0,69.4342779 0.575918403,70 1.28644283,70 L52.7135572,70 C53.4239379,70 54,69.434419 54,68.736648 L54,1.26335201 C53.9998563,0.565722117 53.4240816,0 52.7134135,0 Z" id="Shape" fill="#000000"></path>
                <path d="M71.7734945,47.9635978 C72.4507775,47.9635978 73,47.3980156 73,46.7002433 L73,12.932349 C73,12.748101 72.9609655,12.5661102 72.8853618,12.3992148 L67.6117304,0.730220344 C67.4103945,0.284836722 66.9767689,0 66.499863,0 C66.0229571,0 65.5893316,0.284836722 65.3879957,0.730220344 L60.1146382,12.3992148 C60.0393084,12.5661102 60,12.7482421 60,12.932349 L60,65.3664303 C60,67.921355 62.017879,70 64.4984197,70 L68.5014434,70 C70.9818471,70 72.999863,67.9214961 72.999863,65.3664303 L72.999863,50.911143 C72.999863,50.2135117 72.4507775,49.6477884 71.7733575,49.6477884 C71.0959375,49.6477884 70.546852,50.2133706 70.546852,50.911143 L70.546852,58.5745064 L62.4527372,58.5745064 L62.4527372,14.1957036 L70.546852,14.1957036 L70.546852,46.7003843 C70.5471259,47.3980156 71.0962114,47.9635978 71.7734945,47.9635978 Z M66.5,4.25689116 L69.8497092,11.6691355 L63.1501538,11.6691355 L66.5,4.25689116 Z M70.5471259,61.1012155 L70.5471259,65.3665713 C70.5471259,66.5283496 69.6296093,67.473573 68.5015803,67.473573 L64.4985566,67.473573 C63.3706646,67.473573 62.4530111,66.5284907 62.4530111,65.3665713 L62.4530111,61.1012155 L70.5471259,61.1012155 Z" id="Shape" fill="#000000"></path>
                <path d="M39.7178386,10 L12.2821614,10 C11.5741449,10 11,10.6715243 11,11.5 C11,12.3283082 11.5740017,13 12.2821614,13 L39.7178386,13 C40.4258551,13 41,12.3284757 41,11.5 C41,10.6715243 40.4258551,10 39.7178386,10 Z" id="Shape" fill="#000000"></path>
                <path d="M44.6810743,22 L39.3187784,22 C38.5905418,22 38,22.6715243 38,23.5 C38,24.3284757 38.5903945,25 39.3187784,25 L44.6812216,25 C45.4094582,25 46,24.3284757 46,23.5 C46,22.6715243 45.4094582,22 44.6810743,22 Z" id="Shape" fill="#000000"></path>
                <path d="M8,23.5 C8,24.3283082 8.57502003,25 9.28443611,25 L35.7155639,25 C36.4248365,25 37,24.3284757 37,23.5 C37,22.6715243 36.42498,22 35.7155639,22 L9.28443611,22 C8.5748766,22 8,22.6715243 8,23.5 Z" id="Shape" fill="#000000"></path>
                <path d="M9.2676198,40 L44.7323802,40 C45.4323668,40 46,39.3284757 46,38.5 C46,37.6715243 45.4325083,37 44.7323802,37 L9.2676198,37 C8.56763321,37 8,37.6715243 8,38.5 C8,39.3284757 8.5673501,40 9.2676198,40 Z" id="Shape" fill="#000000"></path>
                <path d="M42.7651241,29 L18.2348759,29 C17.5529707,29 17,29.6715243 17,30.5 C17,31.3284757 17.5528328,32 18.2348759,32 L42.7651241,32 C43.4470293,32 44,31.3284757 44,30.5 C44,29.6715243 43.4471672,29 42.7651241,29 Z" id="Shape" fill="#000000"></path>
                <path d="M9.47499671,32 L16.5250033,32 C17.3395045,32 18,31.3284757 18,30.5 C18,29.6715243 17.3396693,29 16.5250033,29 L9.47499671,29 C8.66049545,29 8,29.6715243 8,30.5 C8,31.3284757 8.66016603,32 9.47499671,32 Z" id="Shape" fill="#000000"></path>
                <path d="M9.2676198,59 L44.7323802,59 C45.4323668,59 46,58.3284757 46,57.5 C46,56.6715243 45.4325083,56 44.7323802,56 L9.2676198,56 C8.56763321,56 8,56.6715243 8,57.5 C8,58.3284757 8.5673501,59 9.2676198,59 Z" id="Shape" fill="#000000"></path>
                <path d="M44.7306711,49 L36.2693289,49 C35.5683985,49 35,49.6715243 35,50.5 C35,51.3284757 35.5682568,52 36.2693289,52 L44.7306711,52 C45.4316015,52 46,51.3284757 46,50.5 C46,49.6715243 45.4317432,49 44.7306711,49 Z" id="Shape" fill="#000000"></path>
                <path d="M9.25136245,52 L31.7486375,52 C32.4396467,52 33,51.3284757 33,50.5 C33,49.6715243 32.4397865,49 31.7486375,49 L9.25136245,49 C8.56035326,49 8,49.6715243 8,50.5 C8,51.3284757 8.56007378,52 9.25136245,52 Z" id="Shape" fill="#000000"></path>
            </g>
            <g id="lover" transform="translate(113.000000, 241.000000)">
                <polygon id="Shape" fill="#CFDCE5" points="50.7692308 21.467703 50.6421441 21.5937846 50.6421441 62.3076923 9.6874014 62.3076923 9.6874014 21.5937846 9.56043956 21.467703 30.1648352 0.989010989"></polygon>
                <g id="Group" transform="translate(15.164835, 2.967033)" fill="#FF6F52">
                    <polyline id="Shape" points="33.2007889 16.5071085 33.2007889 0.0166681929 23.7257647 0.0166681929 23.7257647 7.02066774"></polyline>
                    <path d="M8.92798918,49.9894032 C4.12655486,46.4133295 0.110450631,41.7198649 0.110450631,36.952513 C0.110450631,31.5948085 3.79607266,27.2510027 8.34094842,27.2510027 C11.9763769,27.2510027 14.9243776,30.7265697 14.9243776,35.0122856 C14.9243776,30.7265697 17.8723782,27.2510027 21.5078067,27.2510027 C24.1649582,27.2510027 26.5260423,28.7334768 28.0303576,31.0362996 C29.1038035,32.6748825 29.7383045,34.7263141 29.7383045,36.952513 C29.7383045,43.6496436 21.8090922,50.198502 14.9243776,53.7218346 C12.9389995,52.7080601 10.8686403,51.4399092 8.92798918,49.9894032 Z" id="Shape"></path>
                </g>
                <path d="M59.6739668,29.1537359 L39.9349054,9.45474846 L39.9349054,4.02872546 L47.2050743,4.02872546 L47.2050743,15.0904158 C47.2050743,15.7039393 47.7034166,16.2012698 48.3181882,16.2012698 C48.9329598,16.2012698 49.431302,15.7039393 49.431302,15.0904158 L49.431302,2.91787143 C49.431302,2.30434795 48.9329598,1.80701739 48.3181882,1.80701739 L38.8216671,1.80701739 C38.2068955,1.80701739 37.7085532,2.30434795 37.7085532,2.91787143 L37.7085532,7.23291613 L30.7870496,0.325464449 C30.5783485,0.117062814 30.2951825,0 29.9999377,0 C29.704693,0 29.421527,0.117062814 29.2128259,0.325464449 L20.6411394,8.87974884 C20.2064285,9.31357717 20.2064285,10.0169482 20.6411394,10.4506523 C21.0758503,10.8844806 21.7806522,10.8844806 22.2152385,10.4506523 L29.9999377,2.68175747 L49.3128804,21.9554912 L49.3128804,61.4045413 L10.6869951,61.4045413 L10.6869951,21.9554912 L19.6552883,13.0054053 C20.0899992,12.571577 20.0899992,11.8682059 19.6552883,11.4345019 C19.220702,11.0005493 18.5159001,11.0006735 18.0811892,11.4345019 L0.326033154,29.1537359 C-0.108677718,29.5875642 -0.108677718,30.2909353 0.326033154,30.7246393 C0.543326329,30.9416156 0.82823566,31.0501038 1.11314499,31.0501038 C1.39805432,31.0501038 1.68296365,30.9417399 1.90025683,30.7246393 L8.4608919,24.1773236 L8.4608919,62.5155196 C8.4608919,63.1290431 8.95923418,63.6263736 9.57400576,63.6263736 L50.4261188,63.6263736 C51.0408903,63.6263736 51.5392326,63.1290431 51.5392326,62.5155196 L51.5392326,24.1774478 L58.0997432,30.7246393 C58.3170363,30.9414914 58.6019457,31.0501038 58.886855,31.0501038 C59.1717643,31.0501038 59.4566737,30.9417399 59.6739668,30.7246393 C60.1086777,30.290811 60.1086777,29.5873157 59.6739668,29.1537359 Z" id="Shape" fill="#000000"></path>
                <path d="M23.5548697,31.2339336 C26.5847906,31.2339336 29.0498682,34.2155563 29.0498682,37.880263 C29.0498682,38.4940936 29.5490959,38.9916731 30.1649599,38.9916731 C30.7808239,38.9916731 31.2800517,38.4940936 31.2800517,37.880263 C31.2800517,34.2155563 33.7450044,31.2339336 36.7750501,31.2339336 C37.9598741,31.2339336 39.133471,31.5902711 40.1689757,32.2647761 C40.6841708,32.6004744 41.3755053,32.4561241 41.7124404,31.942257 C42.0493754,31.4283899 41.904547,30.739711 41.3888529,30.4038884 C39.989593,29.4926539 38.3942347,29.010989 36.7749254,29.010989 C33.9761561,29.010989 31.520185,30.7285211 30.1648352,33.2938779 C28.8094854,30.7285211 26.3535142,29.010989 23.5547449,29.010989 C18.3832092,29.010989 14.1758242,33.8595918 14.1758242,39.8194803 C14.1758242,45.9315521 20.0042649,51.1659593 23.4770291,53.7408898 C25.3863695,55.161764 27.5238678,56.4862804 29.6582475,57.570959 C29.8172968,57.6518996 29.9911907,57.6923077 30.1648352,57.6923077 C30.3389786,57.6923077 30.5129973,57.6516509 30.6724208,57.5704616 C37.8141724,53.9321135 46.1538462,47.100031 46.1538462,39.8192317 C46.1538462,37.4382602 45.497565,35.1824918 44.2562317,33.2962403 C43.9184234,32.7828705 43.227089,32.6398879 42.7121434,32.9764565 C42.197073,33.3131495 42.053492,34.0020771 42.3913003,34.5154468 C43.3937477,36.0386469 43.9236627,37.8726787 43.9236627,39.8194803 C43.9236627,45.5542023 37.0956437,51.6749774 30.1644609,55.3284942 C28.3107566,54.3518607 26.4699009,53.1940745 24.8096754,51.9587047 C17.4976474,46.5370524 16.4061324,42.026013 16.4061324,39.8196047 C16.4061324,35.085388 19.6130659,31.2339336 23.5548697,31.2339336 Z" id="Shape" fill="#000000"></path>
            </g>
        </g>
        <g id="left_side" opacity="0.749037591" transform="translate(0.000000, 45.000000)" fill-rule="nonzero">
            <g id="closing" transform="translate(78.000000, 169.000000)">
                <path d="M69.9219636,43.4488719 L48.3032146,57.3212072 C46.1299711,58.7147372 43.5348542,59.2680099 40.9944273,58.8782704 L15.4612562,54.9610533 C14.1486975,54.7603535 12.8062818,55.0588526 11.696406,55.7995617 L9.54153604,57.2385661 L3.50554595,45.2252911 L1,40.2385496 C2.83261559,39.0913396 4.52728619,37.7434298 6.05243232,36.2200352 C7.57757845,34.6983897 8.93506616,33.0012593 10.0947514,31.1589605 C12.1316289,27.9232774 15.6639391,25.9308545 19.4454403,26.0018355 C20.3061251,26.0187427 21.1683889,26.1114406 22.0207482,26.2853221 L25.7540188,27.0445417 L25.7540188,27.0462907 L44.8042064,30.9229888 C46.563615,31.2822662 47.7665067,32.849532 47.7665067,34.5889303 C47.7665067,34.8875751 47.7299032,35.1911755 47.6568397,35.4931725 C47.1799893,37.4417242 45.3124928,38.693438 43.3620282,38.3711815 L29.0901055,36.0161289 C28.9007721,35.9858126 28.7145966,35.9705087 28.5285647,35.9705087 C26.7707351,35.9705087 25.2488904,37.3319733 25.0843899,39.1707741 C24.9198895,41.0011214 26.1710117,42.649425 27.9553968,42.9563776 L44.3938165,45.7838108 C45.8542247,46.0352321 47.3561168,45.7753572 48.653747,45.048203 L65.3812627,35.65656 C66.0640975,35.2736708 66.8034884,35.0913357 67.5361327,35.0913357 C69.0131918,35.0913357 70.451925,35.8370003 71.2992603,37.1849101 C72.62847,39.300493 72.0103731,42.1094157 69.9219636,43.4488719 Z" id="Shape" fill="#F9EADE"></path>
                <g id="Group" transform="translate(1.000000, 26.000000)" fill="#EDDFD6">
                    <path d="M24.7502857,1.091 L24.7502857,1.09271429 C24.7502857,1.09271429 15.985,1.02328571 10.7764286,10.1985714 C8.80871429,13.666 5.70671429,16.601 2.60814286,18.9108571 L0.114571429,14.0231429 C1.93842857,12.8987143 3.625,11.5775714 5.14285714,10.0844286 C6.66071429,8.593 8.01171429,6.92957143 9.16585714,5.12385714 C11.193,1.95242857 14.7084286,-0.000428571429 18.4718571,0.0691428571 C19.3284286,0.0857142857 20.1865714,0.176571429 21.0348571,0.347 L24.7502857,1.091 Z" id="Shape"></path>
                    <path d="M47.875,18.5512857 L54.7302857,7.31657143 C55.5634286,5.95328571 57.0227143,5.18914286 58.5241429,5.18914286 C59.2225714,5.18914286 59.9312857,5.35585714 60.5894286,5.70257143 C62.2894286,6.598 63.1662857,8.43757143 62.9172857,10.2351429" id="Shape"></path>
                </g>
                <path d="M54.5980218,1 C49.7781167,1 45.6009606,3.77055084 43.5490643,7.81826014 L39.1193386,7.81826014 L35.2347815,10.5972823 L31.3500819,7.81826014 L28.4752333,9.5795758 L25.6005271,7.81826014 L21,12.4552284 L21,12.4556591 L21,15.6487707 L23.2232676,19.1817399 L43.5490643,19.1817399 C45.6011031,23.2295927 49.7782592,26 54.5980218,26 C61.4473155,26 67,20.4031887 67,13.4997846 C67,6.59638059 61.4473155,1 54.5980218,1 Z M58.3979617,10.1765882 C60.2192262,10.1765882 61.6956115,11.664668 61.6956115,13.500359 C61.6956115,15.3360499 60.2192262,16.8241298 58.3979617,16.8241298 C56.5766971,16.8241298 55.1003118,15.3360499 55.1003118,13.500359 C55.1003118,11.664668 56.5766971,10.1765882 58.3979617,10.1765882 Z" id="Shape" fill="#FCD577"></path>
                <path d="M72.1082304,36.5938031 C70.5906222,34.1982368 67.5554057,33.3128034 65.0216386,34.4522229 C64.6323986,32.9176821 63.6168102,31.5732361 62.1720597,30.8069708 C61.3586479,30.3755248 60.4462864,30.1473824 59.5340676,30.1473824 C57.5409592,30.1473824 55.7307793,31.1696438 54.691095,32.8826496 L48.0196926,43.8927783 L47.9726416,43.9189091 C46.9339554,44.4972334 45.7174734,44.7054187 44.547187,44.5059915 L28.2196385,41.7210471 C27.0921257,41.5287988 26.289835,40.4796886 26.3929195,39.3328032 C26.4486678,38.7128419 26.7485109,38.1610791 27.2372708,37.779454 C27.7258882,37.3978289 28.3308499,37.2429104 28.9412295,37.3426957 L43.1169795,39.6624538 C45.6704224,40.0802601 48.1594197,38.4266948 48.7827741,35.8981772 C49.1079962,34.578139 48.8889952,33.2186175 48.1662635,32.0700092 C47.4435318,30.9214009 46.3161616,30.1416394 44.9918901,29.8744444 L22.3616478,25.3058548 C21.448716,25.1215031 20.5136846,25.0194206 19.5827879,25.0020478 C15.4581271,24.9237989 11.4924416,27.0929457 9.22971683,30.6572209 C7.03956459,34.1066353 4.05196938,37.0643018 0.589301771,39.2099021 C0.00701014124,39.5707087 -0.174492612,40.3384098 0.183807796,40.9246308 C0.542108204,41.5109953 1.3044768,41.6936241 1.88662585,41.332961 C5.6651054,38.9913794 8.92559634,35.7642207 11.3153588,31.9998005 C13.117982,29.1604407 16.2713963,27.4378154 19.5374478,27.4942408 C20.3206329,27.5087419 21.1072399,27.594744 21.8753116,27.7498061 L44.505554,32.3183957 C45.1604182,32.4506293 45.7180437,32.8362745 46.0754887,33.4044049 C46.4330762,33.9723917 46.5412935,34.6447583 46.3804646,35.2977422 C46.0650804,36.5770047 44.8059675,37.4137659 43.5142039,37.2019912 L29.3385965,34.8822331 C28.0619464,34.67333 26.7428077,35.0111644 25.7205181,35.8097343 C24.6982284,36.6080171 24.04479,37.8101793 23.928018,39.1078196 C23.7088744,41.5430128 25.412548,43.7704515 27.8065878,44.1787818 L44.1341364,46.9637262 C45.854349,47.2571956 47.6434272,46.9506608 49.1708734,46.1004035 L65.7860033,36.8500863 C67.2574161,36.0312722 69.1179262,36.5072267 70.0220181,37.9343726 C70.4821197,38.6605802 70.6328255,39.5234722 70.4463325,40.3639663 C70.2598395,41.2044605 69.7591029,41.9209049 69.036086,42.3810661 L47.5630128,56.046203 C45.6565923,57.2591334 43.3788967,57.7404003 41.1488224,57.4012737 L28.3177326,55.4493574 C27.6424797,55.3468441 27.0111409,55.814902 26.9090545,56.495596 C26.8069682,57.1761464 27.2720601,57.8113268 27.9480259,57.9141273 L40.7791157,59.8660436 C41.3683937,59.955635 41.9600955,60 42.5496587,60 C44.7801607,60 46.9797231,59.3659682 48.8852882,58.153325 L70.3583614,44.4881881 C71.6419979,43.6712404 72.531119,42.3995875 72.8620443,40.9072581 C73.1923993,39.4147851 72.9249215,37.8831159 72.1082304,36.5938031 Z M56.8035418,34.1818692 C57.3893979,33.2164639 58.4101192,32.6401496 59.5337824,32.6401496 C60.0456401,32.6401496 60.5589236,32.7687938 61.0181698,33.0124423 C62.0293383,33.5486988 62.6653821,34.5879022 62.7167105,35.7102361 L52.3955771,41.4562929 L56.8035418,34.1818692 Z" id="Shape" fill="#000000"></path>
                <path d="M24.9278961,54.400506 L16.4348525,53.0777634 C14.7966564,52.8229121 13.1317522,53.1991283 11.7472835,54.137873 L9.56781207,55.6155017 C8.9863294,56.0096757 8.82506449,56.8152333 9.20739733,57.4145753 C9.44951243,57.7940837 9.85144092,58 10.2613528,58 C10.4989682,58 10.7393414,57.9308624 10.9525711,57.7861524 L13.1320425,56.3085237 C13.9964282,55.7225003 15.0360136,55.4871033 16.0584709,55.6467782 L24.5515145,56.9696705 C25.2399749,57.0765195 25.881696,56.5886655 25.9857707,55.8793319 C26.0894099,55.169699 25.6157758,54.5076543 24.9278961,54.400506 Z" id="Shape" fill="#000000"></path>
                <path d="M21.442368,19.7357207 C21.6716146,20.0897834 22.069916,20.3041105 22.4978812,20.3041105 L42.3032238,20.3041105 C44.7720877,24.4531734 49.2671623,27 54.213386,27 C61.8153844,27 68,20.9439898 68,13.5000705 C68,10.4614196 66.9931586,7.59197422 65.088339,5.20166281 C64.6636858,4.6686651 63.8781709,4.57362795 63.3337105,4.98959177 C62.789394,5.40541458 62.6924827,6.17459513 63.1171359,6.70745184 C64.6759257,8.66346882 65.4997443,11.0121838 65.4997443,13.4997885 C65.4997443,19.5937289 60.4367374,24.5517357 54.213098,24.5517357 C49.9510139,24.5517357 46.097743,22.2416559 44.1572117,18.5229394 C43.9435171,18.1134618 43.5136799,17.8558462 43.043955,17.8558462 L23.1850447,17.8558462 L22.2589867,16.4263407 L27.3971612,16.4263407 C28.0874927,16.4263407 28.647217,15.8782555 28.647217,15.2022791 C28.647217,14.5263026 28.0874927,13.9782174 27.3971612,13.9782174 L21.5002557,13.9782174 L21.5002557,12.9808913 L25.0905842,9.46536246 L27.1576907,10.6957693 C27.5567121,10.9330802 28.0572529,10.9330802 28.4562742,10.6957693 L30.6598919,9.38428477 L33.9162866,11.64741 C34.3495798,11.948596 34.93004,11.948596 35.3633331,11.64741 L38.9646056,9.14415379 L43.043955,9.14415379 C43.5135359,9.14415379 43.9435171,8.88639723 44.1572117,8.47706063 C46.097743,4.75820308 49.9508699,2.44826434 54.213098,2.44826434 C56.4940431,2.44826434 58.6910368,3.11084535 60.5667685,4.364518 C61.1371488,4.74565366 61.9148877,4.60168788 62.3039732,4.04345033 C62.6932027,3.48507178 62.5463236,2.72336448 61.9760873,2.34236982 C59.6831903,0.810071912 56.9987598,0 54.212954,0 C49.2668743,0 44.7717997,2.54682661 42.3027918,6.69588945 L38.5660162,6.69588945 C38.3066739,6.69588945 38.0538116,6.77485208 37.8424209,6.92177896 L34.6393059,9.14810192 L31.4360468,6.92177896 C31.0292494,6.63906456 30.489685,6.62016994 30.0633037,6.87397837 L27.8065505,8.21718899 L25.5497972,6.87397837 C25.0573204,6.58097063 24.4243006,6.65542111 24.0166392,7.05446436 L19.3661896,11.6082107 C19.1316151,11.8376253 19,12.1495276 19,12.4744024 L19,15.6102056 C19,15.8424403 19.0675356,16.0697399 19.1945427,16.2658774 L21.442368,19.7357207 Z" id="Shape" fill="#000000"></path>
                <path d="M58.5,9 C56.0185674,9 54,11.0185674 54,13.5 C54,15.9814326 56.0185674,18 58.5,18 C60.9812912,18 63,15.9814326 63,13.5 C63,11.0185674 60.9812912,9 58.5,9 Z M58.5,15.5455702 C57.3721018,15.5455702 56.4545712,14.6280396 56.4545712,13.5001414 C56.4545712,12.3722432 57.3721018,11.4547125 58.5,11.4547125 C59.6277568,11.4547125 60.5454288,12.3722432 60.5454288,13.5001414 C60.5454288,14.6280396 59.6277568,15.5455702 58.5,15.5455702 Z" id="Shape" fill="#000000"></path>
                <path d="M31.218807,14 C30.5457324,14 30,14.4477595 30,15 C30,15.5522405 30.5457324,16 31.218807,16 L41.781193,16 C42.4542676,16 43,15.5522405 43,15 C43,14.4477595 42.4542676,14 41.781193,14 L31.218807,14 Z" id="Shape" fill="#000000"></path>
            </g>
            <g id="wheelbarrow" transform="translate(211.000000, 74.000000)">
                <rect id="Rectangle-path" fill="#8DE0A8" transform="translate(66.500000, 53.000000) rotate(-25.158123) translate(-66.500000, -53.000000) " x="44" y="43" width="45" height="20"></rect>
                <rect id="Rectangle-path" fill="#4EBFED" transform="translate(56.500000, 36.000000) rotate(-25.158123) translate(-56.500000, -36.000000) " x="36" y="26" width="41" height="20"></rect>
                <rect id="Rectangle-path" fill="#FF6F52" transform="translate(45.000000, 18.000000) rotate(-25.158123) translate(-45.000000, -18.000000) " x="27" y="8" width="36" height="20"></rect>
                <circle id="Oval" fill="#415E72" cx="47.5" cy="80.5" r="12.5"></circle>
                <circle id="Oval" fill="#CFDCE5" cx="47.5" cy="80.5" r="5.5"></circle>
                <polyline id="Shape" fill="#3BA4BC" points="83 35 35 38.4636649 41.9774492 54"></polyline>
                <polyline id="Shape" fill="#E25749" points="66 20 28 23.4362492 33.523912 35"></polyline>
                <path d="M53.8638343,81.225831 C52.970582,80.9107664 51.9847865,81.3631717 51.6624083,82.2363455 C51.3247966,83.150461 50.6436704,83.8812695 49.7435631,84.2942219 C47.8860325,85.1472971 45.6649934,84.3640088 44.7924968,82.5482465 C43.9200001,80.7328563 44.7212803,78.5620181 46.5790013,77.7093152 C47.9359221,77.0860715 49.5344838,77.3162753 50.6501446,78.2953391 C51.3569773,78.9154191 52.4444563,78.8582868 53.0785492,78.1673034 C53.713023,77.476506 53.6543742,76.413884 52.9475414,75.793804 C50.8005751,73.9104879 47.726462,73.468132 45.1163983,74.6666059 C41.5422468,76.3074357 40.0002393,80.4838566 41.6789671,83.9771102 C42.8972634,86.5113986 45.4802877,88.0003721 48.1720408,87.9999999 C49.1902075,87.9999999 50.2245597,87.7867311 51.2054044,87.3363729 C52.936878,86.5415465 54.247908,85.1355729 54.897044,83.3771289 C55.2201839,82.5041412 54.757277,81.5407096 53.8638343,81.225831 Z" id="Shape" fill="#000000"></path>
                <path d="M88.6048879,59.9791021 L59.639279,73.4962317 C56.1961832,68.0095412 49.3609617,65.5596769 43.1851911,67.5983351 L13.5701766,4.95954248 C13.2933747,4.37405893 12.7008921,4 12.0494403,4 L1.67997183,4 C0.752090146,4 0,4.74737862 0,5.66903469 C0,6.59069077 0.752276169,7.33806939 1.67997183,7.33806939 L10.9824136,7.33806939 L40.1439045,69.0171347 C34.1500641,72.7296326 31.7522303,80.4128105 34.8281172,86.9183681 C37.2352521,92.0093767 42.3402756,95.0003696 47.6594113,95 C49.6716198,95 51.7156382,94.5716064 53.6545538,93.666953 C57.076071,92.0701797 59.6669964,89.2453325 60.9499956,85.7126564 C62.0408333,82.7089114 62.071155,79.5002102 61.0692362,76.5169793 L83.3030523,66.1414642 L84.9341002,69.5911599 C85.2202032,70.1962335 85.8249633,70.551072 86.4557666,70.551072 C86.6949919,70.551072 86.9381237,70.500064 87.168978,70.3923187 C88.0090569,70.0003331 88.3699411,69.0062308 87.9753868,68.1719907 L86.3441529,64.7221102 L90.033729,63.0004041 C90.8738079,62.6084185 91.2346921,61.6143162 90.8401378,60.7800761 C90.4453974,59.9458359 89.4451529,59.5873012 88.6048879,59.9791021 Z M57.7890963,84.5797605 C56.8106165,87.273761 54.8348684,89.4279265 52.2258987,90.6452813 C46.8394228,93.158536 40.3993137,90.8502375 37.8694038,85.4991988 C35.3394938,80.1479753 37.6631045,73.7496085 43.0492084,71.2361691 C44.5074411,70.5556923 46.066126,70.2130514 47.6305777,70.2130514 C48.865583,70.2130514 50.1041228,70.4263241 51.3002493,70.8550873 C54.0119036,71.8270122 56.1801852,73.7900823 57.4055174,76.3820668 C58.6312215,78.9747905 58.7673902,81.8859448 57.7890963,84.5797605 Z" id="Shape" fill="#000000"></path>
                <path d="M59.6396103,71 C59.872872,71 60.1099428,70.9460343 60.3350422,70.8320417 L77.0578765,62.3647133 C77.8766506,61.949999 78.2289012,60.8982554 77.8441826,60.0156432 C77.459464,59.13264 76.4836101,58.7533162 75.6650174,59.1680305 L58.9421831,67.6351633 C58.1230463,68.0498776 57.7711585,69.1016213 58.1558771,69.9842334 C58.4346665,70.6245868 59.0243507,71 59.6396103,71 Z" id="Shape" fill="#000000"></path>
                <path d="M92.8410707,52.4384315 L84.2222273,33.968012 C84.0337312,33.5641455 83.6939201,33.2524478 83.2771568,33.1012539 C82.8605784,32.9498738 82.4008994,32.9712867 81.9998595,33.1608377 L42.711267,51.7368322 L35.5125266,36.3105863 L42.6354246,32.9427982 C43.4704311,32.5478693 43.8296652,31.5463029 43.4373194,30.7057989 C43.0447886,29.8649225 42.0497731,29.5040681 41.2149516,29.8986246 L34.0920536,33.2664127 L26.8936832,17.8401668 L56.3379298,3.91897048 L63.5363002,19.3452164 L46.612157,27.3471346 C45.7767805,27.7420635 45.4179164,28.7436299 45.8102622,29.5841339 C46.202608,30.4250103 47.1978085,30.7856785 48.03263,30.3913082 L69.7096881,20.1423359 L75.4383804,32.4184608 C75.722882,33.0280775 76.3242568,33.3855803 76.9515291,33.3855803 C77.1894154,33.3855803 77.4311862,33.3341893 77.6607482,33.2256351 C78.4961247,32.8307062 78.8549889,31.8291398 78.4626431,30.9886358 L72.0236218,17.190331 C71.631276,16.349827 70.6362604,15.9887864 69.8012539,16.3831567 L66.5607479,17.9152052 L58.6514935,0.966965573 C58.2591477,0.12646159 57.2641322,-0.2347652 56.4291257,0.159791278 L23.9608014,15.511185 C23.1257949,15.9061139 22.7665608,16.9076804 23.1589065,17.7481843 L44.7571625,64.0328804 C45.041664,64.6424972 45.6430389,65 46.2703112,65 C46.5081974,65 46.7499683,64.948609 46.9795303,64.8400547 C47.8149068,64.4451259 48.1737709,63.4435594 47.7814251,62.6030554 L44.13137,54.781192 L81.9079237,36.9202031 L89.1062941,52.346449 L80.903844,56.2246096 C80.0684676,56.6195385 79.7096034,57.6211049 80.1019492,58.4616089 C80.494295,59.3024853 81.4896805,59.6631535 82.324317,59.2687832 L92.0388059,54.675617 C92.8743674,54.2806881 93.2334165,53.2791217 92.8410707,52.4384315 Z" id="Shape" fill="#000000"></path>
            </g>
            <g id="studying" transform="translate(0.000000, 98.000000)">
                <rect id="Rectangle-path" fill="#CFDCE5" x="1" y="1" width="33" height="42"></rect>
                <path d="M39.0000909,8.2635666 L42.5000455,1 L46,8.2635666 L46,40.9020637 C46,42.0607147 45.0277904,43 43.8283228,43 L41.1716772,43 C39.9723005,43 39,42.0608025 39,40.9020637 L39,8.2635666 L39.0000909,8.2635666 Z" id="Shape" fill="#4EBFED"></path>
                <path d="M46,38 L46,41.7274082 C46,42.9823705 45.0274293,44 43.8280345,44 L41.1708746,44 C39.9714798,44 39,42.9823705 39,41.7274082 L39,38 L46,38 Z" id="Shape" fill="#FF6F52"></path>
                <rect id="Rectangle-path" fill="#97E1F7" x="42" y="8" width="2" height="29"></rect>
                <path d="M39,40.9020681 C39,42.0607166 39.8333333,43 40.8614617,43 L41.4290946,43 C40.9135889,43 40.4956366,42.0608044 40.4956366,40.9020681 L40.4956366,8.26355142 L42,1 L39,8.26355142 L39,40.9020681 Z" id="Shape" fill="#3BA4BC"></path>
                <polygon id="Shape" fill="#FCD577" points="46 8 39 8 42.4994545 1"></polygon>
                <path d="M42,44 L41.2979727,44 C40.028357,44 39,42.9823705 39,41.7274082 L39,38 L40.8464425,38 L40.8464425,41.7274082 C40.8464425,42.9823705 41.3635081,44 42,44 Z" id="Shape" fill="#D33F22"></path>
                <polygon id="Shape" fill="#EAC36E" points="40.4953628 8 39 8 42 1"></polygon>
                <path d="M33.189927,0 L0.809982522,0 C0.362615291,0 0,0.355596759 0,0.794106977 L0,5.21583296 C0,5.65434318 0.362615291,6.00993994 0.809982522,6.00993994 C1.25734975,6.00993994 1.61996504,5.65443186 1.61996504,5.21583296 L1.61996504,1.58821395 L32.3801254,1.58821395 L32.3801254,42.411786 L1.61987459,42.411786 L1.61987459,7.86276754 C1.61987459,7.42425733 1.2572593,7.06866057 0.809892071,7.06866057 C0.362524841,7.06866057 0,7.42416865 0,7.86276754 L0,43.205893 C0,43.6444032 0.362615291,44 0.809982522,44 L33.1900175,44 C33.6372943,44 34,43.6444919 34,43.205893 L34,0.794106977 C33.9999095,0.355596759 33.6373847,0 33.189927,0 Z" id="Shape" fill="#000000"></path>
                <path d="M45.2452274,30.1485472 C45.6620169,30.1485472 46,29.7930384 46,29.3544386 L46,8.12890509 C46,8.01309205 45.9759788,7.89869785 45.9294534,7.79379216 L42.6841418,0.458995645 C42.5602427,0.179040225 42.2933963,0 41.9999157,0 C41.7064352,0 41.4395887,0.179040225 41.3156897,0.458995645 L38.0705466,7.79379216 C38.0241898,7.89869785 38,8.01318073 38,8.12890509 L38,41.0874704 C38,42.6934231 39.2417717,44 40.7682582,44 L43.2316575,44 C44.7580598,44 45.9999157,42.6935118 45.9999157,41.0874704 L45.9999157,32.0012899 C45.9999157,31.5627788 45.6620169,31.2071813 45.2451431,31.2071813 C44.8282692,31.2071813 44.4903704,31.5626901 44.4903704,32.0012899 L44.4903704,36.8182612 L39.5093767,36.8182612 L39.5093767,8.92301367 L44.4903704,8.92301367 L44.4903704,29.3545273 C44.490539,29.7930384 44.8284378,30.1485472 45.2452274,30.1485472 Z M42,2.67576016 L44.0613595,7.33488519 L39.9385562,7.33488519 L42,2.67576016 Z M44.490539,38.4064783 L44.490539,41.0875591 C44.490539,41.8178198 43.9259134,42.4119602 43.2317418,42.4119602 L40.7683425,42.4119602 C40.0742551,42.4119602 39.5095453,41.8179085 39.5095453,41.0875591 L39.5095453,38.4064783 L44.490539,38.4064783 Z" id="Shape" fill="#000000"></path>
                <path d="M25.1879644,6 L7.81203557,6 C7.36362508,6 7,6.44768286 7,7 C7,7.55220547 7.3635344,8 7.81203557,8 L25.1879644,8 C25.6363749,8 26,7.55231714 26,7 C26,6.44768286 25.6363749,6 25.1879644,6 Z" id="Shape" fill="#000000"></path>
                <path d="M28.1756714,14 L24.8242365,14 C24.3690886,14 24,14.4476829 24,15 C24,15.5523171 24.3689966,16 24.8242365,16 L28.1757635,16 C28.6309114,16 29,15.5523171 29,15 C29,14.4476829 28.6309114,14 28.1756714,14 Z" id="Shape" fill="#000000"></path>
                <path d="M5,15 C5,15.5522055 5.35690898,16 5.79723621,16 L22.2027638,16 C22.643002,16 23,15.5523171 23,15 C23,14.4476829 22.643091,14 22.2027638,14 L5.79723621,14 C5.35681996,14 5,14.4476829 5,15 Z" id="Shape" fill="#000000"></path>
                <path d="M5.80060198,25 L28.199398,25 C28.6414948,25 29,24.5523171 29,24 C29,23.4476829 28.6415842,23 28.199398,23 L5.80060198,23 C5.35850519,23 5,23.4476829 5,24 C5,24.5523171 5.35832638,25 5.80060198,25 Z" id="Shape" fill="#000000"></path>
                <path d="M27.2224855,18 L11.7775145,18 C11.3481667,18 11,18.4476829 11,19 C11,19.5523171 11.3480799,20 11.7775145,20 L27.2224855,20 C27.6518333,20 28,19.5523171 28,19 C28,18.4476829 27.6519201,18 27.2224855,18 Z" id="Shape" fill="#000000"></path>
                <path d="M5.88499802,20 L10.115002,20 C10.6037027,20 11,19.5523171 11,19 C11,18.4476829 10.6038016,18 10.115002,18 L5.88499802,18 C5.39629727,18 5,18.4476829 5,19 C5,19.5523171 5.39609962,20 5.88499802,20 Z" id="Shape" fill="#000000"></path>
                <path d="M5.80060198,37 L28.199398,37 C28.6414948,37 29,36.5523171 29,36 C29,35.4476829 28.6415842,35 28.199398,35 L5.80060198,35 C5.35850519,35 5,35.4476829 5,36 C5,36.5523171 5.35832638,37 5.80060198,37 Z" id="Shape" fill="#000000"></path>
                <path d="M28.1922452,31 L22.8077548,31 C22.3617082,31 22,31.4476829 22,32 C22,32.5523171 22.361618,33 22.8077548,33 L28.1922452,33 C28.6382918,33 29,32.5523171 29,32 C29,31.4476829 28.638382,31 28.1922452,31 Z" id="Shape" fill="#000000"></path>
                <path d="M5.80087197,33 L20.199128,33 C20.6413739,33 21,32.5523171 21,32 C21,31.4476829 20.6414633,31 20.199128,31 L5.80087197,31 C5.35862609,31 5,31.4476829 5,32 C5,32.5523171 5.35844722,33 5.80087197,33 Z" id="Shape" fill="#000000"></path>
            </g>
            <g id="printed" transform="translate(91.000000, 0.000000)">
                <path d="M51.4285714,0.952380952 L8.10465621,0.952380952 C4.15451292,0.952380952 0.952380952,4.20067367 0.952380952,8.20776076 L0.952380952,54.2857143 L44.2762962,54.2857143 L44.2762962,26.1312028" id="Shape" fill="#DCE8EF"></path>
                <path d="M49.0914207,28.5714286 L59.047619,28.5714286 L59.047619,8.08826703 C59.047619,4.14717535 55.8497036,0.952380952 51.9047619,0.952380952 C47.9598202,0.952380952 44.7619048,4.14717535 44.7619048,8.08826703 L44.7619048,28.5714286" id="Shape" fill="#A8B3BA"></path>
                <rect id="Rectangle-path" fill="#4EBFED" x="5.71428571" y="9.52380952" width="17.1428571" height="20"></rect>
                <rect id="Rectangle-path" fill="#FF6F52" x="23.8095238" y="39.047619" width="17.1428571" height="9.52380952"></rect>
                <path d="M51.7737891,0 L8.22609375,0 C3.69011719,0 0,3.71155796 0,8.27374513 L0,46.3928244 C0,46.9687111 0.4640625,47.4356909 1.036875,47.4356909 C1.6096875,47.4356909 2.07375,46.9687111 2.07375,46.3928244 L2.07375,8.27374513 C2.07375,4.86168126 4.83375,2.08573292 8.22609375,2.08573292 L46.3216406,2.08573292 C44.6218359,3.60265102 43.5478125,5.81379193 43.5478125,8.27362727 L43.5478125,53.1523623 L2.07375,53.1523623 L2.07375,49.8690066 C2.07375,49.2931199 1.6096875,48.8261402 1.036875,48.8261402 C0.4640625,48.8261402 0,49.2930021 0,49.8690066 L0,54.1952288 C0,54.7711155 0.4640625,55.2380952 1.036875,55.2380952 L44.5845703,55.2380952 C45.1573828,55.2380952 45.6214453,54.7711155 45.6214453,54.1952288 L45.6214453,8.27374513 C45.6214453,4.86168126 48.3814453,2.08585079 51.7737891,2.08585079 C55.16625,2.08573292 57.92625,4.86168126 57.92625,8.27374513 L57.92625,27.9863728 L48.9424219,27.9863728 C48.3696094,27.9863728 47.9055469,28.4533526 47.9055469,29.0292393 C47.9055469,29.605126 48.3696094,30.0721057 48.9424219,30.0721057 L58.963125,30.0721057 C59.5359375,30.0721057 60,29.605126 60,29.0292393 L60,8.27374513 C60,3.71155796 56.3097656,0 51.7737891,0 Z" id="Shape" fill="#000000"></path>
                <path d="M22.7651848,8.57142857 L5.80624373,8.57142857 C5.22930782,8.57142857 4.76190476,9.03481473 4.76190476,9.60626974 L4.76190476,29.4413493 C4.76190476,30.0128043 5.22930782,30.4761905 5.80624373,30.4761905 L22.7651848,30.4761905 C23.3421207,30.4761905 23.8095238,30.0128043 23.8095238,29.4413493 L23.8095238,17.5120212 C23.8095238,16.9405662 23.3421207,16.47718 22.7651848,16.47718 C22.1882489,16.47718 21.7208459,16.9405662 21.7208459,17.5120212 L21.7208459,28.4065081 L6.85058269,28.4065081 L6.85058269,10.6411109 L21.7208459,10.6411109 L21.7208459,13.5107835 C21.7208459,14.0822385 22.1882489,14.5456247 22.7651848,14.5456247 C23.3421207,14.5456247 23.8095238,14.0822385 23.8095238,13.5107835 L23.8095238,9.60626974 C23.8095238,9.03469777 23.3418847,8.57142857 22.7651848,8.57142857 Z" id="Shape" fill="#000000"></path>
                <path d="M39.9367447,8.57142857 L27.682303,8.57142857 C27.1212236,8.57142857 26.6666667,8.9978903 26.6666667,9.52380952 C26.6666667,10.0497288 27.1212236,10.4761905 27.682303,10.4761905 L39.9367447,10.4761905 C40.497824,10.4761905 40.952381,10.0497288 40.952381,9.52380952 C40.952381,8.9978903 40.4975944,8.57142857 39.9367447,8.57142857 Z" id="Shape" fill="#000000"></path>
                <path d="M40.8150034,13.3333333 L33.4707109,13.3333333 C32.8686834,13.3333333 32.3809524,13.7597951 32.3809524,14.2857143 C32.3809524,14.8116335 32.8686834,15.2380952 33.4707109,15.2380952 L40.8150034,15.2380952 C41.4170309,15.2380952 41.9047619,14.8116335 41.9047619,14.2857143 C41.9047619,13.7596874 41.4167846,13.3333333 40.8150034,13.3333333 Z" id="Shape" fill="#000000"></path>
                <path d="M27.8591982,15.2380952 L30.2360398,15.2380952 C30.8948435,15.2380952 31.4285714,14.8116335 31.4285714,14.2857143 C31.4285714,13.7597951 30.8948435,13.3333333 30.2360398,13.3333333 L27.8591982,13.3333333 C27.2003946,13.3333333 26.6666667,13.7597951 26.6666667,14.2857143 C26.6666667,14.8116335 27.2005294,15.2380952 27.8591982,15.2380952 Z" id="Shape" fill="#000000"></path>
                <path d="M27.682303,20.952381 L39.9367447,20.952381 C40.497824,20.952381 40.952381,20.5259192 40.952381,20 C40.952381,19.4740808 40.497824,19.047619 39.9367447,19.047619 L27.682303,19.047619 C27.1212236,19.047619 26.6666667,19.4740808 26.6666667,20 C26.6666667,20.5259192 27.1213384,20.952381 27.682303,20.952381 Z" id="Shape" fill="#000000"></path>
                <path d="M27.682303,30.4761905 L39.9367447,30.4761905 C40.497824,30.4761905 40.952381,30.0498364 40.952381,29.5238095 C40.952381,28.9977827 40.497824,28.5714286 39.9367447,28.5714286 L27.682303,28.5714286 C27.1212236,28.5714286 26.6666667,28.9978903 26.6666667,29.5238095 C26.6666667,30.0497288 27.1213384,30.4761905 27.682303,30.4761905 Z" id="Shape" fill="#000000"></path>
                <path d="M40.7633238,23.8095238 L37.3319143,23.8095238 C36.7013368,23.8095238 36.1904762,24.2359855 36.1904762,24.7619048 C36.1904762,25.287824 36.7013368,25.7142857 37.3319143,25.7142857 L40.7633238,25.7142857 C41.3939013,25.7142857 41.9047619,25.287824 41.9047619,24.7619048 C41.9047619,24.2359855 41.3936433,23.8095238 40.7633238,23.8095238 Z" id="Shape" fill="#000000"></path>
                <path d="M27.7760549,25.7142857 L34.128707,25.7142857 C34.7415788,25.7142857 35.2380952,25.287824 35.2380952,24.7619048 C35.2380952,24.2359855 34.7415788,23.8095238 34.128707,23.8095238 L27.7760549,23.8095238 C27.1631831,23.8095238 26.6666667,24.2359855 26.6666667,24.7619048 C26.6666667,25.287824 27.1633085,25.7142857 27.7760549,25.7142857 Z" id="Shape" fill="#000000"></path>
                <path d="M48.6016674,15.2380952 L53.3030945,15.2380952 C53.8459342,15.2380952 54.2857143,14.8116335 54.2857143,14.2857143 C54.2857143,13.7597951 53.8459342,13.3333333 53.3030945,13.3333333 L48.6016674,13.3333333 C48.0588277,13.3333333 47.6190476,13.7597951 47.6190476,14.2857143 C47.6190476,14.8117412 48.0589388,15.2380952 48.6016674,15.2380952 Z" id="Shape" fill="#000000"></path>
                <path d="M48.6016674,20 L53.3030945,20 C53.8459342,20 54.2857143,19.5735383 54.2857143,19.047619 C54.2857143,18.5216998 53.8459342,18.0952381 53.3030945,18.0952381 L48.6016674,18.0952381 C48.0588277,18.0952381 47.6190476,18.5216998 47.6190476,19.047619 C47.6190476,19.5735383 48.0589388,20 48.6016674,20 Z" id="Shape" fill="#000000"></path>
                <path d="M48.6016674,24.7619048 L53.3030945,24.7619048 C53.8459342,24.7619048 54.2857143,24.335443 54.2857143,23.8095238 C54.2857143,23.2836046 53.8459342,22.8571429 53.3030945,22.8571429 L48.6016674,22.8571429 C48.0588277,22.8571429 47.6190476,23.2836046 47.6190476,23.8095238 C47.6190476,24.335443 48.0589388,24.7619048 48.6016674,24.7619048 Z" id="Shape" fill="#000000"></path>
                <path d="M39.908042,38.0952381 L22.9491009,38.0952381 C22.372165,38.0952381 21.9047619,38.5738446 21.9047619,39.1640695 L21.9047619,49.4073591 C21.9047619,49.997584 22.372165,50.4761905 22.9491009,50.4761905 L39.908042,50.4761905 C40.4849779,50.4761905 40.952381,49.997584 40.952381,49.4073591 L40.952381,39.1640695 C40.952381,38.5738446 40.4847418,38.0952381 39.908042,38.0952381 Z M38.863703,48.3385277 L23.9934398,48.3385277 L23.9934398,40.2329009 L38.863703,40.2329009 L38.863703,48.3385277 Z" id="Shape" fill="#000000"></path>
                <path d="M5.80043898,35.2380952 L11.3424182,35.2380952 C11.9161473,35.2380952 12.3809524,34.8116335 12.3809524,34.2857143 C12.3809524,33.7597951 11.9161473,33.3333333 11.3424182,33.3333333 L5.80043898,33.3333333 C5.22670986,33.3333333 4.76190476,33.7597951 4.76190476,34.2857143 C4.76190476,34.8116335 5.22670986,35.2380952 5.80043898,35.2380952 Z" id="Shape" fill="#000000"></path>
                <path d="M13.3333333,34.2857143 C13.3333333,34.8116335 13.8026379,35.2380952 14.3819209,35.2380952 L39.9037934,35.2380952 C40.4830764,35.2380952 40.952381,34.8116335 40.952381,34.2857143 C40.952381,33.7597951 40.4830764,33.3333333 39.9037934,33.3333333 L14.3819209,33.3333333 C13.8027564,33.3333333 13.3333333,33.7596874 13.3333333,34.2857143 Z" id="Shape" fill="#000000"></path>
                <path d="M5.77754106,40 L18.0319827,40 C18.5930621,40 19.047619,39.5735383 19.047619,39.047619 C19.047619,38.5216998 18.5930621,38.0952381 18.0319827,38.0952381 L5.77754106,38.0952381 C5.2164617,38.0952381 4.76190476,38.5216998 4.76190476,39.047619 C4.76190476,39.5735383 5.2164617,40 5.77754106,40 Z" id="Shape" fill="#000000"></path>
                <path d="M5.75057623,50.4761905 L12.3446619,50.4761905 C12.8908447,50.4761905 13.3333333,50.0497288 13.3333333,49.5238095 C13.3333333,48.9978903 12.8908447,48.5714286 12.3446619,48.5714286 L5.75057623,48.5714286 C5.20439335,48.5714286 4.76190476,48.9977827 4.76190476,49.5238095 C4.76190476,50.0498364 5.20439335,50.4761905 5.75057623,50.4761905 Z" id="Shape" fill="#000000"></path>
                <path d="M18.827904,48.5714286 L16.4101912,48.5714286 C15.7626771,48.5714286 15.2380952,48.9977827 15.2380952,49.5238095 C15.2380952,50.0498364 15.7626771,50.4761905 16.4101912,50.4761905 L18.827904,50.4761905 C19.4754182,50.4761905 20,50.0497288 20,49.5238095 C20,48.9978903 19.4751532,48.5714286 18.827904,48.5714286 Z" id="Shape" fill="#000000"></path>
                <path d="M5.77754106,44.7619048 L18.0319827,44.7619048 C18.5930621,44.7619048 19.047619,44.335443 19.047619,43.8095238 C19.047619,43.2836046 18.5930621,42.8571429 18.0319827,42.8571429 L5.77754106,42.8571429 C5.2164617,42.8571429 4.76190476,43.2836046 4.76190476,43.8095238 C4.76190476,44.335443 5.2164617,44.7619048 5.77754106,44.7619048 Z" id="Shape" fill="#000000"></path>
            </g>
        </g>
    </g>
</svg>