<?xml version="1.0" encoding="iso-8859-1"?>
<!-- Generator: Adobe Illustrator 19.0.0, SVG Export Plug-In . SVG Version: 6.00 Build 0)  -->
<svg version="1.1" id="Layer_1" xmlns="http://www.w3.org/2000/svg" xmlns:xlink="http://www.w3.org/1999/xlink" x="0px" y="0px"
	 viewBox="0 0 512 512" style="enable-background:new 0 0 512 512;" xml:space="preserve">
<rect x="280.502" y="8.076" style="fill:#F9B233;" width="95.494" height="24"/>
<polygon style="fill:#ED7149;" points="488,208.076 24,208.076 80,96.075 432,96.075 "/>
<rect x="296.001" y="56.081" style="fill:#CBBBA0;" width="64" height="72.002"/>
<g>
	<rect x="55.997" y="480.072" style="fill:#F9B233;" width="144.005" height="24"/>
	<rect x="312.249" y="480.072" style="fill:#F9B233;" width="144.005" height="24"/>
</g>
<g>
	<rect x="55.997" y="424.075" style="fill:#ED7149;" width="144.005" height="55.997"/>
	<rect x="311.996" y="424.075" style="fill:#ED7149;" width="144.005" height="55.997"/>
</g>
<rect x="55.997" y="208.078" style="fill:#D5C9B3;" width="400.004" height="215.996"/>
<rect x="392.001" y="208.078" style="fill:#CBBBA0;" width="64" height="215.996"/>
<g>
	<rect x="96" y="312.08" style="fill:#F9B233;" width="64" height="24"/>
	<rect x="351.999" y="288.073" style="fill:#F9B233;" width="64" height="24"/>
</g>
<g>
	<rect x="351.999" y="248.07" style="fill:#ED7149;" width="64" height="40"/>
	<rect x="96" y="248.07" style="fill:#ED7149;" width="64" height="64"/>
</g>
<g>
	<rect x="96" y="336.078" style="fill:#FFFFFF;" width="64" height="48"/>
	<rect x="351.999" y="312.08" style="fill:#FFFFFF;" width="64" height="72.002"/>
</g>
<rect x="200.002" y="304.078" style="fill:#CA9E67;" width="111.152" height="200.002"/>
<g>
	<rect x="224.104" y="400.077" style="fill:#1D1D1B;" width="15.795" height="32"/>
	<path style="fill:#1D1D1B;" d="M383.897,39.973H272.103V0.179h111.794L383.897,39.973L383.897,39.973z M287.898,24.178h80.205
		v-8.205h-80.205V24.178z"/>
	<rect x="80" y="168.181" style="fill:#1D1D1B;" width="351.999" height="15.795"/>
	<path style="fill:#1D1D1B;" d="M463.897,496.026V215.973h36.88L436.881,88.178h-68.983V63.973H376V48.179h-96v15.795h8.103v24.206
		H75.119L11.222,215.973h36.88v280.053H0v15.795h512v-15.795H463.897z M352.103,63.973v56.206h-48.205V63.973H352.103z
		 M192.102,496.026H63.898v-8.053h128.205L192.102,496.026L192.102,496.026z M192.102,472.179H63.898v-40.206h128.205
		L192.102,472.179L192.102,472.179z M304.103,496.026h-96.206V311.973h96.206V496.026z M448.102,496.026H319.898v-8.053h128.205
		V496.026z M448.102,472.179H319.898v-40.206h128.205V472.179z M448.102,416.178H319.898v-120H192.102v120H63.898V215.973h384.205
		L448.102,416.178L448.102,416.178z M56,200.179h-7.897H36.778l8.103-16.205H64v-15.795H52.778l32.102-64.206h203.222v32h79.794v-32
		h59.222l32.103,64.205h-11.223v15.795h19.12l8.103,16.205h-11.325H456H56V200.179z"/>
	<path style="fill:#1D1D1B;" d="M167.898,240.178H88.102v151.795h79.794V240.178H167.898z M152.103,255.973v48.205h-48.206v-48.205
		H152.103z M152.103,319.973v8.205h-48.206v-8.205H152.103z M103.897,376.178v-32.205h48.205v32.205H103.897z"/>
	<path style="fill:#1D1D1B;" d="M423.897,240.178h-79.794v151.795h79.794V240.178z M408.102,255.973v24.206h-48.205v-24.206H408.102
		z M408.102,295.973v8.206h-48.205v-8.206H408.102z M359.898,376.178v-56.206h48.205v56.206H359.898z"/>
</g>
<g>
</g>
<g>
</g>
<g>
</g>
<g>
</g>
<g>
</g>
<g>
</g>
<g>
</g>
<g>
</g>
<g>
</g>
<g>
</g>
<g>
</g>
<g>
</g>
<g>
</g>
<g>
</g>
<g>
</g>
</svg>
