<?xml version="1.0" encoding="iso-8859-1"?>
<!-- Generator: Adobe Illustrator 19.0.0, SVG Export Plug-In . SVG Version: 6.00 Build 0)  -->
<svg version="1.1" id="Capa_1" xmlns="http://www.w3.org/2000/svg" xmlns:xlink="http://www.w3.org/1999/xlink" x="0px" y="0px"
	 viewBox="0 0 473.61 473.61" style="enable-background:new 0 0 473.61 473.61;" xml:space="preserve">
<path style="fill:#AF732B;" d="M468.48,402.108c0,8.411-6.949,15.36-15.36,15.36H20.846c-8.411,0-15.36-6.949-15.36-15.36
	l31.817-79.726c0-8.411,6.949-15.36,15.36-15.36h368.274c8.411,0,15.36,6.949,15.36,15.36L468.48,402.108z"/>
<path style="fill:#C49241;" d="M420.937,331.525H52.663c-8.411,0-15.36,6.949-15.36,15.36L5.486,402.474
	c0,8.411,6.949,15.36,15.36,15.36H453.12c8.411,0,15.36-6.949,15.36-15.36l-31.817-55.589
	C436.297,338.108,429.349,331.525,420.937,331.525z"/>
<path style="fill:#BC8535;" d="M453.12,417.468c8.411,0,15.36-6.949,15.36-15.36l-31.817-55.589c0-8.411-6.949-15.36-15.36-15.36
	H53.029c-8.411,0-15.36,6.949-15.36,15.36"/>
<path style="fill:#33363A;" d="M453.12,422.954H20.846C9.509,422.954,0,413.811,0,402.108c0-0.731,0-1.463,0.366-2.194
	l31.451-78.629c0.731-10.971,9.509-19.749,20.846-19.749h368.274c10.971,0,20.114,8.777,20.846,19.749l31.451,78.629
	c0.366,0.731,0.366,1.463,0.366,2.194C473.966,413.445,464.457,422.954,453.12,422.954z M11.337,403.205
	c0.366,4.754,4.754,8.777,9.509,8.777H453.12c5.12,0,9.143-4.023,9.509-8.777l-31.451-78.629c-0.366-0.731-0.366-1.463-0.366-2.194
	c0-5.486-4.389-9.874-9.874-9.874H52.663c-5.486,0-9.874,4.389-9.874,9.874c0,0.731,0,1.463-0.366,2.194L11.337,403.205z"/>
<path style="fill:#E59C3C;" d="M250.149,56.142l-14.629,35.84H52.663c-8.411,0-15.36,6.949-15.36,15.36v183.589
	c0,8.411,6.949,15.36,15.36,15.36h368.274c8.411,0,15.36-6.949,15.36-15.36V153.057v-45.714v-51.2H250.149z"/>
<path style="fill:#F2B357;" d="M235.52,102.954H52.663c-8.411,0-15.36,6.949-15.36,15.36v165.303c0,8.411,6.949,15.36,15.36,15.36
	h368.274c8.411,0,15.36-6.949,15.36-15.36V163.662v-18.286v-27.063v-18.286V67.114H250.149L235.52,102.954z"/>
<path style="fill:#E59C3C;" d="M37.669,291.297c0,8.411,6.949,15.36,15.36,15.36h368.274c8.411,0,15.36-6.949,15.36-15.36V171.708
	v-10.971H38.034v130.56H37.669z"/>
<path style="fill:#33363A;" d="M420.937,311.777H52.663c-11.337,0-20.846-9.143-20.846-20.846V107.342
	c0-11.337,9.143-20.846,20.846-20.846h179.2l13.166-32.549c0.731-2.194,2.926-3.291,5.12-3.291h186.149
	c2.926,0,5.486,2.56,5.486,5.486v234.789C441.783,302.268,432.64,311.777,420.937,311.777z M52.663,97.834
	c-5.486,0-9.874,4.389-9.874,9.874v183.589c0,5.486,4.389,9.874,9.874,9.874h368.274c5.486,0,9.874-4.389,9.874-9.874V61.994
	H253.806L240.64,94.542c-0.731,2.194-2.926,3.291-5.12,3.291H52.663z"/>
<rect x="117.394" y="193.651" style="fill:#92A092;" width="239.543" height="195.657"/>
<g>
	<rect x="117.394" y="347.617" style="fill:#808980;" width="242.834" height="41.326"/>
	<rect x="117.394" y="193.651" style="fill:#808980;" width="239.543" height="53.76"/>
</g>
<path style="fill:#33363A;" d="M356.571,394.794H117.029c-2.926,0-5.486-2.56-5.486-5.486V193.651c0-2.926,2.56-5.486,5.486-5.486
	h239.543c2.926,0,5.486,2.56,5.486,5.486v195.657C362.057,392.234,359.863,394.794,356.571,394.794z M122.88,383.822h228.571
	V199.137H122.88V383.822z"/>
<path style="fill:#1CE8E3;" d="M185.051,334.817c0,5.851-4.754,10.606-10.606,10.606h-21.211c-5.851,0-10.606-4.754-10.606-10.606
	v-21.211c0-5.851,4.754-10.606,10.606-10.606h21.211c5.851,0,10.606,4.754,10.606,10.606V334.817z"/>
<path style="fill:#1FADE5;" d="M174.446,302.634h-21.211c-5.851,0-10.606,4.754-10.606,10.606v10.971
	c0-5.851,4.754-10.606,10.606-10.606h21.211c5.851,0,10.606,4.754,10.606,10.606v-10.971
	C185.051,307.388,180.297,302.634,174.446,302.634z"/>
<g>
	<path style="fill:#33363A;" d="M174.446,350.908h-21.211c-8.777,0-16.091-7.314-16.091-16.091v-21.211
		c0-8.777,7.314-16.091,16.091-16.091h21.211c9.143,0,16.091,7.314,16.091,16.091v21.211
		C190.537,343.594,183.223,350.908,174.446,350.908z M153.234,308.119c-2.926,0-5.12,2.194-5.12,5.12v21.211
		c0,2.926,2.194,5.12,5.12,5.12h21.211c2.926,0,5.12-2.194,5.12-5.12v-20.846c0-2.926-2.194-5.12-5.12-5.12h-21.211V308.119z"/>
	<path style="fill:#33363A;" d="M163.84,349.445c-2.926,0-5.486-2.56-5.486-5.486v-41.326c0-2.926,2.56-5.486,5.486-5.486
		s5.486,2.56,5.486,5.486v40.96C169.326,346.885,166.766,349.445,163.84,349.445z"/>
</g>
<path style="fill:#1CE8E3;" d="M331.703,334.817c0,5.851-4.754,10.606-10.606,10.606h-21.211c-5.851,0-10.606-4.754-10.606-10.606
	v-21.211c0-5.851,4.754-10.606,10.606-10.606h21.211c5.851,0,10.606,4.754,10.606,10.606V334.817z"/>
<path style="fill:#1FADE5;" d="M320.731,302.634H299.52c-5.851,0-10.606,4.754-10.606,10.606v10.971
	c0-5.851,4.754-10.606,10.606-10.606h21.211c5.851,0,10.606,4.754,10.606,10.606v-10.971
	C331.703,307.388,326.949,302.634,320.731,302.634z"/>
<g>
	<path style="fill:#33363A;" d="M320.731,350.908H299.52c-8.777,0-16.091-7.314-16.091-16.091v-21.211
		c0-8.777,7.314-16.091,16.091-16.091h21.211c8.777,0,16.091,7.314,16.091,16.091v21.211
		C337.189,343.594,329.874,350.908,320.731,350.908z M299.52,308.119c-2.926,0-5.12,2.194-5.12,5.12v21.211
		c0,2.926,2.194,5.12,5.12,5.12h21.211c2.926,0,5.12-2.194,5.12-5.12v-20.846c0-2.926-2.194-5.12-5.12-5.12H299.52V308.119z"/>
	<path style="fill:#33363A;" d="M310.126,349.445c-2.926,0-5.486-2.56-5.486-5.486v-41.326c0-2.926,2.56-5.486,5.486-5.486
		s5.486,2.56,5.486,5.486v40.96C315.611,346.885,313.417,349.445,310.126,349.445z"/>
</g>
<polyline style="fill:#F73E26;" points="68.389,220.714 236.983,123.068 405.577,220.714 "/>
<polyline style="fill:#D6381E;" points="68.389,220.714 236.983,157.445 405.577,220.714 "/>
<g>
	<path style="fill:#33363A;" d="M405.577,226.199H68.023c-2.56,0-4.754-1.829-5.12-4.023c-0.731-2.56,0.366-4.754,2.56-6.217
		l168.594-97.646c1.829-1.097,3.657-1.097,5.486,0l168.594,97.646c2.194,1.097,3.291,3.657,2.56,6.217
		C410.331,224.737,408.137,226.199,405.577,226.199z M88.503,215.228h296.594l-148.48-85.943L88.503,215.228z"/>
	<path style="fill:#33363A;" d="M172.251,394.794h-63.269c-2.926,0-5.486-2.56-5.486-5.486c0-2.926,2.56-5.486,5.486-5.486h63.269
		c2.926,0,5.486,2.56,5.486,5.486C177.737,392.234,175.177,394.794,172.251,394.794z"/>
	<path style="fill:#33363A;" d="M96.549,394.794h-12.8c-2.926,0-5.486-2.56-5.486-5.486c0-2.926,2.56-5.486,5.486-5.486h12.8
		c2.926,0,5.486,2.56,5.486,5.486C102.034,392.234,99.474,394.794,96.549,394.794z"/>
	<path style="fill:#33363A;" d="M70.583,394.794h-0.731c-2.926,0-5.486-2.56-5.486-5.486c0-2.926,2.56-5.486,5.486-5.486h0.731
		c2.926,0,5.486,2.56,5.486,5.486C76.069,392.234,73.874,394.794,70.583,394.794z"/>
	<path style="fill:#33363A;" d="M364.983,394.794h-63.269c-2.926,0-5.486-2.56-5.486-5.486c0-2.926,2.56-5.486,5.486-5.486h63.269
		c2.926,0,5.486,2.56,5.486,5.486C370.469,392.234,367.909,394.794,364.983,394.794z"/>
	<path style="fill:#33363A;" d="M390.217,394.794h-12.8c-2.926,0-5.486-2.56-5.486-5.486c0-2.926,2.56-5.486,5.486-5.486h12.8
		c2.926,0,5.486,2.56,5.486,5.486C395.703,392.234,393.143,394.794,390.217,394.794z"/>
	<path style="fill:#33363A;" d="M403.749,394.794h-0.731c-2.926,0-5.486-2.56-5.486-5.486c0-2.926,2.56-5.486,5.486-5.486h0.731
		c2.926,0,5.486,2.56,5.486,5.486C409.234,392.234,407.04,394.794,403.749,394.794z"/>
</g>
<rect x="206.994" y="301.902" style="fill:#E59C3C;" width="59.977" height="87.406"/>
<rect x="206.994" y="324.942" style="fill:#F2B357;" width="59.977" height="64.366"/>
<g>
	<path style="fill:#33363A;" d="M266.971,394.794h-59.977c-2.926,0-5.486-2.56-5.486-5.486v-87.406c0-2.926,2.56-5.486,5.486-5.486
		h59.977c2.926,0,5.486,2.56,5.486,5.486v87.406C272.457,392.234,269.897,394.794,266.971,394.794z M212.48,383.822h49.006v-76.434
		H212.48V383.822z"/>
	<path style="fill:#33363A;" d="M247.223,353.102h-8.411c-2.926,0-5.486-2.56-5.486-5.486s2.56-5.486,5.486-5.486h8.411
		c2.926,0,5.486,2.56,5.486,5.486S250.149,353.102,247.223,353.102z"/>
</g>
<g>
</g>
<g>
</g>
<g>
</g>
<g>
</g>
<g>
</g>
<g>
</g>
<g>
</g>
<g>
</g>
<g>
</g>
<g>
</g>
<g>
</g>
<g>
</g>
<g>
</g>
<g>
</g>
<g>
</g>
</svg>
