<?xml version="1.0" encoding="iso-8859-1"?>
<!-- Generator: Adobe Illustrator 19.0.0, SVG Export Plug-In . SVG Version: 6.00 Build 0)  -->
<svg version="1.1" id="Layer_1" xmlns="http://www.w3.org/2000/svg" xmlns:xlink="http://www.w3.org/1999/xlink" x="0px" y="0px"
	 viewBox="0 0 512 512" style="enable-background:new 0 0 512 512;" xml:space="preserve">
<path style="fill:#707487;" d="M401.38,42.221H110.641c-18.891,0-34.205,15.314-34.205,34.205v393.353
	c0,18.891,15.314,34.205,34.205,34.205H401.38c18.892,0,34.205-15.314,34.205-34.205V76.426
	C435.585,57.535,420.272,42.221,401.38,42.221z"/>
<path style="fill:#EFF2FA;" d="M393.245,76.426c4.493,0,8.135,3.643,8.135,8.135v377.082c0,4.493-3.643,8.135-8.135,8.135H118.777
	c-4.493,0-8.135-3.643-8.135-8.135V84.561c0-4.493,3.643-8.135,8.135-8.135H393.245z"/>
<path style="fill:#AFB9D2;" d="M332.971,84.977v17.102c0,4.722-3.829,8.551-8.551,8.551H187.602c-4.722,0-8.551-3.829-8.551-8.551
	V84.977c0-4.722,3.829-8.551,8.551-8.551H324.42C329.143,76.426,332.971,80.255,332.971,84.977z"/>
<path style="fill:#C7CFE2;" d="M290.215,76.426V43.691c0-17.864-13.061-33.818-30.845-35.514
	c-20.401-1.944-37.564,14.045-37.564,34.044v34.205H290.215z"/>
<path d="M401.37,34.205H297.448C293.691,14.745,276.54,0,256,0s-37.691,14.745-41.448,34.205H110.63
	c-23.281,0-42.221,18.941-42.221,42.221v393.353c0,23.28,18.941,42.221,42.221,42.221H401.37c23.28,0,42.221-18.941,42.221-42.221
	V76.426C443.591,53.145,424.65,34.205,401.37,34.205z M229.812,42.221c0-14.44,11.748-26.188,26.188-26.188
	c14.44,0,26.188,11.748,26.188,26.188v26.188h-52.376V42.221z M324.944,84.443v17.637c0,0.295-0.239,0.534-0.534,0.534H187.591
	c-0.295,0-0.534-0.239-0.534-0.534V84.443H324.944z M187.591,118.647h136.818c9.136,0,16.568-7.432,16.568-16.568V84.443h52.257
	c0.065,0,0.119,0.053,0.119,0.119v377.082c0,0.065-0.053,0.119-0.119,0.119H118.766c-0.065,0-0.119-0.053-0.119-0.119V84.561
	c0-0.065,0.053-0.119,0.119-0.119h52.257v17.637C171.023,111.215,178.455,118.647,187.591,118.647z M427.557,469.779
	c0,14.44-11.748,26.188-26.188,26.188H110.63c-14.44,0-26.188-11.748-26.188-26.188V76.426c0-14.44,11.748-26.188,26.188-26.188
	h103.148v18.171h-95.013c-8.906,0-16.152,7.246-16.152,16.152v377.082c0,8.906,7.246,16.152,16.152,16.152h274.468
	c8.906,0,16.152-7.246,16.152-16.152V84.561c0-8.906-7.246-16.152-16.152-16.152h-95.013V50.238H401.37
	c14.44,0,26.188,11.748,26.188,26.188V469.779z"/>
<path d="M159.055,164.82c-3.131-3.131-8.207-3.131-11.337,0c-3.131,3.131-3.131,8.207,0,11.337l17.102,17.102
	c1.565,1.565,3.617,2.348,5.668,2.348c2.051,0,4.103-0.782,5.668-2.348l34.205-34.205c3.131-3.131,3.131-8.207,0-11.337
	c-3.131-3.131-8.207-3.131-11.337,0l-28.536,28.536L159.055,164.82z"/>
<path d="M199.025,224.678l-28.536,28.536l-11.434-11.434c-3.131-3.131-8.207-3.131-11.337,0c-3.131,3.131-3.131,8.207,0,11.337
	l17.102,17.102c1.565,1.565,3.617,2.348,5.668,2.348c2.051,0,4.103-0.782,5.668-2.348l34.205-34.205
	c3.131-3.131,3.131-8.207,0-11.337C207.232,221.547,202.154,221.547,199.025,224.678z"/>
<path d="M199.025,301.639l-28.536,28.536l-11.434-11.434c-3.131-3.131-8.207-3.131-11.337,0c-3.131,3.131-3.131,8.207,0,11.337
	l17.102,17.102c1.565,1.565,3.617,2.348,5.668,2.348c2.051,0,4.103-0.782,5.668-2.348l34.205-34.205
	c3.131-3.131,3.131-8.207,0-11.337C207.232,298.508,202.154,298.508,199.025,301.639z"/>
<path d="M199.025,378.599l-28.536,28.536l-11.434-11.434c-3.131-3.131-8.207-3.131-11.337,0c-3.131,3.131-3.131,8.207,0,11.337
	l17.102,17.102c1.565,1.565,3.617,2.348,5.668,2.348c2.051,0,4.103-0.782,5.668-2.348l34.205-34.205
	c3.131-3.131,3.131-8.207,0-11.337C207.232,375.468,202.154,375.468,199.025,378.599z"/>
<path d="M238.898,161.403h76.96c4.427,0,8.017-3.589,8.017-8.017c0-4.427-3.589-8.017-8.017-8.017h-76.96
	c-4.427,0-8.017,3.589-8.017,8.017C230.881,157.814,234.47,161.403,238.898,161.403z"/>
<path d="M238.898,195.608h111.165c4.427,0,8.017-3.589,8.017-8.017s-3.589-8.017-8.017-8.017H238.898
	c-4.427,0-8.017,3.589-8.017,8.017S234.47,195.608,238.898,195.608z"/>
<path d="M238.898,238.363h76.96c4.427,0,8.017-3.589,8.017-8.017s-3.589-8.017-8.017-8.017h-76.96c-4.427,0-8.017,3.589-8.017,8.017
	S234.47,238.363,238.898,238.363z"/>
<path d="M238.898,272.568h111.165c4.427,0,8.017-3.589,8.017-8.017c0-4.427-3.589-8.017-8.017-8.017H238.898
	c-4.427,0-8.017,3.589-8.017,8.017C230.881,268.979,234.47,272.568,238.898,272.568z"/>
<path d="M238.898,315.324h76.96c4.427,0,8.017-3.589,8.017-8.017c0-4.427-3.589-8.017-8.017-8.017h-76.96
	c-4.427,0-8.017,3.589-8.017,8.017C230.881,311.734,234.47,315.324,238.898,315.324z"/>
<path d="M238.898,349.528h111.165c4.427,0,8.017-3.589,8.017-8.017c0-4.427-3.589-8.017-8.017-8.017H238.898
	c-4.427,0-8.017,3.589-8.017,8.017C230.881,345.939,234.47,349.528,238.898,349.528z"/>
<path d="M238.898,392.284h76.96c4.427,0,8.017-3.589,8.017-8.017c0-4.427-3.589-8.017-8.017-8.017h-76.96
	c-4.427,0-8.017,3.589-8.017,8.017C230.881,388.695,234.47,392.284,238.898,392.284z"/>
<path d="M238.898,426.489h111.165c4.427,0,8.017-3.589,8.017-8.017c0-4.427-3.589-8.017-8.017-8.017H238.898
	c-4.427,0-8.017,3.589-8.017,8.017C230.881,422.899,234.47,426.489,238.898,426.489z"/>
<circle cx="256.011" cy="42.221" r="8.017"/>
<g>
</g>
<g>
</g>
<g>
</g>
<g>
</g>
<g>
</g>
<g>
</g>
<g>
</g>
<g>
</g>
<g>
</g>
<g>
</g>
<g>
</g>
<g>
</g>
<g>
</g>
<g>
</g>
<g>
</g>
</svg>
