<?xml version="1.0" encoding="iso-8859-1"?>
<!-- Generator: Adobe Illustrator 19.0.0, SVG Export Plug-In . SVG Version: 6.00 Build 0)  -->
<svg version="1.1" id="Layer_1" xmlns="http://www.w3.org/2000/svg" xmlns:xlink="http://www.w3.org/1999/xlink" x="0px" y="0px"
	 viewBox="0 0 512 512" style="enable-background:new 0 0 512 512;" xml:space="preserve">
<path style="fill:#BEC8D6;" d="M477.249,159.251H345.774c0-31.987-25.931-57.919-57.919-57.919h-63.71
	c-31.987,0-57.919,25.931-57.919,57.919H34.751c-12.742,0-23.167,10.425-23.167,23.167v273.376
	c0,12.742,10.425,23.167,23.167,23.167h442.498c12.742,0,23.167-10.425,23.167-23.167V182.418
	C500.416,169.676,489.991,159.251,477.249,159.251z"/>
<rect x="79.476" y="235.705" style="fill:#FFFFFF;" width="166.805" height="166.805"/>
<circle style="fill:#EE3840;" cx="162.879" cy="295.941" r="23.167"/>
<rect x="224.145" y="33.039" style="fill:#524E4D;" width="63.71" height="108.841"/>
<circle cx="256" cy="68.367" r="11.584"/>
<path d="M477.249,147.667H356.393c-4.898-29.059-27.895-52.04-56.954-56.937v-57.69c0-6.398-5.187-11.584-11.584-11.584h-63.71
	c-6.397,0-11.584,5.186-11.584,11.584v57.69c-29.059,4.898-52.056,27.877-56.954,56.937H34.751C15.589,147.667,0,163.256,0,182.418
	v273.376c0,19.162,15.589,34.751,34.751,34.751h442.498c19.162,0,34.751-15.589,34.751-34.751V182.418
	C512,163.256,496.411,147.667,477.249,147.667z M235.729,44.623h40.543v85.668h-40.543V44.623z M488.833,455.794
	c0,6.387-5.196,11.584-11.584,11.584H34.751c-6.387,0-11.584-5.196-11.584-11.584V182.418c0-6.387,5.196-11.584,11.584-11.584
	h131.475c6.397,0,11.584-5.186,11.584-11.584c0-21.55,14.79-39.712,34.751-44.868v15.909c-6.397,0-11.584,5.186-11.584,11.584
	c0,6.398,5.187,11.584,11.584,11.584h86.878c6.397,0,11.584-5.186,11.584-11.584s-5.187-11.584-11.584-11.584v-15.909
	c19.961,5.157,34.751,23.318,34.751,44.868c0,6.398,5.187,11.584,11.584,11.584h131.475c6.387,0,11.584,5.196,11.584,11.584V455.794
	z"/>
<path d="M114.229,356.174c0,6.398,5.187,11.584,11.584,11.584h74.136c6.397,0,11.584-5.186,11.584-11.584
	c0-6.398-5.187-11.584-11.584-11.584h-74.136C119.416,344.59,114.229,349.776,114.229,356.174z"/>
<path d="M197.632,298.255c0-19.162-15.589-34.751-34.751-34.751s-34.751,15.589-34.751,34.751s15.589,34.751,34.751,34.751
	S197.632,317.417,197.632,298.255z M151.297,298.255c0-6.387,5.196-11.584,11.584-11.584s11.584,5.196,11.584,11.584
	s-5.196,11.584-11.584,11.584S151.297,304.642,151.297,298.255z"/>
<path d="M246.284,224.119H79.478c-6.397,0-11.584,5.186-11.584,11.584v166.805c0,6.398,5.187,11.584,11.584,11.584h166.805
	c6.397,0,11.584-5.186,11.584-11.584v-90.353c0-6.398-5.187-11.584-11.584-11.584s-11.584,5.186-11.584,11.584v78.769H91.062
	V247.287H234.7v25.359c0,6.398,5.187,11.584,11.584,11.584s11.584-5.186,11.584-11.584v-36.943
	C257.867,229.305,252.681,224.119,246.284,224.119z"/>
<path d="M432.522,364.013H323.724c-6.397,0-11.584,5.186-11.584,11.584s5.187,11.584,11.584,11.584h108.798
	c6.397,0,11.584-5.186,11.584-11.584S438.918,364.013,432.522,364.013z"/>
<path d="M432.522,251.029H323.724c-6.397,0-11.584,5.186-11.584,11.584s5.187,11.584,11.584,11.584h108.798
	c6.397,0,11.584-5.186,11.584-11.584S438.918,251.029,432.522,251.029z"/>
<path d="M432.522,306.095H323.724c-6.397,0-11.584,5.186-11.584,11.584c0,6.398,5.187,11.584,11.584,11.584h108.798
	c6.397,0,11.584-5.186,11.584-11.584C444.106,311.281,438.918,306.095,432.522,306.095z"/>
<path d="M256,80.532c6.707,0,12.163-5.456,12.163-12.163S262.707,56.206,256,56.206c-6.707,0-12.163,5.456-12.163,12.163
	S249.293,80.532,256,80.532z M256,57.365c6.068,0,11.005,4.937,11.005,11.005S262.068,79.374,256,79.374
	c-6.068,0-11.005-4.937-11.005-11.005S249.932,57.365,256,57.365z"/>
<g>
</g>
<g>
</g>
<g>
</g>
<g>
</g>
<g>
</g>
<g>
</g>
<g>
</g>
<g>
</g>
<g>
</g>
<g>
</g>
<g>
</g>
<g>
</g>
<g>
</g>
<g>
</g>
<g>
</g>
</svg>
