<svg height="512" width="512" xmlns="http://www.w3.org/2000/svg">
  <g clip-rule="evenodd" fill-rule="evenodd">
    <g fill="#88df8e">
      <path d="M285.124 306.854V50a39.68 39.68 0 00-6.282-21.452C271.721 17.417 259.247 10 245.124 10c-22 0-40 18-40 40v310.976a950.02 950.02 0 0180-.915z"/>
      <path d="M205.125 294.153v-40l-40.001-.003v-57.995c0-11.046-8.954-20-20-20s-20 8.954-20 20v57.998c0 11.021 4.494 21.025 11.734 28.266 7.24 7.24 17.245 11.734 28.266 11.734zM285.124 182.625h40.002c11.021 0 21.025-4.494 28.266-11.734 7.24-7.24 11.734-17.245 11.734-28.266V84.627c0-11.046-8.954-20-20-20s-20 8.954-20 20v57.995l-40.001.003v40z"/>
    </g>
    <path d="M205.125 360.976A950.431 950.431 0 0010 392v100c0 5.5 4.5 10 10 10h472c5.5 0 10-4.5 10-10V392a950.436 950.436 0 00-296.875-31.024z" fill="#ffda8f"/>
  </g>
  <path d="M504.587 382.341a960.894 960.894 0 00-209.463-31.929v-28.46l1.78.754a9.976 9.976 0 003.896.795c3.895 0 7.598-2.29 9.213-6.102 2.154-5.085-.222-10.954-5.307-13.109l-9.583-4.06v-58.19l4.32.864a9.997 9.997 0 001.972.196c4.669 0 8.845-3.287 9.795-8.041 1.083-5.415-2.429-10.684-7.845-11.767l-8.242-1.648v-29.02h30.002c13.331 0 25.881-5.207 35.337-14.663s14.663-22.006 14.663-35.337V84.627c0-16.542-13.458-30-30-30-16.543 0-30.001 13.458-30.001 30v47.996l-20.001.001V50a49.72 49.72 0 00-3.635-18.684l3.506-2.762c4.339-3.418 5.084-9.706 1.667-14.044s-9.707-5.084-14.044-1.667l-2.224 1.752C271.346 5.581 258.875 0 245.124 0c-27.57 0-50 22.43-50 50v11.159l-8.797-1.173c-5.47-.721-10.503 3.116-11.233 8.591s3.116 10.504 8.591 11.233l11.44 1.525v45.766l-7.141 2.264c-5.265 1.669-8.179 7.29-6.51 12.555 1.351 4.26 5.287 6.98 9.53 6.98 1.001 0 2.02-.152 3.025-.471l1.096-.348v96.069l-20.001-.001v-47.996c0-16.542-13.458-30-30-30s-30 13.458-30 30v57.999c0 13.331 5.208 25.881 14.663 35.337 9.456 9.456 22.005 14.663 35.337 14.663h30.001v47.422c-16.817 1.068-33.602 2.551-50.254 4.491-5.486.639-9.415 5.604-8.776 11.09.64 5.485 5.6 9.409 11.09 8.775A944.157 944.157 0 01256 369.612a940.895 940.895 0 01236 30.093V492H20v-92.294a943.355 943.355 0 0139.333-9.298c5.401-1.155 8.843-6.47 7.688-11.87s-6.469-8.838-11.87-7.688a963.05 963.05 0 00-47.74 11.491A10 10 0 000 392v100c0 11.028 8.972 20 20 20h472c11.027 0 19.999-8.972 19.999-20V392a9.998 9.998 0 00-7.412-9.659zM325.125 152.622c5.522 0 10-4.478 10-10V84.627c0-5.514 4.486-10 10.001-10 5.514 0 10 4.486 10 10v57.998c0 7.989-3.127 15.517-8.806 21.194-5.678 5.679-13.205 8.806-21.194 8.806h-30.002v-20.001zM165.123 284.153c-7.989 0-15.516-3.127-21.194-8.806-5.678-5.678-8.806-13.205-8.806-21.194v-57.999c0-5.514 4.486-10 10-10s10 4.486 10 10v57.995c0 5.522 4.477 10 10 10l30.001.002v20.002zm50.002 66.342V141.742l3.504-1.111c5.265-1.669 8.179-7.29 6.51-12.555-1.402-4.421-5.59-7.173-10.014-6.957V82.991c3.528-1.162 6.27-4.243 6.793-8.172.647-4.852-2.304-9.347-6.793-10.816V50c0-16.542 13.458-30 30-30 7.38 0 14.141 2.684 19.372 7.12l-1.679 1.323c-4.339 3.418-5.084 9.706-1.667 14.044a9.983 9.983 0 007.862 3.812 9.95 9.95 0 005.609-1.732c.324 1.764.502 3.578.502 5.434v167.731c-4.958-.368-9.525 3.006-10.524 8.007-1.083 5.415 2.429 10.684 7.845 11.767l2.68.536v53.77c-4.853-1.518-10.159.866-12.185 5.644-2.154 5.085.222 10.954 5.307 13.109l6.878 2.914v36.334a959.88 959.88 0 00-19.125-.199 956.417 956.417 0 00-40.875.881z"/>
  <path d="M169.514 435.255c0-5.522-4.477-10-10-10h-.007c-5.523 0-9.997 4.478-9.997 10s4.481 10 10.004 10 10-4.478 10-10zM292.213 407.098c0-5.522-4.478-10-10-10h-.008c-5.522 0-9.996 4.478-9.996 10s4.481 10 10.004 10 10-4.478 10-10zM431.414 447.898c0-5.522-4.478-10-10-10h-.008c-5.522 0-9.996 4.478-9.996 10s4.481 10 10.004 10 10-4.477 10-10zM101.467 382.261c5.523 0 10-4.478 10-10s-4.477-10-10-10h-.007c-5.523 0-9.996 4.478-9.996 10s4.48 10 10.003 10z"/>
</svg>
