<?xml version="1.0" encoding="iso-8859-1"?>
<!-- Generator: Adobe Illustrator 19.0.0, SVG Export Plug-In . SVG Version: 6.00 Build 0)  -->
<svg version="1.1" id="Capa_1" xmlns="http://www.w3.org/2000/svg" xmlns:xlink="http://www.w3.org/1999/xlink" x="0px" y="0px"
	 viewBox="0 0 512 512" style="enable-background:new 0 0 512 512;" xml:space="preserve">
<path style="fill:#FBCA39;" d="M512,254.407v202.03c0,30.103-24.409,54.512-54.512,54.512H54.505
	c-10.627,0-20.543-3.041-28.923-8.307c-12.716-7.973-21.901-21.055-24.701-36.373c-0.575-3.187-0.878-6.478-0.878-9.832V332.774
	c29.414,0,55.233-24.524,91.292-44.272l112.368-23.28c12.769,1.526,23.573,4.409,33.165,8.129l39.675,22.173
	c24.158,16.185,42.841,32.548,90.373,32.548C460.915,328.072,468.01,254.407,512,254.407z"/>
<g>
	<path style="fill:#E2AF2D;" d="M511.997,254.407v67.354c-42.59,4.712-68.503,24.827-143.035,30.344
		c-84.626,6.269-165.302-31.096-203.461-42.318C130.894,299.609,51.827,363.327,0,375.27v-42.496
		c29.414,0,55.233-24.524,91.292-44.272l112.368-23.28c12.769,1.526,23.573,4.409,33.165,8.129l39.675,22.173
		c24.158,16.185,42.841,32.548,90.373,32.548C460.912,328.072,468.007,254.407,511.997,254.407z"/>
	<path style="fill:#E2AF2D;" d="M409.253,423.805l-10.7,75.587c0,0-13.092,5.841-29.456,11.556h-63.644
		C305.453,480.992,409.253,423.805,409.253,423.805z"/>
	<path style="fill:#E2AF2D;" d="M184.521,451.055L25.582,502.641c-12.716-7.973-21.901-21.055-24.701-36.373l164.623-72.411
		L184.521,451.055z"/>
</g>
<path style="fill:#708E03;" d="M140.819,255.508v39.675h-25.192c-26.222,0-47.644-21.337-47.644-47.558V141.798
	c0-9.683,6.941-17.738,16.11-19.365c1.2-0.343,2.485-0.428,3.77-0.428c10.968,0,19.794,8.826,19.794,19.794v105.826
	c0,4.371,3.599,7.884,7.969,7.884H140.819z"/>
<path style="fill:#7FAE00;" d="M140.819,255.508v23.65h-9.426c-26.222,0-47.644-21.337-47.644-47.644V125.774
	c0-1.114,0.086-2.228,0.343-3.342c1.2-0.343,2.485-0.428,3.77-0.428c10.968,0,19.794,8.826,19.794,19.794v105.827
	c0,4.371,3.599,7.884,7.969,7.884H140.819z"/>
<path style="fill:#708E03;" d="M276.551,207.265v105.828c0,26.222-21.422,47.558-47.644,47.558h-25.192v-39.675h25.192
	c4.371,0,7.969-3.514,7.969-7.884V207.265c0-10.968,8.826-19.794,19.794-19.794c8.912,0,16.539,5.827,19.023,13.967
	C276.21,203.323,276.551,205.208,276.551,207.265z"/>
<path style="fill:#7FAE00;" d="M276.551,207.265v105.828c0,26.222-21.422,47.558-47.644,47.558h-25.192v-25.707h22.108
	c16.11,0,29.22-13.111,29.22-29.22v-83.462c0-10.283,7.455-19.709,17.738-20.737c1.028-0.086,1.972-0.086,2.914-0.086
	C276.21,203.323,276.551,205.208,276.551,207.265z"/>
<path style="fill:#708E03;" d="M203.715,85.071v337.018c0,13.025-7.884,24.164-19.109,28.963c0,0,0,0-0.086,0
	c-3.77,1.628-7.884,2.485-12.253,2.485c-17.395,0-31.448-14.053-31.448-31.448V85.071c0-17.394,14.053-31.448,31.448-31.448
	c4.371,0,8.483,0.857,12.253,2.485c0.086,0,0.086,0,0.086,0c3.77,1.628,7.113,3.856,9.94,6.684
	C200.202,68.533,203.715,76.416,203.715,85.071z"/>
<path style="fill:#7FAE00;" d="M203.715,85.071v337.018c0,13.025-7.884,24.164-19.109,28.963c0,0,0,0-0.086,0
	c-11.14-4.798-19.023-15.938-19.023-28.963V85.071c0-13.025,7.884-24.164,19.023-28.963c0.086,0,0.086,0,0.086,0
	c3.77,1.628,7.113,3.856,9.94,6.684C200.202,68.533,203.715,76.416,203.715,85.071z"/>
<circle style="fill:#FBE06E;" cx="429.419" cy="83.618" r="82.567"/>
<circle style="fill:#FFC900;" cx="429.419" cy="83.618" r="64.271"/>
<path style="fill:#7FAE00;" d="M216.293,123.751h-12.634c-4.328,0-7.837-3.509-7.837-7.837c0-4.328,3.509-7.837,7.837-7.837h12.634
	c4.328,0,7.837,3.509,7.837,7.837C224.129,120.242,220.621,123.751,216.293,123.751z"/>
<g>
	<path style="fill:#708E03;" d="M140.819,92.908h-12.634c-4.328,0-7.837-3.509-7.837-7.837c0-4.328,3.509-7.837,7.837-7.837h12.634
		c4.328,0,7.837,3.509,7.837,7.837C148.656,89.399,145.147,92.908,140.819,92.908z"/>
	<path style="fill:#708E03;" d="M67.983,173.905H55.349c-4.328,0-7.837-3.509-7.837-7.837s3.509-7.837,7.837-7.837h12.634
		c4.328,0,7.837,3.509,7.837,7.837S72.311,173.905,67.983,173.905z"/>
	<path style="fill:#708E03;" d="M67.983,225.453H55.349c-4.328,0-7.837-3.509-7.837-7.837c0-4.328,3.509-7.837,7.837-7.837h12.634
		c4.328,0,7.837,3.509,7.837,7.837C75.819,221.944,72.311,225.453,67.983,225.453z"/>
</g>
<g>
	<path style="fill:#7FAE00;" d="M289.185,231.124h-12.634c-4.328,0-7.837-3.509-7.837-7.837s3.509-7.837,7.837-7.837h12.634
		c4.328,0,7.837,3.509,7.837,7.837S293.514,231.124,289.185,231.124z"/>
	<path style="fill:#7FAE00;" d="M289.185,290.236h-12.634c-4.328,0-7.837-3.509-7.837-7.837s3.509-7.837,7.837-7.837h12.634
		c4.328,0,7.837,3.509,7.837,7.837S293.514,290.236,289.185,290.236z"/>
</g>
<path style="fill:#E2DAC7;" d="M363.099,399.127h-19.683c-17.471,0-31.684-14.214-31.684-31.684v-20.259
	c0-4.328,3.509-7.837,7.837-7.837s7.837,3.509,7.837,7.837v20.259c0,8.828,7.183,16.011,16.011,16.011h19.683
	c4.328,0,7.837,3.509,7.837,7.837S367.427,399.127,363.099,399.127z"/>
<path style="fill:#FBF5E6;" d="M468.463,399.127H448.78c-4.328,0-7.837-3.509-7.837-7.837s3.509-7.837,7.837-7.837h19.683
	c8.828,0,16.011-7.183,16.011-16.011v-20.259c0-4.328,3.509-7.837,7.837-7.837s7.837,3.509,7.837,7.837v20.259
	C500.146,384.913,485.933,399.127,468.463,399.127z"/>
<path style="fill:#708E03;" d="M140.819,343.178h-12.634c-4.328,0-7.837-3.509-7.837-7.837s3.509-7.837,7.837-7.837h12.634
	c4.328,0,7.837,3.509,7.837,7.837S145.147,343.178,140.819,343.178z"/>
<path style="fill:#7FAE00;" d="M216.293,175.995h-12.634c-4.328,0-7.837-3.509-7.837-7.837s3.509-7.837,7.837-7.837h12.634
	c4.328,0,7.837,3.509,7.837,7.837S220.621,175.995,216.293,175.995z"/>
<path style="fill:#FBF5E6;" d="M448.784,391.288v27.742c0,0.261-0.01,0.522-0.021,0.773c-0.408,8.443-7.377,15.151-15.903,15.151
	h-1.839v40.469c0,6.928-2.811,13.197-7.346,17.732c-2.748,2.738-6.123,4.848-9.895,6.081c-2.466,0.825-5.099,1.264-7.837,1.264
	s-5.371-0.439-7.837-1.254c-10.021-3.281-17.241-12.706-17.241-23.824v-40.469h-1.839c-8.537,0-15.496-6.708-15.903-15.151
	c-0.01-0.251-0.021-0.512-0.021-0.773v-27.742c0-19.163,15.538-34.701,34.701-34.701h16.269
	C433.247,356.587,448.784,372.125,448.784,391.288z"/>
<path style="fill:#E2DAC7;" d="M405.939,500.499c-13.855,0-25.077-11.222-25.077-25.077v-40.469h-1.839
	c-8.798,0-15.924-7.126-15.924-15.924v-27.742c0-19.163,15.538-34.701,34.701-34.701h5.653c-5.841,0-10.574,15.538-10.574,34.701
	v27.742c0,8.798,2.173,15.924,4.848,15.924h0.564v40.469C398.291,489.277,401.718,500.499,405.939,500.499z"/>
<g>
	<path style="fill:#4D4D4D;" d="M413.78,434.954v64.282c-2.466,0.825-5.099,1.264-7.837,1.264s-5.371-0.439-7.837-1.254v-64.292
		c0-4.326,3.5-7.837,7.837-7.837C410.269,427.117,413.78,430.627,413.78,434.954z"/>
	<path style="fill:#4D4D4D;" d="M388.18,411.966c0,4.326-3.511,7.837-7.837,7.837h-17.22c-0.01-0.251-0.021-0.512-0.021-0.773v-14.9
		h17.241C384.67,404.13,388.18,407.639,388.18,411.966z"/>
	<path style="fill:#4D4D4D;" d="M448.784,404.13v14.9c0,0.261-0.01,0.522-0.021,0.773h-17.22c-4.336,0-7.837-3.511-7.837-7.837
		s3.5-7.837,7.837-7.837H448.784z"/>
</g>
<g>
	<path style="fill:#E2AF2D;" d="M251.822,455.329c-7.283,0-10.554-9.467-4.857-13.99c2.661-2.113,6.547-2.22,9.33-0.277
		c2.636,1.842,3.917,5.237,3.12,8.359C258.54,452.848,255.367,455.329,251.822,455.329z"/>
	<path style="fill:#E2AF2D;" d="M260.181,480.407c-3.281,0-6.271-2.114-7.38-5.196c-1.128-3.135-0.077-6.729,2.524-8.794
		c5.652-4.487,14.107,0.849,12.493,7.874C267.007,477.816,263.817,480.407,260.181,480.407z"/>
	<path style="fill:#E2AF2D;" d="M122.255,480.407c-7.206,0-10.535-9.309-4.976-13.892c2.623-2.162,6.496-2.356,9.321-0.465
		c2.719,1.819,4.057,5.277,3.246,8.449C128.973,477.925,125.801,480.407,122.255,480.407z"/>
</g>
<path style="fill:#FBCA39;" d="M65.831,474.137c-3.281,0-6.271-2.114-7.38-5.196c-1.128-3.135-0.078-6.729,2.524-8.794
	c5.652-4.487,14.107,0.849,12.493,7.874C72.658,471.547,69.469,474.137,65.831,474.137z"/>
<g>
	<path style="fill:#E2AF2D;" d="M289.438,465.778c-6.979,0-10.451-8.863-5.325-13.589c2.645-2.439,6.681-2.73,9.672-0.758
		c2.539,1.676,3.888,4.806,3.381,7.804C296.536,462.957,293.223,465.778,289.438,465.778z"/>
	<path style="fill:#E2AF2D;" d="M88.819,392.636c-3.496,0-6.611-2.39-7.552-5.747c-0.842-3.005,0.26-6.31,2.697-8.243
		c5.59-4.438,13.963,0.73,12.536,7.689C95.757,389.948,92.522,392.636,88.819,392.636z"/>
	<path style="fill:#E2AF2D;" d="M483.788,442.791c-3.421,0-6.501-2.296-7.501-5.562c-0.897-2.93,0.072-6.248,2.406-8.232
		c5.391-4.581,13.917,0.104,12.843,7.108C490.956,439.892,487.633,442.791,483.788,442.791z"/>
	<path style="fill:#E2AF2D;" d="M49.113,446.97c-7.283,0-10.554-9.467-4.857-13.99c2.661-2.113,6.547-2.22,9.33-0.277
		c2.636,1.842,3.917,5.237,3.12,8.359C55.831,444.489,52.658,446.97,49.113,446.97z"/>
</g>
<path style="fill:#FBCA39;" d="M34.485,474.137c-3.209,0-6.151-2.029-7.311-5.018c-1.298-3.344-0.076-7.27,2.889-9.287
	c5.723-3.893,13.627,1.359,12.058,8.189C41.311,471.545,38.113,474.137,34.485,474.137z"/>
<g>
</g>
<g>
</g>
<g>
</g>
<g>
</g>
<g>
</g>
<g>
</g>
<g>
</g>
<g>
</g>
<g>
</g>
<g>
</g>
<g>
</g>
<g>
</g>
<g>
</g>
<g>
</g>
<g>
</g>
</svg>
