<svg id="Capa_1" xmlns="http://www.w3.org/2000/svg" viewBox="0 0 512 512">
  <style>
    .st1{fill:#495059}.st2{fill:#498a68}.st3{fill:#5cb38e}.st4,.st6{opacity:.1;enable-background:new}.st6{opacity:5.000000e-02}.st8{fill:#ffa8cb}.st9{fill:#fff}
  </style>
  <circle cx="247.5" cy="256.5" r="172.5" fill="#eaeaea"/>
  <path class="st1" d="M155.4 197h-.6l-19.3-2.9c-2.3-.3-3.8-2.5-3.5-4.7.3-2.3 2.5-3.8 4.7-3.5l19.3 2.9c2.3.3 3.8 2.5 3.5 4.7-.4 2.1-2.1 3.5-4.1 3.5zM172.5 149.8c-.9 0-1.8-.3-2.6-.9l-12.8-10.4c-1.8-1.4-2-4-.6-5.8 1.4-1.8 4-2 5.8-.6l12.8 10.4c1.8 1.4 2 4 .6 5.8-.8 1-2 1.5-3.2 1.5zM297.9 146.6c-1 0-2-.4-2.8-1.1a4.11 4.11 0 0 1-.2-5.8l9.4-9.9c1.6-1.7 4.2-1.7 5.8-.2 1.7 1.6 1.7 4.2.2 5.8l-9.4 9.9c-.8.9-1.9 1.3-3 1.3zM242.5 135c-2.3 0-4.1-1.8-4.1-4.1v-13.7c0-2.3 1.8-4.1 4.1-4.1s4.1 1.8 4.1 4.1v13.7c0 2.2-1.9 4.1-4.1 4.1z"/>
  <path class="st2" d="M302.6 327.4c-2.4 0-4.8-1-6.5-3.1-3-3.6-2.5-9 1.1-12 2.6-2.2 7.3-5.2 16.2-10.6 4-2.4 9.2-1.1 11.6 2.9 2.4 4 1.1 9.2-2.9 11.6-3.1 1.9-11.5 6.8-14.1 9-1.5 1.6-3.5 2.2-5.4 2.2z"/>
  <path class="st3" d="M243.6 356.4c-39.6 0-85.2 0-118.6-21.3-5.7-3.6-2.4-12.5 4.3-11.6 26.4 3.5 48.7-3.2 61.3-14.1l53 47z"/>
  <path class="st4" d="M175.6 318.4c.4 12.7 2.4 25.3 10.2 35.8 19.3 2.2 39.2 2.2 57.8 2.2l-53-47c-4.1 3.5-9.2 6.5-15 9z"/>
  <path class="st2" d="M225.8 395h-1c-7.2-.6-12.6-6.8-12-14 .5-6.5 0-28.3-1-33.1-2.1-6.5 1.1-13.6 7.5-16.2 6.7-2.7 14.3.5 17 7.2 3.5 8.6 2.7 42.1 2.5 44.2-.5 6.7-6.2 11.9-13 11.9zm-13.7-46.4zM273.2 395h-1c-7.2-.6-12.6-6.8-12-14 .5-6.5 0-28.3-1-33.1-2.2-6.5 1.1-13.6 7.5-16.2 6.7-2.7 14.3.5 17 7.2 3.5 8.6 2.7 42.1 2.5 44.2-.5 6.7-6.2 11.9-13 11.9zm-13.7-46.4z"/>
  <path class="st4" d="M286.4 370.8c0-11.1-.5-26.6-2.7-32.1-2.7-6.7-10.4-9.9-17-7.2-6.4 2.6-9.6 9.7-7.5 16.2.8 3.9 1.2 18.6 1.2 27.7 10-.5 18.7-2.1 26-4.6zM219.3 331.6c-6.4 2.6-9.6 9.7-7.5 16.2.7 3.4 1.1 15 1.2 24 7.4 2.1 16.1 3.4 26 3.9.1-10.9-.1-30.6-2.7-36.9-2.7-6.7-10.3-9.9-17-7.2z"/>
  <path class="st3" d="M307.9 310.3c0 30.5-4.1 52.6-59.7 52.6s-59.7-22.1-59.7-52.6 26.7-55.2 59.7-55.2c32.9-.1 59.7 24.7 59.7 55.2z"/>
  <path d="M307.9 310.3v-.7c-12.4-3.2-37.1-4.1-54.2 14.1-12.5 13.3-14.3 27.6-13 39 2.4.1 4.9.1 7.5.1 55.5 0 59.7-22 59.7-52.5z" fill="#9bdfc1"/>
  <path class="st6" d="M236.9 256c-27.5 4.9-48.3 27.3-48.3 54.2 0 28.2 3.6 49.3 48.2 52.2-24.9-25.1-20.1-76.9.1-106.4z"/>
  <path class="st3" d="M303 175.5c-10.2-15.4-27.4-24.7-45.9-24.7h-22.7c-32.3 0-58.4 26.2-58.4 58.4v26.9c0 29 23.5 52.4 52.4 52.4h120.3c21.7 0 39.3-17.6 39.3-39.3V231c0-21.7-17.6-39.3-39.3-39.3h-15.6c-12.1 0-23.4-6.1-30.1-16.2z"/>
  <ellipse class="st1" cx="340.9" cy="252.9" rx="18.4" ry="20.7"/>
  <g opacity=".1">
    <circle cx="207.7" cy="248.9" r="4"/>
    <circle cx="236.3" cy="255" r="4"/>
    <circle cx="219.9" cy="268.8" r="4"/>
  </g>
  <ellipse class="st8" cx="213.8" cy="199.9" rx="10.1" ry="5.2"/>
  <ellipse class="st8" cx="281.8" cy="199.9" rx="10.1" ry="5.2"/>
  <circle class="st1" cx="328.1" cy="212.2" r="4"/>
  <circle class="st1" cx="353.8" cy="212.2" r="4"/>
  <path class="st6" d="M221.4 152.3c-26 5.9-45.5 29.2-45.5 57v26.9c0 29 23.5 52.4 52.4 52.4h31.8c-46.3-27-54.1-101.1-38.7-136.3z"/>
  <circle class="st9" cx="223.9" cy="179.1" r="19"/>
  <circle class="st1" cx="223.9" cy="179.1" r="4.9"/>
  <circle class="st9" cx="271.7" cy="179.1" r="19"/>
  <circle class="st1" cx="271.7" cy="179.1" r="4.9"/>
  <path class="st2" d="M239.8 327.4c-2.1 0-4.1-.7-5.7-2.2-2.1-1.9-6.6-5.9-12.8-10.8-3.7-2.9-4.4-8.2-1.5-11.9 2.9-3.7 8.2-4.4 11.9-1.5 6.7 5.2 11.6 9.6 13.9 11.7 3.5 3.2 3.7 8.5.5 12-1.7 1.8-4 2.7-6.3 2.7z"/>
</svg>
