<?xml version="1.0" encoding="iso-8859-1"?>
<!-- Generator: Adobe Illustrator 19.0.0, SVG Export Plug-In . SVG Version: 6.00 Build 0)  -->
<svg version="1.1" id="Layer_1" xmlns="http://www.w3.org/2000/svg" xmlns:xlink="http://www.w3.org/1999/xlink" x="0px" y="0px"
	 viewBox="0 0 512 512" style="enable-background:new 0 0 512 512;" xml:space="preserve">
<path style="fill:#EA9436;" d="M275.222,28.814c-12.637-28.263-26.73-26.992-38.792-0.004c0,0-88.152,197.164-88.154,197.169
	c21.469,14.04,49.859,12.486,69.722-4.439c21.817,18.592,53.846,18.581,75.652,0c19.865,16.927,48.254,18.478,69.721,4.439
	C361.516,221.823,274.016,26.114,275.222,28.814z"/>
<path style="fill:#D17922;" d="M170.65,234.688c0-3.751,0-4.986,0-8.71c0.003-0.006,88.154-197.169,88.154-197.169
	c1.011-2.261,3.59-8.606,8.202-14.076c-8.169-9.925-19.257-11.244-30.574,14.076c0,0-88.152,197.165-88.154,197.169
	C154.92,230.323,162.501,233.347,170.65,234.688z"/>
<path style="fill:#FF8C01;" d="M215.803,223.315L215.803,223.315c0.745-0.576,1.48-1.165,2.196-1.776
	c21.818,18.591,53.848,18.583,75.652,0c19.865,16.927,48.255,18.478,69.723,4.439c0,13.398,0,251.643,0,264.944
	c0,7.163-5.808,12.971-12.971,12.971h-134.6V223.315z"/>
<path style="fill:#FF9C31;" d="M293.652,221.539c-11.63,9.911-26.713,14.992-42.493,13.738
	c17.848,57.849,58.866,105.521,112.214,132.204c0-17.067,0-120.145,0-141.503C341.906,240.018,313.515,238.465,293.652,221.539z"/>
<path style="fill:#FC5F22;" d="M215.803,503.894h-54.554c-7.164,0-12.971-5.808-12.971-12.971c0-13.194,0-255.217,0-264.944
	c20.721,13.55,47.816,12.559,67.525-2.663l0,0V503.894z"/>
<path style="fill:#FCA651;" d="M281.646,43.182c-40.705,57.641-49.93,129.071-30.487,192.096
	c15.757,1.252,30.845-3.812,42.494-13.738c19.865,16.927,48.254,18.478,69.721,4.439C321.45,132.206,306.941,99.757,281.646,43.182z
	"/>
<path style="fill:#6D6557;" d="M295.849,74.949c-0.565-1.265-20.807-46.539-20.627-46.134c-12.637-28.263-26.73-26.992-38.792-0.004
	c0,0-20.547,45.958-20.628,46.139C241.927,82.056,269.683,82.066,295.849,74.949z"/>
<path style="fill:#7C756A;" d="M295.849,74.949l-14.203-31.767c-8.169,11.568-15.25,23.957-21.099,37.02
	C272.729,79.828,284.548,78.022,295.849,74.949z"/>
<path style="fill:#FC6C00;" d="M217.999,221.539c21.818,18.591,53.848,18.583,75.652,0v282.354h-77.849V223.315
	C216.548,222.739,217.284,222.15,217.999,221.539z"/>
<path style="fill:#FC7E29;" d="M251.16,235.278c8.876,28.769,23.489,55.016,42.493,77.425v-91.163
	C282.021,231.451,266.939,236.531,251.16,235.278z"/>
<path style="fill:#E54413;" d="M170.65,490.923c0-9.086,0-244.69,0-256.235c-8.149-1.341-15.73-4.366-22.372-8.71
	c0,16.006,0,262.572,0,264.944c0,7.163,5.807,12.971,12.971,12.971h22.372C176.457,503.894,170.65,498.087,170.65,490.923z"/>
<path style="fill:#544C3F;" d="M236.352,79.028c0.088-0.197,22.451-50.218,22.451-50.218c1.011-2.261,3.59-8.606,8.202-14.076
	c-8.169-9.925-19.257-11.244-30.574,14.076c0,0-20.547,45.958-20.628,46.139C222.48,76.765,229.343,78.129,236.352,79.028z"/>
<path style="fill:#231F20;" d="M363.544,300.974c4.478,0,8.107-3.63,8.107-8.107c0-69.511,0.049-67.187-0.082-68.025
	c-0.229-1.64,2.156,4.048-45.335-102.177c-1.827-4.088-6.62-5.919-10.709-4.092c-4.087,1.827-5.919,6.621-4.091,10.709
	l41.694,93.259c-2.407,1.149-5.15,2.191-8.083,3.006c-27.044,7.462-44.882-9.635-45.962-10.175c0-0.009-0.259-0.184-0.267-0.189
	c-3.008-2.361-7.285-2.339-10.249,0.188c-9.079,7.737-20.646,11.998-32.569,11.998c-20.921,0-31.91-12.187-34.844-13.348
	c-2.891-1.144-6.049-0.51-8.238,1.351c-16.18,13.786-37.672,14.986-54.047,7.172l61.747-138.107c23.359,5.27,47.404,5.271,70.769,0
	l9.592,21.453c1.828,4.088,6.622,5.921,10.709,4.092c4.087-1.827,5.919-6.623,4.091-10.709c-0.013-0.028-33.001-73.813-33.013-73.84
	c0,0,0-0.001-0.001-0.001c-4.331-9.687-10.963-21.373-21.215-24.577C258.753-0.038,256.077,0,256.077,0
	c-11.477,0-20.505,11.251-25.208,21.768c-1.703,3.812-1.67,3.738-1.67,3.738c-90.972,203.473-88.798,196.645-88.85,200.36
	c0,0.038-0.008,0.075-0.008,0.112v264.944c0,11.622,9.456,21.077,21.077,21.077c8.34,0,130.828,0,134.6,0h54.554
	c11.622,0,21.077-9.456,21.077-21.077V318.808c0-4.477-3.629-8.107-8.107-8.107c-4.478,0-8.107,3.63-8.107,8.107v172.115
	c0,2.682-2.182,4.864-4.864,4.864h-46.448V237.594c17.06,7.765,35.749,7.596,51.312,1.59v53.684
	C355.437,297.345,359.067,300.974,363.544,300.974z M284.622,69.32c-18.793,3.794-38.461,3.793-57.252,0
	C258.766-0.909,252.847-1.754,284.622,69.32z M210.063,495.787h-48.645c-2.682,0-4.864-2.182-4.864-4.864V239.184
	c16.262,6.277,35.908,6.166,53.509-2.638V495.787z M287.912,495.787h-61.635V236.555c20.043,10.003,43.055,9.032,61.635-1.151
	V495.787z"/>
<g>
</g>
<g>
</g>
<g>
</g>
<g>
</g>
<g>
</g>
<g>
</g>
<g>
</g>
<g>
</g>
<g>
</g>
<g>
</g>
<g>
</g>
<g>
</g>
<g>
</g>
<g>
</g>
<g>
</g>
</svg>
