<svg viewBox="0 -120 516 768" xmlns="http://www.w3.org/2000/svg">
  <path d="M512 256c0 90.77-47.25 170.51-118.49 215.97-39.72 25.34-86.9 17.834-137.51 17.834-34.24 0-66.9-6.72-96.75-18.93-14.28-5.82-27.91 9.296-40.76 1.096C47.25 426.51 0 346.77 0 256 0 114.62 114.62 0 256 0s256 114.62 256 256z" fill="#aa7a63"/>
  <path d="M393.51 471.97c-30.3 19.33-64.95 32.47-102.15 37.61-11.56 1.6-23.37-19.776-35.36-19.776s-23.8 21.376-35.36 19.776c-37.2-5.14-71.85-18.28-102.15-37.61 3.67-31.82 18.13-60.34 39.63-81.84 25.05-25.05 59.66-40.55 97.88-40.55 71.03 0 129.56 53.5 137.51 122.39z" fill="#b1e4f9"/>
  <path d="M276.83 351.14c-29.88 4.52-56.63 18.58-77.04 38.99-25.05 25.05-40.54 59.66-40.54 97.88v5.06a253.927 253.927 0 01-40.76-21.1c3.67-31.81 18.13-60.35 39.62-81.84 25.06-25.05 59.66-40.55 97.88-40.55 7.09 0 14.04.53 20.84 1.56z" fill="#90d8f9"/>
  <path d="M256.015 350.753l45.445 45.445-45.445 45.446-45.445-45.446z" fill="#dd636e"/>
  <path d="M291.36 509.58C279.8 511.18 267.99 512 256 512s-23.8-.82-35.36-2.42L256 402.47z" fill="#dd636e"/>
  <path d="M256 396.267l-40.36 27.67c-7.89 5.409-18.704.517-19.85-8.98l-3.59-29.749c-2.184-18.093 8.996-35.124 26.464-40.317l22.026-6.548M256 396.267l40.36 27.67c7.89 5.409 18.704.517 19.85-8.98l3.59-29.749c2.184-18.093-8.996-35.124-26.464-40.317l-22.026-6.548" fill="#d3effb"/>
  <path d="M295.488 285.993v70.787c0 21.804-17.683 39.487-39.488 39.487a39.304 39.304 0 01-15.113-2.995c-14.306-5.937-24.374-20.041-24.374-36.492v-70.787z" fill="#ffddce"/>
  <path d="M240.887 285.993v107.28c-14.306-5.937-24.374-20.041-24.374-36.492v-70.787h24.374z" fill="#ffcbbe"/>
  <path d="M358.785 263.272h-205.57c-32.803 0-59.396-26.592-59.396-59.396 0-20.513 16.629-37.142 37.142-37.142h250.078c20.513 0 37.142 16.629 37.142 37.142 0 32.804-26.592 59.396-59.396 59.396z" fill="#ffddce"/>
  <path d="M153.215 243.249c-21.71 0-39.372-17.662-39.372-39.372 0-9.439 7.679-17.118 17.118-17.118h250.078c9.439 0 17.118 7.679 17.118 17.118 0 21.71-17.662 39.372-39.372 39.372z" fill="#ffcbbe"/>
  <path d="M256 31.721V57.75c-63.6 0-115.158 25.529-115.158 89.128v84.701c0 63.6 51.558 115.158 115.158 115.158s115.158-51.558 115.158-115.158v-84.701C371.158 83.279 319.6 31.721 256 31.721z" fill="#ffddce"/>
  <path d="M285.755 342.853a115.24 115.24 0 01-29.756 3.885c-63.606 0-115.158-51.552-115.158-115.158v-84.701c0-63.596 51.552-101.993 115.158-101.993 10.292 0 20.264-11.813 29.756-9.28-49.179 13.116-85.412 57.969-85.412 111.273v84.701c0 53.314 36.234 98.167 85.412 111.273z" fill="#ffcbbe"/>
  <g fill="#404a4a">
    <path d="M221.416 194.309a9.524 9.524 0 01-9.524-9.524v-38.113a9.524 9.524 0 019.524-9.524 9.524 9.524 0 019.524 9.524v38.113a9.524 9.524 0 01-9.524 9.524zM290.584 194.309a9.524 9.524 0 01-9.524-9.524v-38.113a9.524 9.524 0 019.524-9.524 9.524 9.524 0 019.524 9.524v38.113a9.524 9.524 0 01-9.524 9.524z"/>
  </g>
  <path d="M256 237.797c-6.593 0-11.937-5.345-11.937-11.937V113.014h23.875V225.86c-.001 6.593-5.345 11.937-11.938 11.937z" fill="#ffcbbe"/>
  <path d="M284.255 276.874a145.891 145.891 0 01-56.51 0c-5.578-1.101-9.075-6.674-7.574-12.158l.052-.19c1.343-4.91 6.243-7.99 11.237-7a126.207 126.207 0 0049.082 0c4.993-.99 9.893 2.09 11.237 7l.052.19c1.499 5.485-1.997 11.057-7.576 12.158z" fill="#eaac9d"/>
  <path d="M351.02 0h-95.686c-30.076 0-54.458 24.382-54.458 54.458v11.34c0 30.076 24.382 54.458 54.458 54.458h95.686c30.076 0 54.458-24.382 54.458-54.458v-11.34C405.478 24.382 381.096 0 351.02 0z" fill="#475959"/>
  <path d="M172.335 71.074h-31.493v94.655c17.393 0 31.493-14.1 31.493-31.493z" fill="#404a4a"/>
  <path d="M339.665 71.074h31.493v94.655c-17.393 0-31.493-14.1-31.493-31.493z" fill="#475959"/>
  <path d="M165.431 0c-24.352 0-44.094 19.741-44.094 44.093v32.069c0 24.352 19.741 44.093 44.093 44.093 24.352 0 44.093-19.741 44.093-44.093V44.093C209.525 19.741 189.783 0 165.431 0z" fill="#404a4a"/>
  <path d="M351.451 480.85h-46.81c-5.439 0-9.849-4.41-9.849-9.849v-9.566c0-5.439 4.41-9.849 9.849-9.849h46.81c5.439 0 9.849 4.41 9.849 9.849v9.566c-.001 5.44-4.41 9.849-9.849 9.849z" fill="#f6e266"/>
</svg>
