<svg xmlns="http://www.w3.org/2000/svg" viewBox="-85 -80 680 680" style="enable-background:new 0 0 512 512" xml:space="preserve">
  <path style="fill:#694b4b" d="M135.758 251.99c-2.197-30.913-25.123-56.113-56.113-56.113s-53.916 25.2-56.113 56.113c-1.309 18.43 0 48.097-8.016 64.129 0 0 8.016 16.032 37.579 24.07l53.262-.022c29.401-8.016 37.417-24.048 37.417-24.048-8.016-16.032-6.707-45.699-8.016-64.129z"/>
	<path style="fill:#5a4146" d="M71.629 251.99c-30.892-15.446-24.534-45.709-2.525-55.075-25.532 4.982-43.633 27.788-45.572 55.075-1.309 18.43 0 48.097-8.016 64.129 0 0 8.016 16.032 37.579 24.07l25.318-.01-6.784-88.189z"/>
	<path style="fill:#e6af78" d="m138.496 359.463-25.941-12.97a16.034 16.034 0 0 1-8.863-14.341l.001-24.05H55.597v24.05a16.033 16.033 0 0 1-8.862 14.339l-25.942 12.971A24.048 24.048 0 0 0 7.5 380.971v55.389h144.29v-55.388a24.048 24.048 0 0 0-13.294-21.509z"/>
	<path style="fill:#d5dced" d="M151.79 380.973a24.05 24.05 0 0 0-13.294-21.51l-25.941-12.97c-1.493-.746-2.793-1.741-3.953-2.867l-9.2 10.24c-10.866 12.094-28.647 12.093-39.513 0l-9.201-10.241c-1.161 1.126-2.461 2.121-3.952 2.867l-25.943 12.971a24.047 24.047 0 0 0-13.292 21.508v55.39h144.29l-.001-55.388z"/>
	<path style="fill:#f0c087" d="M79.645 324.135c-18.371 0-34.337-10.3-42.437-25.44-5.506-10.292-1.916-23.203 7.627-29.924a62.131 62.131 0 0 0 5.584-4.422c5.732-5.115 9.089-10.509 10.981-14.462 1.621-3.386 5.356-5.298 8.994-4.371 28.303 7.212 47.551 21.953 54.487 27.924 1.843 1.587 2.904 3.923 2.717 6.348-1.913 24.811-22.651 44.347-47.953 44.347z"/>
	<path style="fill:#e6af78" d="M124.872 273.432c-6.941-5.975-26.174-20.697-54.447-27.909-3.656-.933-7.407.991-9.038 4.393-1.435 2.991-3.806 6.803-7.325 10.693l-.004.027c-1.092 1.238-2.255 2.478-3.638 3.713-1.785 1.592-3.581 3.033-5.357 4.261-11.313 7.826-13.012 22.181-6.079 33.085a48.197 48.197 0 0 0 33.369 21.765c-9.597-6.529-16.756-15.381-16.756-31.388v-6.194c1.821-1.344 3.654-2.685 5.497-4.329a63.829 63.829 0 0 0 11.464-13.525c21.592 6.738 36.23 17.96 41.779 22.732 1.519 1.332 3.649 3.214 8.06 7.352 2.829-4.464 4.804-13.155 5.201-18.33.187-2.423-.886-4.762-2.726-6.346z"/>
	<path style="fill:#c7cfe2" d="M12.387 366.522c-3.088 4.097-4.887 9.126-4.887 14.45v55.388h32.065v-40.391c0-4.87-2.214-9.477-6.017-12.519l-21.161-16.928zM146.904 366.522c3.088 4.097 4.887 9.126 4.887 14.45v55.388h-32.065v-40.391c0-4.87 2.214-9.477 6.017-12.519l21.161-16.928z"/>
	<path style="fill:#5a4146" d="M368.226 227.942v5.626c0 6.893 1.111 13.74 3.291 20.279l12.741 38.224h24.048v-88.177h-16.032c-13.281-.001-24.048 10.766-24.048 24.048z"/>
	<path style="fill:#694b4b" d="m478.601 242.435-14.182 49.636-64.129-56.113c-8.854 0-16.032-7.178-16.032-16.032 0-13.282 10.767-24.048 24.048-24.048h72.145v33.344a48.051 48.051 0 0 1-1.85 13.213z"/>
	<path style="fill:#e6af78" d="M400.29 316.118h48.1v48.1h-48.1z"/>
	<path style="fill:#d5dced" d="m487.058 346.614-38.673-11.049-24.046 28.65-24.048-28.65-38.671 11.049a24.049 24.049 0 0 0-17.442 23.123v66.623H504.5v-66.622a24.05 24.05 0 0 0-17.442-23.124z"/>
	<path style="fill:#f0c087" d="M424.339 324.135c-26.563 0-48.097-21.534-48.097-48.097a38.71 38.71 0 0 1 11.336-27.369l7.895-7.895c3.078-3.078 7.287-4.848 11.637-4.711 25.625.808 48.307 6.298 60.706 18.407 3.035 2.964 4.619 7.111 4.619 11.353v10.214c.001 26.564-21.533 48.098-48.096 48.098z"/>
	<path style="fill:#e6af78" d="M400.29 276.038c0-9.247 7.766-16.597 16.994-16.009 16.183 1.032 40.196 3.737 54.928 10.824-.481-3.382-1.934-13.977-4.397-16.383-12.398-12.109-35.08-17.599-60.705-18.407h-.001c-4.35-.137-8.559 1.634-11.637 4.711l-7.895 7.895a38.703 38.703 0 0 0-11.336 27.369c0 21.934 14.697 40.402 34.77 46.185-6.681-8.244-10.722-18.707-10.722-30.153v-16.032h.001z"/>
	<path style="fill:#c7cfe2" d="M472.435 393.623a24.05 24.05 0 0 1 7.044-17.005l20.635-20.635c2.758 3.942 4.386 8.688 4.386 13.754v66.623h-32.065v-42.737z"/>
	<path style="fill:#ff507d" d="m371.167 348.524-67.07-24.389L256 340.167l-48.097-16.032-67.07 24.389a32.065 32.065 0 0 0-21.107 30.134v57.702h272.548v-57.702a32.065 32.065 0 0 0-21.107-30.134z"/>
	<path style="fill:#d23c69" d="M383.646 356.812c5.413 5.81 8.628 13.547 8.628 21.847v57.703h-48.097v-26.799c0-8.504 3.378-16.66 9.391-22.673l30.078-30.078z"/>
	<path style="fill:#5a4146" d="M344.177 158.82V91.667c0-8.854-7.178-16.032-16.032-16.032h-96.194c-35.417 0-64.129 28.712-64.129 64.129v19.056a80.15 80.15 0 0 0 4.114 25.349l2.668 8.005a24.059 24.059 0 0 1 1.234 7.605v4.114h160.323v-4.114c0-2.585.417-5.153 1.234-7.605l2.668-8.005a80.145 80.145 0 0 0 4.114-25.349z"/>
	<path style="fill:#694b4b" d="M207.903 108.201c0 17.985 14.58 32.566 32.566 32.566h4.509l2.177 63.127h89.007v-4.114c0-2.585.417-5.152 1.234-7.605l2.668-8.005a80.15 80.15 0 0 0 4.114-25.349V91.667c0-8.855-7.178-16.032-16.032-16.032H240.47c-17.987 0-32.567 14.58-32.567 32.566z"/>
	<path style="fill:#e6af78" d="M207.9 268.018h96.19v72.14H207.9z"/>
	<path style="fill:#d29b6e" d="M207.903 304.301c14.398 7.511 30.734 11.818 48.097 11.818s33.699-4.307 48.097-11.818v-36.279h-96.194v36.279z"/>
	<path style="fill:#d23c69" d="m256 340.167-25.566 25.566c-3.436 3.436-9.116 3.049-12.054-.822l-26.509-34.929 6.934-14.612c2.046-4.312 7.383-5.892 11.447-3.388L256 340.167zM256 340.167l25.566 25.566c3.436 3.436 9.116 3.049 12.054-.822l26.509-34.929-6.934-14.612c-2.046-4.312-7.383-5.892-11.447-3.388L256 340.167z"/>
	<path style="fill:#f0c087" d="M256 292.071c-44.272 0-80.161-35.889-80.161-80.161v-8.016l13.34-8.893a24.05 24.05 0 0 0 10.709-20.01v-27.21s64.13-24.049 112.226 16.033v11.173a24.055 24.055 0 0 0 10.709 20.014l13.339 8.893v8.016c-.001 44.271-35.89 80.161-80.162 80.161z"/>
	<path style="fill:#d23c69" d="M128.354 356.812c-5.413 5.81-8.628 13.547-8.628 21.847v57.703h48.097v-26.799c0-8.504-3.378-16.66-9.391-22.673l-30.078-30.078z"/>
	<path style="fill:#e6af78" d="M238.036 167.048c17.431-2.186 47.943-3.441 74.077 7.938v-11.173c-48.097-40.082-112.226-16.033-112.226-16.033v27.21A24.048 24.048 0 0 1 189.178 195l-13.339 8.893v8.016c0 40.986 30.779 74.728 70.474 79.52h.002c-13.833-14.404-22.379-33.924-22.379-55.471v-52.986c-.001-8.124 6.04-14.913 14.1-15.924z"/>
	<path d="M445.012 250.677a7.502 7.502 0 0 0 6.708-13.417c-17.422-8.71-50.087-8.811-51.469-8.811a7.5 7.5 0 0 0 0 15c8.429.001 32.902 1.299 44.761 7.228z"/>
	<path d="m489.112 344.041-30.975-8.85a3.145 3.145 0 0 1-2.271-3.011v-10.339a56.368 56.368 0 0 0 7.171-5.881c10.89-10.568 16.887-24.743 16.887-39.915v-14.267l2.995-5.989a47.846 47.846 0 0 0 5.024-21.286v-38.65a7.5 7.5 0 0 0-7.5-7.5H408.27c-26.244 0-47.596 21.352-47.596 47.596v.447a39.78 39.78 0 0 0 4.178 17.699l3.841 7.682v12.25c0 19.414 9.567 36.833 24.058 47.315l.002 10.836c0 1.671 0 2.363-6.193 4.133l-15.114 4.318-43.721-15.898a7.491 7.491 0 0 0-2.044-5.742l-13.971-14.678v-24.64a90.427 90.427 0 0 0 4.344-3.789c17.625-16.52 27.733-39.844 27.733-63.991v-19.678c5.322-11.581 8.019-23.836 8.019-36.457v-80.19a7.5 7.5 0 0 0-7.5-7.5H232.037c-39.51 0-71.653 32.144-71.653 71.653v16.039c0 12.621 2.697 24.876 8.019 36.457v16.931c0 28.036 12.466 53.294 32.077 69.946v25.22l-13.971 14.678a7.491 7.491 0 0 0-2.044 5.742l-46.145 16.779a39.33 39.33 0 0 0-9.272 4.858l-7.246-3.623c21.57-9.389 28.403-22.594 28.731-23.25a7.498 7.498 0 0 0 0-6.708c-5.407-10.814-6.062-30.635-6.588-46.561-.175-5.302-.341-10.311-.658-14.771-2.557-35.974-29.905-63.103-63.615-63.103s-61.059 27.128-63.615 63.103c-.317 4.461-.483 9.47-.658 14.773-.526 15.925-1.182 35.744-6.588 46.558a7.498 7.498 0 0 0 0 6.708c.328.656 7.147 13.834 28.76 23.234l-20.127 10.063C6.684 358.175 0 368.99 0 381.02v55.409a7.5 7.5 0 0 0 15 0V381.02c0-6.312 3.507-11.987 9.152-14.81l25.063-12.531 8.718 8.285a31.466 31.466 0 0 0 21.739 8.688 31.475 31.475 0 0 0 21.739-8.688l8.717-8.284 8.172 4.086c-3.848 6.157-6.032 13.377-6.032 20.94v57.725a7.5 7.5 0 0 0 15 0v-57.725c0-10.296 6.501-19.578 16.178-23.097l48.652-17.691 20.253 30.381a15.462 15.462 0 0 0 11.383 6.835 15.458 15.458 0 0 0 12.504-4.47l12.356-12.356v78.124a7.5 7.5 0 0 0 15 0v-78.124l12.356 12.356a15.452 15.452 0 0 0 10.957 4.547c.513 0 1.029-.025 1.546-.076a15.462 15.462 0 0 0 11.384-6.835l20.254-30.38 48.651 17.691c9.676 3.519 16.178 12.801 16.178 23.097v57.725a7.5 7.5 0 0 0 15 0v-57.725c0-10.428-4.143-20.208-11.093-27.441l1.853-.529c1.869-.534 4.419-1.265 6.979-2.52l19.149 19.149v69.066a7.5 7.5 0 0 0 15 0v-69.066l19.016-19.016c1.011.514 2.073.948 3.191 1.267l30.976 8.85c7.07 2.02 12.009 8.567 12.009 15.921v62.044a7.5 7.5 0 0 0 15 0v-62.044c0-14.019-9.412-26.497-22.888-30.348zm-377.883-13.222.001-8.945a55.477 55.477 0 0 0 19.801-24.449c.899 6.458 2.226 12.576 4.27 17.918-2.987 3.639-10.057 10.43-24.072 15.476zM31.02 252.52c.958-13.476 6.343-25.894 15.163-34.968 8.899-9.156 20.793-14.198 33.491-14.198s24.591 5.042 33.491 14.198c8.82 9.074 14.205 21.492 15.163 34.968.296 4.177.458 9.047.628 14.203l.045 1.338c-8.16-12.572-20.762-21.837-37.045-27.069-15.043-4.833-27.981-4.534-28.527-4.52a7.5 7.5 0 0 0-5.191 2.291l-13.532 14.034a7.5 7.5 0 1 0 10.798 10.412l11.26-11.677c9.697.474 40.894 4.102 53.027 30.819-3.053 19.689-19.975 34.31-40.115 34.31-22.396 0-40.615-18.22-40.615-40.615a7.5 7.5 0 0 0-7.5-7.5c-.42 0-.83.043-1.231.11l.065-1.93c.167-5.157.328-10.028.625-14.206zm-6.975 62.821c2.048-5.354 3.376-11.486 4.275-17.959 4.136 9.917 11.063 18.383 19.795 24.423v8.989c-14.029-5.048-21.066-11.778-24.07-15.453zm44.222 35.75-6.975-6.628a15.518 15.518 0 0 0 1.824-7.324v-7.994a55.427 55.427 0 0 0 16.558 2.517c5.757 0 11.316-.886 16.557-2.512l-.001 7.988c0 2.62.646 5.121 1.824 7.327l-6.974 6.627c-6.397 6.078-16.418 6.077-22.813-.001zm115.136-141.946v-18.608a7.501 7.501 0 0 0-.746-3.261c-4.826-9.994-7.273-20.598-7.273-31.518v-16.039c0-31.239 25.415-56.653 56.653-56.653h104.769v72.692c0 10.92-2.447 21.524-7.273 31.518a7.501 7.501 0 0 0-.746 3.261v21.355c0 20.311-8.165 39.15-22.991 53.047a74.636 74.636 0 0 1-5.758 4.875c-.044.03-.086.063-.129.094-13.889 10.545-30.901 15.67-48.667 14.519-38.041-2.463-67.839-35.531-67.839-75.282zm66.868 90.25c1.977.128 3.942.191 5.901.191 14.341 0 28.143-3.428 40.538-9.935v13.7l-40.615 27.762-40.615-27.762v-14c10.509 5.681 22.276 9.234 34.791 10.044zm-24.639 60.661c-.052.052-.173.175-.418.149a.477.477 0 0 1-.381-.229l-23.325-34.988 7.506-7.887 35.385 24.187-18.767 18.768zm61.725-.079a.477.477 0 0 1-.381.229c-.245.031-.365-.098-.418-.149l-18.767-18.767 35.385-24.188 7.507 7.887-23.326 34.988zm96.336-85.948v-14.021a7.493 7.493 0 0 0-.792-3.354l-4.633-9.266a24.706 24.706 0 0 1-2.594-10.991v-.447c0-17.974 14.623-32.596 32.596-32.596h64.673v31.15a32.77 32.77 0 0 1-3.441 14.578l-3.786 7.572a7.496 7.496 0 0 0-.792 3.354v16.038c0 11.08-4.38 21.432-12.333 29.15-7.949 7.714-18.45 11.788-29.537 11.446-21.704-.651-39.361-19.768-39.361-42.613zm38.91 57.606a55.71 55.71 0 0 0 18.263-2.475v3.02c0 1.496.188 2.962.542 4.371l-17.1 17.099-17.02-17.019c.297-1.349.465-2.826.464-4.455l-.001-3.165a52.589 52.589 0 0 0 14.852 2.624z"/>
	<path d="M472.423 380.814a7.5 7.5 0 0 0-7.5 7.5v48.115a7.5 7.5 0 0 0 15 0v-48.115a7.5 7.5 0 0 0-7.5-7.5zM39.577 390.728a7.5 7.5 0 0 0-7.5 7.5v38.201a7.5 7.5 0 0 0 15 0v-38.201a7.5 7.5 0 0 0-7.5-7.5zM207.46 154.518c0-.255.168-.473.392-.507 9.667-1.457 28.85-3.705 48.725-2.38 23.388 1.557 40.328 7.428 50.349 17.45a7.5 7.5 0 0 0 10.606 0 7.5 7.5 0 0 0 0-10.606c-28.366-28.366-87.715-22.943-111.917-19.295-7.623 1.149-13.155 7.6-13.155 15.339v17.278a7.5 7.5 0 0 0 15 0v-17.279zM167.884 396.853a7.5 7.5 0 0 0-7.5 7.5v32.077a7.5 7.5 0 0 0 15 0v-32.077a7.5 7.5 0 0 0-7.5-7.5zM344.306 396.853a7.5 7.5 0 0 0-7.5 7.5v32.077a7.5 7.5 0 0 0 15 0v-32.077a7.5 7.5 0 0 0-7.5-7.5z"/>
</svg>
