<svg height="512pt" viewBox="0 -120 516 768" width="512pt" xmlns="http://www.w3.org/2000/svg">
  <path d="m105.027344 341.585938v-171.167969c0-5.089844 4.125-9.21875 9.214844-9.21875h283.433593c5.09375 0 9.21875 4.128906 9.21875 9.21875v171.167969c0 5.089843-4.125 9.214843-9.21875 9.214843h-283.433593c-5.089844 0-9.214844-4.125-9.214844-9.214843zm0 0"
        fill="#f3e8d6"/>
  <path d="m397.675781 161.199219h-41.105469v138.644531c0 5.089844-4.128906 9.214844-9.21875 9.214844h-242.324218v32.527344c0 5.089843 4.125 9.214843 9.214844 9.214843h283.433593c5.09375 0 9.21875-4.125 9.21875-9.214843v-171.167969c0-5.089844-4.128906-9.21875-9.21875-9.21875zm0 0"
        fill="#e8ddcd"/>
  <path d="m403.882812 348.386719c-16.1875-13.773438-94.914062-79.507813-130.453124-109.171875-10.128907-8.457032-24.835938-8.484375-34.996094-.070313-34.640625 28.6875-110.292969 91.378907-130.882813 108.765625 1.679688 1.777344 4.054688 2.890625 6.691407 2.890625h283.433593c2.394531 0 4.566407-.917969 6.207031-2.414062zm0 0"
        fill="#ddd1bf"/>
  <path d="m347.351562 309.058594h-193.226562c-20.375 16.929687-38.117188 31.710937-46.574219 38.851562 1.523438 1.609375 3.613281 2.675782 5.953125 2.863282h.003906c.074219.003906.152344.007812.226563.011718.007813 0 .011719.003906.019531.003906.160156.007813.324219.011719.488282.011719h283.433593.214844.011719c.050781-.003906.101562-.003906.15625-.007812.023437 0 .046875 0 .070312-.003907.0625-.003906.121094-.007812.183594-.011718h.035156c.070313-.003906.140625-.011719.207032-.015625.003906 0 .007812-.003907.011718-.003907 2.039063-.195312 3.882813-1.0625 5.316406-2.371093-7.265624-6.183594-27.132812-22.835938-50.042968-41.996094-1.664063 1.648437-3.957032 2.667969-6.488282 2.667969zm0 0"
        fill="#d1c3b0"/>
  <path d="m108.378906 163.308594v-.003906c.007813-.003907.015625-.011719.023438-.015626-.007813.003907-.015625.011719-.023438.019532l137.695313 107.957031c5.664062 4.441406 13.625 4.445313 19.296875.011719l138.167968-107.96875c-.011718-.007813-.015624-.015625-.027343-.023438-1.589844-1.304687-3.621094-2.085937-5.835938-2.085937h-283.433593c-2.566407 0-4.886719 1.050781-6.558594 2.742187.222656-.222656.453125-.433594.695312-.632812zm0 0"
        fill="#eadcc7"/>
  <path d="m400.09375 161.519531c-.011719 0-.019531-.003906-.03125-.007812-.050781-.011719-.105469-.027344-.15625-.039063-.019531-.003906-.035156-.011718-.050781-.015625-.050781-.011719-.101563-.023437-.152344-.035156-.015625-.003906-.035156-.007813-.050781-.011719-.050782-.007812-.101563-.019531-.152344-.03125-.015625 0-.035156-.003906-.050781-.007812-.105469-.023438-.210938-.039063-.320313-.058594-.007812 0-.019531-.003906-.03125-.003906-.039062-.007813-.078125-.011719-.121094-.019532-.03125-.003906-.0625-.007812-.09375-.011718-.039062-.003906-.074218-.007813-.109374-.011719-.039063-.003906-.074219-.011719-.113282-.015625-.035156-.003906-.070312-.007812-.105468-.011719-.035157 0-.074219-.003906-.109376-.007812-.035156-.003907-.074218-.007813-.109374-.007813-.039063-.003906-.078126-.007812-.121094-.007812-.03125-.003906-.0625-.003906-.09375-.003906-.046875-.003907-.09375-.003907-.136719-.007813-.03125 0-.058594 0-.085937-.003906-.0625 0-.125 0-.1875 0-.011719 0-.023438 0-.035157 0h-41.105469v38.8125l46.96875-36.703125c-.007812-.007813-.015624-.015625-.027343-.023438-.941407-.773437-2.035157-1.359375-3.230469-1.714844-.007812 0-.011719 0-.019531-.003906-.054688-.015625-.109375-.03125-.167969-.046875zm0 0"
        fill="#ddd1bf"/>
  <path d="m415.097656 446.066406c-1.265625-1.339844-2.9375-2.117187-4.671875-2.292968l-43.636719-7.429688c-4.082031-.695312-7.957031 2.050781-8.652343 6.132812-.691407 4.085938 2.054687 7.957032 6.136719 8.652344l26.648437 4.535156c-60.386719 40.917969-136.503906 52.332032-206.992187 30.324219-36.851563-11.503906-70.859376-32.117187-98.347657-59.605469-51.019531-51.019531-76.34375-121.515624-69.476562-193.417968 4.257812-44.605469 20.78125-86.964844 47.789062-122.511719 2.507813-3.296875 1.863281-8-1.433593-10.507813-3.296876-2.503906-8-1.863281-10.507813 1.433594-28.695313 37.769532-46.257813 82.777344-50.777344 130.160156-7.292969 76.371094 19.609375 151.253907 73.800781 205.445313 29.195313 29.199219 65.328126 51.09375 104.484376 63.320313 25.144531 7.851562 50.953124 11.695312 76.585937 11.695312 49.8125 0 98.9375-14.53125 141.054687-42.425781l-6.078124 23.074219c-1.054688 4.003906 1.335937 8.109374 5.339843 9.164062.640625.167969 1.285157.246094 1.917969.246094 3.320312 0 6.359375-2.222656 7.246094-5.589844l11.40625-43.308594c.535156-2.035156.191406-4.199218-.949219-5.972656-.261719-.402344-.558594-.777344-.886719-1.121094zm0 0"/>
  <path d="m498.589844 174.347656c-12.632813-37.636718-33.375-71.058594-61.648438-99.332031-86.671875-86.671875-221.710937-99.191406-322.121094-32.597656l6.074219-23.066407c1.054688-4.003906-1.335937-8.105468-5.339843-9.160156-4.003907-1.050781-8.105469 1.335938-9.160157 5.339844l-11.410156 43.308594c-.535156 2.035156-.191406 4.203125.949219 5.96875 1.140625 1.769531 2.972656 2.980468 5.046875 3.332031l44.148437 7.515625c.425782.070312.851563.105469 1.269532.105469 3.585937 0 6.757812-2.582031 7.382812-6.238281.691406-4.085938-2.050781-7.957032-6.136719-8.652344l-26.65625-4.535156c94.730469-64.269532 223.144531-52.917969 305.351563 29.285156 52.667968 52.667968 77.753906 125.339844 68.832031 199.382812-5.140625 42.632813-21.597656 83.136719-47.601563 117.136719-2.515624 3.289063-1.886718 7.996094 1.402344 10.511719 1.359375 1.039062 2.960938 1.542968 4.550782 1.542968 2.253906 0 4.484374-1.011718 5.960937-2.945312 27.628906-36.125 45.117187-79.160156 50.578125-124.449219 4.539062-37.691406.574219-76.574219-11.472656-112.453125zm0 0"/>
  <path d="m397.675781 358.300781c9.21875 0 16.714844-7.5 16.714844-16.714843v-171.167969c0-5.058594-2.257813-9.597657-5.816406-12.664063-.101563-.09375-.207031-.183594-.308594-.269531-.765625-.625-1.585937-1.179687-2.441406-1.660156-.074219-.039063-.144531-.078125-.214844-.117188-.019531-.011719-.039063-.019531-.054687-.03125-2.246094-1.203125-4.792969-1.910156-7.5-1.96875-.015626 0-.03125 0-.046876 0-.109374-.003906-.21875-.007812-.332031-.007812h-283.433593c-.109376 0-.21875.003906-.328126.003906-.019531 0-.042968.003906-.066406.003906-.097656 0-.195312.003907-.292968.007813-.035157 0-.070313.003906-.105469.003906-.070313.003906-.144531.007812-.21875.011719-.066407.003906-.132813.007812-.199219.011719-.039062.003906-.082031.007812-.121094.011718-3.417968.265625-6.625 1.5625-9.265625 3.734375-.042969.035157-.089843.074219-.132812.109375-.398438.335938-.785157.695313-1.15625 1.070313-.003907.003906-.003907.003906-.007813.007812-.089844.09375-.179687.1875-.265625.285157-2.824219 2.996093-4.554687 7.027343-4.554687 11.457031v171.164062c0 9.21875 7.5 16.714844 16.714844 16.714844h283.433593zm-13.214843-189.601562-123.707032 96.671875c-2.960937 2.3125-7.09375 2.3125-10.054687-.007813l-123.289063-96.664062zm-271.9375 7.386719 128.921874 101.082031c4.207032 3.292969 9.246094 4.941406 14.285157 4.941406 5.027343 0 10.058593-1.640625 14.257812-4.921875l129.40625-101.125v158.707031c-18.285156-15.40625-49.769531-41.703125-78.78125-65.925781-3.179687-2.65625-7.90625-2.230469-10.5625.949219-2.652343 3.179687-2.226562 7.910156.949219 10.5625 27.238281 22.738281 56.648438 47.308593 75.242188 62.949219h-261.546876c17.445313-14.601563 42.683594-35.546876 75.734376-62.929688 3.191406-2.644531 3.632812-7.371094.992187-10.558594-2.644531-3.1875-7.371094-3.632812-10.558594-.992187-34.703125 28.753906-60.804687 50.417969-78.339843 65.109375zm0 0"/>
</svg>