<svg xmlns="http://www.w3.org/2000/svg" viewBox="0 0 512 512"><path d="M390.673 241h120.885c-1.808-31.469-9.289-61.864-21.96-90H379.432c6.393 27.616 10.306 57.932 11.241 90zM371.181 121h102.394a258.018 258.018 0 0 0-36.616-46.02C388.564 26.629 324.219 0 255.779 0c49.43 0 91.867 47.868 115.402 121zM390.051 284.915l108.501 53.019a257.465 257.465 0 0 0 13.008-66.933H390.658a500.005 500.005 0 0 1-.607 13.914zM255.779 0c-68.44 0-132.785 26.629-181.18 74.98A258.018 258.018 0 0 0 37.983 121h102.394C163.912 47.868 206.349 0 255.779 0zM270.792 479.529c20.845-6.875 37.545-27.012 48.789-45.765L308.597 391h-37.805zM307.268 271h-36.476v90h30.099l-10.884-42.374c-4.762-18.545 2.61-37.072 17.261-47.626zM348.502 151h-77.709v90h89.838c-.995-31.789-5.136-62.284-12.129-90zM270.792 32.552V121h68.627c-3.625-10.135-7.678-19.748-12.152-28.727-15.881-31.867-35.869-52.779-56.475-59.721zM240.766 479.448V391h-68.627c3.625 10.135 7.678 19.748 12.152 28.727 15.881 31.867 35.869 52.779 56.475 59.721zM140.377 391H37.983c46.111 73.948 126.989 121 217.796 121-49.43 0-91.867-47.868-115.402-121zM329.387 471.94C310.521 494.858 285.354 512 255.779 512c27.587 0 54.784-4.42 80.627-12.966-.491-1.586-.029.122-7.019-27.094zM132.126 151H21.96C9.289 179.136 1.808 209.531 0 241h120.885c.934-32.068 4.848-62.384 11.241-90zM120.885 271H0c1.808 31.469 9.289 61.864 21.96 90h110.166c-6.393-27.616-10.307-57.932-11.241-90zM240.766 151h-77.709c-6.993 27.716-11.135 58.211-12.128 90h89.838v-90zM240.766 271h-89.838c.993 31.789 5.135 62.284 12.128 90h77.709v-90zM240.766 32.552c-20.606 6.942-40.594 27.854-56.475 59.721-4.475 8.979-8.527 18.592-12.152 28.727h68.627zM485.222 416.684l21.411-17.922c8.32-6.963 6.707-20.207-3.045-24.973L340.23 293.966c-11.485-5.609-24.316 4.831-21.138 17.203l45.796 178.296c2.742 10.676 15.725 14.851 24.183 7.77l21.363-17.881 22.755 27.255c5.333 6.387 14.833 7.204 21.179 1.882l51.772-43.403c6.339-5.313 7.179-14.75 1.879-21.099z"/></svg>