<svg xmlns="http://www.w3.org/2000/svg" viewBox="0 0 490.353 490.353" width="512" height="512">
  <path d="M376.777 222.377l-26.1-4.4c-2.5-9.8-6.4-19.2-11.7-28.1l15.3-21.5c2.9-4.1 2.5-9.5-1-13l-9.2-9.2-9.2-9.2c-3.5-3.2-8.9-3.6-12.8-.8l-21.5 15.3c-8.9-5.2-18.3-9.1-28.1-11.6l-4.4-26c-.8-4.8-5-8.3-9.8-8.3h-26c-4.8 0-9 3.5-9.8 8.3l-4.4 26.1c-10 2.5-19.6 6.5-28.7 12.1l-21.3-15.1c-4-2.8-9.4-2.4-12.9 1.1l-9.2 9.2-9.2 9.2c-3.4 3.4-3.9 8.9-1.1 12.9l15.4 21.7c-5.2 8.9-9 18.5-11.5 28.1l-25.9 4.1c-4.8.8-8.3 5-8.3 9.8v26c0 4.8 3.5 9 8.3 9.8l26.2 4.4c2.6 9.7 6.5 19.1 11.8 28l-15.1 21.3c-2.8 4-2.4 9.4 1.1 12.9l9.2 9.2 9.2 9.2c3.4 3.4 8.9 3.9 12.9 1.1l21.7-15.4c8.9 5.2 18.5 9 28.1 11.5l4.3 25.8c.8 4.8 5 8.3 9.8 8.3h26c4.8 0 9-3.5 9.8-8.3l4.4-26.2c9.5-2.5 18.8-6.3 27.4-11.4l21.5 15.3c4 2.8 9.4 2.4 12.9-1.1l9.2-9.2 9.2-9.2c3.4-3.4 3.9-8.9 1.1-12.9l-15.2-21.7c5.2-8.9 9.1-18.3 11.6-28.1l26-4.4c4.8-.8 8.3-5 8.3-9.8v-26c0-4.8-3.5-9-8.3-9.8zm-87.9 65.1c-23.7 23.7-62.1 23.8-85.9.1-23.7-23.7-23.8-62.1-.1-85.9 23.7-23.7 62.1-23.8 85.9-.1 23.8 23.8 23.8 62.2.1 85.9z" fill="#91DC5A"/>
  <circle cx="245.977" cy="244.577" r="35.9" fill="#91DC5A"/>
  <path d="M376.177 64.477l-19.6 26.9c49.2 35.7 78.5 93.2 78.5 153.8 0 104.7-85.2 189.9-189.9 189.9v-19.4c0-2.1-2.3-3.3-4.1-2.1l-52.4 36c-1.5 1-1.5 3.2 0 4.3l52.4 36c1.7 1.2 4.1 0 4.1-2.1v-19.4c123.1 0 223.2-100.1 223.2-223.2 0-71.2-34.4-138.7-92.2-180.7zM301.677 36.477l-52.4-36c-1.7-1.2-4.1 0-4.1 2.1v19.4c-123.1.1-223.2 100.2-223.2 223.3 0 71.3 34.4 138.8 92.2 180.8l19.6-26.9c-49.2-35.7-78.5-93.3-78.5-153.9 0-104.7 85.2-190 189.9-190v19.4c0 2.1 2.3 3.3 4.1 2.1l52.4-36c1.5-1 1.5-3.2 0-4.3z" fill="#91DC5A"/>
</svg>
