<?xml version="1.0" encoding="iso-8859-1"?>
<!-- Generator: Adobe Illustrator 19.0.0, SVG Export Plug-In . SVG Version: 6.00 Build 0)  -->
<svg version="1.1" id="Capa_1" xmlns="http://www.w3.org/2000/svg" xmlns:xlink="http://www.w3.org/1999/xlink" x="0px" y="0px"
	 viewBox="0 0 512 512" style="enable-background:new 0 0 512 512;" xml:space="preserve">
<path style="fill:#E6E7E8;" d="M487.979,100.025c-35.688,0-443.944,0-463.958,0c-9.125,0-16.521,7.396-16.521,16.521
	c0,11.974,0,270.611,0,279.476c0,9.125,7.396,16.522,16.521,16.522c43.002,0,450.859,0,463.958,0
	c9.125,0,16.521-7.397,16.521-16.522c0-8.869,0-267.504,0-279.476C504.5,107.42,497.103,100.025,487.979,100.025z"/>
<path style="fill:#DADADA;" d="M34.083,396.02c0-8.869,0-267.504,0-279.476c0-9.125,7.396-16.521,16.521-16.521H24.021
	c-9.125,0-16.521,7.396-16.521,16.521v192.35v87.126c0,9.125,7.396,16.522,16.521,16.522h26.583
	C41.48,412.543,34.083,405.145,34.083,396.02z"/>
<path style="fill:#C0C0C0;" d="M255.999,229.463c14.531,0,27.053,8.575,32.8,20.936l211.706-144.611
	c-3.03-3.523-7.514-5.766-12.527-5.766c-11.16,0-444.827,0-463.958,0c-5.011,0-9.493,2.239-12.522,5.761L223.2,250.397
	C228.949,238.038,241.47,229.463,255.999,229.463z"/>
<path style="fill:#A9A9AA;" d="M11.518,105.767c-0.006,0.007-0.012,0.013-0.017,0.02l22.582,15.426v-4.667
	c0-9.125,7.396-16.521,16.521-16.521C25.492,100.276,18.15,98.067,11.518,105.767z"/>
<path style="fill:#D22E2E;" d="M255.999,228.463c-20.491,0-37.162,16.671-37.162,37.162c0,20.49,16.671,37.161,37.162,37.161
	c20.49,0,37.161-16.671,37.161-37.161C293.162,245.134,276.491,228.463,255.999,228.463z"/>
<path style="fill:#AD1E1E;" d="M277.001,291.977c-20.491,0-37.162-16.671-37.162-37.161c0-10.081,4.04-19.23,10.579-25.933
	c-17.853,2.701-31.58,18.147-31.58,36.742c0,20.49,16.671,37.161,37.162,37.161c10.411,0,19.829-4.309,26.583-11.231
	C280.761,291.833,278.898,291.977,277.001,291.977z"/>
<path d="M487.979,92.468C-9.278,92.74,16.016,88.602,5.745,100.927C2.167,105.123,0,110.556,0,116.49v279.476
	c0,13.246,10.776,24.022,24.021,24.022h47.523c4.143,0,7.5-3.357,7.5-7.5s-3.357-7.5-7.5-7.5H24.021
	c-4.974,0-9.021-4.047-9.021-9.022v-278.76l199.124,136.022c-8.284,28.051,12.901,56.004,41.875,56.004
	c29.007,0,50.144-27.991,41.875-56.002l125.972-86.047c3.42-2.337,4.299-7.003,1.963-10.425c-2.338-3.42-7.005-4.301-10.425-1.963
	l-124.25,84.871c-17.803-24.023-53.045-23.248-70.269-0.002L27.344,107.469h457.326l-47.907,32.724
	c-3.42,2.337-4.299,7.003-1.963,10.425c2.337,3.419,7.003,4.299,10.425,1.963l51.775-35.366v278.751
	c0,4.975-4.046,9.022-9.021,9.022H98.545c-4.143,0-7.5,3.357-7.5,7.5s3.357,7.5,7.5,7.5h389.434
	c13.245,0,24.021-10.777,24.021-24.022V116.49C512,103.148,501.108,92.468,487.979,92.468z M255.999,294.231
	c-22.64,0-36.243-25.106-24.181-44.019c15.46-24.276,52.842-12.958,52.842,15.358C284.661,281.375,271.803,294.231,255.999,294.231z
	"/>
<path d="M349.877,341.562h107.636c4.143,0,7.5-3.357,7.5-7.5s-3.357-7.5-7.5-7.5H349.877c-4.143,0-7.5,3.357-7.5,7.5
	S345.735,341.562,349.877,341.562z"/>
<path d="M349.877,373.894h57.386c4.143,0,7.5-3.357,7.5-7.5c0-4.143-3.357-7.5-7.5-7.5h-57.386c-4.143,0-7.5,3.357-7.5,7.5
	C342.377,370.537,345.735,373.894,349.877,373.894z"/>
<path d="M349.877,309.232h107.636c4.143,0,7.5-3.357,7.5-7.5s-3.357-7.5-7.5-7.5H349.877c-4.143,0-7.5,3.357-7.5,7.5
	S345.735,309.232,349.877,309.232z"/>
<path d="M236.664,265.571c0,10.003,15.668,10.014,15.668,0C252.332,255.568,236.664,255.558,236.664,265.571z"/>
<path d="M259.666,265.571c0,4.143,3.357,7.5,7.5,7.5h0.667c4.143,0,7.5-3.357,7.5-7.5
	C275.334,255.568,259.666,255.558,259.666,265.571z"/>
<g>
</g>
<g>
</g>
<g>
</g>
<g>
</g>
<g>
</g>
<g>
</g>
<g>
</g>
<g>
</g>
<g>
</g>
<g>
</g>
<g>
</g>
<g>
</g>
<g>
</g>
<g>
</g>
<g>
</g>
</svg>
