<svg viewBox="0 -120 516 768" xmlns="http://www.w3.org/2000/svg">
	<path clip-rule="evenodd" d="M287.249 190.45c-17.476 0-31.647 26.507-48.802 38.422-46.516 32.319-41.825 112.613 28.198 141.478 40.339 16.628 136.671 43.268 245.355 23.311V207.152c-131.762-16.101-224.751-16.702-224.751-16.702z" fill="#fed2a4" fill-rule="evenodd"/>
	<path clip-rule="evenodd" d="M316.421 90.054l-27.693-42.741c-19.379-29.304-52.956-25.586-66.862-1.2L194.027 87.8l14.988 49.65 100.761-2.313z" fill="#ffbd86" fill-rule="evenodd"/>
	<path clip-rule="evenodd" d="M316.421 90.054l-27.693-42.741c-17.886-27.05-47.863-25.967-63.319-6.47 12.617-.41 25.995 6.001 35.743 20.726l36.3 56.061c20.052 6.499 28.073-12.002 18.969-27.576z" fill="#f6a96c" fill-rule="evenodd"/>
	<path clip-rule="evenodd" d="M502.954 186.66l-90.28-140.548c-16.598-27.284-48.741-25.615-66.042 0l-30.211 43.941-26.024 37.852c-10.07 14.608-22.102 30.651 7.172 48.332 45.257 9.221 66.891 3.952 105.649 3.279 41.511.733 71.487 10.423 99.736 7.144z" fill="#ffe177" fill-rule="evenodd"/>
	<path clip-rule="evenodd" d="M502.954 186.66l-90.28-140.548c-15.574-25.586-44.848-25.703-62.705-4.45 13.203-1.288 26.61 5.006 35.509 19.673l68.472 106.56c15.896 21.253 32.435 15.75 49.004 18.765z" fill="#ffd15b" fill-rule="evenodd"/>
	<path clip-rule="evenodd" d="M502.954 186.66c-34.192-17.067-66.832-25.762-108.313-26.494-38.759.673-62.997 1.171-97.072 16.072-18.413 5.709-21.868 16.277-11.388 30.914H512v-13.939c0-1.149-.64-2.208-1.657-2.741a733.18 733.18 0 00-7.389-3.812z" fill="#b87d72" fill-rule="evenodd"/>
	<path clip-rule="evenodd" d="M221.574 127.906l-56.235-81.793c-17.301-25.615-49.444-27.284-66.042 0L9.016 186.66c34.192-17.067 75.936-5.913 117.417-6.645 30.62.556 83.723 16.482 96.077 7.904 15.633-12.823 26.611-39.726-.936-60.013z" fill="#ffe177" fill-rule="evenodd"/>
	<path clip-rule="evenodd" d="M151.952 260.578c15.837-10.246 37.773-50.25 20.475-73.243L0 207.152v275.487a3.091 3.091 0 003.091 3.091h235.96c-173.712-44.263-87.099-225.152-87.099-225.152z" fill="#fed2a4" fill-rule="evenodd"/>
	<path clip-rule="evenodd" d="M512 393.661V207.152h-65.31c23.214 22.571 36.68 49.445 36.68 78.251 0 38.643-24.239 73.772-63.729 99.797 27.195 4.158 57.874 7.202 92.359 8.461z" fill="#ffbd86" fill-rule="evenodd"/>
	<path clip-rule="evenodd" d="M194.027 87.799l-28.688-41.687c-16.481-24.415-46.516-27.079-63.641-3.601 11.592.878 23.126 7.641 31.294 19.76l79.127 115.079c14.11-12.5 19.936-27.957 9.455-49.445z" fill="#ffd15b" fill-rule="evenodd"/>
	<path clip-rule="evenodd" d="M512 193.213c0-1.149-.64-2.208-1.657-2.741a722.333 722.333 0 00-7.388-3.811c-16.306-8.138-32.289-14.374-49.004-18.765-18.355-4.801-37.617-7.348-59.309-7.728-1.434.029-2.84.059-4.215.059 26.493 5.035 45.374 18.062 45.374 33.344 0 4.801-1.874 9.397-5.269 13.583H512z" fill="#ab695d" fill-rule="evenodd"/>
	<path d="M438.113 298.194h-20.199a7.726 7.726 0 110-15.452h20.199c4.424 0 8.023-3.6 8.023-8.023V254.08a7.726 7.726 0 1115.452 0v20.639c.001 12.944-10.531 23.475-23.475 23.475z" fill="#6fd7a3"/>
	<path clip-rule="evenodd" d="M387.703 190.114c-16.598 0-30.181 13.584-30.181 30.182v36.274h-16.247c-4.424 0-8.023-3.6-8.023-8.024v-13.495a7.726 7.726 0 10-15.452 0v13.495c0 12.946 10.531 23.477 23.475 23.477h16.247v59.019h60.392V220.296c0-16.598-13.583-30.182-30.211-30.182z" fill="#6fd7a3" fill-rule="evenodd"/>
	<path clip-rule="evenodd" d="M399.955 331.043h17.959V220.297c0-16.599-13.583-30.182-30.211-30.182a29.97 29.97 0 00-7.465.937c12.5 3.22 18.955 14.286 19.687 27.606.029.527.029 1.083.029 1.639v110.746z" fill="#3ec3a4" fill-rule="evenodd"/>
	<path d="M430.677 338.769h-85.919a7.726 7.726 0 110-15.452h85.919a7.726 7.726 0 110 15.452z" fill="#ffbd86"/>
	<path clip-rule="evenodd" d="M157.289 207.152c33.467 6.267 52.722-10.216 52.722-27.987-28.22-10.627-62.031-18.472-92.652-18.999-41.51.732-74.151 9.426-108.343 26.494a592.412 592.412 0 00-7.369 3.81A3.096 3.096 0 000 193.207v13.945z" fill="#b87d72" fill-rule="evenodd"/>
	<path clip-rule="evenodd" d="M210.011 179.166c-28.22-10.627-62.031-18.472-92.652-18.999-16.101.293-30.855 1.756-44.877 4.45 36.856.937 66.159 16.482 66.159 35.51 0 2.401-.468 4.742-1.347 7.026h19.994c36.739 1.356 54.929-11.419 52.723-27.987z" fill="#ab695d" fill-rule="evenodd"/>
	<path clip-rule="evenodd" d="M249.413 246.205c17.154-11.915 28.981-25.44 36.768-39.052 5.972-10.451 9.573-20.99 11.388-30.914 3.835-20.931-.381-39.17-7.172-48.332H221.574c10.978 22.541 4.069 38.438-11.563 51.26-13.203 10.802-32.64 19.438-52.722 27.987-19.701 8.373-40.047 16.687-55.884 26.933-148.243 96.107-36.066 207.38 137.645 251.643h269.859a3.091 3.091 0 003.091-3.091v-88.978c-116.188-4.216-189.636-29.099-229.976-45.727-70.023-28.865-79.127-69.41-32.611-101.729z" fill="#025f80" fill-rule="evenodd"/>
	<path clip-rule="evenodd" d="M282.024 347.934c-70.023-28.865-79.127-69.41-32.611-101.729 17.154-11.915 28.981-25.44 36.768-39.052 5.972-10.451 9.573-20.99 11.388-30.914 3.835-20.931-.381-39.17-7.172-48.332H261.24c13.612 39.726 11.153 57.115-38.905 91.893C56.996 334.702 341.187 446.209 512 428.996v-35.335c-116.188-4.215-189.636-29.099-229.976-45.727z" fill="#024c67" fill-rule="evenodd"/>
</svg>
