<?xml version="1.0" encoding="iso-8859-1"?>
<!-- Generator: Adobe Illustrator 19.0.0, SVG Export Plug-In . SVG Version: 6.00 Build 0)  -->
<svg version="1.1" id="Capa_1" xmlns="http://www.w3.org/2000/svg" xmlns:xlink="http://www.w3.org/1999/xlink" x="0px" y="0px"
	 viewBox="0 0 511.999 511.999" style="enable-background:new 0 0 511.999 511.999;" xml:space="preserve">
<path style="fill:#FFA5B5;" d="M457.952,16.724l37.314,37.314c12.286,12.286,12.286,32.388,0,44.674l-43.201,43.201
	c-12.286,12.286-32.388,12.286-44.673,0l-37.314-37.314c-12.286-12.286-12.286-32.388,0-44.674l43.201-43.201
	C425.563,4.438,445.667,4.438,457.952,16.724z"/>
<g>
	<path style="fill:#FF728B;" d="M469.408,72.853l-43.201,43.201c-12.286,12.286-32.388,12.286-44.673,0l25.857,25.857
		c12.286,12.286,32.388,12.286,44.673,0l43.201-43.201c12.286-12.286,12.286-32.388,0-44.674L469.408,28.18
		C481.693,40.465,481.693,60.569,469.408,72.853z"/>
	<path style="fill:#FF728B;" d="M370.078,104.597l37.314,37.314c12.286,12.286,32.389,12.286,44.673,0l37.157-37.157l-81.987-81.987
		l-37.157,37.157C357.793,72.209,357.793,92.313,370.078,104.597z"/>
</g>
<path style="fill:#FF3F62;" d="M452.065,141.912l37.157-37.157l-25.857-25.858l-37.157,37.157
	c-12.286,12.286-32.388,12.285-44.673,0l25.857,25.857C419.678,154.196,439.78,154.196,452.065,141.912z"/>
<path style="fill:#FFDAAA;" d="M22.736,419.915L7.844,487.125c-2.258,10.19,6.83,19.277,17.019,17.019l67.211-14.891
	c10.611-2.351,20.33-7.683,28.016-15.368l336.589-336.589L374.692,55.31L38.103,391.899
	C30.417,399.584,25.087,409.304,22.736,419.915z"/>
<path style="fill:#FFC477;" d="M80.792,439.606c-10.052,10.052-22.763,17.024-36.641,20.099l-31.793,7.044l-4.515,20.376
	c-2.258,10.19,6.83,19.277,17.019,17.019l67.211-14.891c10.611-2.351,20.33-7.683,28.015-15.368l336.589-336.589l-36.79-36.79
	L80.792,439.606z"/>
<path style="fill:#4747C9;" d="M15.262,453.643l-7.419,33.483c-2.258,10.19,6.83,19.277,17.019,17.019l33.483-7.419L15.262,453.643z
	"/>
<path style="fill:#006D5D;" d="M25.465,463.845l-13.106,2.904l-4.515,20.376c-2.258,10.19,6.83,19.277,17.019,17.019l33.483-7.419
	L25.465,463.845z"/>
<path style="fill:#FFDA44;" d="M63.449,411.793l0.78,27.307c0.135,4.726,3.935,8.526,8.661,8.661l27.307,0.78
	c4.726,0.135,8.526,3.935,8.661,8.661l0.713,24.946c3.796-2.33,7.34-5.081,10.52-8.261l336.589-336.589l-81.987-81.987L38.103,391.9
	c-3.18,3.18-5.931,6.724-8.261,10.52l24.946,0.713C59.515,403.267,63.314,407.066,63.449,411.793z"/>
<g>
	<path style="fill:#EEBF00;" d="M408.485,89.103L385.203,65.82L48.084,402.939l6.705,0.192c4.726,0.135,8.526,3.935,8.661,8.661
		l0.621,21.725L408.485,89.103z"/>
	<path style="fill:#EEBF00;" d="M71.328,447.564c0.508,0.105,1.026,0.181,1.562,0.197l27.307,0.78
		c4.727,0.135,8.526,3.934,8.661,8.661l0.713,24.946c3.796-2.33,7.34-5.081,10.521-8.261L456.68,137.298l-36.79-36.79
		L80.792,439.606C77.859,442.539,74.677,445.175,71.328,447.564z"/>
</g>
<path style="fill:#006D5D;" d="M433.344,113.963l-35.318-35.318L63.488,413.183l0.741,25.916c0.135,4.726,3.935,8.526,8.661,8.661
	l25.916,0.741L433.344,113.963z"/>
<path style="fill:#005B4E;" d="M71.328,447.564c0.508,0.105,1.027,0.182,1.562,0.197l25.916,0.741l334.538-334.538l-13.455-13.455
	L80.792,439.606C77.859,442.539,74.677,445.175,71.328,447.564z"/>
<path style="fill:#E0E0E2;" d="M395.024,37.915l79.05,79.05c9.249,9.248,9.249,24.381,0,33.63l0,0
	c-9.249,9.249-24.381,9.249-33.63,0l-79.05-79.05c-9.249-9.249-9.249-24.381,0-33.63l0,0
	C370.642,28.667,385.776,28.667,395.024,37.915z"/>
<path style="fill:#C6C5CA;" d="M441.91,118.431c-9.249,9.249-24.382,9.249-33.63,0l32.164,32.164c9.249,9.249,24.382,9.249,33.63,0
	s9.248-24.381,0-33.63L441.91,84.801C451.159,94.049,451.159,109.183,441.91,118.431z"/>
<path d="M500.57,48.734L463.255,11.42c-7.359-7.358-17.174-11.411-27.64-11.411c-10.466,0-20.281,4.053-27.64,11.411l-15.483,15.483
	c-4.36-2.235-9.225-3.426-14.283-3.426c-8.373,0-16.228,3.244-22.118,9.133c-9.834,9.835-11.732,24.64-5.707,36.401L32.799,386.596
	c-8.709,8.709-14.722,19.669-17.386,31.696L0.522,485.503c-1.618,7.301,0.573,14.815,5.861,20.103
	c4.142,4.142,9.649,6.383,15.35,6.383c1.578,0,3.171-0.172,4.753-0.522l67.21-14.892c12.026-2.665,22.986-8.677,31.697-17.386
	l317.584-317.583c4.36,2.235,9.225,3.425,14.282,3.425c8.373,0,16.228-3.244,22.118-9.133c12.195-12.196,12.195-32.04,0-44.236
	l-75.216-75.215l14.421-14.42c4.524-4.525,10.574-7.018,17.032-7.018c6.46,0,12.509,2.492,17.033,7.018l37.314,37.314
	c9.393,9.393,9.393,24.675,0,34.068c-2.929,2.929-3.057,7.812,0.001,10.606c4.642,4.242,9.142,1.464,10.606,0
	C515.809,88.774,515.809,63.975,500.57,48.734z M125.529,351.142c1.465,1.464,4.463,4.19,10.607,0L383.26,104.018l24.711,24.711
	L95.789,440.912c0,0-23.399-0.816-23.647-1.063c-0.248-0.248-1.064-23.648-1.064-23.648l41.725-41.726
	c2.929-2.929,2.929-7.678,0-10.606c-2.93-2.929-7.678-2.929-10.607,0L65.87,400.196c-2.843-2.72-6.653-4.439-10.868-4.56
	l-9.751-0.278L359.926,80.684l12.729,12.728L125.529,340.535C122.601,343.464,122.601,348.213,125.529,351.142z M23.242,496.823
	c-3.275,0.726-5.464-1.033-6.253-1.823c-0.79-0.79-2.548-2.979-1.823-6.252l4.461-20.134l23.748,23.749L23.242,496.823z
	 M90.452,481.933l-29.712,6.583l-37.266-37.267l6.583-29.711c0.889-4.01,2.264-7.866,4.081-11.493l20.436,0.584
	c0.752,0.021,1.357,0.627,1.379,1.378l0.78,27.306c0.248,8.692,7.251,15.694,15.942,15.943l27.307,0.78
	c0.751,0.021,1.356,0.626,1.378,1.378l0.584,20.436C98.317,479.67,94.462,481.044,90.452,481.933z M116.633,466.738l-0.279-9.751
	c-0.12-4.216-1.839-8.025-4.559-10.869l306.784-306.784l12.729,12.729L116.633,466.738z M468.772,145.292
	c-3.058,3.056-7.146,4.74-11.513,4.74c-4.367,0-8.456-1.683-11.512-4.74l-79.05-79.049c-6.348-6.348-6.348-16.676-0.001-23.024
	c3.057-3.056,7.146-4.74,11.513-4.74c4.367,0,8.456,1.683,11.512,4.74l79.051,79.05
	C475.119,128.616,475.119,138.945,468.772,145.292z"/>
<g>
</g>
<g>
</g>
<g>
</g>
<g>
</g>
<g>
</g>
<g>
</g>
<g>
</g>
<g>
</g>
<g>
</g>
<g>
</g>
<g>
</g>
<g>
</g>
<g>
</g>
<g>
</g>
<g>
</g>
</svg>
