<?xml version="1.0" encoding="iso-8859-1"?>
<!-- Generator: Adobe Illustrator 19.0.0, SVG Export Plug-In . SVG Version: 6.00 Build 0)  -->
<svg version="1.1" id="Capa_1" xmlns="http://www.w3.org/2000/svg" xmlns:xlink="http://www.w3.org/1999/xlink" x="0px" y="0px"
	 viewBox="0 0 512 512" style="enable-background:new 0 0 512 512;" xml:space="preserve">
<path style="fill:#EF5350;" d="M344.614,78.769H167.384V54.154c0-24.471,19.837-44.308,44.308-44.308h88.615
	c24.471,0,44.308,19.837,44.308,44.308V78.769z"/>
<polygon style="fill:#FFECB3;" points="255.999,502.154 167.384,413.538 344.614,413.538 "/>
<rect x="167.384" y="78.769" style="fill:#FB8C00;" width="177.231" height="334.769"/>
<path d="M300.307,0h-88.615c-25.715,0-47.286,18.023-52.784,42.096c-0.023,0.1-0.049,0.199-0.07,0.3
	c-0.842,3.789-1.3,7.719-1.3,11.757v24.615v334.769c0,0.11,0.013,0.217,0.017,0.325c0.004,0.117,0.01,0.232,0.018,0.349
	c0.028,0.408,0.074,0.81,0.15,1.203c0.004,0.018,0.005,0.035,0.008,0.054c0.087,0.433,0.207,0.853,0.349,1.263
	c0.028,0.079,0.057,0.157,0.087,0.235c0.144,0.385,0.305,0.761,0.493,1.121c0.014,0.028,0.026,0.056,0.04,0.083
	c0.204,0.382,0.437,0.744,0.688,1.094c0.058,0.081,0.118,0.159,0.179,0.239c0.265,0.347,0.544,0.681,0.851,0.989
	c0.002,0.002,0.004,0.005,0.006,0.007l88.615,88.615C250.961,511.038,253.48,512,256,512c2.521,0,5.039-0.962,6.962-2.884
	l88.615-88.615c0.003-0.003,0.006-0.008,0.01-0.011c0.306-0.307,0.584-0.641,0.848-0.986c0.06-0.079,0.12-0.158,0.178-0.238
	c0.251-0.351,0.484-0.713,0.689-1.095c0.014-0.026,0.025-0.053,0.038-0.079c0.19-0.362,0.352-0.74,0.496-1.128
	c0.029-0.077,0.057-0.152,0.084-0.228c0.142-0.413,0.263-0.833,0.35-1.268c0.003-0.014,0.004-0.028,0.006-0.04
	c0.077-0.397,0.123-0.804,0.152-1.217c0.008-0.114,0.014-0.227,0.018-0.343c0.004-0.11,0.017-0.218,0.017-0.328V78.769V54.154
	C354.461,24.293,330.167,0,300.307,0z M177.23,403.692V88.615h69.415v315.077H177.23z M266.337,88.615h68.431v315.077h-68.431
	V88.615z M211.691,19.692h88.615c19.002,0,34.462,15.459,34.462,34.462v14.769H177.23V54.154h59.077
	c5.438,0,9.846-4.408,9.846-9.846s-4.408-9.846-9.846-9.846h-52.872C189.67,25.542,200.008,19.692,211.691,19.692z M255.999,488.229
	l-64.845-64.845h129.689L255.999,488.229z"/>
<path d="M256.757,48.069c0.246,0.601,0.541,1.172,0.905,1.703c0.354,0.542,0.768,1.044,1.221,1.497
	c0.453,0.453,0.955,0.866,1.498,1.221c0.532,0.354,1.102,0.66,1.702,0.906c0.592,0.246,1.211,0.443,1.841,0.561
	c0.63,0.128,1.28,0.197,1.92,0.197c0.639,0,1.29-0.069,1.92-0.197c0.63-0.118,1.25-0.315,1.84-0.561
	c0.601-0.246,1.172-0.551,1.703-0.906c0.542-0.354,1.044-0.768,1.497-1.221c0.454-0.453,0.867-0.955,1.221-1.497
	c0.354-0.532,0.66-1.103,0.906-1.703c0.246-0.591,0.443-1.211,0.561-1.841c0.128-0.63,0.197-1.28,0.197-1.92
	c0-0.64-0.069-1.29-0.197-1.92c-0.118-0.63-0.315-1.25-0.561-1.841c-0.246-0.601-0.551-1.172-0.906-1.703
	c-0.353-0.542-0.767-1.044-1.221-1.497c-0.453-0.453-0.955-0.866-1.497-1.221c-0.532-0.354-1.103-0.66-1.703-0.906
	c-0.591-0.246-1.21-0.443-1.84-0.561c-1.27-0.256-2.58-0.256-3.84,0c-0.63,0.118-1.25,0.315-1.841,0.561
	c-0.601,0.246-1.171,0.551-1.702,0.906c-0.543,0.354-1.045,0.768-1.498,1.221c-0.453,0.453-0.866,0.955-1.221,1.497
	c-0.364,0.532-0.66,1.103-0.905,1.703c-0.246,0.591-0.443,1.211-0.561,1.841c-0.128,0.63-0.197,1.28-0.197,1.92
	c0,0.64,0.069,1.29,0.197,1.92C256.314,46.858,256.511,47.478,256.757,48.069z"/>
<g>
</g>
<g>
</g>
<g>
</g>
<g>
</g>
<g>
</g>
<g>
</g>
<g>
</g>
<g>
</g>
<g>
</g>
<g>
</g>
<g>
</g>
<g>
</g>
<g>
</g>
<g>
</g>
<g>
</g>
</svg>
