<?xml version="1.0" encoding="UTF-8"?>
<svg width="314px" height="82px" viewBox="0 0 314 82" xmlns="http://www.w3.org/2000/svg">
    <title id="propertize-logo-title">Propertize logo</title>
    <g id="Page-1" stroke="none" stroke-width="1" fill="none" fill-rule="evenodd">
        <g id="propertize_logo_light_wip" transform="translate(4.000000, 0.000000)">
            <path d="M15.4560547,44.3242188 L18.4443359,44.3242188 C21.2373187,44.3242188 23.3271415,43.7724665 24.7138672,42.6689453 C26.1005929,41.5654242 26.7939453,39.9589949 26.7939453,37.8496094 C26.7939453,35.7206925 26.2128964,34.1484426 25.0507812,33.1328125 C23.8886661,32.1171824 22.0673952,31.609375 19.5869141,31.609375 L15.4560547,31.609375 L15.4560547,44.3242188 Z M35.9638672,37.5273438 C35.9638672,42.1367418 34.5234519,45.6620972 31.6425781,48.1035156 C28.7617043,50.5449341 24.6650656,51.765625 19.3525391,51.765625 L15.4560547,51.765625 L15.4560547,67 L6.37402344,67 L6.37402344,24.1679688 L20.0556641,24.1679688 C25.2510025,24.1679688 29.2011583,25.2861216 31.90625,27.5224609 C34.6113417,29.7588002 35.9638672,33.0937278 35.9638672,37.5273438 Z M61.6279297,33.6308594 C62.8388732,33.6308594 63.8447226,33.7187491 64.6455078,33.8945312 L63.9716797,42.2734375 C63.2490198,42.078124 62.3701224,41.9804688 61.3349609,41.9804688 C58.4833842,41.9804688 56.2617267,42.7128833 54.6699219,44.1777344 C53.078117,45.6425854 52.2822266,47.6933462 52.2822266,50.3300781 L52.2822266,67 L43.3466797,67 L43.3466797,34.2460938 L50.1142578,34.2460938 L51.4326172,39.7539062 L51.8720703,39.7539062 C52.8877004,37.9179596 54.259757,36.4384822 55.9882812,35.3154297 C57.7168055,34.1923772 59.5966695,33.6308594 61.6279297,33.6308594 Z M77.1259766,50.5644531 C77.1259766,53.8066568 77.6581978,56.2578042 78.7226562,57.9179688 C79.7871147,59.5781333 81.5204958,60.4082031 83.9228516,60.4082031 C86.305676,60.4082031 88.019526,59.5830161 89.0644531,57.9326172 C90.1093802,56.2822183 90.6318359,53.8261882 90.6318359,50.5644531 C90.6318359,47.3222494 90.1044975,44.8906331 89.0498047,43.2695312 C87.9951119,41.6484294 86.2666136,40.8378906 83.8642578,40.8378906 C81.4814334,40.8378906 79.7627006,41.6435466 78.7080078,43.2548828 C77.653315,44.866219 77.1259766,47.3027181 77.1259766,50.5644531 Z M99.7724609,50.5644531 C99.7724609,55.896511 98.366225,60.0663912 95.5537109,63.0742188 C92.7411969,66.0820463 88.8252204,67.5859375 83.8056641,67.5859375 C80.6611171,67.5859375 77.8877073,66.8974678 75.4853516,65.5205078 C73.0829958,64.1435478 71.2373111,62.1660285 69.9482422,59.5878906 C68.6591732,57.0097527 68.0146484,54.0019703 68.0146484,50.5644531 C68.0146484,45.2128639 69.4111188,41.0527492 72.2041016,38.0839844 C74.9970843,35.1152195 78.9228263,33.6308594 83.9814453,33.6308594 C87.1259923,33.6308594 89.8994021,34.3144463 92.3017578,35.6816406 C94.7041136,37.048835 96.5497982,39.011706 97.8388672,41.5703125 C99.1279361,44.128919 99.7724609,47.1269359 99.7724609,50.5644531 Z M125.143555,67.5859375 C121.295879,67.5859375 118.278331,66.1894671 116.09082,63.3964844 L115.62207,63.3964844 C115.934572,66.130873 116.09082,67.7128885 116.09082,68.1425781 L116.09082,81.4140625 L107.155273,81.4140625 L107.155273,34.2460938 L114.420898,34.2460938 L115.680664,38.4941406 L116.09082,38.4941406 C118.180675,35.2519369 121.276347,33.6308594 125.37793,33.6308594 C129.245137,33.6308594 132.27245,35.1249851 134.459961,38.1132812 C136.647472,41.1015774 137.741211,45.2519266 137.741211,50.5644531 C137.741211,54.0605644 137.228521,57.0976434 136.203125,59.6757812 C135.177729,62.2539191 133.717783,64.2167901 131.823242,65.5644531 C129.928701,66.9121161 127.702161,67.5859375 125.143555,67.5859375 Z M122.506836,40.7792969 C120.299794,40.7792969 118.688482,41.458001 117.672852,42.8154297 C116.657221,44.1728583 116.129883,46.4140469 116.09082,49.5390625 L116.09082,50.5058594 C116.09082,54.021502 116.613276,56.541008 117.658203,58.0644531 C118.70313,59.5878982 120.358387,60.3496094 122.624023,60.3496094 C126.62795,60.3496094 128.629883,57.0488611 128.629883,50.4472656 C128.629883,47.2245933 128.136724,44.8076252 127.150391,43.1962891 C126.164058,41.5849529 124.616221,40.7792969 122.506836,40.7792969 Z M158.688477,39.9882812 C156.793936,39.9882812 155.309576,40.5888612 154.235352,41.7900391 C153.161127,42.9912169 152.545899,44.6953015 152.389648,46.9023438 L164.928711,46.9023438 C164.889648,44.6953015 164.313482,42.9912169 163.200195,41.7900391 C162.086908,40.5888612 160.583017,39.9882812 158.688477,39.9882812 Z M159.948242,67.5859375 C154.674778,67.5859375 150.553726,66.1308739 147.584961,63.2207031 C144.616196,60.3105323 143.131836,56.1894798 143.131836,50.8574219 C143.131836,45.3691132 144.503893,41.1259916 147.248047,38.1279297 C149.992201,35.1298678 153.786109,33.6308594 158.629883,33.6308594 C163.258812,33.6308594 166.862292,34.9492056 169.44043,37.5859375 C172.018568,40.2226694 173.307617,43.8652111 173.307617,48.5136719 L173.307617,52.8496094 L152.18457,52.8496094 C152.282227,55.3886846 153.034173,57.3710866 154.44043,58.796875 C155.846687,60.2226634 157.819323,60.9355469 160.358398,60.9355469 C162.331065,60.9355469 164.19628,60.7304708 165.954102,60.3203125 C167.711923,59.9101542 169.547842,59.2558639 171.461914,58.3574219 L171.461914,65.2714844 C169.899406,66.0527383 168.229501,66.6337872 166.452148,67.0146484 C164.674796,67.3955097 162.506849,67.5859375 159.948242,67.5859375 Z M198.854492,33.6308594 C200.065436,33.6308594 201.071285,33.7187491 201.87207,33.8945312 L201.198242,42.2734375 C200.475582,42.078124 199.596685,41.9804688 198.561523,41.9804688 C195.709947,41.9804688 193.488289,42.7128833 191.896484,44.1777344 C190.30468,45.6425854 189.508789,47.6933462 189.508789,50.3300781 L189.508789,67 L180.573242,67 L180.573242,34.2460938 L187.34082,34.2460938 L188.65918,39.7539062 L189.098633,39.7539062 C190.114263,37.9179596 191.486319,36.4384822 193.214844,35.3154297 C194.943368,34.1923772 196.823232,33.6308594 198.854492,33.6308594 Z M221.618164,60.4667969 C223.180672,60.4667969 225.055653,60.1250034 227.243164,59.4414062 L227.243164,66.0917969 C225.01659,67.0878956 222.282243,67.5859375 219.040039,67.5859375 C215.465802,67.5859375 212.863289,66.6826262 211.232422,64.8759766 C209.601554,63.0693269 208.786133,60.3593931 208.786133,56.7460938 L208.786133,40.9550781 L204.508789,40.9550781 L204.508789,37.1757812 L209.430664,34.1875 L212.008789,27.2734375 L217.72168,27.2734375 L217.72168,34.2460938 L226.891602,34.2460938 L226.891602,40.9550781 L217.72168,40.9550781 L217.72168,56.7460938 C217.72168,58.0156313 218.078121,58.953122 218.791016,59.5585938 C219.50391,60.1640655 220.446283,60.4667969 221.618164,60.4667969 Z M242.799805,67 L233.864258,67 L233.864258,34.2460938 L242.799805,34.2460938 L242.799805,67 Z M274.967773,67 L249.098633,67 L249.098633,61.7265625 L264.274414,41.0722656 L250.006836,41.0722656 L250.006836,34.2460938 L274.44043,34.2460938 L274.44043,40.046875 L259.674805,60.1738281 L274.967773,60.1738281 L274.967773,67 Z M295.006836,39.9882812 C293.112295,39.9882812 291.627935,40.5888612 290.553711,41.7900391 C289.479487,42.9912169 288.864259,44.6953015 288.708008,46.9023438 L301.24707,46.9023438 C301.208008,44.6953015 300.631842,42.9912169 299.518555,41.7900391 C298.405268,40.5888612 296.901377,39.9882812 295.006836,39.9882812 Z M296.266602,67.5859375 C290.993138,67.5859375 286.872085,66.1308739 283.90332,63.2207031 C280.934555,60.3105323 279.450195,56.1894798 279.450195,50.8574219 C279.450195,45.3691132 280.822252,41.1259916 283.566406,38.1279297 C286.310561,35.1298678 290.104468,33.6308594 294.948242,33.6308594 C299.577172,33.6308594 303.180651,34.9492056 305.758789,37.5859375 C308.336927,40.2226694 309.625977,43.8652111 309.625977,48.5136719 L309.625977,52.8496094 L288.50293,52.8496094 C288.600586,55.3886846 289.352532,57.3710866 290.758789,58.796875 C292.165046,60.2226634 294.137683,60.9355469 296.676758,60.9355469 C298.649424,60.9355469 300.51464,60.7304708 302.272461,60.3203125 C304.030282,59.9101542 305.866201,59.2558639 307.780273,58.3574219 L307.780273,65.2714844 C306.217766,66.0527383 304.54786,66.6337872 302.770508,67.0146484 C300.993155,67.3955097 298.825208,67.5859375 296.266602,67.5859375 Z" id="Propertize-Copy" fill="#FFFFFF" fill-rule="nonzero"></path>
            <g id="cards" transform="translate(225.000000, 0.000000)" fill="#EC935E" fill-rule="nonzero">
                <polygon id="Path" opacity="0.4" points="30 20.2774538 8.48759542 29 0 8.72254616 3.87881679 7.14431487 21.5124046 0"></polygon>
                <polygon id="Path" points="29 22.3849474 6.46696382 27 2 5.6150526 5.78736235 4.83652549 24.5401154 1"></polygon>
            </g>
            <g id="Group-Copy" transform="translate(0.593750, 7.000000)" stroke="#EC935E">
                <polyline id="Line" stroke-width="8" stroke-linecap="round" points="0 15 17 0 34 15"></polyline>
                <rect id="Rectangle" fill="#EC935E" fill-rule="nonzero" x="4.5" y="0.5" width="7" height="7"></rect>
            </g>
            <path d="M6.09375,73.5 L99.09375,73.5" id="Line-2-Copy" stroke="#EC935E" stroke-width="7"></path>
        </g>
    </g>
</svg>