<?xml version="1.0" encoding="UTF-8"?>
<svg width="166px" height="27px" viewBox="0 0 166 27" version="1.1" xmlns="http://www.w3.org/2000/svg" xmlns:xlink="http://www.w3.org/1999/xlink">
    <title>logo3</title>
    <defs>
        <path d="M3.41369206,24.7456047 L3.41369206,15.4861481 L4.0290357,15.4861481 L10.4901438,24.7456047 L14.6656899,24.7456047 L7.66249334,15.1052211 C9.16666667,14.7828982 10.3778192,14.0454626 11.295951,12.8929142 C12.2140828,11.7403658 12.6731486,10.3631682 12.6731486,8.76132126 C12.6731486,6.71017581 11.9405967,5.0594921 10.4754928,3.80927011 C9.14713195,2.6860238 6.98854555,2.12440064 3.99973362,2.12440064 L3.99973362,2.12440064 L0,2.12440064 L0,24.7456047 L3.41369206,24.7456047 Z M4.49786894,12.5119872 L3.41369206,12.5119872 L3.41369206,5.33297816 L4.62972829,5.33297816 C7.77481797,5.33297816 9.34736281,6.49041023 9.34736281,8.80527437 C9.34736281,11.2764163 7.73086486,12.5119872 4.49786894,12.5119872 L4.49786894,12.5119872 Z M23.339105,25.1558338 C24.0814243,25.1558338 24.7700231,25.0776949 25.4049014,24.9214172 C26.0397798,24.7651394 26.630705,24.5185136 27.1776771,24.1815397 C27.7246493,23.8445658 28.2374356,23.414802 28.7160362,22.8922483 C29.1946368,22.3696945 29.648819,21.7421417 30.0785828,21.0095898 L30.0785828,21.0095898 L27.2948855,19.4565796 C26.6209377,20.5114544 26.0202451,21.234239 25.4928077,21.6249334 C24.9556029,22.0156278 24.2767714,22.210975 23.4563133,22.210975 C22.4014385,22.210975 21.5370272,21.8691174 20.8630794,21.1854022 C20.1891316,20.4919197 19.8082046,19.5591369 19.7202983,18.3870538 L19.7202983,18.3870538 L29.9467235,18.3870538 L29.9613745,17.6105487 C29.9613745,15.2566152 29.3557983,13.4154679 28.1446457,12.0871071 C26.9237258,10.7489789 25.2632747,10.0799148 23.1632925,10.0799148 C21.082845,10.0799148 19.4126265,10.7685136 18.1526372,12.1457112 C16.9024152,13.5424436 16.2773042,15.3689398 16.2773042,17.6251998 C16.2773042,19.9009945 16.9219499,21.7274907 18.2112413,23.1046883 C19.5005328,24.4721186 21.2098206,25.1558338 23.339105,25.1558338 Z M26.5623335,15.6912627 L19.9400639,15.6912627 C20.0475049,15.2810336 20.2037826,14.9147576 20.4088972,14.5924347 C20.6140117,14.2701119 20.8606375,13.994184 21.1487746,13.764651 C21.4369117,13.5351181 21.7567928,13.3593056 22.1084177,13.2372136 C22.4600426,13.1151216 22.836086,13.0540757 23.2365477,13.0540757 C24.9946723,13.0540757 26.1032676,13.933138 26.5623335,15.6912627 L26.5623335,15.6912627 Z M39.6896644,25.1558338 C41.2524418,25.1558338 42.712662,24.5209554 44.070325,23.2511987 L44.070325,23.2511987 L44.070325,24.7456047 L47.3814598,24.7456047 L47.3814598,10.4754928 L44.070325,10.4754928 L44.070325,12.1310602 C42.7517315,10.7636299 41.2622092,10.0799148 39.6017581,10.0799148 C37.6775884,10.0799148 36.0757414,10.792932 34.7962174,12.2189664 C33.5166933,13.6450009 32.8769313,15.427544 32.8769313,17.5665956 C32.8769313,19.7447167 33.5166933,21.5614456 34.7962174,23.0167821 C36.0855088,24.4428166 37.7166578,25.1558338 39.6896644,25.1558338 Z M40.1877997,22.210975 C39.0450186,22.210975 38.0975848,21.7763275 37.3454981,20.9070325 C36.6129462,20.0475049 36.2466702,18.9340259 36.2466702,17.5665956 C36.2466702,16.2870716 36.6227135,15.212662 37.3748002,14.3433671 C38.1366542,13.4838395 39.0840881,13.0540757 40.2171018,13.0540757 C41.4184869,13.0540757 42.3952229,13.4789558 43.1473095,14.328716 C43.8993962,15.198011 44.2754395,16.3017226 44.2754395,17.6398508 C44.2754395,18.977979 43.8993962,20.0816906 43.1473095,20.9509856 C42.3952229,21.7909785 41.4087196,22.210975 40.1877997,22.210975 Z M54.8388386,24.7456047 L54.8388386,0 L51.5423548,0 L51.5423548,24.7456047 L54.8388386,24.7456047 Z M62.4134257,24.7456047 L62.4134257,13.552211 L64.9773575,13.552211 L64.9773575,10.4754928 L62.4134257,10.4754928 L62.4134257,5.24507192 L59.1169419,5.24507192 L59.1169419,10.4754928 L57.7104422,10.4754928 L57.7104422,13.552211 L59.1169419,13.552211 L59.1169419,24.7456047 L62.4134257,24.7456047 Z M88.7559936,24.7456047 L88.7559936,17.34683 C88.7559936,14.6315042 89.6545907,13.2738412 91.4517848,13.2738412 C92.0475937,13.2738412 92.6580536,13.4984905 93.2831646,13.947789 L93.2831646,13.947789 L94.7922216,10.929675 C93.8447878,10.3631682 92.9364234,10.0799148 92.0671284,10.0799148 C91.4127153,10.0799148 90.8462085,10.2020067 90.3676079,10.4461907 C89.8987746,10.6806074 89.3615699,11.1152548 88.7559936,11.7501332 L88.7559936,11.7501332 L88.7559936,10.4754928 L85.4595099,10.4754928 L85.4595099,24.7456047 L88.7559936,24.7456047 Z M109.985349,24.7456047 L109.985349,15.5594033 L111.567661,15.5594033 C113.921595,15.5594033 115.792044,14.953827 117.179009,13.7426745 C118.565974,12.5315219 119.259457,10.8906056 119.259457,8.81992541 C119.259457,6.88598828 118.609927,5.28414136 117.310868,4.01438466 C116.568549,3.28183271 115.709021,2.78369739 114.732286,2.51997869 C113.765317,2.25625999 112.334399,2.12440064 110.439531,2.12440064 L110.439531,2.12440064 L106.571657,2.12440064 L106.571657,24.7456047 L109.985349,24.7456047 Z M111.259989,12.3947789 L109.985349,12.3947789 L109.985349,5.274374 L111.113479,5.274374 C114.346475,5.274374 115.962973,6.44157343 115.962973,8.7759723 C115.962973,11.18851 114.395312,12.3947789 111.259989,12.3947789 L111.259989,12.3947789 Z M134.452584,25.7858284 L141.148109,11.0908364 L143.331113,24.7456047 L146.832712,24.7456047 L142.554608,0.424880128 L134.511188,18.0061268 L126.746137,0.424880128 L121.98455,24.7456047 L125.51545,24.7456047 L127.947523,11.0761854 L134.452584,25.7858284 Z M157.718434,25.1558338 C159.789114,25.1558338 161.52282,24.4721186 162.919552,23.1046883 C164.306517,21.7470254 165,20.0279702 165,17.9475226 C165,16.3945125 164.57512,15.0832445 163.72536,14.0137187 C162.875599,12.9441929 161.532587,12.0382703 159.696324,11.295951 L159.696324,11.295951 L157.440064,10.3729355 C155.799148,9.69898775 154.978689,8.81015805 154.978689,7.70644646 C154.978689,6.905523 155.291245,6.24134257 155.916356,5.71390517 C156.541467,5.17670041 157.327739,4.90809803 158.275173,4.90809803 C159.046795,4.90809803 159.676789,5.06437578 160.165157,5.37693127 C160.63399,5.65041733 161.127242,6.23645889 161.644912,7.13505594 L161.644912,7.13505594 L164.413958,5.49413958 C162.948855,2.95462618 160.91236,1.68486947 158.304475,1.68486947 C156.370538,1.68486947 154.75404,2.26114367 153.454981,3.41369206 C152.155923,4.5564731 151.506393,5.97762387 151.506393,7.67714438 C151.506393,10.1971231 153.05452,12.1115255 156.150773,13.4203516 L156.150773,13.4203516 L158.333777,14.328716 C158.900284,14.5729 159.388652,14.8292932 159.798881,15.0978956 C160.20911,15.366498 160.543642,15.6546351 160.802477,15.9623069 C161.061312,16.2699787 161.251776,16.6069526 161.373868,16.9732286 C161.49596,17.3395045 161.557006,17.7424081 161.557006,18.1819393 C161.557006,19.2758835 161.205381,20.1793642 160.502131,20.8923815 C159.798881,21.6053987 158.914935,21.9619073 157.850293,21.9619073 C156.502397,21.9619073 155.476825,21.4735393 154.773575,20.4968034 C154.38288,19.9889007 154.109394,19.070769 153.953117,17.7424081 L153.953117,17.7424081 L150.495471,18.5042621 C150.808027,20.6140117 151.594299,22.2500444 152.854289,23.4123601 C154.133813,24.5746759 155.755194,25.1558338 157.718434,25.1558338 Z" id="path-1"></path>
    </defs>
    <g id="Page-1" stroke="none" stroke-width="1" fill="none" fill-rule="evenodd">
        <g id="logo3" transform="translate(0.071289, 0.959961)" fill-rule="nonzero">
            <g id="logo-copy">
                <g id="RealtorPMS" fill="#FFFFFF">
                    <use xlink:href="#path-1"></use>
                    <use xlink:href="#path-1"></use>
                </g>
                <g id="gear" transform="translate(66.928711, 9.040039)" fill="#FFE000">
                    <path d="M15.6235352,6.17822266 L14.3937988,5.91088869 C14.2868652,5.58349609 14.1544189,5.26416016 13.9980469,4.95654297 L14.678833,3.897583 C14.800415,3.70837403 14.7736816,3.45996094 14.6147461,3.30102538 L12.6989746,1.38525391 C12.5400391,1.22631838 12.291626,1.19958497 12.102417,1.321167 L11.043457,2.00195313 C10.7358398,1.84558106 10.4165039,1.71313475 10.0891113,1.60620119 L9.82177734,0.376464844 C9.77404784,0.156738281 9.57946778,0 9.35461425,0 L6.64538575,0 C6.42053222,0 6.22595216,0.156738281 6.17822266,0.376464844 L5.91088869,1.60620119 C5.58349609,1.71313475 5.26416016,1.84558106 4.95654297,2.00195313 L3.897583,1.321167 C3.70837403,1.19958497 3.45996094,1.22631838 3.30102538,1.38525391 L1.38525391,3.30102538 C1.22631837,3.45996094 1.19958497,3.70837403 1.321167,3.897583 L2.00195312,4.95654297 C1.84558106,5.26416016 1.71313475,5.58349609 1.60620119,5.91088869 L0.376464844,6.17822266 C0.156738281,6.22607422 0,6.42053222 0,6.64538575 L0,9.35461425 C0,9.57946778 0.156738281,9.77392578 0.376464844,9.82177734 L1.60620119,10.0891113 C1.71313475,10.4165039 1.84558106,10.7358398 2.00195312,11.043457 L1.321167,12.102417 C1.19958497,12.291626 1.22631837,12.5400391 1.38525391,12.6989746 L3.30102538,14.6147461 C3.45996094,14.7736816 3.70837403,14.800415 3.897583,14.678833 L4.95654297,13.9980469 C5.26416016,14.1544189 5.58349609,14.2868652 5.91088869,14.3937988 L6.17822266,15.6235352 C6.22595216,15.8432617 6.42053222,16 6.64538575,16 L9.35461425,16 C9.57946778,16 9.77404784,15.8432617 9.82177734,15.6235352 L10.0891113,14.3937988 C10.4165039,14.2868652 10.7358398,14.1544189 11.043457,13.9980469 L12.102417,14.678833 C12.291626,14.800415 12.5400391,14.7738037 12.6989746,14.6147461 L14.6147461,12.6989746 C14.7736816,12.5400391 14.800415,12.291626 14.678833,12.102417 L13.9980469,11.043457 C14.1544189,10.7358398 14.2868652,10.4165039 14.3937988,10.0891113 L15.6235352,9.82177734 C15.8432617,9.77392578 16,9.57946778 16,9.35461425 L16,6.64538575 C16,6.42053222 15.8432617,6.22607422 15.6235352,6.17822266 Z M10.8685303,8 C10.8685303,9.58166503 9.58166503,10.8685303 8,10.8685303 C6.41833497,10.8685303 5.13146972,9.58166503 5.13146972,8 C5.13146972,6.41833497 6.41833497,5.13146972 8,5.13146972 C9.58166503,5.13146972 10.8685303,6.41833497 10.8685303,8 Z" id="Shape"></path>
                </g>
            </g>
        </g>
    </g>
</svg>