<?xml version="1.0" encoding="UTF-8"?>
<svg width="208px" height="94px" viewBox="0 0 208 94" version="1.1" xmlns="http://www.w3.org/2000/svg" xmlns:xlink="http://www.w3.org/1999/xlink">
    <title>logo</title>
    <g id="Page-1" stroke="none" stroke-width="1" fill="none" fill-rule="evenodd">
        <g id="logo" transform="translate(2.000000, 3.000000)">
            <g id="Group">
                <g id="logo">
                    <text id="Realtor-PMS" fill="#FFFFFF" fill-rule="nonzero" font-family="Futura-Medium, Futura" font-size="34" font-weight="400">
                        <tspan x="6" y="82">Realtor PMS</tspan>
                    </text>
                    <path d="M102,-1.63949154 L211.116181,46.5 L-7.11618084,46.5 L102,-1.63949154 Z" id="Triangle" stroke="#FFE000" stroke-width="3" fill="#FFE000" stroke-linejoin="bevel"></path>
                    <rect id="Rectangle" fill-opacity="0" fill="#FFFFFF" x="0" y="54" width="192" height="32"></rect>
                </g>
                <g id="gears">
                    <g id="gear1" transform="translate(68.000000, 11.000000)" fill="#37474F" fill-rule="nonzero">
                        <path d="M18.0668828,34 L15.9330508,34 C14.2072187,34 12.8030586,32.5959062 12.8030586,30.8700742 L12.8030586,30.1481719 C12.0693359,29.9137578 11.3564648,29.6178516 10.6716172,29.2634414 L10.1600234,29.7750352 C8.92094922,31.0156367 6.93613281,30.9792461 5.73305078,29.7745703 L4.22489844,28.2664844 C3.01969141,27.0626055 2.98502734,25.0784531 4.22529687,23.8395117 L4.73649219,23.3283164 C4.38208203,22.6434688 4.08624219,21.9307305 3.85176172,21.196875 L3.12992578,21.196875 C1.40416016,21.196875 0,19.7927813 0,18.0669492 L0,15.9330508 C0,14.2072188 1.40416016,12.803125 3.12999219,12.803125 L3.85182812,12.803125 C4.08630859,12.0693359 4.38214844,11.3565313 4.73655859,10.6716836 L4.22496484,10.1601562 C2.98542578,8.92194531 3.019625,6.93759375 4.22536328,5.73318359 L5.73364844,4.22496484 C6.93951953,3.01743359 8.92387109,2.98728516 10.1605547,4.22536328 L10.6716836,4.73649219 C11.3565312,4.38214844 12.0694023,4.08624219 12.803125,3.85176172 L12.803125,3.12992578 C12.803125,1.40409375 14.2072188,0 15.9331172,0 L18.0669492,0 C19.7927812,0 21.196875,1.40409375 21.196875,3.12992578 L21.196875,3.85182813 C21.9305977,4.08624219 22.6434688,4.38214844 23.3283164,4.73655859 L23.8399102,4.22496484 C25.0789844,2.98436328 27.0638008,3.02075391 28.2668828,4.22542969 L29.7750352,5.73351562 C30.9802422,6.93739453 31.0149062,8.92154688 29.7746367,10.1604883 L29.2634414,10.6716836 C29.6178516,11.3565313 29.9136914,12.0692695 30.1481719,12.803125 L30.8700078,12.803125 C32.5958398,12.803125 34,14.2072188 34,15.9330508 L34,18.0669492 C34,19.7927813 32.5958398,21.196875 30.8700078,21.196875 L30.1481719,21.196875 C29.9136914,21.9306641 29.6178516,22.6434688 29.2634414,23.3283164 L29.7750352,23.8399102 C31.0145742,25.0781211 30.980375,27.0624727 29.7746367,28.2668828 L28.2663516,29.7751016 C27.0604805,30.9826328 25.0761289,31.0127812 23.8394453,29.7747031 L23.3283164,29.2635742 C22.6434688,29.617918 21.9305977,29.9138242 21.196875,30.1483047 L21.196875,30.870207 C21.196875,32.5959063 19.7927813,34 18.0668828,34 Z M11.0046445,27.1714453 C11.9560469,27.7341055 12.9800313,28.1591719 14.0481094,28.4348242 C14.4879844,28.5483125 14.7953125,28.9450234 14.7953125,29.3993086 L14.7953125,30.8700742 C14.7953125,31.4974141 15.3057773,32.0078125 15.9331172,32.0078125 L18.0669492,32.0078125 C18.6942891,32.0078125 19.2047539,31.4974141 19.2047539,30.8700742 L19.2047539,29.3993086 C19.2047539,28.9450234 19.512082,28.5483125 19.951957,28.4348242 C21.0200352,28.1591719 22.0440195,27.7341055 22.9954219,27.1714453 C23.3868867,26.9399531 23.8852656,27.0029062 24.2068711,27.3245117 L25.2486523,28.3663594 C25.6978242,28.8160625 26.4191289,28.8056367 26.8572773,28.3668242 L28.3664922,26.8576758 C28.8035781,26.4211211 28.8181875,25.6996836 28.3668906,25.2489844 L27.3246445,24.2067383 C27.0031055,23.8851992 26.9401523,23.3867539 27.1715781,22.9953555 C27.7342383,22.0440195 28.1592383,21.0200352 28.4348906,19.9518906 C28.5484453,19.5120156 28.9451563,19.2047539 29.399375,19.2047539 L30.8700742,19.2047539 C31.4974141,19.2047539 32.0078789,18.6943555 32.0078789,18.0670156 L32.0078789,15.9331172 C32.0078789,15.3057773 31.4974141,14.7953789 30.8700742,14.7953789 L29.399375,14.7953789 C28.9450898,14.7953789 28.5484453,14.4880508 28.4348906,14.0482422 C28.1592383,12.9800977 27.7341719,11.9561133 27.1715781,11.0047773 C26.9401523,10.6133789 27.0031055,10.1149336 27.3246445,9.79339453 L28.3664922,8.75154687 C28.8168594,8.30171094 28.8051055,7.58053906 28.3668906,7.14285547 L26.8578086,5.63377344 C26.4203906,5.19575781 25.6989531,5.18294141 25.2491172,5.633375 L24.2069375,6.67562109 C23.8853984,6.99722656 23.3868203,7.06017969 22.9954883,6.8286875 C22.0440859,6.26602734 21.0201016,5.84096094 19.9520234,5.56530859 C19.5121484,5.45182031 19.2048203,5.05510937 19.2048203,4.60082422 L19.2048203,3.12992578 C19.2048203,2.50258594 18.6943555,1.9921875 18.0670156,1.9921875 L15.9331836,1.9921875 C15.3058437,1.9921875 14.7953789,2.50258594 14.7953789,3.12992578 L14.7953789,4.60069141 C14.7953789,5.05497656 14.4880508,5.4516875 14.0481758,5.56517578 C12.9800977,5.84082812 11.9561133,6.26589453 11.0047109,6.82855469 C10.6131797,7.05998047 10.1148008,6.99702734 9.79326172,6.67548828 L8.75148047,5.63364062 C8.30230859,5.1839375 7.5809375,5.19436328 7.14285547,5.63317578 L5.63364062,7.14232422 C5.19655469,7.57887891 5.18194531,8.30025 5.63324219,8.75101562 L6.67548828,9.79326172 C6.99702734,10.1148008 7.05998047,10.6132461 6.82855469,11.0046445 C6.26589453,11.9559805 5.84089453,12.9799648 5.56524219,14.0481094 C5.4516875,14.4879844 5.05497656,14.7952461 4.60075781,14.7952461 L3.12999219,14.7952461 C2.50265234,14.7953125 1.9921875,15.3057109 1.9921875,15.9330508 L1.9921875,18.0669492 C1.9921875,18.6942891 2.50265234,19.2046875 3.12999219,19.2046875 L4.60069141,19.2046875 C5.05497656,19.2046875 5.45162109,19.5120156 5.56517578,19.9518242 C5.84082812,21.0199687 6.26589453,22.0439531 6.82848828,22.9952891 C7.05991406,23.3866875 6.99696094,23.8851328 6.67542187,24.2066719 L5.63357422,25.2485195 C5.18320703,25.6983555 5.19496094,26.4195273 5.63317578,26.8572109 L7.14225781,28.366293 C7.57967578,28.8043086 8.30111328,28.817125 8.75094922,28.3666914 L9.79312891,27.3244453 C10.0300664,27.0875742 10.523,26.8865625 11.0046445,27.1714453 L11.0046445,27.1714453 Z" id="Shape"></path>
                        <path d="M17.5,24 C13.36443,24 10,20.6355027 10,16.5 C10,12.3644973 13.36443,9 17.5,9 C21.63557,9 25,12.3644973 25,16.5 C25,20.6355027 21.63557,24 17.5,24 Z M17.5,11.0197487 C14.4781194,11.0197487 12.0197487,13.4781867 12.0197487,16.5 C12.0197487,19.5218133 14.4781867,21.9802513 17.5,21.9802513 C20.5218133,21.9802513 22.9802513,19.5218133 22.9802513,16.5 C22.9802513,13.4781867 20.5218806,11.0197487 17.5,11.0197487 L17.5,11.0197487 Z" id="Shape"></path>
                    </g>
                    <g id="gear2" transform="translate(118.000000, 28.000000) rotate(23.000000) translate(-118.000000, -28.000000) translate(101.000000, 11.000000)" fill="#37474F" fill-rule="nonzero">
                        <path d="M18.0668828,34 L15.9330508,34 C14.2072187,34 12.8030586,32.5959062 12.8030586,30.8700742 L12.8030586,30.1481719 C12.0693359,29.9137578 11.3564648,29.6178516 10.6716172,29.2634414 L10.1600234,29.7750352 C8.92094922,31.0156367 6.93613281,30.9792461 5.73305078,29.7745703 L4.22489844,28.2664844 C3.01969141,27.0626055 2.98502734,25.0784531 4.22529687,23.8395117 L4.73649219,23.3283164 C4.38208203,22.6434688 4.08624219,21.9307305 3.85176172,21.196875 L3.12992578,21.196875 C1.40416016,21.196875 0,19.7927813 0,18.0669492 L0,15.9330508 C0,14.2072188 1.40416016,12.803125 3.12999219,12.803125 L3.85182812,12.803125 C4.08630859,12.0693359 4.38214844,11.3565313 4.73655859,10.6716836 L4.22496484,10.1601562 C2.98542578,8.92194531 3.019625,6.93759375 4.22536328,5.73318359 L5.73364844,4.22496484 C6.93951953,3.01743359 8.92387109,2.98728516 10.1605547,4.22536328 L10.6716836,4.73649219 C11.3565312,4.38214844 12.0694023,4.08624219 12.803125,3.85176172 L12.803125,3.12992578 C12.803125,1.40409375 14.2072188,0 15.9331172,0 L18.0669492,0 C19.7927812,0 21.196875,1.40409375 21.196875,3.12992578 L21.196875,3.85182813 C21.9305977,4.08624219 22.6434688,4.38214844 23.3283164,4.73655859 L23.8399102,4.22496484 C25.0789844,2.98436328 27.0638008,3.02075391 28.2668828,4.22542969 L29.7750352,5.73351562 C30.9802422,6.93739453 31.0149062,8.92154688 29.7746367,10.1604883 L29.2634414,10.6716836 C29.6178516,11.3565313 29.9136914,12.0692695 30.1481719,12.803125 L30.8700078,12.803125 C32.5958398,12.803125 34,14.2072188 34,15.9330508 L34,18.0669492 C34,19.7927813 32.5958398,21.196875 30.8700078,21.196875 L30.1481719,21.196875 C29.9136914,21.9306641 29.6178516,22.6434688 29.2634414,23.3283164 L29.7750352,23.8399102 C31.0145742,25.0781211 30.980375,27.0624727 29.7746367,28.2668828 L28.2663516,29.7751016 C27.0604805,30.9826328 25.0761289,31.0127812 23.8394453,29.7747031 L23.3283164,29.2635742 C22.6434688,29.617918 21.9305977,29.9138242 21.196875,30.1483047 L21.196875,30.870207 C21.196875,32.5959063 19.7927813,34 18.0668828,34 Z M11.0046445,27.1714453 C11.9560469,27.7341055 12.9800313,28.1591719 14.0481094,28.4348242 C14.4879844,28.5483125 14.7953125,28.9450234 14.7953125,29.3993086 L14.7953125,30.8700742 C14.7953125,31.4974141 15.3057773,32.0078125 15.9331172,32.0078125 L18.0669492,32.0078125 C18.6942891,32.0078125 19.2047539,31.4974141 19.2047539,30.8700742 L19.2047539,29.3993086 C19.2047539,28.9450234 19.512082,28.5483125 19.951957,28.4348242 C21.0200352,28.1591719 22.0440195,27.7341055 22.9954219,27.1714453 C23.3868867,26.9399531 23.8852656,27.0029062 24.2068711,27.3245117 L25.2486523,28.3663594 C25.6978242,28.8160625 26.4191289,28.8056367 26.8572773,28.3668242 L28.3664922,26.8576758 C28.8035781,26.4211211 28.8181875,25.6996836 28.3668906,25.2489844 L27.3246445,24.2067383 C27.0031055,23.8851992 26.9401523,23.3867539 27.1715781,22.9953555 C27.7342383,22.0440195 28.1592383,21.0200352 28.4348906,19.9518906 C28.5484453,19.5120156 28.9451563,19.2047539 29.399375,19.2047539 L30.8700742,19.2047539 C31.4974141,19.2047539 32.0078789,18.6943555 32.0078789,18.0670156 L32.0078789,15.9331172 C32.0078789,15.3057773 31.4974141,14.7953789 30.8700742,14.7953789 L29.399375,14.7953789 C28.9450898,14.7953789 28.5484453,14.4880508 28.4348906,14.0482422 C28.1592383,12.9800977 27.7341719,11.9561133 27.1715781,11.0047773 C26.9401523,10.6133789 27.0031055,10.1149336 27.3246445,9.79339453 L28.3664922,8.75154687 C28.8168594,8.30171094 28.8051055,7.58053906 28.3668906,7.14285547 L26.8578086,5.63377344 C26.4203906,5.19575781 25.6989531,5.18294141 25.2491172,5.633375 L24.2069375,6.67562109 C23.8853984,6.99722656 23.3868203,7.06017969 22.9954883,6.8286875 C22.0440859,6.26602734 21.0201016,5.84096094 19.9520234,5.56530859 C19.5121484,5.45182031 19.2048203,5.05510937 19.2048203,4.60082422 L19.2048203,3.12992578 C19.2048203,2.50258594 18.6943555,1.9921875 18.0670156,1.9921875 L15.9331836,1.9921875 C15.3058437,1.9921875 14.7953789,2.50258594 14.7953789,3.12992578 L14.7953789,4.60069141 C14.7953789,5.05497656 14.4880508,5.4516875 14.0481758,5.56517578 C12.9800977,5.84082812 11.9561133,6.26589453 11.0047109,6.82855469 C10.6131797,7.05998047 10.1148008,6.99702734 9.79326172,6.67548828 L8.75148047,5.63364062 C8.30230859,5.1839375 7.5809375,5.19436328 7.14285547,5.63317578 L5.63364062,7.14232422 C5.19655469,7.57887891 5.18194531,8.30025 5.63324219,8.75101562 L6.67548828,9.79326172 C6.99702734,10.1148008 7.05998047,10.6132461 6.82855469,11.0046445 C6.26589453,11.9559805 5.84089453,12.9799648 5.56524219,14.0481094 C5.4516875,14.4879844 5.05497656,14.7952461 4.60075781,14.7952461 L3.12999219,14.7952461 C2.50265234,14.7953125 1.9921875,15.3057109 1.9921875,15.9330508 L1.9921875,18.0669492 C1.9921875,18.6942891 2.50265234,19.2046875 3.12999219,19.2046875 L4.60069141,19.2046875 C5.05497656,19.2046875 5.45162109,19.5120156 5.56517578,19.9518242 C5.84082812,21.0199687 6.26589453,22.0439531 6.82848828,22.9952891 C7.05991406,23.3866875 6.99696094,23.8851328 6.67542187,24.2066719 L5.63357422,25.2485195 C5.18320703,25.6983555 5.19496094,26.4195273 5.63317578,26.8572109 L7.14225781,28.366293 C7.57967578,28.8043086 8.30111328,28.817125 8.75094922,28.3666914 L9.79312891,27.3244453 C10.0300664,27.0875742 10.523,26.8865625 11.0046445,27.1714453 L11.0046445,27.1714453 Z" id="Shape"></path>
                        <path d="M17.5,24 C13.36443,24 10,20.6355027 10,16.5 C10,12.3644973 13.36443,9 17.5,9 C21.63557,9 25,12.3644973 25,16.5 C25,20.6355027 21.63557,24 17.5,24 Z M17.5,11.0197487 C14.4781194,11.0197487 12.0197487,13.4781867 12.0197487,16.5 C12.0197487,19.5218133 14.4781867,21.9802513 17.5,21.9802513 C20.5218133,21.9802513 22.9802513,19.5218133 22.9802513,16.5 C22.9802513,13.4781867 20.5218806,11.0197487 17.5,11.0197487 L17.5,11.0197487 Z" id="Shape"></path>
                    </g>
                </g>
            </g>
            <line x1="0.5" y1="49.5" x2="0.5" y2="89.5" id="Line" stroke="#FFE000" stroke-width="2" stroke-linecap="round"></line>
            <line x1="1" y1="90" x2="204" y2="90" id="Line-2" stroke="#FFE000" stroke-width="2" stroke-linecap="round" stroke-linejoin="round"></line>
            <line x1="204" y1="90" x2="204" y2="50" id="Line-3" stroke="#FFE000" stroke-width="2" stroke-linecap="round"></line>
        </g>
    </g>
</svg>