<?xml version="1.0" encoding="UTF-8"?>
<svg xmlns="http://www.w3.org/2000/svg" viewBox="0 0 208 94">
  <g transform="translate(2 3)" fill="none" fill-rule="evenodd">
    <text fill="#FFF" fill-rule="nonzero" font-family="Futura-Medium, Futura" font-size="34" font-weight="400">
      <tspan x="6" y="82">Realtor PMS</tspan>
    </text>
    <path d="M102-1.64L211.116 46.5H-7.116L102-1.64z" stroke="#FFE000" stroke-width="3" fill="#FFE000" stroke-linejoin="bevel"/>
    <path fill="none" d="M6 50h192v32H6z"/>
    <g fill="#37474F" fill-rule="nonzero">
      <path d="M86.067 45h-2.134a3.134 3.134 0 01-3.13-3.13v-.722a13.726 13.726 0 01-2.131-.885l-.512.512a3.13 3.13 0 01-4.427 0l-1.508-1.509a3.13 3.13 0 010-4.426l.511-.512a13.727 13.727 0 01-.884-2.131h-.722a3.134 3.134 0 01-3.13-3.13v-2.134a3.134 3.134 0 013.13-3.13h.722c.234-.734.53-1.446.885-2.131l-.512-.512a3.13 3.13 0 010-4.427l1.509-1.508a3.13 3.13 0 014.427 0l.51.511c.686-.354 1.398-.65 2.132-.884v-.722a3.134 3.134 0 013.13-3.13h2.134a3.133 3.133 0 013.13 3.13v.722c.734.234 1.446.53 2.131.885l.512-.512a3.13 3.13 0 014.427 0l1.508 1.509a3.13 3.13 0 010 4.426l-.512.512c.355.685.65 1.397.885 2.131h.722a3.134 3.134 0 013.13 3.13v2.134a3.134 3.134 0 01-3.13 3.13h-.722a13.73 13.73 0 01-.885 2.131l.512.512a3.13 3.13 0 010 4.427l-1.509 1.508a3.13 3.13 0 01-4.427 0l-.51-.511c-.686.354-1.398.65-2.132.884v.722a3.133 3.133 0 01-3.13 3.13zm-7.062-6.829c.951.563 1.975.988 3.043 1.264.44.113.747.51.747.964v1.471c0 .627.51 1.138 1.138 1.138h2.134a1.14 1.14 0 001.138-1.138V40.4c0-.455.307-.852.747-.965 1.068-.276 2.092-.7 3.043-1.264a.996.996 0 011.212.154l1.042 1.041c.449.45 1.17.44 1.608 0l1.51-1.508a1.138 1.138 0 000-1.609l-1.042-1.042a.996.996 0 01-.153-1.212 11.74 11.74 0 001.263-3.043.996.996 0 01.964-.747h1.471a1.14 1.14 0 001.138-1.138v-2.134a1.14 1.14 0 00-1.138-1.138H97.4a.996.996 0 01-.965-.747 11.742 11.742 0 00-1.263-3.043.996.996 0 01.153-1.212l1.041-1.041c.45-.45.44-1.171 0-1.61l-1.508-1.508a1.137 1.137 0 00-1.609 0l-1.042 1.042a.996.996 0 01-1.212.153 11.741 11.741 0 00-3.043-1.264.996.996 0 01-.747-.964V14.13a1.14 1.14 0 00-1.138-1.138h-2.134a1.14 1.14 0 00-1.138 1.138v1.47a.996.996 0 01-.747.965c-1.068.276-2.092.7-3.043 1.264a.996.996 0 01-1.212-.154l-1.042-1.041c-.449-.45-1.17-.44-1.608 0l-1.51 1.508a1.138 1.138 0 000 1.609l1.042 1.042c.322.322.385.82.154 1.212a11.74 11.74 0 00-1.264 3.043.996.996 0 01-.964.747H71.13a1.14 1.14 0 00-1.138 1.138v2.134c0 .627.51 1.138 1.138 1.138h1.47c.455 0 .852.307.965.747.276 1.068.7 2.092 1.263 3.043a.996.996 0 01-.153 1.212l-1.041 1.042a1.137 1.137 0 000 1.608l1.508 1.51c.438.437 1.16.45 1.609 0l1.042-1.043c.237-.236.73-.437 1.212-.153z"/>
      <path d="M85.5 35c-4.136 0-7.5-3.364-7.5-7.5s3.364-7.5 7.5-7.5 7.5 3.364 7.5 7.5-3.364 7.5-7.5 7.5zm0-12.98a5.486 5.486 0 00-5.48 5.48 5.486 5.486 0 005.48 5.48 5.486 5.486 0 005.48-5.48 5.486 5.486 0 00-5.48-5.48z"/>
    </g>
    <g fill="#37474F" fill-rule="nonzero">
      <path d="M112.34 44.065l-1.965-.833a3.134 3.134 0 01-1.658-4.104l.282-.665a13.726 13.726 0 01-1.616-1.647l-.67.27a3.13 3.13 0 01-4.076-1.73l-.799-1.977a3.13 3.13 0 011.73-4.075l.67-.27c-.058-.77-.052-1.541.02-2.308l-.665-.282a3.134 3.134 0 01-1.658-4.104l.833-1.965a3.134 3.134 0 014.104-1.658l.665.282a13.73 13.73 0 011.647-1.616l-.27-.67a3.13 3.13 0 011.73-4.076l1.977-.799a3.13 3.13 0 014.075 1.73l.27.67c.77-.058 1.541-.052 2.308.02l.282-.665a3.134 3.134 0 014.104-1.658l1.965.833a3.133 3.133 0 011.658 4.104l-.282.665a13.726 13.726 0 011.616 1.647l.67-.27a3.13 3.13 0 014.076 1.73l.799 1.977a3.13 3.13 0 01-1.73 4.075l-.67.27c.058.77.052 1.541-.02 2.308l.665.282a3.134 3.134 0 011.658 4.104l-.833 1.965a3.134 3.134 0 01-4.104 1.658l-.665-.282a13.73 13.73 0 01-1.647 1.616l.27.67a3.13 3.13 0 01-1.73 4.076l-1.977.799a3.13 3.13 0 01-4.075-1.73l-.27-.67c-.77.058-1.541.052-2.308-.02l-.282.665a3.133 3.133 0 01-4.104 1.658zm-3.833-9.045c.656.89 1.432 1.681 2.308 2.352.36.277.488.762.31 1.18l-.574 1.354a1.14 1.14 0 00.603 1.492l1.964.834a1.14 1.14 0 001.492-.603l.575-1.354a.996.996 0 011.064-.596c1.091.164 2.2.173 3.296.026a.996.996 0 011.055.615l.552 1.366c.237.59.906.861 1.48.629l1.98-.8c.572-.23.867-.89.628-1.48l-.552-1.367a.996.996 0 01.332-1.175 11.74 11.74 0 002.352-2.308.996.996 0 011.18-.31l1.354.574a1.14 1.14 0 001.492-.603l.834-1.964a1.14 1.14 0 00-.603-1.492l-1.354-.575a.996.996 0 01-.596-1.064c.164-1.091.173-2.2.027-3.295a.996.996 0 01.614-1.056l1.366-.551c.59-.239.861-.907.629-1.481l-.8-1.979a1.137 1.137 0 00-1.48-.629l-1.367.552a.996.996 0 01-1.175-.332 11.741 11.741 0 00-2.308-2.352.996.996 0 01-.31-1.18l.574-1.354a1.14 1.14 0 00-.603-1.492l-1.964-.834a1.14 1.14 0 00-1.492.603l-.575 1.354a.996.996 0 01-1.064.596c-1.091-.164-2.2-.173-3.295-.026a.996.996 0 01-1.056-.615l-.552-1.366a1.137 1.137 0 00-1.48-.629l-1.98.8c-.572.23-.867.89-.628 1.48l.552 1.367a.996.996 0 01-.332 1.175 11.74 11.74 0 00-2.352 2.308.996.996 0 01-1.18.31l-1.354-.574a1.14 1.14 0 00-1.492.603l-.834 1.964a1.14 1.14 0 00.603 1.492l1.354.575a.996.996 0 01.596 1.064c-.164 1.091-.173 2.2-.026 3.295a.996.996 0 01-.615 1.056l-1.366.552c-.59.238-.861.906-.629 1.48l.8 1.979c.231.574.89.868 1.48.629l1.367-.552c.31-.126.843-.118 1.175.332z"/>
      <path d="M115.725 34.639c-3.807-1.616-5.589-6.028-3.973-9.834 1.616-3.807 6.027-5.59 9.834-3.974 3.807 1.616 5.59 6.028 3.973 9.835-1.615 3.806-6.027 5.589-9.834 3.973zm5.072-11.948a5.486 5.486 0 00-7.186 2.903 5.486 5.486 0 002.903 7.186 5.486 5.486 0 007.186-2.904 5.486 5.486 0 00-2.903-7.185z"/>
    </g>
    <rect stroke="#FFE000" stroke-width="2" x="1" y="46" width="202" height="44" rx="10"/>
  </g>
</svg>
