<svg xmlns="http://www.w3.org/2000/svg" viewBox="0 0 320 320">
  <path d="M6.436 188.182l10.285 10.285 31.193-31.194h16.792L33.33 198.65l10.285 10.286 41.661-41.663h57.165L87.035 222.68l-49.224-.001v14.546h34.678L43.305 266.41l10.285 10.285 29.184-29.185v34.68h14.545v-49.225l55.408-55.407v57.165l-41.663 41.662 10.286 10.285 31.377-31.377v16.792l-31.194 31.193 10.285 10.286 20.909-20.909V320h14.546v-27.345l20.909 20.909 10.285-10.286-31.194-31.193v-16.792l31.377 31.377 10.286-10.285-41.663-41.662v-57.165l55.408 55.407v49.225h14.545v-34.68l29.184 29.185 10.285-10.285-29.184-29.185h34.679v-14.546l-49.225.001-55.406-55.407h57.164l41.662 41.663 10.285-10.286-31.377-31.377h16.792l31.192 31.194 10.286-10.285-20.908-20.909H320v-14.546h-27.345l20.908-20.909-10.286-10.285-31.192 31.194h-16.792l31.377-31.377-10.285-10.286-41.662 41.663h-57.165l55.406-55.406h49.226V82.775h-34.68l23.441-23.441-10.285-10.285-23.44 23.44V37.81h-14.545v49.224l-55.408 55.408V85.277l41.663-41.662L198.65 33.33l-31.377 31.377V47.916l31.194-31.194-10.285-10.285-20.909 20.908V0h-14.546v27.345L131.818 6.437l-10.285 10.285 31.194 31.194v16.791L121.35 33.33l-10.286 10.285 41.663 41.662v57.165L97.319 87.034V37.81H82.774v34.679l-23.44-23.44-10.285 10.285L72.49 82.775H37.811v14.546h49.225l55.406 55.406H85.276l-41.661-41.663L33.33 121.35l31.376 31.377H47.914l-31.193-31.194-10.285 10.285 20.908 20.909H0v14.546h27.344z"/>
</svg>
