<svg height="512pt" viewBox="0 -33 512.00037 512" width="512pt" xmlns="http://www.w3.org/2000/svg"><path d="m128.933594 396.179688h366.894531c-16.773437-52.359376-65.847656-90.261719-123.773437-90.261719h-362.039063v90.261719" fill="#db9970"/><path d="m10.015625 396.179688v39.683593h491.984375c0-13.839843-2.164062-27.175781-6.171875-39.683593" fill="#fcc595"/><path d="m90.332031 406.175781c-.648437 0-1.308593-.058593-1.960937-.1875-.628906-.132812-1.261719-.320312-1.867188-.570312-.601562-.25-1.183594-.5625-1.722656-.921875-.550781-.367188-1.058594-.789063-1.527344-1.25-.460937-.457032-.871094-.96875-1.242187-1.519532-.359375-.539062-.667969-1.121093-.917969-1.71875-.25-.609374-.441406-1.242187-.570312-1.878906-.132813-.640625-.191407-1.300781-.191407-1.953125 0-.648437.058594-1.308593.191407-1.949219.128906-.640624.320312-1.269531.570312-1.867187.25-.613281.558594-1.191406.917969-1.730469.371093-.550781.78125-1.0625 1.242187-1.519531.46875-.460937.976563-.882813 1.527344-1.242187.539062-.359376 1.121094-.667969 1.722656-.917969.605469-.25 1.238282-.453125 1.867188-.570313 1.289062-.261718 2.621094-.261718 3.910156 0 .640625.117188 1.269531.320313 1.871094.570313.609375.25 1.1875.558593 1.726562.917969.550782.359374 1.0625.78125 1.523438 1.242187.457031.457031.878906.96875 1.238281 1.519531.359375.539063.671875 1.117188.921875 1.730469.25.597656.4375 1.226563.566406 1.867187.132813.640626.199219 1.300782.199219 1.949219 0 .652344-.066406 1.3125-.199219 1.953125-.128906.636719-.316406 1.269532-.566406 1.878906-.25.597657-.5625 1.179688-.921875 1.71875-.359375.550782-.78125 1.0625-1.238281 1.519532-.460938.460937-.972656.882812-1.523438 1.25-.539062.359375-1.117187.671875-1.726562.921875-.601563.25-1.230469.4375-1.871094.570312-.640625.128907-1.300781.1875-1.949219.1875zm0 0"/><path d="m172.589844 197.195312-39-45.839843h14.164062c7.839844 0 12.046875-9.214844 6.914063-15.140625l-34.828125-40.214844h15.121094c7.402343 0 11.742187-8.328125 7.5-14.390625l-50.058594-71.609375-50.058594 71.609375c-4.242188 6.0625.097656 14.390625 7.5 14.390625h15.121094l-34.828125 40.214844c-5.132813 5.925781-.921875 15.140625 6.917969 15.140625h14.164062l-39.003906 45.839843c-5.058594 5.941407-.835938 15.078126 6.96875 15.078126h146.4375c7.804687 0 12.027344-9.136719 6.96875-15.078126zm0 0" fill="#4ce0a1"/><path d="m326.1875 123.15625-105.9375 77.820312v136.410157h211.875v-136.410157zm0 0" fill="#fcc595"/><path d="m296.816406 273.875h58.738282v63.511719h-58.738282zm0 0" fill="#d38a5a"/><path d="m256.40625 122.902344v-26.625h-34.726562v52.132812" fill="#db9970"/><path d="m449.132812 213.46875-122.945312-90.3125-122.945312 90.3125v-49.226562l122.945312-90.3125 122.945312 90.3125zm0 0" fill="#ff5046"/><path d="m356.097656 207.125c0 16.519531-13.390625 29.910156-29.910156 29.910156s-29.914062-13.390625-29.914062-29.910156c0-16.523438 13.394531-29.914062 29.914062-29.914062s29.910156 13.390624 29.910156 29.914062zm0 0" fill="#a7dbd8"/><path d="m326.1875 247.035156c-22.007812 0-39.914062-17.902344-39.914062-39.910156s17.90625-39.914062 39.914062-39.914062 39.910156 17.90625 39.910156 39.914062-17.902344 39.910156-39.910156 39.910156zm0-59.824218c-10.980469 0-19.914062 8.933593-19.914062 19.914062s8.933593 19.910156 19.914062 19.910156 19.914062-8.929687 19.914062-19.910156-8.933593-19.914062-19.914062-19.914062zm0 0"/><path d="m109.855469 263.066406v-50.792968h-34.90625v43.578124" fill="#fcc595"/><path d="m62.585938 337.386719h-52.570313v-66.894531l26.285156-26.882813 26.285157 26.882813zm0 0" fill="#f7bb50"/><path d="m115.160156 337.386719h-52.574218v-66.894531l26.289062-26.882813 26.285156 26.882813zm0 0" fill="#ffd170"/><path d="m167.734375 337.386719h-52.574219v-66.894531l26.289063-26.882813 26.285156 26.882813zm0 0" fill="#f7bb50"/><path d="m220.308594 337.386719h-52.574219v-66.894531l26.285156-26.882813 26.289063 26.882813zm0 0" fill="#ffd170"/><path d="m505.359375 393.15625c0-.011719-.003906-.019531-.007813-.027344-10.617187-33.136718-33.046874-60.945312-63.226562-78.425781v-93.972656l1.085938.796875c3.035156 2.234375 7.074218 2.566406 10.433593.863281 3.363281-1.703125 5.484375-5.148437 5.484375-8.921875v-49.222656c0-3.183594-1.515625-6.175782-4.078125-8.058594l-122.945312-90.316406c-3.519531-2.585938-8.316407-2.585938-11.839844 0l-53.859375 39.566406v-9.160156c0-5.523438-4.480469-10-10-10h-34.726562c-5.519532 0-10 4.476562-10 10v49.359375l-14.355469 10.546875c-2.566407 1.882812-4.082031 4.875-4.082031 8.058594v49.226562c0 3.769531 2.121093 7.21875 5.484374 8.921875 1.425782.722656 2.972657 1.078125 4.515626 1.078125 2.089843 0 4.171874-.65625 5.921874-1.941406l1.085938-.800782v25.175782l-9.082031-9.285156c-1.878907-1.925782-4.457031-3.007813-7.148438-3.007813-2.6875 0-5.265625 1.082031-7.148437 3.007813l-19.136719 19.570312-19.136719-19.570312c-1.882812-1.921876-4.460937-3.007813-7.148437-3.007813-2.691407 0-5.269531 1.085937-7.152344 3.007813l-14.441406 14.769531v-29.113281h45.769531c7.554688 0 14.214844-4.257813 17.382812-11.113282 3.167969-6.859375 2.097657-14.691406-2.796874-20.445312l-25.933594-30.476563c4.761718-1.699219 8.6875-5.246093 10.894531-10.078125 3.152344-6.902344 2.027344-14.753906-2.941406-20.492187l-21.3125-24.609375c4.6875-1.523438 8.671875-4.832032 11.03125-9.359375 3.308593-6.351563 2.816406-13.949219-1.289063-19.820313l-50.0625-71.609375c-1.871094-2.675781-4.929687-4.269531-8.195312-4.269531s-6.324219 1.59375-8.195313 4.269531l-50.058593 71.609375c-4.105469 5.871094-4.601563 13.46875-1.289063 19.820313 2.359375 4.527343 6.34375 7.835937 11.03125 9.359375l-21.3125 24.609375c-4.96875 5.738281-6.097656 13.589843-2.941406 20.492187 2.203125 4.832032 6.132812 8.378906 10.890625 10.078125l-25.929688 30.476563c-4.894531 5.753906-5.96875 13.585937-2.800781 20.445312 3.171875 6.855469 9.832031 11.113282 17.386719 11.113282h45.765625v31.5l-2.363281 2.414062-19.136719-19.570312c-1.878907-1.921876-4.457031-3.007813-7.148438-3.007813-2.691406 0-5.269531 1.085937-7.148437 3.007813l-26.285156 26.882812c-1.828126 1.867188-2.851563 4.378906-2.851563 6.992188v165.371093c0 2.652344 1.050781 5.195313 2.925781 7.070313 1.878906 1.875 4.421875 2.929687 7.074219 2.929687h491.984375c5.523438 0 10-4.476562 10-10 0-14.578125-2.234375-28.945312-6.640625-42.707031zm-83.234375-187.117188v121.347657h-56.570312v-53.511719c0-5.523438-4.476563-10-10-10h-58.738282c-5.519531 0-10 4.476562-10 10v53.511719h-56.507812v-56.894531c0-.355469-.023438-.707032-.058594-1.054688v-63.398438l95.9375-70.472656zm-76.566406 121.347657h-38.742188v-43.511719h38.742188zm-19.371094-241.046875 112.945312 82.964844v24.410156l-107.027343-78.617188c-.585938-.429687-1.203125-.789062-1.847657-1.074218-1.296874-.578126-2.683593-.867188-4.070312-.867188-2.078125 0-4.160156.648438-5.921875 1.941406l-107.023437 78.617188v-24.410156zm-94.507812 19.933594h14.726562v13.855468l-14.726562 10.816406zm-37.660157 151.640624 16.230469 16.59375v52.875h-32.515625v-52.816406zm-52.570312 0 16.285156 16.652344v52.816406h-32.574219v-52.816406zm-68.863281 16.65625 16.289062-16.65625 16.285156 16.65625v52.816407h-32.574218zm-16.75-113.214843h39.429687c5.523437 0 10-4.476563 10-10 0-5.523438-4.476563-10-10-10h-56.351563l33.609376-38.808594c2.5625-2.957031 3.164062-7.140625 1.535156-10.699219-1.625-3.5625-5.179688-5.847656-9.09375-5.847656h-13.492188l40.929688-58.546875 40.929687 58.546875h-7.636719c-.023437 0-.050781 0-.074218 0h-30.269532c-5.523437 0-10 4.476562-10 10s4.476563 10 10 10h19.917969l30.621094 35.355469h-12.300781c-3.898438 0-7.441406 2.265625-9.078125 5.804687-1.636719 3.539063-1.066407 7.707032 1.460937 10.675782l37.8125 44.441406h-142.765625zm44.019531 60.917969v18.265624l-3.832031-3.921874c-1.878907-1.921876-4.457032-3.007813-7.148438-3.007813-1.363281 0-2.695312.28125-3.925781.804687v-12.140624zm-79.839844 52.296874 16.285156-16.65625 16.285157 16.65625v52.816407h-32.570313zm0 151.292969v-78.476562h412.109375c2.652344 0 5.195312-1.054688 7.070312-2.929688 1.621094-1.621093 2.628907-3.746093 2.871094-6.007812 17.0625 12.253906 30.546875 28.675781 39.203125 47.730469h-352.335937c-5.523438 0-10 4.476562-10 10 0 5.523437 4.476562 10 10 10h359.367187c1.640625 6.445312 2.738281 13.023437 3.289063 19.6875h-471.574219zm0 0"/></svg>