<svg xmlns="http://www.w3.org/2000/svg" width="548" height="548" viewBox="-3 -3 70 70">
  <circle r="32" cx="32" cy="32" fill="#bac8d3" stroke="#000" stroke-width="1px"/>
  <g xmlns="http://www.w3.org/2000/svg">
    <path d="M18 20.8v19.6h-1.4V53h4.578a2.8 2.8 0 012.422-4.2 2.8 2.8 0 012.443 1.428l.357-.028c.315 0 .609.063.889.154a4.194 4.194 0 011.911-2.387V20.8z" fill="#ffeaa7" data-original="#ffeaa7"/>
    <path d="M43.2 13.8v15.4H39V32h-1.4v16.891a2.788 2.788 0 00-2.625.679A4.192 4.192 0 0031.3 47.4c-.763 0-1.484.203-2.1.56V16.6l4.2-.84 2.8-.56 2.8-.56z" fill="#dfb28b" data-original="#dfb28b"/>
    <path d="M48.8 25v4.2H46V25h1.4z" fill="#fcd770" data-original="#fcd770"/>
    <path d="M50.2 29.2V32H39v-2.8h9.8z" fill="#ccd1d9" data-original="#ccd1d9"/>
    <path d="M50.2 32H37.6v21h14V32z" fill="#e6e9ed" data-original="#e6e9ed"/>
    <path d="M44.6 34.8h-4.2v13.167a4.119 4.119 0 012.1-.567c.77 0 1.484.21 2.1.567a4.171 4.171 0 011.89 2.331c.294-.063.595-.098.91-.098.49 0 .959.084 1.4.245V34.8z" fill="#aab2bd" data-original="#aab2bd"/>
    <path d="M37.6 19.4h2.8v4.2h-2.8zM32 19.4h2.8v4.2H32zM32 26.4h2.8v4.2H32zM32 33.4h2.8v4.2H32zM32 40.4h2.8v4.2H32z" fill="#69d6f4" data-original="#69d6f4"/>
    <path d="M17.307 40.323a2.959 2.959 0 01-.707.077c-2.317 0-4.2-2.191-4.2-4.9s1.883-4.9 4.2-4.9c.49 0 .959.098 1.4.28.861.35 1.589 1.022 2.086 1.897.455.777.714 1.708.714 2.723 0 2.429-1.512 4.438-3.493 4.823z" fill="#b4dd7f" data-original="#b4dd7f"/>
    <path d="M23.152 33.533C24.265 34.415 25 35.906 25 37.6c0 2.709-1.883 4.9-4.2 4.9-1.456 0-2.737-.861-3.493-2.177 1.981-.385 3.493-2.394 3.493-4.823a5.367 5.367 0 00-.714-2.723h.007c.231-.049.462-.077.707-.077.868 0 1.68.308 2.352.833z" fill="#a0d468" data-original="#a0d468"/>
    <ellipse cx="6" cy="51" fill="#a0d468" rx="4" ry="5" data-original="#a0d468" transform="matrix(.7 0 0 .7 9.6 9.6)"/>
    <path d="M51.362 53H21.178a2.8 2.8 0 012.422-4.2 2.8 2.8 0 012.443 1.428l.357-.028c.315 0 .609.063.889.154a4.194 4.194 0 011.911-2.387v-.007a4.184 4.184 0 012.1-.56c1.582 0 2.961.875 3.675 2.17a2.788 2.788 0 013.85 0 4.175 4.175 0 011.575-1.603 4.119 4.119 0 012.1-.567c.77 0 1.484.21 2.1.567a4.171 4.171 0 011.89 2.331c.294-.063.595-.098.91-.098.49 0 .959.084 1.4.245A4.229 4.229 0 0151.362 53z" fill="#b4dd7f" data-original="#b4dd7f"/>
    <g>
      <path d="M52.3 52.3v-21h-1.4v-2.8h-1.4v-4.2h-1.4v-2.8h-1.4v2.8h-1.4v4.2h-1.4V12.946l-4.2.84V11.7h-1.4v2.366l-1.4.28V10.3h-1.4v4.326l-1.4.28V11.7h-1.4v3.487l-4.2.84V20.1H15.9v1.4h1.4v8.464a4.295 4.295 0 00-.7-.064c-2.701 0-4.9 2.512-4.9 5.6 0 2.815 1.83 5.146 4.2 5.536v.912c-.586-.53-1.312-.848-2.1-.848-1.93 0-3.5 1.884-3.5 4.2 0 2.029 1.205 3.725 2.8 4.115V52.3h-2.8v1.4h43.4v-1.4zm-30.8-.7c0-1.158.942-2.1 2.1-2.1.756 0 1.457.41 1.83 1.069l.218.384.752-.053c.206 0 .423.04.664.121l.68.228.212-.685A3.483 3.483 0 0131.3 48.1c1.273 0 2.447.694 3.065 1.81l.438.793.656-.623c.79-.747 2.092-.747 2.88 0l.657.623.438-.792A3.508 3.508 0 0142.5 48.1a3.49 3.49 0 013.327 2.418l.197.604.62-.137a3.489 3.489 0 013.541 1.315h-28.55a2.097 2.097 0 01-.135-.7zm29.4-18.9v18.296a4.942 4.942 0 00-1.4-1.009V34.1h-9.8v13.489c-.393.274-.75.6-1.051.983a3.217 3.217 0 00-.349-.172V32.7zm-8.4 14c-.482 0-.951.078-1.4.213V35.5h2.8v11.403a4.917 4.917 0 00-1.4-.203zm2.8-11.2h2.8v14.066a4.802 4.802 0 00-1.163-.044 4.88 4.88 0 00-1.637-1.934zm-5.6-4.2v-1.4h9.8v1.4zm7-5.6h1.4v2.8h-1.4zm-4.2-11.046V28.5h-4.2v2.8h-1.4v16.81c-.61 0-1.22.155-1.749.462A4.904 4.904 0 0029.9 46.9V17.173zM18.7 21.5h9.8v26.083a4.86 4.86 0 00-1.646 1.952 3.545 3.545 0 00-.453-.033A3.508 3.508 0 0023.6 48.1c-1.93 0-3.5 1.57-3.5 3.5 0 .237.031.47.078.7H17.3v-2.542l4.2-4.899v-1.723c2.37-.39 4.2-2.72 4.2-5.536 0-2.107-1.025-3.944-2.533-4.9H24.3v-1.4h-1.4v1.248A4.365 4.365 0 0020.8 32c-.12 0-.244.008-.368.02a5.093 5.093 0 00-1.732-1.572zm2.8 14c0-.735-.128-1.436-.354-2.079 1.768.21 3.154 2.003 3.154 4.179 0 2.316-1.57 4.2-3.5 4.2-.883 0-1.723-.407-2.363-1.112 1.793-.833 3.063-2.843 3.063-5.188zm-4.2 6.007c.751.88 1.73 1.456 2.8 1.631v1.204l-2.8 3.267zM13.1 35.5c0-2.316 1.57-4.2 3.5-4.2s3.5 1.884 3.5 4.2c0 2.029-1.205 3.725-2.8 4.115V34.8h-1.4v4.815c-1.595-.39-2.8-2.086-2.8-4.115zm-1.4 9.8c0-1.544.942-2.8 2.1-2.8s2.1 1.256 2.1 2.8-.942 2.8-2.1 2.8-2.1-1.256-2.1-2.8zm2.8 4.115a3.247 3.247 0 001.4-.763V52.3h-1.4z" data-original="#000000"/>
      <path d="M35.5 18.7h-4.2v5.6h4.2zm-1.4 4.2h-1.4v-2.8h1.4zM35.5 25.7h-4.2v5.6h4.2zm-1.4 4.2h-1.4v-2.8h1.4zM35.5 32.7h-4.2v5.6h4.2zm-1.4 4.2h-1.4v-2.8h1.4zM35.5 39.7h-4.2v5.6h4.2zm-1.4 4.2h-1.4v-2.8h1.4zM41.1 18.7h-4.2v5.6h4.2zm-1.4 4.2h-1.4v-2.8h1.4zM22.9 22.9h1.4v1.4h-1.4zM25.7 22.9h1.4v1.4h-1.4zM20.1 22.9h1.4v1.4h-1.4zM22.9 25.7h1.4v1.4h-1.4zM20.1 25.7h1.4v1.4h-1.4zM25.7 25.7h1.4v1.4h-1.4zM20.1 28.5h1.4v1.4h-1.4zM22.9 28.5h1.4v1.4h-1.4zM25.7 28.5h1.4v1.4h-1.4zM25.7 31.3h1.4v1.4h-1.4z" data-original="#000000"/>
    </g>
  </g>
</svg>
