  <svg width="100px" height="100px" viewBox="0 0 512 512" xmlns="http://www.w3.org/2000/svg">
  <g fill="#47d9f5">
    <path d="m232.996094 184.933594c-4.605469 0-6.746094 2.402344-6.746094 7.5625v20.78125c0 5.160156 2.144531 7.5625 6.746094 7.5625 4.652344 0 6.820312-2.402344 6.820312-7.5625v-20.78125c-.003906-5.160156-2.167968-7.5625-6.820312-7.5625zm3.320312 21.757812c-1.664062 1.894532-4.832031 1.871094-6.519531.015625-1.675781-1.832031-1.613281-5.136719-.035156-6.859375 1.585937-1.742187 5.722656-.894531 6.539062 0 1.609375 1.761719 1.59375 5.046875.015625 6.84375zm0 0"/>
    <path d="m143.695312 184.933594c-4.605468 0-6.746093 2.402344-6.746093 7.5625v20.78125c0 5.160156 2.144531 7.5625 6.746093 7.5625 4.652344 0 6.820313-2.402344 6.820313-7.5625v-20.78125c0-5.160156-2.167969-7.5625-6.820313-7.5625zm.074219 23.160156c-5.949219 0-6.109375-9.59375 0-9.59375 2.71875 0 4.425781 1.992188 4.425781 4.757812 0 2.765626-1.703124 4.835938-4.425781 4.835938zm0 0"/>
    <path d="m109.210938 95.558594c-4.601563 0-6.746094 2.402344-6.746094 7.5625v20.78125c0 5.160156 2.144531 7.5625 6.746094 7.5625 4.652343 0 6.820312-2.402344 6.820312-7.5625v-20.78125c0-5.160156-2.167969-7.5625-6.820312-7.5625zm3.320312 21.757812c-1.660156 1.894532-4.828125 1.867188-6.515625.015625-1.675781-1.832031-1.613281-5.136719-.039063-6.859375 1.589844-1.742187 4.828126-1.878906 6.542969-.003906 1.609375 1.765625 1.589844 5.050781.011719 6.847656zm0 0"/>
    <path d="m296.773438 223.910156v-134.464844c0-14.90625-12.082032-26.988281-26.988282-26.988281h-232.796875c-14.90625 0-26.988281 12.082031-26.988281 26.988281v134.464844c0 14.902344 12.082031 26.988282 26.988281 26.988282h106.652344c6.011719 0 11.796875 2.292968 16.171875 6.417968l38.046875 35.851563c9.496094 8.953125 25.09375 2.171875 25.023437-10.878907l-.039062-7.691406c-.070312-13.070312 10.507812-23.699218 23.578125-23.699218h23.363281c14.90625 0 26.988282-12.085938 26.988282-26.988282zm-108.847657-138.042968c2.695313-2.25 7.9375-.183594 7.9375 3.179687v48.410156c0 5.359375-11.683593 5.449219-11.683593 0v-37.359375l-.675782.679688c-2.667968 2.40625-6.625.074218-6.625-3.910156 0-4.027344 2.800782-4.183594 11.046875-11zm-34.484375 0c2.699219-2.25 7.9375-.183594 7.9375 3.179687v48.410156c0 5.359375-11.683594 5.449219-11.683594 0v-37.359375l-.675781.679688c-1.542969 1.394531-4.03125 1.367187-5.53125-.628906-.722656-.96875-1.089843-2.070313-1.089843-3.28125 0-4.027344 2.800781-4.183594 11.042968-11zm-81.363281 140.964843c0 3.917969-6.320313 5.101563-9.769531 3.101563-3.0625-1.773438-1.582032-1.132813-1.914063-40.457032l-.675781.675782c-1.542969 1.394531-4.03125 1.371094-5.527344-.628906-1.714844-2.289063-1.511718-5.871094 1.226563-7.625 8.96875-6.582032 9.105469-7.605469 11.339843-7.605469 2.519532 0 5.320313 1.566406 5.320313 4.128906zm0-89.375c0 5.371094-11.683594 5.4375-11.683594 0v-37.359375l-.675781.679688c-4.519531 4.082031-9.738281-4.769532-4.300781-8.253906 8.96875-6.582032 9.105469-7.605469 11.339843-7.605469 2.519532 0 5.320313 1.566406 5.320313 4.128906zm34.484375 89.375c0 5.371094-11.683594 5.4375-11.683594 0v-37.355469l-.675781.675782c-.722656.648437-1.546875.964844-2.496094.964844-2.511719 0-4.128906-2.488282-4.128906-4.875 0-4.027344 2.800781-4.183594 11.046875-11 2.707031-2.253907 7.9375-.171876 7.9375 3.179687zm2.648438-84.875c-11.511719 0-18.425782-5.996093-18.425782-18.054687v-20.78125c0-12.097656 6.957032-18.054688 18.425782-18.054688 11.460937 0 18.503906 5.945313 18.503906 18.054688v20.78125c0 12.101562-7.035156 18.054687-18.503906 18.054687zm52.984374 71.320313c0 6.1875-1.71875 10.800781-5.113281 13.71875-6.769531 5.816406-19.996093 5.839844-26.742187-.003906-7.667969-6.640626-4.203125-18.390626-5.074219-34.496094 0-6.183594 1.707031-10.796875 5.074219-13.714844 6.75-5.84375 19.96875-5.816406 26.742187-.003906 7.707031 6.628906 4.230469 18.242187 5.113281 34.5zm33.667969 13.554687c0 3.933594-6.339843 5.089844-9.769531 3.101563-1.582031-.914063-1.914062-2.191406-1.914062-3.101563v-37.355469l-.675782.675782c-1.546875 1.394531-4.035156 1.371094-5.53125-.628906-1.714844-2.289063-1.511718-5.871094 1.230469-7.625l8.722656-6.65625c1.730469-1.441407 4.308594-1.113282 6.148438.113281 2.894531 1.929687 1.46875-.132813 1.789062 51.476562zm55.632813-13.554687c0 12.101562-7.03125 18.054687-18.5 18.054687-11.515625 0-18.429688-5.996093-18.429688-18.054687v-20.78125c0-12.097656 6.957032-18.054688 18.429688-18.054688 11.460937 0 18.5 5.945313 18.5 18.054688zm-5.113282-75.65625c-6.769531 5.816406-19.996093 5.839844-26.742187-.003906-7.667969-6.640626-4.203125-18.390626-5.074219-34.496094 0-12.097656 6.957032-18.054688 18.425782-18.054688 11.460937 0 18.503906 5.945313 18.503906 18.054688-.878906 16.144531 2.613281 27.859375-5.113282 34.5zm0 0"/>
    <path d="m232.996094 95.558594c-4.605469 0-6.746094 2.402344-6.746094 7.5625v20.78125c0 5.160156 2.144531 7.5625 6.746094 7.5625 4.652344 0 6.820312-2.402344 6.820312-7.5625v-20.78125c-.003906-5.160156-2.167968-7.5625-6.820312-7.5625zm.074218 23.160156c-2.613281 0-4.5-1.945312-4.5-4.835938 0-5.066406 6.015626-5.289062 7.730469-3.414062 2.402344 2.636719 1.183594 8.25-3.230469 8.25zm0 0"/>
  </g>
  <path d="m433.191406 313.019531c-6.699218-3.078125-11.023437-9.742187-11.023437-17.117187v-123.457032c0-5.492187-2.328125-10.730468-6.40625-14.40625l-12.664063-11.421874c-5.789062-5.222657-6.570312-14.019532-1.792968-20.175782l12.964843-16.710937c4.402344-5.671875 3.5-13.816407-2.035156-18.386719l-9.503906-7.851562c-6.863281-5.664063-7.25-16.050782-.828125-22.214844l14.296875-13.71875c3.8125-3.660156 5.96875-8.714844 5.96875-14v-9.578125c0-7.722657-6.257813-13.980469-13.976563-13.980469h-35.097656c-12.960938 0-23.472656 10.507812-23.472656 23.472656v262.421875c0 7.390625-4.34375 14.054688-11.058594 17.136719-34.929688 16.035156-59.167969 45.457031-60.019531 86.808594-1.214844 58.824218 45.9375 100.714844 104.757812 102.101562 60.488281 1.425782 109.972657-39.675781 109.972657-99.839844-.003907-42.328124-24.496094-72.722656-60.082032-89.082031zm-47.296875 131.140625c-27.285156 0-49.402343-14.613281-49.402343-41.898437 0-27.28125 22.121093-41.894531 49.402343-41.894531 27.285157 0 49.398438 14.613281 49.398438 41.894531 0 27.285156-22.113281 41.898437-49.398438 41.898437zm0 0"
        fill="#ffd14b"/>
  <path d="m66.757812 84.917969c-2.230468 0-2.371093 1.019531-11.335937 7.605469-5.441406 3.484374-.222656 12.335937 4.296875 8.25l.679688-.675782v37.359375c0 5.433594 11.679687 5.371094 11.679687 0v-48.410156c0-2.5625-2.796875-4.128906-5.320313-4.128906zm0 0"/>
  <path d="m127.714844 103.121094c0-12.109375-7.042969-18.054688-18.503906-18.054688-11.46875 0-18.425782 5.957032-18.425782 18.054688v20.78125c0 12.058594 6.914063 18.054687 18.425782 18.054687 11.46875 0 18.503906-5.953125 18.503906-18.054687zm-11.683594 20.78125c0 5.160156-2.167969 7.5625-6.820312 7.5625-4.601563 0-6.746094-2.402344-6.746094-7.5625v-20.78125c0-5.160156 2.144531-7.5625 6.746094-7.5625 4.652343 0 6.820312 2.402344 6.820312 7.5625zm0 0"/>
  <path d="m105.976562 110.472656c-1.574218 1.726563-1.636718 5.027344.039063 6.859375 1.6875 1.851563 4.855469 1.878907 6.519531-.015625 1.574219-1.796875 1.59375-5.082031-.015625-6.847656-1.714843-1.875-4.953125-1.738281-6.542969.003906zm0 0"/>
  <path d="m149.019531 100.773438.675781-.675782v37.359375c0 5.449219 11.683594 5.359375 11.683594 0v-48.410156c0-3.363281-5.238281-5.429687-7.9375-3.179687-8.242187 6.816406-11.042968 6.96875-11.042968 11 0 1.210937.367187 2.3125 1.089843 3.277343 1.5 2 3.988281 2.027344 5.53125.628907zm0 0"/>
  <path d="m183.503906 100.773438.675782-.675782v37.359375c0 5.449219 11.683593 5.359375 11.683593 0v-48.410156c0-3.363281-5.238281-5.429687-7.9375-3.179687-8.242187 6.816406-11.042969 6.96875-11.042969 11-.003906 3.980468 3.953126 6.316406 6.621094 3.90625zm0 0"/>
  <path d="m251.496094 103.121094c0-12.109375-7.039063-18.054688-18.5-18.054688-11.472656 0-18.429688 5.957032-18.429688 18.054688.871094 16.105468-2.59375 27.855468 5.074219 34.496094 6.746094 5.84375 19.972656 5.820312 26.742187.003906 7.726563-6.640625 4.234376-18.355469 5.113282-34.5zm-11.683594 20.78125c0 5.160156-2.164062 7.5625-6.820312 7.5625-4.601563 0-6.746094-2.402344-6.746094-7.5625v-20.78125c0-5.160156 2.144531-7.5625 6.746094-7.5625 4.65625 0 6.820312 2.402344 6.820312 7.5625zm0 0"/>
  <path d="m228.570312 113.882812c0 2.890626 1.886719 4.835938 4.5 4.835938 4.414063 0 5.632813-5.613281 3.230469-8.25-1.714843-1.875-7.730469-1.652344-7.730469 3.414062zm0 0"/>
  <path d="m66.757812 174.292969c-2.230468 0-2.371093 1.019531-11.335937 7.605469-2.742187 1.753906-2.945313 5.335937-1.230469 7.625 1.496094 1.996093 3.984375 2.023437 5.527344.628906l.679688-.679688c.328124 39.324219-1.152344 38.6875 1.910156 40.460938 3.453125 2 9.769531.8125 9.769531-3.101563v-48.410156c0-2.5625-2.796875-4.128906-5.320313-4.128906zm0 0"/>
  <path d="m98.625 175.242188c-8.242188 6.816406-11.042969 6.972656-11.042969 11 0 2.382812 1.617188 4.871093 4.128907 4.871093.945312 0 1.773437-.3125 2.492187-.960937l.679687-.679688v37.359375c0 5.433594 11.679688 5.371094 11.679688 0v-48.410156c0-3.355469-5.230469-5.433594-7.9375-3.179687zm0 0"/>
  <path d="m143.769531 198.5c-6.109375 0-5.949219 9.597656 0 9.597656 2.722657 0 4.425781-2.074218 4.425781-4.839844 0-2.765624-1.707031-4.757812-4.425781-4.757812zm0 0"/>
  <path d="m157.082031 178.777344c-6.773437-5.8125-19.992187-5.839844-26.742187.003906-3.367188 2.917969-5.074219 7.53125-5.074219 13.714844.871094 16.105468-2.59375 27.855468 5.074219 34.496094 6.746094 5.84375 19.972656 5.820312 26.742187.003906 3.394531-2.917969 5.113281-7.53125 5.113281-13.71875-.882812-16.257813 2.59375-27.871094-5.113281-34.5zm-6.566406 34.5c0 5.160156-2.167969 7.566406-6.820313 7.566406-4.605468 0-6.746093-2.40625-6.746093-7.566406v-20.78125c0-5.160156 2.144531-7.5625 6.746093-7.5625 4.652344 0 6.820313 2.402344 6.820313 7.5625zm0 0"/>
  <path d="m194.074219 175.355469c-1.839844-1.226563-4.417969-1.554688-6.148438-.113281l-8.722656 6.65625c-2.742187 1.753906-2.945313 5.335937-1.230469 7.625 1.5 1.996093 3.988282 2.023437 5.53125.628906l.675782-.679688v37.359375c0 .910157.332031 2.183594 1.914062 3.101563 3.429688 1.988281 9.769531.832031 9.769531-3.101563-.320312-51.609375 1.105469-49.546875-1.789062-51.476562zm0 0"/>
  <path d="m229.761719 199.847656c-1.578125 1.722656-1.640625 5.023438.039062 6.859375 1.6875 1.851563 4.851563 1.878907 6.515625-.015625 1.578125-1.796875 1.59375-5.082031-.015625-6.847656-.816406-.890625-4.949219-1.738281-6.539062.003906zm0 0"/>
  <path d="m232.996094 174.441406c-11.472656 0-18.429688 5.957032-18.429688 18.054688v20.78125c0 12.058594 6.914063 18.054687 18.429688 18.054687 11.46875 0 18.5-5.953125 18.5-18.054687v-20.78125c0-12.109375-7.039063-18.054688-18.5-18.054688zm6.816406 38.835938c0 5.160156-2.164062 7.566406-6.820312 7.566406-4.601563 0-6.746094-2.40625-6.746094-7.566406v-20.78125c0-5.160156 2.144531-7.5625 6.746094-7.5625 4.65625 0 6.820312 2.402344 6.820312 7.5625zm0 0"/>
  <path d="m306.773438 223.910156v-134.464844c0-20.394531-16.589844-36.988281-36.988282-36.988281h-232.796875c-20.394531 0-36.988281 16.59375-36.988281 36.988281v134.464844c0 20.394532 16.59375 36.984375 36.988281 36.984375h106.652344c3.476563 0 6.78125 1.316407 9.3125 3.699219l38.046875 35.851562c15.910156 14.996094 41.996094 3.625 41.882812-18.210937.457032-5.03125-1.753906-11.644531 3.910157-17.335937 2.570312-2.582032 5.988281-4.003907 9.628906-4.003907h23.367187c20.394532 0 36.984376-16.589843 36.984376-36.984375zm-84.15625 26.882813c-12.742188 12.808593-9.210938 27.65625-9.734376 31.546875.023438 4.292968-5.074218 6.46875-8.167968 3.554687l-38.046875-35.855469c-6.253907-5.894531-14.433594-9.140624-23.027344-9.140624h-106.652344c-9.367187 0-16.988281-7.621094-16.988281-16.988282v-134.464844c0-9.367187 7.621094-16.988281 16.988281-16.988281h232.800781c9.367188 0 16.988282 7.621094 16.988282 16.988281v134.464844c0 9.367188-7.621094 16.988282-16.988282 16.988282h-23.367187c-9.003906 0-17.457031 3.511718-23.804687 9.894531zm0 0"/>
  <path d="m66.757812 84.917969c-2.230468 0-2.371093 1.019531-11.335937 7.605469-5.441406 3.484374-.222656 12.335937 4.296875 8.25l.679688-.675782v37.359375c0 5.433594 11.679687 5.371094 11.679687 0v-48.410156c0-2.5625-2.796875-4.128906-5.320313-4.128906zm0 0"/>
  <path d="m127.714844 103.121094c0-12.109375-7.042969-18.054688-18.503906-18.054688-11.46875 0-18.425782 5.957032-18.425782 18.054688v20.78125c0 12.058594 6.914063 18.054687 18.425782 18.054687 11.46875 0 18.503906-5.953125 18.503906-18.054687zm-11.683594 20.78125c0 5.160156-2.167969 7.5625-6.820312 7.5625-4.601563 0-6.746094-2.402344-6.746094-7.5625v-20.78125c0-5.160156 2.144531-7.5625 6.746094-7.5625 4.652343 0 6.820312 2.402344 6.820312 7.5625zm0 0"/>
  <path d="m105.976562 110.472656c-1.574218 1.726563-1.636718 5.027344.039063 6.859375 1.6875 1.851563 4.855469 1.878907 6.519531-.015625 1.574219-1.796875 1.59375-5.082031-.015625-6.847656-1.714843-1.875-4.953125-1.738281-6.542969.003906zm0 0"/>
  <path d="m149.019531 100.773438.675781-.675782v37.359375c0 5.449219 11.683594 5.359375 11.683594 0v-48.410156c0-3.363281-5.238281-5.429687-7.9375-3.179687-8.242187 6.816406-11.042968 6.96875-11.042968 11 0 1.210937.367187 2.3125 1.089843 3.277343 1.5 2 3.988281 2.027344 5.53125.628907zm0 0"/>
  <path d="m187.925781 85.867188c-8.246093 6.816406-11.046875 6.96875-11.046875 11 0 3.980468 3.957032 6.316406 6.625 3.90625l.675782-.675782v37.359375c0 5.449219 11.683593 5.359375 11.683593 0v-48.410156c0-3.363281-5.242187-5.429687-7.9375-3.179687zm0 0"/>
  <path d="m232.996094 85.066406c-11.472656 0-18.429688 5.957032-18.429688 18.054688.871094 16.105468-2.59375 27.859375 5.074219 34.496094 6.746094 5.84375 19.972656 5.820312 26.742187.003906 7.726563-6.640625 4.234376-18.355469 5.113282-34.5 0-12.109375-7.039063-18.054688-18.5-18.054688zm6.816406 38.835938c0 5.160156-2.164062 7.5625-6.820312 7.5625-4.601563 0-6.746094-2.402344-6.746094-7.5625v-20.78125c0-5.160156 2.144531-7.5625 6.746094-7.5625 4.65625 0 6.820312 2.402344 6.820312 7.5625zm0 0"/>
  <path d="m228.570312 113.882812c0 2.890626 1.886719 4.835938 4.5 4.835938 4.414063 0 5.632813-5.613281 3.230469-8.25-1.714843-1.875-7.730469-1.652344-7.730469 3.414062zm0 0"/>
  <path d="m66.757812 174.292969c-2.230468 0-2.371093 1.019531-11.335937 7.605469-2.742187 1.753906-2.945313 5.335937-1.230469 7.625 1.496094 1.996093 3.984375 2.023437 5.527344.628906l.679688-.679688c.328124 39.324219-1.152344 38.6875 1.910156 40.460938 3.453125 1.996094 9.769531.816406 9.769531-3.101563v-48.410156c0-2.5625-2.796875-4.128906-5.320313-4.128906zm0 0"/>
  <path d="m98.625 175.242188c-8.242188 6.816406-11.042969 6.972656-11.042969 11 0 2.382812 1.617188 4.871093 4.128907 4.871093.945312 0 1.773437-.3125 2.492187-.960937l.679687-.679688v37.359375c0 5.433594 11.679688 5.371094 11.679688 0v-48.410156c0-3.355469-5.230469-5.433594-7.9375-3.179687zm0 0"/>
  <path d="m143.769531 198.5c-6.109375 0-5.949219 9.597656 0 9.597656 2.722657 0 4.425781-2.074218 4.425781-4.839844 0-2.765624-1.707031-4.757812-4.425781-4.757812zm0 0"/>
  <path d="m157.082031 178.777344c-6.773437-5.8125-19.992187-5.839844-26.742187.003906-3.367188 2.917969-5.074219 7.53125-5.074219 13.714844.871094 16.105468-2.59375 27.859375 5.074219 34.496094 6.746094 5.84375 19.972656 5.820312 26.742187.003906 3.394531-2.917969 5.113281-7.53125 5.113281-13.71875-.882812-16.257813 2.59375-27.871094-5.113281-34.5zm-6.566406 34.5c0 5.160156-2.167969 7.566406-6.820313 7.566406-4.605468 0-6.746093-2.40625-6.746093-7.566406v-20.78125c0-5.160156 2.144531-7.5625 6.746093-7.5625 4.652344 0 6.820313 2.402344 6.820313 7.5625zm0 0"/>
  <path d="m194.074219 175.355469c-1.839844-1.226563-4.417969-1.554688-6.148438-.113281l-8.722656 6.65625c-2.742187 1.753906-2.945313 5.335937-1.230469 7.625 1.5 1.996093 3.988282 2.023437 5.53125.628906l.675782-.679688v37.359375c0 .910157.332031 2.183594 1.914062 3.101563 3.429688 1.988281 9.769531.832031 9.769531-3.101563-.320312-51.605469 1.105469-49.546875-1.789062-51.476562zm0 0"/>
  <path d="m229.761719 199.847656c-1.578125 1.722656-1.640625 5.023438.039062 6.859375 1.6875 1.851563 4.851563 1.878907 6.515625-.015625 1.578125-1.796875 1.59375-5.082031-.015625-6.847656-.816406-.890625-4.949219-1.738281-6.539062.003906zm0 0"/>
  <path d="m232.996094 174.441406c-11.472656 0-18.429688 5.957032-18.429688 18.054688v20.78125c0 12.058594 6.914063 18.054687 18.429688 18.054687 11.46875 0 18.5-5.953125 18.5-18.054687v-20.78125c0-12.109375-7.039063-18.054688-18.5-18.054688zm6.816406 38.835938c0 5.160156-2.164062 7.566406-6.820312 7.566406-4.601563 0-6.746094-2.40625-6.746094-7.566406v-20.78125c0-5.160156 2.144531-7.5625 6.746094-7.5625 4.65625 0 6.820312 2.402344 6.820312 7.5625zm0 0"/>
  <path d="m437.367188 303.933594c-3.160157-1.453125-5.203126-4.605469-5.203126-8.03125v-123.457032c0-8.3125-3.539062-16.269531-9.707031-21.832031l-12.664062-11.425781c-1.890625-1.703125-2.148438-4.609375-.589844-6.617188l12.964844-16.714843c7.765625-10.003907 6.195312-24.15625-3.566407-32.222657l-9.503906-7.851562c-2.253906-1.859375-2.382812-5.265625-.273437-7.289062l14.296875-13.722657c12.023437-11.535156 8.390625-25.769531 9.042968-30.792969.003907-13.21875-10.753906-23.976562-23.976562-23.976562h-35.09375c-18.457031 0-33.472656 15.015625-33.472656 33.46875v262.425781c0 3.429688-2.054688 6.589844-5.234375 8.050781-39.617188 18.1875-64.933594 51.574219-65.84375 95.6875-2.21875 107.378907 134.457031 146.25 202.976562 79.324219 20.476563-19.996093 31.75-47.292969 31.75-76.855469 0-43.132812-24.019531-78.914062-65.902343-98.167968zm-53.832032 188.007812c-53.757812-1.265625-96.089844-39.050781-94.996094-91.894531.714844-34.535156 19.957032-62.210937 54.191407-77.925781 10.261719-4.710938 16.890625-15.007813 16.890625-26.226563v-262.425781c0-7.425781 6.042968-13.46875 13.472656-13.46875h35.097656c2.191406 0 3.976563 1.785156 3.976563 3.976562-.503907 7.011719 1.519531 12.132813-2.894531 16.367188l-14.292969 13.71875c-10.695313 10.261719-10.125 27.632812 1.378906 37.140625l9.507813 7.851563c1.375 1.136718 1.597656 3.132812.503906 4.542968l-12.96875 16.710938c-7.941406 10.238281-6.625 25.054687 2.996094 33.730468l12.664062 11.425782c4.769531 4.300781 2.539062 9.714844 3.105469 17.648437h-23.214844c-5.523437 0-10 4.476563-10 10 0 5.519531 4.476563 9.996094 10 9.996094h23.214844v27.597656h-23.214844c-5.523437 0-10 4.476563-10 10 0 5.519531 4.476563 9.996094 10 9.996094h23.214844v45.199219c0 11.210937 6.613281 21.5 16.847656 26.203125 34.988281 16.085937 54.257813 44.492187 54.257813 79.992187 0 53.992188-44.191407 91.15625-99.738282 89.84375zm0 0"/>
  <path d="m385.894531 350.367188c-16.25 0-30.476562 4.449218-41.132812 12.871093-11.949219 9.441407-18.269531 22.9375-18.269531 39.023438 0 16.085937 6.320312 29.582031 18.269531 39.027343 10.65625 8.417969 24.878906 12.867188 41.132812 12.867188 5.523438 0 10-4.476562 10-10 0-5.519531-4.476562-10-10-10-19.046875 0-39.402343-8.378906-39.402343-31.894531s20.355468-31.894531 39.402343-31.894531c18.421875 0 38.4375 7.949218 39.367188 30.265624.230469 5.515626 4.878906 9.785157 10.40625 9.574219 5.519531-.230469 9.804687-4.890625 9.574219-10.40625-1.230469-29.566406-25.082032-49.433593-59.347657-49.433593zm0 0"/>
  <path d="m422.011719 422.460938c-5.523438 0-10 4.476562-10 10 0 5.523437 4.476562 10 10 10h.023437c5.523438 0 9.988282-4.476563 9.988282-10 0-5.523438-4.488282-10-10.011719-10zm0 0"/>
</svg>