<?xml version="1.0" encoding="UTF-8"?>
<svg width="100px" height="100px" viewBox="0 0 100 100" version="1.1" xmlns="http://www.w3.org/2000/svg" xmlns:xlink="http://www.w3.org/1999/xlink">
  <title>circuit-board</title>
  <g id="Page-1" stroke="none" stroke-width="1" fill="none" fill-rule="evenodd">
    <g id="circuit-board" fill-rule="nonzero">
      <g id="Group" transform="translate(1.612903, 1.612903)">
        <polygon id="Path" fill="#E6E9ED" points="93.5483871 0 93.5483871 12.9032258 74.1935484 12.9032258 74.1935484 6.4516129 74.1935484 0"></polygon>
        <polygon id="Path" fill="#E6E9ED" points="48.3870968 12.9032258 48.3870968 0 67.7419355 0 67.7419355 6.4516129 67.7419355 12.9032258"></polygon>
        <polygon id="Path" fill="#E6E9ED" points="0 93.5483871 0 80.6451613 3.22580645 80.6451613 9.67741935 80.6451613 16.1290323 80.6451613 19.3548387 80.6451613 19.3548387 93.5483871 16.1290323 93.5483871 9.67741935 93.5483871 3.22580645 93.5483871"></polygon>
        <path d="M67.7419355,64.516129 L67.7419355,66.1290323 C67.7419355,67.016129 67.016129,67.7419355 66.1290323,67.7419355 L64.516129,67.7419355 L58.0645161,67.7419355 L51.6129032,67.7419355 L45.1612903,67.7419355 L38.7096774,67.7419355 L32.2580645,67.7419355 L30.6451613,67.7419355 C29.7580645,67.7419355 29.0322581,67.016129 29.0322581,66.1290323 L29.0322581,64.516129 L29.0322581,58.0645161 L29.0322581,51.6129032 L29.0322581,45.1612903 L29.0322581,38.7096774 L29.0322581,32.2580645 L29.0322581,30.6451613 C29.0322581,29.7580645 29.7580645,29.0322581 30.6451613,29.0322581 L32.2580645,29.0322581 L38.7096774,29.0322581 L45.1612903,29.0322581 L51.6129032,29.0322581 L58.0645161,29.0322581 L64.516129,29.0322581 L66.1290323,29.0322581 C67.016129,29.0322581 67.7419355,29.7580645 67.7419355,30.6451613 L67.7419355,32.2580645 L67.7419355,38.7096774 L67.7419355,45.1612903 L67.7419355,51.6129032 L67.7419355,58.0645161 L67.7419355,64.516129 Z" id="Path" fill="#FCD770"></path>
        <circle id="Oval" fill="#FF826E" cx="58.0645161" cy="38.7096774" r="3.22580645"></circle>
        <circle id="Oval" fill="#FF826E" cx="38.7096774" cy="58.0645161" r="3.22580645"></circle>
        <circle id="Oval" fill="#FF826E" cx="41.9354839" cy="87.0967742" r="3.22580645"></circle>
        <circle id="Oval" fill="#FF826E" cx="29.0322581" cy="87.0967742" r="3.22580645"></circle>
        <circle id="Oval" fill="#FF826E" cx="3.22580645" cy="67.7419355" r="3.22580645"></circle>
        <circle id="Oval" fill="#FF826E" cx="12.9032258" cy="46.7741935" r="3.22580645"></circle>
        <circle id="Oval" fill="#FF826E" cx="3.22580645" cy="3.22580645" r="3.22580645"></circle>
        <circle id="Oval" fill="#FF826E" cx="38.7096774" cy="6.4516129" r="3.22580645"></circle>
        <circle id="Oval" fill="#FF826E" cx="83.8709677" cy="48.3870968" r="3.22580645"></circle>
        <circle id="Oval" fill="#FF826E" cx="93.5483871" cy="38.7096774" r="3.22580645"></circle>
        <circle id="Oval" fill="#FF826E" cx="93.5483871" cy="93.5483871" r="3.22580645"></circle>
      </g>
      <g id="Group" fill="#000000">
        <path d="M59.6774194,35.483871 C57.0096774,35.483871 54.8387097,37.6548387 54.8387097,40.3225806 C54.8387097,42.9903226 57.0096774,45.1612903 59.6774194,45.1612903 C62.3451613,45.1612903 64.516129,42.9903226 64.516129,40.3225806 C64.516129,37.6548387 62.3451613,35.483871 59.6774194,35.483871 Z M59.6774194,41.9354839 C58.7870968,41.9354839 58.0645161,41.2112903 58.0645161,40.3225806 C58.0645161,39.433871 58.7870968,38.7096774 59.6774194,38.7096774 C60.5677419,38.7096774 61.2903226,39.433871 61.2903226,40.3225806 C61.2903226,41.2112903 60.5677419,41.9354839 59.6774194,41.9354839 Z" id="Shape"></path>
        <path d="M40.3225806,54.8387097 C37.6548387,54.8387097 35.483871,57.0096774 35.483871,59.6774194 C35.483871,62.3451613 37.6548387,64.516129 40.3225806,64.516129 C42.9903226,64.516129 45.1612903,62.3451613 45.1612903,59.6774194 C45.1612903,57.0096774 42.9903226,54.8387097 40.3225806,54.8387097 Z M40.3225806,61.2903226 C39.4322581,61.2903226 38.7096774,60.566129 38.7096774,59.6774194 C38.7096774,58.7887097 39.4322581,58.0645161 40.3225806,58.0645161 C41.2129032,58.0645161 41.9354839,58.7887097 41.9354839,59.6774194 C41.9354839,60.566129 41.2129032,61.2903226 40.3225806,61.2903226 Z" id="Shape"></path>
        <path d="M30.6451613,83.8709677 C27.9774194,83.8709677 25.8064516,86.0419355 25.8064516,88.7096774 C25.8064516,91.3774194 27.9774194,93.5483871 30.6451613,93.5483871 C33.3129032,93.5483871 35.483871,91.3774194 35.483871,88.7096774 C35.483871,86.0419355 33.3129032,83.8709677 30.6451613,83.8709677 Z M30.6451613,90.3225806 C29.7548387,90.3225806 29.0322581,89.5983871 29.0322581,88.7096774 C29.0322581,87.8209677 29.7548387,87.0967742 30.6451613,87.0967742 C31.5354839,87.0967742 32.2580645,87.8209677 32.2580645,88.7096774 C32.2580645,89.5983871 31.5354839,90.3225806 30.6451613,90.3225806 Z" id="Shape"></path>
        <path d="M43.5483871,83.8709677 C40.8806452,83.8709677 38.7096774,86.0419355 38.7096774,88.7096774 C38.7096774,91.3774194 40.8806452,93.5483871 43.5483871,93.5483871 C46.216129,93.5483871 48.3870968,91.3774194 48.3870968,88.7096774 C48.3870968,86.0419355 46.216129,83.8709677 43.5483871,83.8709677 Z M43.5483871,90.3225806 C42.6580645,90.3225806 41.9354839,89.5983871 41.9354839,88.7096774 C41.9354839,87.8209677 42.6580645,87.0967742 43.5483871,87.0967742 C44.4387097,87.0967742 45.1612903,87.8209677 45.1612903,88.7096774 C45.1612903,89.5983871 44.4387097,90.3225806 43.5483871,90.3225806 Z" id="Shape"></path>
        <polygon id="Path" points="58.0645161 58.0645161 48.3870968 58.0645161 48.3870968 61.2903226 61.2903226 61.2903226 61.2903226 48.3870968 58.0645161 48.3870968"></polygon>
        <polygon id="Path" points="41.9354839 41.9354839 51.6129032 41.9354839 51.6129032 38.7096774 38.7096774 38.7096774 38.7096774 51.6129032 41.9354839 51.6129032"></polygon>
        <path d="M51.6129032,70.9677419 L51.6129032,77.4193548 L54.8387097,77.4193548 L54.8387097,70.9677419 L58.0645161,70.9677419 L58.0645161,77.4193548 L61.2903226,77.4193548 L61.2903226,70.9677419 L64.516129,70.9677419 L64.516129,77.4193548 L67.7419355,77.4193548 L67.7419355,70.9677419 C69.5209677,70.9677419 70.9677419,69.5209677 70.9677419,67.7419355 L77.4193548,67.7419355 L77.4193548,64.516129 L70.9677419,64.516129 L70.9677419,61.2903226 L77.4193548,61.2903226 L77.4193548,58.0645161 L70.9677419,58.0645161 L70.9677419,54.8387097 L77.4193548,54.8387097 L77.4193548,51.6129032 L70.9677419,51.6129032 L70.9677419,48.3870968 L77.4193548,48.3870968 L77.4193548,45.1612903 L70.9677419,45.1612903 L70.9677419,41.9354839 L77.4193548,41.9354839 L77.4193548,38.7096774 L70.9677419,38.7096774 L70.9677419,35.483871 L77.4193548,35.483871 L77.4193548,32.2580645 L70.9677419,32.2580645 C70.9677419,30.4790323 69.5209677,29.0322581 67.7419355,29.0322581 L67.7419355,22.5806452 L64.516129,22.5806452 L64.516129,29.0322581 L61.2903226,29.0322581 L61.2903226,22.5806452 L58.0645161,22.5806452 L58.0645161,29.0322581 L54.8387097,29.0322581 L54.8387097,22.5806452 L51.6129032,22.5806452 L51.6129032,29.0322581 L48.3870968,29.0322581 L48.3870968,22.5806452 L45.1612903,22.5806452 L45.1612903,29.0322581 L41.9354839,29.0322581 L41.9354839,22.5806452 L38.7096774,22.5806452 L38.7096774,29.0322581 L35.483871,29.0322581 L35.483871,22.5806452 L32.2580645,22.5806452 L32.2580645,29.0322581 C30.4790323,29.0322581 29.0322581,30.4790323 29.0322581,32.2580645 L22.5806452,32.2580645 L22.5806452,35.483871 L29.0322581,35.483871 L29.0322581,38.7096774 L22.5806452,38.7096774 L22.5806452,41.9354839 L29.0322581,41.9354839 L29.0322581,45.1612903 L22.5806452,45.1612903 L22.5806452,48.3870968 L29.0322581,48.3870968 L29.0322581,51.6129032 L22.5806452,51.6129032 L22.5806452,54.8387097 L29.0322581,54.8387097 L29.0322581,58.0645161 L22.5806452,58.0645161 L22.5806452,61.2903226 L29.0322581,61.2903226 L29.0322581,64.516129 L22.5806452,64.516129 L22.5806452,67.7419355 L29.0322581,67.7419355 C29.0322581,69.5209677 30.4790323,70.9677419 32.2580645,70.9677419 L32.2580645,77.4193548 L35.483871,77.4193548 L35.483871,70.9677419 L38.7096774,70.9677419 L38.7096774,77.4193548 L41.9354839,77.4193548 L41.9354839,70.9677419 L45.1612903,70.9677419 L45.1612903,77.4193548 L48.3870968,77.4193548 L48.3870968,70.9677419 L51.6129032,70.9677419 Z M32.2580645,32.2580645 L67.7419355,32.2580645 L67.7435484,67.7419355 L32.2580645,67.7419355 L32.2580645,32.2580645 Z" id="Shape"></path>
        <polygon id="Path" points="12.9032258 87.0967742 16.1290323 87.0967742 16.1290323 90.3225806 12.9032258 90.3225806"></polygon>
        <polygon id="Path" points="6.4516129 87.0967742 9.67741935 87.0967742 9.67741935 90.3225806 6.4516129 90.3225806"></polygon>
        <polygon id="Path" points="87.0967742 6.4516129 90.3225806 6.4516129 90.3225806 9.67741935 87.0967742 9.67741935"></polygon>
        <polygon id="Path" points="80.6451613 6.4516129 83.8709677 6.4516129 83.8709677 9.67741935 80.6451613 9.67741935"></polygon>
        <path d="M70.9677419,9.67741935 L74.1935484,9.67741935 L74.1935484,16.1290323 L96.7741935,16.1290323 L96.7741935,0 L74.1935484,0 L74.1935484,6.4516129 L70.9677419,6.4516129 L70.9677419,0 L48.3870968,0 L48.3870968,16.1290323 L70.9677419,16.1290323 L70.9677419,9.67741935 Z M77.4193548,3.22580645 L93.5483871,3.22580645 L93.5483871,12.9032258 L77.4193548,12.9032258 L77.4193548,3.22580645 Z M67.7419355,12.9032258 L51.6129032,12.9032258 L51.6129032,3.22580645 L67.7419355,3.22580645 L67.7419355,12.9032258 Z" id="Shape"></path>
        <polygon id="Path" points="54.8387097 6.4516129 58.0645161 6.4516129 58.0645161 9.67741935 54.8387097 9.67741935"></polygon>
        <polygon id="Path" points="61.2903226 6.4516129 64.516129 6.4516129 64.516129 9.67741935 61.2903226 9.67741935"></polygon>
        <path d="M19.3548387,77.4193548 L16.1290323,77.4193548 L16.1290323,80.6451613 L12.9032258,80.6451613 L12.9032258,77.4193548 L9.67741935,77.4193548 L9.67741935,80.6451613 L6.4516129,80.6451613 L6.4516129,77.4193548 L3.22580645,77.4193548 L3.22580645,80.6451613 L0,80.6451613 L0,96.7741935 L3.22580645,96.7741935 L3.22580645,100 L6.4516129,100 L6.4516129,96.7741935 L9.67741935,96.7741935 L9.67741935,100 L12.9032258,100 L12.9032258,96.7741935 L16.1290323,96.7741935 L16.1290323,100 L19.3548387,100 L19.3548387,96.7741935 L22.5806452,96.7741935 L22.5806452,80.6451613 L19.3548387,80.6451613 L19.3548387,77.4193548 Z M19.3548387,93.5483871 L3.22580645,93.5483871 L3.22580645,83.8709677 L19.3548387,83.8709677 L19.3548387,93.5483871 Z" id="Shape"></path>
        <path d="M95.1612903,90.3225806 C92.4935484,90.3225806 90.3225806,92.4935484 90.3225806,95.1612903 C90.3225806,97.8290323 92.4935484,100 95.1612903,100 C97.8290323,100 100,97.8290323 100,95.1612903 C100,92.4935484 97.8290323,90.3225806 95.1612903,90.3225806 Z M95.1612903,96.7741935 C94.2709677,96.7741935 93.5483871,96.05 93.5483871,95.1612903 C93.5483871,94.2725806 94.2709677,93.5483871 95.1612903,93.5483871 C96.0516129,93.5483871 96.7741935,94.2725806 96.7741935,95.1612903 C96.7741935,96.05 96.0516129,96.7741935 95.1612903,96.7741935 Z" id="Shape"></path>
        <polygon id="Path" points="64.516129 93.5483871 87.0967742 93.5483871 87.0967742 96.7741935 64.516129 96.7741935"></polygon>
        <path d="M93.5483871,51.6129032 L93.5483871,87.0967742 L96.7741935,87.0967742 L96.7741935,48.3870968 L90.0258065,48.3870968 C89.3580645,46.5145161 87.583871,45.1612903 85.483871,45.1612903 C82.816129,45.1612903 80.6451613,47.3322581 80.6451613,50 C80.6451613,52.6677419 82.816129,54.8387097 85.483871,54.8387097 C87.583871,54.8387097 89.3580645,53.4854839 90.0258065,51.6129032 L93.5483871,51.6129032 Z M85.483871,51.6129032 C84.5935484,51.6129032 83.8709677,50.8887097 83.8709677,50 C83.8709677,49.1112903 84.5935484,48.3870968 85.483871,48.3870968 C86.3741935,48.3870968 87.0967742,49.1112903 87.0967742,50 C87.0967742,50.8887097 86.3741935,51.6129032 85.483871,51.6129032 Z" id="Shape"></path>
        <polygon id="Path" points="83.8709677 87.0967742 51.6129032 87.0967742 51.6129032 90.3225806 87.0967742 90.3225806 87.0967742 58.0645161 83.8709677 58.0645161"></polygon>
        <polygon id="Path" points="83.8709677 19.3548387 87.0967742 19.3548387 87.0967742 41.9354839 83.8709677 41.9354839"></polygon>
        <path d="M90.3225806,40.3225806 C90.3225806,42.9903226 92.4935484,45.1612903 95.1612903,45.1612903 C97.8290323,45.1612903 100,42.9903226 100,40.3225806 C100,37.6548387 97.8290323,35.483871 95.1612903,35.483871 C92.4935484,35.483871 90.3225806,37.6548387 90.3225806,40.3225806 Z M96.7741935,40.3225806 C96.7741935,41.2112903 96.0516129,41.9354839 95.1612903,41.9354839 C94.2709677,41.9354839 93.5483871,41.2112903 93.5483871,40.3225806 C93.5483871,39.433871 94.2709677,38.7096774 95.1612903,38.7096774 C96.0516129,38.7096774 96.7741935,39.433871 96.7741935,40.3225806 Z" id="Shape"></path>
        <polygon id="Path" points="93.5483871 19.3548387 96.7741935 19.3548387 96.7741935 32.2580645 93.5483871 32.2580645"></polygon>
        <path d="M4.83870968,74.1935484 C7.50645161,74.1935484 9.67741935,72.0225806 9.67741935,69.3548387 C9.67741935,66.6870968 7.50645161,64.516129 4.83870968,64.516129 C2.17096774,64.516129 0,66.6870968 0,69.3548387 C0,72.0225806 2.17096774,74.1935484 4.83870968,74.1935484 Z M4.83870968,67.7419355 C5.72903226,67.7419355 6.4516129,68.466129 6.4516129,69.3548387 C6.4516129,70.2435484 5.72903226,70.9677419 4.83870968,70.9677419 C3.9483871,70.9677419 3.22580645,70.2435484 3.22580645,69.3548387 C3.22580645,68.466129 3.9483871,67.7419355 4.83870968,67.7419355 Z" id="Shape"></path>
        <polygon id="Path" points="16.1290323 32.2580645 12.9032258 32.2580645 12.9032258 37.0967742 3.22580645 37.0967742 3.22580645 61.2903226 6.4516129 61.2903226 6.4516129 40.3225806 16.1290323 40.3225806"></polygon>
        <path d="M9.67741935,48.3870968 C9.67741935,51.0548387 11.8483871,53.2258065 14.516129,53.2258065 C17.183871,53.2258065 19.3548387,51.0548387 19.3548387,48.3870968 C19.3548387,45.7193548 17.183871,43.5483871 14.516129,43.5483871 C11.8483871,43.5483871 9.67741935,45.7193548 9.67741935,48.3870968 Z M16.1290323,48.3870968 C16.1290323,49.2758065 15.4064516,50 14.516129,50 C13.6258065,50 12.9032258,49.2758065 12.9032258,48.3870968 C12.9032258,47.4983871 13.6258065,46.7741935 14.516129,46.7741935 C15.4064516,46.7741935 16.1290323,47.4983871 16.1290323,48.3870968 Z" id="Shape"></path>
        <polygon id="Path" points="12.9032258 56.4516129 16.1290323 56.4516129 16.1290323 72.5806452 12.9032258 72.5806452"></polygon>
        <path d="M4.83870968,9.67741935 C7.50645161,9.67741935 9.67741935,7.50645161 9.67741935,4.83870968 C9.67741935,2.17096774 7.50645161,0 4.83870968,0 C2.17096774,0 0,2.17096774 0,4.83870968 C0,7.50645161 2.17096774,9.67741935 4.83870968,9.67741935 Z M4.83870968,3.22580645 C5.72903226,3.22580645 6.4516129,3.95 6.4516129,4.83870968 C6.4516129,5.72741935 5.72903226,6.4516129 4.83870968,6.4516129 C3.9483871,6.4516129 3.22580645,5.72741935 3.22580645,4.83870968 C3.22580645,3.95 3.9483871,3.22580645 4.83870968,3.22580645 Z" id="Shape"></path>
        <path d="M40.3225806,12.9032258 C42.9903226,12.9032258 45.1612903,10.7322581 45.1612903,8.06451613 C45.1612903,5.39677419 42.9903226,3.22580645 40.3225806,3.22580645 C37.6548387,3.22580645 35.483871,5.39677419 35.483871,8.06451613 C35.483871,10.7322581 37.6548387,12.9032258 40.3225806,12.9032258 Z M40.3225806,6.4516129 C41.2129032,6.4516129 41.9354839,7.17580645 41.9354839,8.06451613 C41.9354839,8.95322581 41.2129032,9.67741935 40.3225806,9.67741935 C39.4322581,9.67741935 38.7096774,8.95322581 38.7096774,8.06451613 C38.7096774,7.17580645 39.4322581,6.4516129 40.3225806,6.4516129 Z" id="Shape"></path>
        <polygon id="Path" points="22.5806452 20.9677419 29.0322581 20.9677419 29.0322581 9.67741935 32.2580645 9.67741935 32.2580645 6.4516129 25.8064516 6.4516129 25.8064516 17.7419355 19.3548387 17.7419355 19.3548387 29.0322581 22.5806452 29.0322581"></polygon>
        <polygon id="Path" points="6.4516129 11.2903226 3.22580645 11.2903226 3.22580645 24.1935484 12.9032258 24.1935484 12.9032258 29.0322581 16.1290323 29.0322581 16.1290323 20.9677419 6.4516129 20.9677419"></polygon>
      </g>
    </g>
  </g>
</svg>