<?xml version="1.0" encoding="UTF-8"?>
<svg width="100px" height="100px" viewBox="0 0 100 100" version="1.1" xmlns="http://www.w3.org/2000/svg" xmlns:xlink="http://www.w3.org/1999/xlink" style="width: 100px; height: 100px;">
  <title>group</title>
  <g id="Page-1" stroke="none" stroke-width="1" fill="none" fill-rule="evenodd">
    <g id="group" fill-rule="nonzero">
      <path d="M67.7419355,50 L67.7419355,40.5808972 C67.7419355,39.0648627 67.2583794,37.6126198 66.4030998,36.4517704 C65.5486077,35.2743827 64.3546812,34.3545238 62.9032258,33.8709677 L61.5643901,32.5321321 L61.8227067,32.2580645 L72.5806452,29.0322581 C72.5806452,29.0322581 74.1935484,32.2580645 77.4193548,32.2580645 C80.6451613,32.2580645 82.2580645,29.0322581 82.2580645,29.0322581 L93.7901651,32.4840915 C96.515877,33.3062942 98.3870968,35.8225177 98.3870968,38.6773879 L98.3870968,51.6129032 L87.0967742,51.6129032 L87.0967742,50 C87.0967742,44.6611958 82.7581591,40.3225806 77.4193548,40.3225806 C74.7416835,40.3225806 72.3223286,41.4030998 70.5802671,43.1609123 C68.8224546,44.9029738 67.7419355,47.3223286 67.7419355,50 Z" id="Path" fill="#FF826E"></path>
      <path d="M32.2580645,44.5320375 L32.2580645,50 C32.2580645,47.3223286 31.1775454,44.9029738 29.4197329,43.1609123 C27.6776714,41.4030998 25.2583165,40.3225806 22.5806452,40.3225806 C17.2418409,40.3225806 12.9032258,44.6611958 12.9032258,50 L12.9032258,51.6129032 L1.61290323,51.6129032 L1.61290323,38.6773879 C1.61290323,35.8225177 3.48412298,33.3062942 6.20983488,32.4840915 L17.7419355,29.0322581 C17.7419355,29.0322581 19.3548387,32.2580645 22.5806452,32.2580645 C25.8064516,32.2580645 27.4193548,29.0322581 27.4193548,29.0322581 L37.6291583,32.0966167 C34.3222341,35.2098034 32.2580645,39.6287488 32.2580645,44.5320375 Z" id="Path" fill="#FF826E"></path>
      <path d="M88.7096774,90.3225806 L80.6451613,90.3225806 C78.8708103,90.3225806 77.4193548,91.7740361 77.4193548,93.5483871 L77.4193548,83.5000315 C77.4193548,78.9999685 74.3061681,75.0968687 69.9195123,74.0809286 L59.8546181,71.7584425 L59.7900391,71.741904 C60.1775139,71.515877 60.6130292,71.3386782 61.0485446,71.193769 L72.5806452,67.7419355 C72.5806452,67.7419355 74.1935484,70.9677419 77.4193548,70.9677419 C80.6451613,70.9677419 82.2580645,67.7419355 82.2580645,67.7419355 L93.7901651,71.193769 C96.515877,72.0159716 98.3870968,74.5321952 98.3870968,77.3870653 L98.3870968,90.3225806 L88.7096774,90.3225806 Z" id="Path" fill="#B4DD7F"></path>
      <path d="M40.1611329,71.7584425 L30.0804877,74.0809286 C25.6938319,75.0968687 22.5806452,78.9999685 22.5806452,83.5000315 L22.5806452,93.5483871 C22.5806452,91.7740361 21.1291897,90.3225806 19.3548387,90.3225806 L1.61290323,90.3225806 L1.61290323,77.3870653 C1.61290323,74.5321952 3.48412298,72.0159716 6.20983488,71.193769 L17.7419355,67.7419355 C17.7419355,67.7419355 19.3548387,70.9677419 22.5806452,70.9677419 C25.8064516,70.9677419 27.4193548,67.7419355 27.4193548,67.7419355 L38.9514554,71.193769 C39.3869708,71.3386782 39.8224861,71.515877 40.2099609,71.741904 L40.1611329,71.7584425 Z" id="Path" fill="#B4DD7F"></path>
      <path d="M33.8709677,98.3870968 L22.5806452,98.3870968 L22.5806452,83.5000315 C22.5806452,78.9999685 25.6938319,75.0968687 30.0804877,74.0809286 L40.1611329,71.7584425 L43.5483871,70.9677419 L56.4516129,70.9677419 L59.8388671,71.7899446 L59.8546181,71.7584425 L69.9195123,74.0809286 C74.3061681,75.0968687 77.4193548,78.9999685 77.4193548,83.5000315 L77.4193548,98.3870968 L33.8709677,98.3870968 Z" id="Path" fill="#E6E9ED"></path>
      <polygon id="Path" fill="#FF826E" points="53.2258065 83.8709677 54.8387097 98.3870968 45.1612903 98.3870968 46.7741935 83.8709677"></polygon>
      <polygon id="Path" fill="#FF826E" points="54.983619 78.79048 54.8387097 79.0322581 53.2258065 83.8709677 46.7741935 83.8709677 45.1612903 79.0322581 45.016381 78.79048 50 75.8064516"></polygon>
      <polygon id="Path" fill="#CCD1D9" points="59.7900391 71.741904 59.8546181 71.7584425 59.8388671 71.7899446 58.0645161 80.6451613 54.983619 78.79048 50 75.8064516 56.4516129 70.9677419"></polygon>
      <polygon id="Path" fill="#CCD1D9" points="40.2099609 71.741904 43.5483871 70.9677419 50 75.8064516 45.016381 78.79048 41.9354839 80.6451613 40.1611329 71.7584425"></polygon>
      <path d="M87.0967742,11.2903226 L87.0967742,12.9032258 L84.5325101,12.9032258 C83.0802671,12.9032258 81.6776399,12.3228012 80.6451613,11.2903226 C79.6126827,12.3228012 78.2100554,12.9032258 76.7578125,12.9032258 L67.7419355,12.9032258 L67.7419355,11.2903226 C67.7419355,8.61265121 68.8224546,6.19329637 70.5802671,4.45123488 C72.3223286,2.69342238 74.7416835,1.61290323 77.4193548,1.61290323 C82.7581591,1.61290323 87.0967742,5.95151835 87.0967742,11.2903226 Z" id="Path" fill="#B27946"></path>
      <path d="M32.2580645,12.9032258 L23.2421875,12.9032258 C21.7899446,12.9032258 20.3873173,12.3228012 19.3548387,11.2903226 C18.3223601,12.3228012 16.9197329,12.9032258 15.4674899,12.9032258 L12.9032258,12.9032258 L12.9032258,11.2903226 C12.9032258,5.95151835 17.2418409,1.61290323 22.5806452,1.61290323 C25.2583165,1.61290323 27.6776714,2.69342238 29.4197329,4.45123488 C31.1775454,6.19329637 32.2580645,8.61265121 32.2580645,11.2903226 L32.2580645,12.9032258 Z" id="Path" fill="#B27946"></path>
      <path d="M72.5806452,24.4999054 C73.9998109,25.3386468 75.6615423,25.8064516 77.4193548,25.8064516 C79.1937058,25.8064516 80.8388988,25.3386468 82.2580645,24.4999054 L82.2580645,29.0322581 C82.2580645,29.0322581 80.6451613,32.2580645 77.4193548,32.2580645 C74.1935484,32.2580645 72.5806452,29.0322581 72.5806452,29.0322581 L72.5806452,24.4999054 Z" id="Path" fill="#F0D0B4"></path>
      <path d="M82.2580645,24.4999054 C80.8388988,25.3386468 79.1937058,25.8064516 77.4193548,25.8064516 C75.6615423,25.8064516 73.9998109,25.3386468 72.5806452,24.4999054 C69.6934855,22.8389617 67.7419355,19.710024 67.7419355,16.1290323 L67.7419355,12.9032258 L76.7578125,12.9032258 C78.2100554,12.9032258 79.6126827,12.3228012 80.6451613,11.2903226 C81.6776399,12.3228012 83.0802671,12.9032258 84.5325101,12.9032258 L87.0967742,12.9032258 L87.0967742,16.1290323 C87.0967742,18.8067036 86.016255,21.2260585 84.2584425,22.96812 C83.6614794,23.5642956 82.9999371,24.0809286 82.2580645,24.4999054 Z" id="Path" fill="#F0D0B4"></path>
      <path d="M17.7419355,24.4999054 L22.5806452,25.8064516 C24.3549962,25.8064516 26.0001891,25.3386468 27.4193548,24.4999054 L27.4193548,29.0322581 C27.4193548,29.0322581 25.8064516,32.2580645 22.5806452,32.2580645 C19.3548387,32.2580645 17.7419355,29.0322581 17.7419355,29.0322581 L17.7419355,24.4999054 Z" id="Path" fill="#F0D0B4"></path>
      <path d="M27.4193548,24.4999054 C26.0001891,25.3386468 24.3549962,25.8064516 22.5806452,25.8064516 L17.7419355,24.4999054 C17.0000629,24.0809286 16.3385206,23.5642956 15.7415575,22.96812 C13.983745,21.2260585 12.9032258,18.8067036 12.9032258,16.1290323 L12.9032258,12.9032258 L15.4674899,12.9032258 C16.9197329,12.9032258 18.3223601,12.3228012 19.3548387,11.2903226 C20.3873173,12.3228012 21.7899446,12.9032258 23.2421875,12.9032258 L32.2580645,12.9032258 L32.2580645,16.1290323 C32.2580645,19.710024 30.3065145,22.8389617 27.4193548,24.4999054 Z" id="Path" fill="#F0D0B4"></path>
      <path d="M74.1935484,50 C73.1610698,51.0324786 71.7584425,51.6129032 70.3061996,51.6129032 L67.7419355,51.6129032 L67.7419355,50 C67.7419355,47.3223286 68.8224546,44.9029738 70.5802671,43.1609123 C72.3223286,41.4030998 74.7416835,40.3225806 77.4193548,40.3225806 C82.7581591,40.3225806 87.0967742,44.6611958 87.0967742,50 L87.0967742,51.6129032 L78.0808972,51.6129032 C76.6286542,51.6129032 75.226027,51.0324786 74.1935484,50 Z" id="Path" fill="#B27946"></path>
      <path d="M29.6938004,51.6129032 C28.2415575,51.6129032 26.8389302,51.0324786 25.8064516,50 C24.773973,51.0324786 23.3713458,51.6129032 21.9191028,51.6129032 L12.9032258,51.6129032 L12.9032258,50 C12.9032258,44.6611958 17.2418409,40.3225806 22.5806452,40.3225806 C25.2583165,40.3225806 27.6776714,41.4030998 29.4197329,43.1609123 C31.1775454,44.9029738 32.2580645,47.3223286 32.2580645,50 L32.2580645,51.6129032 L29.6938004,51.6129032 Z" id="Path" fill="#B27946"></path>
      <path d="M37.6291583,32.0966167 C40.6935169,29.1937058 44.8226435,27.4193548 49.3707472,27.4193548 C51.6451927,27.4193548 53.8550593,27.8706212 55.9192288,28.725901 C57.9676474,29.5803931 59.8711569,30.8388988 61.4675214,32.4352633 L62.9032258,33.8709677 C64.3546813,34.3545238 65.5486077,35.2743827 66.4030998,36.4517704 C67.2583794,37.6126198 67.7419355,39.0648627 67.7419355,40.5808972 L67.7419355,53.2258065 C67.7419355,53.0163181 67.7261845,52.8068296 67.709646,52.5965536 C67.4032887,49.3384577 64.5484185,46.9033518 61.2903226,46.7899446 C61.1934538,46.7741935 61.1131238,46.7741935 61.016255,46.7741935 L58.0645161,46.7741935 L56.4516129,43.5483871 C53.2903855,45.6448464 49.5967742,46.7741935 45.7905431,46.7741935 L38.983745,46.7741935 C38.8868762,46.7741935 38.8065462,46.7741935 38.7096774,46.7899446 C35.4515815,46.9033518 32.5967113,49.3384577 32.290354,52.5965536 C32.2738155,52.8068296 32.2580645,53.0163181 32.2580645,53.2258065 L32.2580645,44.5320375 C32.2580645,39.6287488 34.3222341,35.2098034 37.6291583,32.0966167 L37.6291583,32.0966167 Z" id="Path" fill="#FCD770"></path>
      <g id="Group" transform="translate(12.903226, 43.548387)" fill="#F0D0B4">
        <path d="M59.6774194,19.6611958 C61.0965851,20.4999371 62.7583165,20.9677419 64.516129,20.9677419 C66.29048,20.9677419 67.935673,20.4999371 69.3548387,19.6611958 L69.3548387,24.1935484 C69.3548387,24.1935484 67.7419355,27.4193548 64.516129,27.4193548 C61.2903226,27.4193548 59.6774194,24.1935484 59.6774194,24.1935484 L59.6774194,19.6611958 Z" id="Path"></path>
        <path d="M4.83870968,19.6611958 L9.67741935,20.9677419 C11.4517704,20.9677419 13.0969633,20.4999371 14.516129,19.6611958 L14.516129,24.1935484 C14.516129,24.1935484 12.9032258,27.4193548 9.67741935,27.4193548 C6.4516129,27.4193548 4.83870968,24.1935484 4.83870968,24.1935484 L4.83870968,19.6611958 Z" id="Path"></path>
        <path d="M14.516129,19.6611958 C13.0969633,20.4999371 11.4517704,20.9677419 9.67741935,20.9677419 L4.83870968,19.6611958 C4.0968371,19.242219 3.43529476,18.7255859 2.83833165,18.1294103 C1.08051915,16.3873488 0,13.967994 0,11.2903226 L0,8.06451613 L9.01587702,8.06451613 C10.46812,8.06451613 11.8707472,7.48409153 12.9032258,6.4516129 C13.9357044,7.48409153 15.3383317,8.06451613 16.7905746,8.06451613 L19.3548387,8.06451613 L19.3548387,11.2903226 C19.3548387,14.8713143 17.4032887,18.000252 14.516129,19.6611958 L14.516129,19.6611958 Z" id="Path"></path>
        <path d="M59.6774194,19.6611958 C56.7902597,18.000252 54.8387097,14.8713143 54.8387097,11.2903226 L54.8387097,8.06451613 L57.4029738,8.06451613 C58.8552167,8.06451613 60.257844,7.48409153 61.2903226,6.4516129 C62.3228012,7.48409153 63.7254284,8.06451613 65.1776714,8.06451613 L74.1935484,8.06451613 L74.1935484,11.2903226 C74.1935484,13.967994 73.1130292,16.3873488 71.3552167,18.1294103 C70.7582536,18.7255859 70.0967113,19.242219 69.3548387,19.6611958 C67.935673,20.4999371 66.29048,20.9677419 64.516129,20.9677419 C62.7583165,20.9677419 61.0965851,20.4999371 59.6774194,19.6611958 Z" id="Path"></path>
        <path d="M30.6451613,27.4193548 L30.6451613,22.5806452 L30.7900706,22.2742881 C35.54845,24.1132181 36.3226121,24.1935484 37.0967742,24.1935484 C39.4357988,24.1935484 41.6125883,23.4839655 43.4034778,22.2742881 L43.5483871,22.5806452 L43.5483871,27.4193548 L37.0967742,32.2580645 L30.6451613,27.4193548 Z" id="Path"></path>
        <path d="M54.8387097,9.67741935 L54.8387097,9.69317036 C54.8387097,13.2418726 51.95155,16.1290323 48.3870968,16.1290323 L47.9515815,16.0164125 C48.2421875,15.0319746 48.3870968,13.983745 48.3870968,12.9032258 L48.3870968,3.24155746 C51.6451927,3.35496472 54.5000629,5.79007056 54.8064202,9.04816653 C54.8229587,9.25844254 54.8387097,9.46793105 54.8387097,9.67741935 L54.8387097,9.67741935 Z" id="Path"></path>
        <path d="M25.8064516,12.9032258 C25.8064516,13.983745 25.9513609,15.0319746 26.2419669,16.0164125 L25.8064516,16.1290323 C22.2419984,16.1290323 19.3548387,13.2418726 19.3548387,9.69317036 L19.3548387,9.67741935 C19.3548387,9.46793105 19.3705897,9.25844254 19.3871282,9.04816653 C19.6934855,5.79007056 22.5483556,3.35496472 25.8064516,3.24155746 L25.8064516,12.9032258 Z" id="Path"></path>
        <path d="M48.3870968,3.24155746 L48.3870968,12.9032258 C48.3870968,13.983745 48.2421875,15.0319746 47.9515815,16.0164125 C47.2097089,18.5964276 45.5802671,20.8062942 43.4034778,22.2742881 C41.6125883,23.4839655 39.4357988,24.1935484 37.0967742,24.1935484 C36.3226121,24.1935484 35.54845,24.1132181 30.7900706,22.2742881 C30.1773565,21.8545238 29.6292214,21.4032573 29.1125883,20.8874117 C27.7745401,19.5485762 26.774351,17.8868448 26.2419669,16.0164125 C25.9513609,15.0319746 25.8064516,13.983745 25.8064516,12.9032258 L25.8064516,3.24155746 C25.9033204,3.22580645 25.9836504,3.22580645 26.0805192,3.22580645 L32.8873173,3.22580645 C36.6935484,3.22580645 40.3871597,2.09645927 43.5483871,-2.29207334e-14 L45.1612903,3.22580645 L48.1130292,3.22580645 C48.209898,3.22580645 48.290228,3.22580645 48.3870968,3.24155746 L48.3870968,3.24155746 Z" id="Path"></path>
      </g>
      <path d="M100,51.6129032 L100,38.6710875 C100,35.0822202 97.6901147,31.9776966 94.2532448,30.9467931 L83.8709677,27.8320312 L83.8709677,25.3819619 C86.7919921,23.3390562 88.7096774,19.9565272 88.7096774,16.1306073 L88.7096774,11.2903226 C88.7096774,5.06473669 83.6449407,0 77.4193548,0 C71.193769,0 66.1290323,5.06473669 66.1290323,11.2903226 L66.1290323,16.1290323 C66.1290323,19.9565272 68.0467175,23.3390562 70.9677419,25.3803869 L70.9677419,27.830456 L61.8179815,30.5758569 C58.3842617,27.5051978 54.0094192,25.8064516 49.3644468,25.8064516 C44.7383758,25.8064516 40.5060798,27.5012601 37.2353831,30.2939137 L29.0322581,27.8320312 L29.0322581,25.3819619 C31.9532825,23.3390562 33.8709677,19.9565272 33.8709677,16.1306073 L33.8709677,11.2903226 C33.8709677,5.06473669 28.806231,0 22.5806452,0 C16.3550593,0 11.2903226,5.06473669 11.2903226,11.2903226 L11.2903226,16.1290323 C11.2903226,19.9565272 13.2080079,23.3390562 16.1290323,25.3803869 L16.1290323,27.830456 L5.74675524,30.9452179 C2.30988528,31.9776966 0,35.0822202 0,38.6710875 L0,51.6129032 L3.22580645,51.6129032 L3.22580645,38.6710875 C3.22580645,36.5179246 4.61110766,34.6545804 6.67448972,34.0371409 L17.0599169,30.920804 C17.998677,32.1399319 19.8147681,33.8709677 22.5806452,33.8709677 C25.3465222,33.8709677 27.1626133,32.1399319 28.1013734,30.920804 L34.7160093,32.9046433 C32.6164,35.5453 31.2177105,38.7592931 30.7932208,42.2757056 C28.7337764,40.087103 25.8174774,38.7096774 22.5806452,38.7096774 C16.3550593,38.7096774 11.2903226,43.7744141 11.2903226,50 L11.2903226,54.8387097 C11.2903226,58.6662046 13.2080079,62.0487337 16.1290323,64.0900643 L16.1290323,66.5401335 L5.74675524,69.6548954 C2.30988528,70.687374 0,73.7918976 0,77.3807649 L0,91.9354839 L19.3548387,91.9354839 C20.2431956,91.9354839 20.9677419,92.6600302 20.9677419,93.5483871 L20.9677419,100 L79.0322581,100 L79.0322581,93.5483871 C79.0322581,92.6600302 79.7568044,91.9354839 80.6451613,91.9354839 L100,91.9354839 L100,77.3807649 C100,73.7918976 97.6901147,70.687374 94.2532448,69.6564706 L83.8709677,66.5417087 L83.8709677,64.0916393 C86.7919921,62.0487337 88.7096774,58.6662046 88.7096774,54.8402847 L88.7096774,50.001575 C88.7096774,43.7759891 83.6449407,38.7112524 77.4193548,38.7112524 C74.2612778,38.7112524 71.4064075,40.0177986 69.3548387,42.1142579 L69.3548387,40.5856226 C69.3548387,37.399981 67.6238028,34.5325101 64.922505,33.0164756 L71.8986266,30.922379 C72.8373867,32.1399319 74.6534778,33.8709677 77.4193548,33.8709677 C80.1852319,33.8709677 82.001323,32.1399319 82.9400831,30.920804 L93.3270855,34.0371409 C95.3888923,34.6545804 96.7741935,36.5179246 96.7741935,38.6710875 L96.7741935,51.6129032 L100,51.6129032 Z M22.5806452,3.22580645 C27.0271548,3.22580645 30.6451613,6.8438129 30.6451613,11.2903226 L23.2484879,11.2903226 C22.2238849,11.2903226 21.2189706,10.874496 20.4952117,10.1499496 L19.3548387,9.00957661 L18.2144657,10.1499496 C17.4907069,10.874496 16.4857925,11.2903226 15.4611895,11.2903226 L14.516129,11.2903226 C14.516129,6.8438129 18.1341355,3.22580645 22.5806452,3.22580645 Z M14.516129,16.1290323 L14.516129,14.516129 L15.4611895,14.516129 C16.8661794,14.516129 18.2081653,14.1129032 19.3548387,13.360005 C20.5015121,14.1129032 21.843498,14.516129 23.2484879,14.516129 L30.6451613,14.516129 L30.6451613,16.1290323 C30.6451613,20.5755419 27.0271548,24.1935484 22.5806452,24.1935484 C18.1341355,24.1935484 14.516129,20.5755419 14.516129,16.1290323 Z M22.5806452,30.6451613 C20.866148,30.6451613 19.7549143,29.2047317 19.3548387,28.5888671 L19.3548387,26.9452496 C20.377079,27.2500315 21.4599609,27.4193548 22.5806452,27.4193548 C23.7013294,27.4193548 24.7842113,27.2500315 25.8064516,26.9436744 L25.8064516,28.5872921 C25.406376,29.2063067 24.2951423,30.6451613 22.5806452,30.6451613 Z M66.9157952,58.954448 C67.7372101,61.0406692 69.1548008,62.8244708 70.9677419,64.0916393 L70.9677419,66.5417087 L60.5870401,69.6564706 C60.2452431,69.7580645 59.912897,69.890373 59.5884262,70.0368573 L58.0645161,69.6856099 L58.0645161,66.507844 C59.7884639,65.1225427 61.1469883,63.3033014 61.9810042,61.2178679 C63.8388357,61.054845 65.5808972,60.2641444 66.9157952,58.954448 L66.9157952,58.954448 Z M50,69.3548387 C51.711347,69.3548387 53.3439391,69.0130419 54.8387097,68.4050528 L54.8387097,70.1612903 L50,73.7903226 L45.1612903,70.1612903 L45.1612903,68.4050528 C46.6560609,69.0130419 48.288653,69.3548387 50,69.3548387 L50,69.3548387 Z M43.180601,72.7082282 L47.1128403,75.6583921 L43.0679815,78.0856226 L42.0449534,72.9712702 L43.180601,72.7082282 Z M48.2177734,85.483871 L51.7822266,85.483871 L53.0367944,96.7741935 L46.9632056,96.7741935 L48.2177734,85.483871 Z M52.0625946,82.2580645 L47.9358304,82.2580645 L47.0096712,79.4803742 L50,77.687122 L52.9887538,79.4803742 L52.0625946,82.2580645 Z M52.8871597,75.6583921 L56.819399,72.7082282 L57.9550466,72.9696952 L56.9320185,78.0840474 L52.8871597,75.6583921 Z M64.8713143,56.4807522 C64.3129411,57.0934665 63.6033581,57.5226815 62.8339214,57.7841482 C62.8788117,57.3454827 62.9032258,56.9013042 62.9032258,56.4516129 L62.9032258,48.733619 C64.6389869,49.3920111 65.9305696,50.9190714 66.1046181,52.7438256 C66.2369266,54.132277 65.7998363,55.4577242 64.8713143,56.4807522 L64.8713143,56.4807522 Z M59.6774194,56.4516129 C59.6774194,61.7888419 55.337229,66.1290323 50,66.1290323 C44.662771,66.1290323 40.3225806,61.7888419 40.3225806,56.4516129 L40.3225806,48.3870968 L45.7984185,48.3870968 C49.313256,48.3870968 52.7335875,47.5097657 55.7916456,45.8338585 L57.0674774,48.3870968 L59.6774194,48.3870968 L59.6774194,56.4516129 Z M37.1660786,57.7841482 C36.3966419,57.5226815 35.6870589,57.0934665 35.1286857,56.4807522 C34.2001637,55.4592994 33.7614982,54.132277 33.8938067,52.7469758 C34.0678552,50.9206464 35.3610131,49.3935863 37.0967742,48.735194 L37.0967742,56.4516129 C37.0967742,56.9013042 37.1211883,57.3454827 37.1660786,57.7841482 L37.1660786,57.7841482 Z M38.0189958,61.2178679 C38.8514365,63.3033014 40.2099609,65.1225427 41.9354839,66.507844 L41.9354839,69.6856099 L40.4115738,70.0368573 C40.085528,69.890373 39.7547569,69.7596395 39.4145351,69.6564706 L29.0322581,66.5417087 L29.0322581,64.0916393 C30.843624,62.8244708 32.2627899,61.0406692 33.0842048,58.954448 C34.4191028,60.2641444 36.1611643,61.054845 38.0189958,61.2178679 Z M22.5806452,41.9354839 C27.0271548,41.9354839 30.6451613,45.5534903 30.6451613,50 L29.7001008,50 C28.6754978,50 27.6705835,49.5841734 26.9468246,48.859627 L25.8064516,47.719254 L24.6660786,48.859627 C23.9423198,49.5841734 22.9374054,50 21.9128024,50 L14.516129,50 C14.516129,45.5534903 18.1341355,41.9354839 22.5806452,41.9354839 Z M14.516129,54.8387097 L14.516129,53.2258065 L21.9128024,53.2258065 C23.3177923,53.2258065 24.6597782,52.8225806 25.8064516,52.0696825 C26.953125,52.8225806 28.2951109,53.2258065 29.7001008,53.2258065 L30.6451613,53.2258065 L30.6451613,54.8387097 C30.6451613,59.2852194 27.0271548,62.9032258 22.5806452,62.9032258 C18.1341355,62.9032258 14.516129,59.2852194 14.516129,54.8387097 Z M22.5806452,66.1290323 C23.7013294,66.1290323 24.7842113,65.9597089 25.8064516,65.6533518 L25.8064516,67.2969696 C25.406376,67.9159841 24.2951423,69.3548387 22.5806452,69.3548387 C20.866148,69.3548387 19.7549143,67.9144091 19.3548387,67.2985446 L19.3548387,65.654927 C20.377079,65.9597089 21.4599609,66.1290323 22.5806452,66.1290323 L22.5806452,66.1290323 Z M19.3548387,88.7096774 L12.9032258,88.7096774 L12.9032258,77.4193548 L9.67741935,77.4193548 L9.67741935,88.7096774 L3.22580645,88.7096774 L3.22580645,77.3807649 C3.22580645,75.227602 4.61110766,73.3642579 6.67448972,72.7468183 L17.0599169,69.6304815 C17.998677,70.8496093 19.8147681,72.5806452 22.5806452,72.5806452 C25.3465222,72.5806452 27.1626133,70.8496093 28.1013734,69.6304815 L34.2174899,71.4662613 L29.719002,72.5034653 C24.5660597,73.6934538 20.9677419,78.217931 20.9677419,83.5047569 L20.9677419,85.483871 L24.1935484,85.483871 L24.1935484,83.5047569 C24.1935484,79.7276651 26.7649004,76.4971333 30.4451234,75.6465788 L38.9002645,73.695029 L40.8014113,83.2047 L44.1760647,81.1806956 L45.1305758,84.0450163 L43.7177105,96.7741935 L35.483871,96.7741935 L35.483871,83.8709677 L32.2580645,83.8709677 L32.2580645,96.7741935 L24.1935484,96.7741935 L24.1935484,93.5483871 C24.1935484,90.8809538 22.022272,88.7096774 19.3548387,88.7096774 L19.3548387,88.7096774 Z M93.3255103,72.7468183 C95.3888923,73.3642579 96.7741935,75.227602 96.7741935,77.3807649 L96.7741935,88.7096774 L90.3225806,88.7096774 L90.3225806,77.4193548 L87.0967742,77.4193548 L87.0967742,88.7096774 L80.6451613,88.7096774 C77.977728,88.7096774 75.8064516,90.8809538 75.8064516,93.5483871 L75.8064516,96.7741935 L67.7419355,96.7741935 L67.7419355,83.8709677 L64.516129,83.8709677 L64.516129,96.7741935 L56.2822895,96.7741935 L54.867849,84.0450163 L55.8223601,81.1806956 L59.1970137,83.2047 L61.0981603,73.695029 L69.5548766,75.6465788 C73.2350996,76.4971333 75.8064516,79.7276651 75.8064516,83.5047569 L75.8064516,85.483871 L79.0322581,85.483871 L79.0322581,83.5047569 C79.0322581,78.217931 75.4339403,73.6934538 70.280998,72.5034653 L65.7825101,71.4662613 L71.8986266,69.6304815 C72.8373867,70.8496093 74.6534778,72.5806452 77.4193548,72.5806452 C80.1852319,72.5806452 82.001323,70.8496093 82.9400831,69.6304815 L93.3255103,72.7468183 Z M80.6451613,67.2985446 C80.2450857,67.9159841 79.133852,69.3548387 77.4193548,69.3548387 C75.7017075,69.3548387 74.5888988,67.9096837 74.1935484,67.2985446 L74.1935484,65.6533518 C75.2157887,65.9597089 76.2986706,66.1290323 77.4193548,66.1290323 C78.5400391,66.1290323 79.622921,65.9597089 80.6451613,65.6533518 L80.6451613,67.2985446 Z M77.4193548,62.9032258 C72.9728452,62.9032258 69.3548387,59.2852194 69.3548387,54.8387097 L69.3548387,53.2258065 L70.2998992,53.2258065 C71.7048891,53.2258065 73.046875,52.8225806 74.1935484,52.0696825 C75.3402218,52.8225806 76.6822077,53.2258065 78.0871976,53.2258065 L85.483871,53.2258065 L85.483871,54.8387097 C85.483871,59.2852194 81.8658645,62.9032258 77.4193548,62.9032258 Z M77.4193548,41.9354839 C81.8658645,41.9354839 85.483871,45.5534903 85.483871,50 L78.0871976,50 C77.0625946,50 76.0576802,49.5841734 75.3339214,48.859627 L74.1935484,47.719254 L73.0531754,48.859627 C72.3294165,49.5841734 71.3245022,50 70.2998992,50 L69.3548387,50 C69.3548387,45.5534903 72.9728452,41.9354839 77.4193548,41.9354839 Z M66.1290323,46.9112274 C64.7019909,45.8307081 62.9292149,45.1612903 61.0131048,45.1612903 L59.0615548,45.1612903 L57.0777155,41.1936113 L55.5577431,42.2064012 C52.6564075,44.140625 49.2825415,45.1612903 45.7984185,45.1612903 L38.9868952,45.1612903 C37.0707851,45.1612903 35.2980091,45.8307081 33.8709677,46.9112274 L33.8709677,44.5257371 C33.8709677,35.9839655 40.8226752,29.0322581 49.3644468,29.0322581 C53.5030242,29.0322581 57.3950984,30.6435863 60.320848,33.5693359 L62.0321952,35.2806831 L62.3936806,35.4019657 C64.6271736,36.1469883 66.1290323,38.2292718 66.1290323,40.5840474 L66.1290323,46.9112274 Z M77.4193548,3.22580645 C81.8658645,3.22580645 85.483871,6.8438129 85.483871,11.2903226 L84.5388105,11.2903226 C83.5142075,11.2903226 82.5092931,10.874496 81.7855343,10.1499496 L80.6451613,9.00957661 L79.5047883,10.1499496 C78.7810294,10.874496 77.7761151,11.2903226 76.7515121,11.2903226 L69.3548387,11.2903226 C69.3548387,6.8438129 72.9728452,3.22580645 77.4193548,3.22580645 Z M69.3548387,16.1290323 L69.3548387,14.516129 L76.7515121,14.516129 C78.156502,14.516129 79.4984879,14.1129032 80.6451613,13.360005 C81.7918347,14.1129032 83.1338206,14.516129 84.5388105,14.516129 L85.483871,14.516129 L85.483871,16.1290323 C85.483871,20.5755419 81.8658645,24.1935484 77.4193548,24.1935484 C72.9728452,24.1935484 69.3548387,20.5755419 69.3548387,16.1290323 Z M77.4193548,30.6451613 C75.7017075,30.6451613 74.5888988,29.2000063 74.1935484,28.5888671 L74.1935484,26.9436744 C75.2157887,27.2500315 76.2986706,27.4193548 77.4193548,27.4193548 C78.5400391,27.4193548 79.622921,27.2500315 80.6451613,26.9436744 L80.6451613,28.5872921 C80.2450857,29.2063067 79.133852,30.6451613 77.4193548,30.6451613 Z" id="Shape" fill="#000000"></path>
      <polygon id="Path" fill="#000000" points="37.0967742 0 40.3225806 0 40.3225806 3.22580645 37.0967742 3.22580645"></polygon>
      <polygon id="Path" fill="#000000" points="37.0967742 6.4516129 40.3225806 6.4516129 40.3225806 24.1935484 37.0967742 24.1935484"></polygon>
      <polygon id="Path" fill="#000000" points="59.6774194 0 62.9032258 0 62.9032258 3.22580645 59.6774194 3.22580645"></polygon>
      <polygon id="Path" fill="#000000" points="59.6774194 6.4516129 62.9032258 6.4516129 62.9032258 24.1935484 59.6774194 24.1935484"></polygon>
      <polygon id="Path" fill="#000000" points="43.5483871 6.4516129 46.7741935 6.4516129 46.7741935 17.7419355 43.5483871 17.7419355"></polygon>
      <polygon id="Path" fill="#000000" points="43.5483871 20.9677419 46.7741935 20.9677419 46.7741935 24.1935484 43.5483871 24.1935484"></polygon>
      <polygon id="Path" fill="#000000" points="53.2258065 6.4516129 56.4516129 6.4516129 56.4516129 17.7419355 53.2258065 17.7419355"></polygon>
      <polygon id="Path" fill="#000000" points="53.2258065 20.9677419 56.4516129 20.9677419 56.4516129 24.1935484 53.2258065 24.1935484"></polygon>
    </g>
  </g>
</svg>