<?xml version="1.0" encoding="UTF-8"?>
<svg width="100px" height="100px" viewBox="0 0 512 512" xmlns="http://www.w3.org/2000/svg">
  <path d="M152 440h192v48H152zm0 0" fill="#656d78"/>
  <path d="M488 376v32c0 17.68-14.32 32-32 32H40c-17.68 0-32-14.32-32-32v-32zm0 0" fill="#969faa"/>
  <path d="M440 120h16c17.68 0 32 14.32 32 32v224H8V152c0-17.68 14.32-32 32-32zm0 0" fill="#69d6f4"/>
  <path d="M56 8h384v64H56zm0 0" fill="#fcd770"/>
  <path d="M152 296H56V72h384v224zm0 0" fill="#e6e9ed"/>
  <path d="M367.84 219.36c-.078-1.122-.16-2.239-.238-3.36H284.16c-9.36 0-18.082 6.32-19.84 15.52-1.68 9.199 3.36 17.921 11.68 21.28l6 2.4c13.281 5.28 22 18.16 22 32.562a34.977 34.977 0 003.68 15.597l9.36 18.72c-15.36 10.882-33.438 18.241-53.04 20.8V316.8c0-8.403-2.238-16.563-6.559-23.762l-6.96-11.52C243.84 270.32 232.718 262.56 220 260s-23.84-10.32-30.48-21.52l-.079-.082C181.121 224.48 166.078 216 149.921 216h-21.523c-.16 2.64-.398 5.281-.398 8 0-39.84 19.441-75.121 49.36-96.96v.081l6.8 22.719c4.64 15.52 18.961 26.16 35.2 26.16h15.44c7.759 0 14.481-5.281 16.4-12.8a25.92 25.92 0 018.96-13.84C264.56 146 270 144 275.84 144c7.68 0 14.96 3.52 19.762 9.52L310.398 172a31.98 31.98 0 0024.961 12h25.762c4 11.121 6.32 23.04 6.719 35.36zm0 0" fill="#69d6f4"/>
  <g fill="#b4dd7f">
    <path d="M367.84 219.36c.082 1.519.16 3.038.16 4.64 0 27.04-8.96 52-24 72-7.602 10.078-16.64 18.879-26.96 26.078l-9.36-18.719a34.977 34.977 0 01-3.68-15.597c0-14.403-8.719-27.282-22-32.563l-6-2.398c-8.32-3.36-13.36-12.082-11.68-21.281 1.758-9.2 10.48-15.52 19.84-15.52h83.442c.078 1.121.16 2.238.238 3.36zm0 0M152 296c-15.04-20-24-44.96-24-72 0-2.719.238-5.36.398-8h21.524c16.156 0 31.2 8.48 39.52 22.398l.078.082c6.64 11.2 17.761 18.961 30.48 21.52s23.84 10.32 30.48 21.52l6.961 11.52c4.32 7.198 6.559 15.358 6.559 23.76v26.079c-5.2.723-10.559 1.121-16 1.121-39.2 0-74.078-18.879-96-48zm0 0M361.121 184H335.36a31.98 31.98 0 01-24.96-12l-14.797-18.48c-4.801-6-12.082-9.52-19.762-9.52-5.84 0-11.281 2-15.68 5.36a25.92 25.92 0 00-8.96 13.84c-1.919 7.519-8.641 12.8-16.4 12.8h-15.44c-16.239 0-30.56-10.64-35.2-26.16l-6.8-22.719v-.082C197.12 112.56 221.601 104 248 104c52.238 0 96.719 33.441 113.121 80zm0 0"/>
  </g>
  <path d="M456 112h-8V0H48v112h-8c-22.055 0-40 17.945-40 40v256c0 22.055 17.945 40 40 40h104v32h-32v16h272v-16h-32v-32h104c22.055 0 40-17.945 40-40V152c0-22.055-17.945-40-40-40zM256 335.594c-2.656.191-5.297.406-8 .406-61.762 0-112-50.238-112-112h13.895c13.312 0 25.832 7.09 32.753 18.633 7.832 13.039 20.872 22.23 35.786 25.215a38.203 38.203 0 0125.199 17.761l6.933 11.559A38.082 38.082 0 01256 316.77zm8.29-46.656l-6.938-11.563c-7.832-13.04-20.872-22.23-35.786-25.215-10.504-2.105-19.687-8.574-25.277-17.879C186.566 218.062 168.793 208 149.895 208H137.28c3.817-26.473 16.871-49.938 35.856-67.055l3.351 11.184C182.2 171.19 199.426 184 219.328 184h15.504a24.856 24.856 0 0024.137-18.84 17.318 17.318 0 0116.84-13.16 17.286 17.286 0 0113.558 6.512l14.778 18.48c7.632 9.535 19.023 15.008 31.23 15.008h19.906c1.543 5.184 2.656 10.535 3.438 16h-74.535c-13.688 0-25.352 9.281-27.727 22.063-2.352 12.699 4.613 25.386 16.559 30.16l5.976 2.394C289.328 266.754 296 276.61 296 287.727a43.21 43.21 0 004.543 19.25l6.129 12.246c-10.543 6.52-22.192 11.386-34.664 14.12V316.77a54.122 54.122 0 00-7.719-27.832zM186.671 130.39C204.305 118.8 225.359 112 248 112c44.566 0 83.016 26.223 101.04 64h-13.665c-7.336 0-14.16-3.281-18.742-9l-14.778-18.48C295.496 140.559 286 136 275.81 136a33.323 33.323 0 00-32.375 25.273 8.863 8.863 0 01-8.61 6.727H219.32c-12.785 0-23.84-8.223-27.511-20.473zm133.176 179.418l-4.993-9.985A27.255 27.255 0 01312 287.727c0-17.696-10.625-33.383-27.055-39.965l-5.976-2.395c-4.89-1.953-7.739-7.168-6.77-12.383.946-5.12 6.106-8.984 11.985-8.984H360c0 34.426-15.64 65.238-40.152 85.809zM376 224c0-2.39-.16-4.742-.32-7.098l-.16-2.445c-.106-1.395-.13-2.8-.282-4.176L375.09 208h-.203C366.977 144.96 313.152 96 248 96s-118.977 48.96-126.887 112h-.203l-.148 2.281c-.145 1.375-.176 2.781-.282 4.176l-.16 2.445c-.16 2.356-.32 4.707-.32 7.098 0 23.328 6.375 45.145 17.32 64H64V80h368v208h-73.32c10.945-18.855 17.32-40.672 17.32-64zm56-208v48H64V16zM40 128h8v176h100.238c23.48 29.223 59.45 48 99.762 48s76.281-18.777 99.762-48H448V128h8c13.23 0 24 10.77 24 24v216H16V152c0-13.23 10.77-24 24-24zm296 352H160v-32h176zm120-48H40c-13.23 0-24-10.77-24-24v-24h464v24c0 13.23-10.77 24-24 24zm0 0"/>
  <path d="M384 400h16v16h-16zm0 0M416 400h16v16h-16zm0 0M448 400h16v16h-16zm0 0M80 32h16v16H80zm0 0M112 32h16v16h-16zm0 0M144 32h16v16h-16zm0 0"/>
</svg>
