<?xml version="1.0" encoding="UTF-8"?>
<svg width="100px" height="100px" viewBox="0 0 100 100" version="1.1" xmlns="http://www.w3.org/2000/svg" xmlns:xlink="http://www.w3.org/1999/xlink">
  <title>privacy</title>
  <g id="Page-1" stroke="none" stroke-width="1" fill="none" fill-rule="evenodd">
    <g id="privacy" fill-rule="nonzero">
      <path d="M53.4565587,79.0322581 L1.61290323,79.0322581 L1.61290323,63.7498425 C1.61290323,59.4293409 4.47722399,55.6325605 8.63233992,54.4449345 L24.1935484,50 L24.1935484,41.1290323 L40.3225806,41.1723476 L40.3225806,50 L54.9143145,54.1692919 C54.9143145,54.1692919 59.9743258,55.6577621 61.3367881,58.4740423 C62.7016129,61.2903226 61.3352129,58.4740423 61.3352129,58.4740423 L61.3367881,58.4771925 L61.9432018,79.0322581 L53.4565587,79.0322581 Z" id="Path" fill="#A0D468"></path>
      <path d="M50,75.8064516 C50,76.9019343 50.0905683,77.9722153 50.2228768,79.0322581 L61.9432221,79.0322581 L61.3367881,58.4771925 C61.3549016,58.5142075 62.6921623,61.2722089 61.3367881,58.4740423 C60.890247,57.5518208 60.0467804,56.7760837 59.1143208,56.1436806 C53.545552,60.8776462 50,67.9222845 50,75.8064516 L50,75.8064516 Z" id="Path" fill="#8CC152"></path>
      <path d="M98.3870968,75.8064516 C98.3870968,88.2773123 88.2773123,98.3870968 75.8064516,98.3870968 C63.3355909,98.3870968 53.2258065,88.2773123 53.2258065,75.8064516 C53.2258065,63.3355909 63.3355909,53.2258065 75.8064516,53.2258065 C88.2773123,53.2258065 98.3870968,63.3355909 98.3870968,75.8064516 Z" id="Path" fill="#FCD770"></path>
      <path d="M46.2756742,51.7018964 C54.7788558,51.6129032 59.6774194,46.7741935 59.6774194,46.7741935 C54.6741117,43.7728389 51.6129032,38.3647302 51.6129032,32.5305569 L51.6129032,20.9677419 C51.6129032,10.2791079 42.9466986,1.61290323 32.2580645,1.61290323 C21.5694304,1.61290323 12.9032258,10.2791079 12.9032258,20.9677419 L12.9032258,32.5305569 C12.9032258,38.3647302 9.84201734,43.7728389 4.83870968,46.7741935 C4.83870968,46.7741935 9.87115685,51.7018964 18.5483871,51.6129032 L46.2756742,51.7018964 Z" id="Path" fill="#D3A06C"></path>
      <polygon id="Path" fill="#E6E9ED" points="24.1935484 50 32.2580645 58.0645161 22.5806452 66.1290323 15.0689895 52.6067919"></polygon>
      <path d="M45.1612903,37.0967742 C48.9336569,37.0967742 51.9499748,33.8599419 51.5821887,30.0111833 C51.2632308,26.6562185 48.2532133,24.1935484 44.8840726,24.1935484 L43.9390121,24.1935484 C39.5578692,24.1935484 35.3562879,22.4530621 32.2580645,19.3548387 C29.1598411,22.4530621 24.9582599,24.1935484 20.5771169,24.1935484 L19.3548387,24.1935484 L19.6320565,24.1935484 C16.2629157,24.1935484 13.2528982,26.6562185 12.9339403,30.0111833 C12.5661542,33.8599419 15.5824722,37.0967742 19.3548387,37.0967742 L45.1612903,37.0967742 Z" id="Path" fill="#F0D0B4"></path>
      <polygon id="Path" fill="#E6E9ED" points="40.3225806 50 32.2580645 58.0645161 41.9354839 66.1290323 49.4471395 52.6067919"></polygon>
      <path d="M82.2580645,91.9354839 L69.3548387,91.9354839 C67.5726121,91.9354839 66.1290323,90.4903288 66.1290323,88.7096774 L66.1290323,75.8064516 C66.1290323,74.0258002 67.5726121,72.5806452 69.3548387,72.5806452 L82.2580645,72.5806452 C84.0387159,72.5806452 85.483871,74.0258002 85.483871,75.8064516 L85.483871,88.7096774 C85.483871,90.4903288 84.0387159,91.9354839 82.2580645,91.9354839 Z" id="Path" fill="#CF9E76"></path>
      <polygon id="Path" fill="#F0D0B4" points="40.3225806 50 32.2580645 58.0645161 24.1935484 50 24.1935484 41.1290323 40.3225806 41.1290323"></polygon>
      <path d="M24.1935484,47.8161228 C26.5695879,49.1966986 29.3197139,50 32.2580645,50 C35.1964151,50 37.9465411,49.1966986 40.3225806,47.8161228 L40.3225806,41.1290323 L24.1935484,41.1290323 L24.1935484,47.8161228 Z" id="Path" fill="#ECC19C"></path>
      <path d="M19.3548387,14.4176853 L19.3548387,33.8709677 C19.3548387,40.9967238 25.1323085,46.7741935 32.2580645,46.7741935 C39.3838206,46.7741935 45.1612903,40.9967238 45.1612903,33.8709677 L45.1612903,14.5066784 L19.3548387,14.4176853 Z" id="Path" fill="#F0D0B4"></path>
      <path d="M12.9339403,30.0111833 C13.2528982,26.6562185 16.2629157,24.1935484 19.6320565,24.1935484 L20.5771169,24.1935484 C24.9582599,24.1935484 29.1598411,22.4530621 32.2580645,19.3548387 C35.3562879,22.4530621 39.5578692,24.1935484 43.9390121,24.1935484 L44.8840726,24.1935484 C48.2532133,24.1935484 51.2632308,26.6562185 51.5821887,30.0111833 C51.6034526,30.2277597 51.5758883,30.4340978 51.5743133,30.6451613 L51.6129032,30.6451613 L51.6129032,20.9677419 C51.6129032,10.2791079 42.9466986,1.61290323 32.2580645,1.61290323 C21.5694304,1.61290323 12.9032258,10.2791079 12.9032258,20.9677419 L12.9032258,30.6451613 L12.9402407,30.6451613 C12.9386655,30.4340978 12.9126764,30.2277597 12.9339403,30.0111833 Z" id="Path" fill="#D3A06C"></path>
      <polygon id="Path" fill="#8CC152" points="14.127079 79.0322581 11.2903226 79.0322581 14.127079 71.1693548"></polygon>
      <path d="M83.8709677,71.2646484 L83.8709677,66.1290323 C83.8709677,61.6825226 80.2529613,58.0645161 75.8064516,58.0645161 C71.3599419,58.0645161 67.7419355,61.6825226 67.7419355,66.1290323 L67.7419355,71.2646484 C65.8691407,71.9324911 64.516129,73.7068423 64.516129,75.8064516 L64.516129,88.7096774 C64.516129,91.3771107 66.6874054,93.5483871 69.3548387,93.5483871 L82.2580645,93.5483871 C84.9254978,93.5483871 87.0967742,91.3771107 87.0967742,88.7096774 L87.0967742,75.8064516 C87.0967742,73.7068423 85.7437625,71.9324911 83.8709677,71.2646484 L83.8709677,71.2646484 Z M75.8064516,61.2903226 C78.4738849,61.2903226 80.6451613,63.461599 80.6451613,66.1290323 L80.6451613,70.9677419 L70.9677419,70.9677419 L70.9677419,66.1290323 C70.9677419,63.461599 73.1390183,61.2903226 75.8064516,61.2903226 Z M83.8709677,88.7096774 C83.8709677,89.5996093 83.1464214,90.3225806 82.2580645,90.3225806 L69.3548387,90.3225806 C68.4664819,90.3225806 67.7419355,89.5996093 67.7419355,88.7096774 L67.7419355,75.8064516 C67.7419355,74.9165198 68.4664819,74.1935484 69.3548387,74.1935484 L82.2580645,74.1935484 C83.1464214,74.1935484 83.8709677,74.9165198 83.8709677,75.8064516 L83.8709677,88.7096774 Z" id="Shape" fill="#000000"></path>
      <path d="M75.8064516,75.8064516 C73.1390183,75.8064516 70.9677419,77.977728 70.9677419,80.6451613 C70.9677419,82.7447706 72.3207536,84.5191218 74.1935484,85.1869645 L74.1935484,88.7096774 L77.4193548,88.7096774 L77.4193548,85.1869645 C79.2921496,84.5191218 80.6451613,82.7447706 80.6451613,80.6451613 C80.6451613,77.977728 78.4738849,75.8064516 75.8064516,75.8064516 Z M75.8064516,82.2580645 C74.9180948,82.2580645 74.1935484,81.5350931 74.1935484,80.6451613 C74.1935484,79.7552294 74.9180948,79.0322581 75.8064516,79.0322581 C76.6948085,79.0322581 77.4193548,79.7552294 77.4193548,80.6451613 C77.4193548,81.5350931 76.6948085,82.2580645 75.8064516,82.2580645 Z" id="Shape" fill="#000000"></path>
      <path d="M75.8064516,51.6129032 C70.5078125,51.6129032 65.6179121,53.3455141 61.6273942,56.2452746 C60.2145286,54.6630859 58.3905621,53.485698 56.3271798,52.8950353 L53.5290133,52.0948841 C58.0936554,50.5512853 60.6594948,48.0712891 60.8114919,47.9224419 L62.2905117,46.4615361 L60.5082851,45.3920425 C56.0160976,42.6970452 53.2258065,37.7677671 53.2258065,32.5305569 L53.2258065,20.9677419 C53.2258065,9.40650202 43.8193044,0 32.2580645,0 C20.6968246,0 11.2903226,9.40650202 11.2903226,20.9677419 L11.2903226,32.5305569 C11.2903226,37.7677671 8.50003145,42.6970452 4.00784395,45.3920425 L2.21774194,46.4662613 L3.7093625,47.9271673 C3.86450988,48.0775895 6.45791331,50.5630986 11.0579952,52.0759829 L8.18894919,52.8950353 C3.36756552,54.2708859 0,58.7355091 0,63.7498425 L0,80.6451613 L52.0996093,80.6451613 C54.3480657,91.6755923 64.1223538,100 75.8064516,100 C89.1467679,100 100,89.1467679 100,75.8064516 C100,62.4661353 89.1467679,51.6129032 75.8064516,51.6129032 Z M23.7241683,51.8113659 L29.8694242,57.9566218 L23.0453,63.6435232 L17.4662927,53.5998929 L23.7241683,51.8113659 Z M17.8096649,35.203503 C17.038653,34.9420363 16.3290702,34.5112462 15.772272,33.9001071 C14.845325,32.8786542 14.4066595,31.5532069 14.5389679,30.1663306 C14.7130165,28.3400012 16.0061744,26.8113659 17.7419355,26.1545488 L17.7419355,33.8709677 C17.7419355,34.3206591 17.7694998,34.7632623 17.8096649,35.203503 Z M20.9677419,25.7883379 C25.1464843,25.7001323 29.0921119,24.2195375 32.2580645,21.5434413 C35.4240171,24.2195375 39.3696448,25.7001323 43.5483871,25.7883379 L43.5483871,33.8709677 C43.5483871,40.0949786 38.4836504,45.1612903 32.2580645,45.1612903 C26.0324786,45.1612903 20.9677419,40.0949786 20.9677419,33.8709677 L20.9677419,25.7883379 Z M46.7741935,33.8709677 L46.7741935,26.1529738 C48.5099546,26.8113659 49.8031125,28.3384262 49.9771611,30.1647556 C50.1094696,31.5516319 49.672379,32.8786542 48.7438571,33.8985321 C48.1870589,34.5112462 47.475901,34.9404613 46.7064641,35.2019278 C46.7466292,34.7632623 46.7741935,34.3206591 46.7741935,33.8709677 Z M32.2580645,55.7837702 L25.8064516,49.3321573 L25.8064516,46.8545238 C27.7532762,47.8255734 29.9387286,48.3870968 32.2580645,48.3870968 C34.5774004,48.3870968 36.7628528,47.8271484 38.7096774,46.8545238 L38.7096774,49.3321573 L32.2580645,55.7837702 Z M40.7919607,51.8113659 L47.0498363,53.5998929 L41.470829,63.6435232 L34.6467048,57.9566218 L40.7919607,51.8113659 Z M56.9532825,46.8482234 C55.0206339,48.1335056 51.3986895,49.9755859 46.4631111,50.0771798 L41.9354839,48.7840222 L41.9354839,44.6596208 C43.7452746,43.0356917 45.1416016,40.9675845 45.9582913,38.6261972 C47.6389238,38.4560863 49.2132371,37.7693423 50.4772556,36.6502331 C51.4175907,40.658077 53.7014869,44.2792339 56.9532825,46.8482234 Z M32.2580645,3.22580645 C42.040228,3.22580645 50,11.1855784 50,20.9677419 L50,24.3305823 C48.5729587,23.2500629 46.8017579,22.5806452 44.8840726,22.5806452 L43.9390121,22.5806452 C39.9563698,22.5806452 36.2131427,21.030746 33.3984375,18.2144657 L32.2580645,17.0740927 L31.1176915,18.2144657 C28.3014113,21.030746 24.5597593,22.5806452 20.5771169,22.5806452 L19.3548387,22.5806452 L19.3548387,22.5853706 C17.5434728,22.6436492 15.8738659,23.3012538 14.516129,24.3305823 L14.516129,20.9677419 C14.516129,11.1855784 22.475901,3.22580645 32.2580645,3.22580645 Z M7.57229718,46.8403478 C10.8177923,44.2729335 13.0985383,40.6533518 14.0388734,36.6502331 C15.3044669,37.7693423 16.8772052,38.4560863 18.5578377,38.6261972 C19.3745274,40.9691595 20.7708544,43.0356917 22.5806452,44.6596208 L22.5806452,48.7840222 L18.3192099,50.001575 C13.2584111,50 9.54353589,48.1374433 7.57229718,46.8403478 Z M3.22580645,63.7498425 C3.22580645,60.1680633 5.63098548,56.9808468 9.07415565,55.9964089 L14.2806514,54.5079385 L22.1159903,68.6129661 L30.6451613,61.5076865 L30.6451613,77.4193548 L16.1290323,77.4193548 L16.1290323,67.7419355 L12.9032258,67.7419355 L12.9032258,77.4193548 L3.22580645,77.4193548 L3.22580645,63.7498425 Z M33.8709677,77.4193548 L33.8709677,61.5076865 L42.4001387,68.6145413 L50.2354776,54.5095137 L55.4419734,55.9987714 C56.8792528,56.4082976 58.1582347,57.2131742 59.1560609,58.2984185 C54.5213268,62.7079133 51.6129032,68.9177482 51.6129032,75.8064516 C51.6129032,76.3514365 51.6593688,76.8838206 51.6948085,77.4193548 L33.8709677,77.4193548 Z M75.8064516,96.7741935 C64.2452117,96.7741935 54.8387097,87.3676915 54.8387097,75.8064516 C54.8387097,64.2452117 64.2452117,54.8387097 75.8064516,54.8387097 C87.3676915,54.8387097 96.7741935,64.2452117 96.7741935,75.8064516 C96.7741935,87.3676915 87.3676915,96.7741935 75.8064516,96.7741935 Z" id="Shape" fill="#000000"></path>
    </g>
  </g>
</svg>