<?xml version="1.0" encoding="UTF-8"?>
<svg width="100px" height="100px" viewBox="0 0 100 100" version="1.1" xmlns="http://www.w3.org/2000/svg" xmlns:xlink="http://www.w3.org/1999/xlink">
  <title>rocket</title>
  <g id="Page-1" stroke="none" stroke-width="1" fill="none" fill-rule="evenodd">
    <g id="rocket" fill-rule="nonzero">
      <path d="M98.3870968,4.83870968 L96.4678365,14.4680885 C95.7905431,17.8545552 94.8872228,21.1772302 93.7578754,24.4030367 L75.5969633,6.2421246 C78.8227698,5.11277722 82.1454448,4.20945685 85.5319115,3.53216351 L95.1612903,1.61290323 C96.0480722,1.61290323 96.8545238,1.96808851 97.4357359,2.56426411 C98.0319115,3.14547621 98.3870968,3.95192782 98.3870968,4.83870968 L98.3870968,4.83870968 Z" id="Path" fill="#FCD770"></path>
      <g id="Group" transform="translate(33.064516, 6.048387)" fill="#E6E9ED">
        <path d="M42.5324472,0.1937375 C31.6453504,3.93538931 21.726153,10.1286857 13.5324786,18.3223601 C9.08045605,22.7743827 5.19389496,27.7580016 1.98383952,33.1448464 C1.29000766,34.3064831 0.629252823,35.483871 0,36.6935484 L24.314831,60.8870968 C25.0401651,60.5161605 25,60.1129347 26.6129032,59.7097089 L26.6129032,59.6931704 C33.0645161,56.3389931 37.8465222,52.1933278 42.6852319,47.3546181 C47.9917464,42.0481036 52.4162046,35.9997165 55.9326171,29.4354839 C57.8195879,25.8867819 59.4175278,22.1774194 60.7240738,18.3546496 L42.5324472,0.1937375 Z" id="Path"></path>
        <path d="M47.5806452,64.9193548 L47.5806452,65.4674899 C47.5806452,68.4034778 47.0002206,71.258348 45.9031629,73.9029423 C44.806105,76.5483242 43.1932018,78.9842175 41.1290323,81.0483871 C38.6616369,83.5157825 35.8225177,85.5807397 32.7581591,87.1936429 L25.3063571,79.7418409 C26.6609437,77.1452873 28.3549647,74.7259325 30.3388042,72.5483556 C30.6932018,72.1451298 31.0641381,71.7584425 31.4516129,71.3709677 C35.5807397,67.2418409 41.1770728,64.9193548 47.0325101,64.9193548 L47.5806452,64.9193548 Z" id="Path"></path>
        <path d="M7.25806452,43.9516129 L7.64553931,43.5641381 C11.5321006,39.6775768 16.7905746,37.5 22.2742881,37.5 L23.3870968,37.5 L23.3870968,38.6128087 C23.3870968,41.3550593 22.8389617,44.0484817 21.8064831,46.5324155 C20.7740044,49.0163496 19.25797,51.3065462 17.3229587,53.2415575 C17.1938004,53.3707157 17.0646421,53.499874 16.9354839,53.6290323 C14.9351058,55.5325415 12.6449093,57.0485762 10.1452242,58.1290952 L2.75800161,50.7418726 C3.83852056,48.2421875 5.35455524,45.9519909 7.25806452,43.9516129 L7.25806452,43.9516129 Z" id="Path"></path>
      </g>
      <path d="M70.9677419,17.7419355 C77.2098665,17.7419355 82.2580645,22.7901335 82.2580645,29.0322581 C82.2580645,35.2743827 77.2098665,40.3225806 70.9677419,40.3225806 C64.7256173,40.3225806 59.6774194,35.2743827 59.6774194,29.0322581 C59.6774194,22.7901335 64.7256173,17.7419355 70.9677419,17.7419355 Z" id="Path" fill="#69D6F4"></path>
      <path d="M75.8064516,29.0322581 C75.8064516,31.7044165 73.6399004,33.8709677 70.9677419,33.8709677 C68.2955835,33.8709677 66.1290323,31.7044165 66.1290323,29.0322581 C66.1290323,26.3600996 68.2955835,24.1935484 70.9677419,24.1935484 C73.6399004,24.1935484 75.8064516,26.3600996 75.8064516,29.0322581 Z" id="Path" fill="#4FC1E9"></path>
      <path d="M65.8226752,93.24203 C65.6454762,93.3388988 65.4674899,93.4192288 65.2902911,93.5160976 C62.0321952,95.1455393 58.5000315,96.258348 54.8387097,96.7741935 C55.3868448,92.9191343 56.5965222,89.1932335 58.3708732,85.790228 L65.8226752,93.24203 Z" id="Path" fill="#FF826E"></path>
      <path d="M63.3710306,78.5644532 L63.4033204,78.5967427 C61.4194808,80.7743196 59.7254599,83.1936744 58.3708732,85.790228 L45.2416206,72.6609754 L53.967679,68.5806766 C55.0804877,68.064831 56.1775454,67.5159085 57.2580645,66.9354839 C57.9841859,66.5645476 58.70952,66.1613218 59.4356413,65.758096 L63.3710306,78.5644532 Z" id="Path" fill="#AAB2BD"></path>
      <path d="M50,59.6774194 L57.2580645,66.9354839 C56.1775454,67.5159085 55.0804877,68.064831 53.967679,68.5806766 L45.2416206,72.6609754 L41.9354839,74.1935484 L33.8867188,66.1447833 L33.9032573,66.1290323 C37.1290637,66.1290323 40.3068296,65.4517389 43.2097403,64.1774823 C45.7094254,63.0969633 47.999622,61.5809286 50,59.6774194 L50,59.6774194 Z" id="Path" fill="#CCD1D9"></path>
      <path d="M43.2097403,64.1774823 C40.3068296,65.4517389 37.1290637,66.1290323 33.9032573,66.1290323 L33.8867188,66.1447833 L33.8709677,66.1290323 L33.8709677,66.1132812 C33.8709677,63.0158456 34.4836819,59.9837764 35.6453187,57.1777343 C35.6933593,57.0485762 35.7579385,56.9194177 35.8225177,56.7902597 L43.2097403,64.1774823 Z" id="Path" fill="#FF826E"></path>
      <path d="M33.0645161,42.7419355 L40.3225806,50 C38.4190714,52.000378 36.9030367,54.2905746 35.8225177,56.7902597 C35.7579385,56.9194177 35.6933593,57.0485762 35.6453188,57.1777343 C34.4836819,59.9837764 33.8709677,63.0158456 33.8709677,66.1132812 L33.8709677,66.1290323 L25.8064516,58.0645161 L27.8548702,53.6613218 L31.4193234,46.032321 C31.935169,44.9195123 32.4840915,43.8224546 33.0645161,42.7419355 L33.0645161,42.7419355 Z" id="Path" fill="#CCD1D9"></path>
      <path d="M40.3225806,72.5806452 L32.0966167,78.0643587 C31.6933909,75.4512663 30.4514238,73.1287802 28.6613218,71.3386782 C26.8712198,69.5485762 24.5487337,68.3066091 21.9356413,67.9033833 L27.4193548,59.6774194 L40.3225806,72.5806452 Z" id="Path" fill="#AAB2BD"></path>
      <path d="M21.4355468,35.0160661 L35.0483556,39.1932335 C34.3545238,40.3548702 33.693769,41.5322581 33.0645161,42.7419355 C32.4840915,43.8224546 31.935169,44.9195123 31.4193234,46.032321 L27.8548702,53.6613218 L14.209772,40.0162236 C16.8063256,38.6616369 19.2256804,36.9676159 21.4032573,34.9837764 L21.4355468,35.0160661 Z" id="Path" fill="#AAB2BD"></path>
      <path d="M32.0966167,78.0643587 C32.210024,78.6936113 32.2580645,79.3551536 32.2580645,80.0159085 C32.2580645,85.2255544 28.967679,89.8713143 24.0643901,91.5968371 L4.83870968,98.3870968 C3.95192782,98.3870968 3.14547621,98.0319115 2.56426411,97.4357359 C1.96808851,96.8545238 1.61290323,96.0480722 1.61290323,95.1612903 L8.4031629,75.9356099 C9.25844254,73.4839655 10.8548073,71.4355468 12.8874748,69.9998425 C14.9193548,68.5641381 17.3867502,67.7419355 19.9840915,67.7419355 C20.6448464,67.7419355 21.3063887,67.789976 21.9356413,67.9033833 C24.5487337,68.3066091 26.8712198,69.5485762 28.6613218,71.3386782 C30.4514238,73.1287802 31.6933909,75.4512663 32.0966167,78.0643587 L32.0966167,78.0643587 Z" id="Path" fill="#FF826E"></path>
      <path d="M30.6451613,76.790102 C30.6451613,79.9513294 28.6447833,82.7581591 25.6772933,83.8063887 L11.016255,88.983745 L16.1936113,74.3227067 C17.2418409,71.3552167 20.0486706,69.3548387 23.209898,69.3548387 C27.3067351,69.3548387 30.6451613,72.6932649 30.6451613,76.790102 L30.6451613,76.790102 Z" id="Path" fill="#FCD770"></path>
      <path d="M29.0322581,17.7419355 L29.0322581,18.2900706 C29.0322581,24.1455079 26.709772,29.7418409 22.5806452,33.8709677 C22.1931704,34.2584425 21.8064831,34.6293788 21.4032573,34.9837764 C19.2256804,36.9676159 16.8063256,38.6616369 14.209772,40.0162236 L6.75796996,32.5644216 C8.37087319,29.5000629 10.4358304,26.6609437 12.9032258,24.1935484 C14.9673954,22.1293788 17.4032887,20.5164756 20.0486706,19.4194177 C22.6932649,18.3223601 25.5481351,17.7419355 28.484123,17.7419355 L29.0322581,17.7419355 Z" id="Path" fill="#E6E9ED"></path>
      <path d="M14.209772,40.0162236 C10.8067665,41.7905746 7.08086573,43.000252 3.22580645,43.5483871 C3.74165202,39.8870653 4.85446069,36.3549016 6.48390242,33.0968056 C6.58077117,32.9196069 6.66110121,32.7416206 6.75796996,32.5644216 L14.209772,40.0162236 Z" id="Path" fill="#FF826E"></path>
      <path d="M56.2405494,58.2873929 L57.8723538,61.070596 C59.6144153,60.0499306 61.3336379,58.9386972 62.985131,57.7691847 L61.1209992,55.1371913 C59.5435359,56.251575 57.9014931,57.3131931 56.2405494,58.2873929 Z" id="Path" fill="#000000"></path>
      <path d="M69.9210875,47.7082282 C67.8325038,49.7968121 65.5887726,51.7664756 63.2568359,53.5613028 L65.2225617,56.1176915 C67.6679056,54.2385964 70.016381,52.1775768 72.2034085,49.9889742 C73.4115109,48.780872 74.5920488,47.5113407 75.7143083,46.2173954 L73.2760522,44.1051853 C72.2034085,45.3416393 71.0740613,46.5528919 69.9210875,47.7082282 Z" id="Path" fill="#000000"></path>
      <path d="M95.1612903,0 L85.2098034,1.9578504 C70.0967113,4.98046875 56.3484438,12.3385522 45.4487462,23.2390373 C41.1904613,27.4965347 37.4787361,32.2060863 34.3324722,37.2889365 L24.4211504,34.2387538 C28.4274194,29.8709992 30.6451613,24.2597026 30.6451613,18.294796 L30.6451613,16.1290323 L28.4793976,16.1290323 C22.1648185,16.1290323 16.227476,18.586977 11.7628528,23.0531754 C6.31772944,28.4982988 2.71783649,35.6965097 1.62865423,43.3192099 L1.32544738,45.4487462 L3.45498367,45.1455393 C7.07062742,44.6289062 10.5838899,43.5302734 13.867975,41.9551726 L25.9206464,54.007844 L23.8675024,58.4063129 L25.3449472,59.8837577 L21.1417905,66.1888861 C20.7566784,66.1565966 20.3707786,66.1290323 19.9793661,66.1290323 C14.1003024,66.1290323 8.83552802,69.8549333 6.87767762,75.3985004 L0,94.8856476 L0,95.1612903 C0,97.8287236 2.17127641,100 4.83870968,100 L5.11435242,100 L24.6014996,93.1223224 C30.1450667,91.164472 33.8709677,85.8996976 33.8709677,80.0206339 C33.8709677,79.6292214 33.8434034,79.2433216 33.8126891,78.8597845 L40.1178175,74.656628 L41.5952621,76.1340726 L44.8950984,74.593624 L56.4334992,86.132025 C54.8583984,89.4161101 53.7597657,92.9293726 53.2439202,96.5450163 L52.9407133,98.6745526 L55.0694619,98.3713458 C62.6937375,97.2821635 69.890373,93.6838458 75.3354964,88.2371472 C79.8001198,83.772524 82.2580645,77.8351815 82.2580645,71.5206024 L82.2580645,69.3548387 L80.0923008,69.3548387 C74.1273942,69.3548387 68.5160976,71.5725806 64.1483429,75.5788496 L61.3533266,66.4920929 C66.959898,63.1788685 72.1254411,59.1867754 76.7625379,54.5512538 C87.6614478,43.6515563 95.0195312,29.9032887 98.0421496,14.7901966 L99.9692855,5.15451734 L100,4.83870968 C100,2.17127641 97.8287236,0 95.1612903,0 Z M49.251827,58.1448464 C47.5593813,59.8372921 45.6306704,61.1981792 43.5483871,62.2353831 L37.7646169,56.4516129 C38.8018208,54.3709048 40.1627079,52.4406187 41.8551536,50.748173 C45.3369141,47.2664125 49.9291206,45.2951738 54.8324093,45.1675907 C54.7048262,50.0708794 52.7335875,54.6630859 49.251827,58.1448464 Z M36.4627962,59.7112841 L40.2871409,63.5356288 C38.7545677,64.0065839 37.172379,64.3286919 35.5453,64.45155 C35.6697329,62.827621 35.9918409,61.2438571 36.4627962,59.7112841 Z M32.5455204,62.5212639 L27.7469758,57.7227194 L32.8825919,46.7174899 C33.0802671,46.2937879 33.2968435,45.8803238 33.5031817,45.459772 L38.1174395,50.0740298 C35.1082095,53.6432081 33.2062752,57.9290575 32.5455204,62.5212639 Z M14.0435988,25.3339214 C17.6419165,21.7356036 22.3467427,19.64702 27.3902155,19.383978 C27.1271736,24.4274508 25.0385899,29.132277 21.4402722,32.7305948 C19.3705897,34.8002772 17.0142389,36.5628149 14.4775391,38.0032448 L8.77252399,32.2982296 C10.2113786,29.7599546 11.9739163,27.4036038 14.0435988,25.3339214 Z M5.22067157,41.553522 C5.68217621,39.4161101 6.37128266,37.3338268 7.24703871,35.3342363 L11.4383821,39.5255796 C9.44036673,40.4029109 7.35808347,41.0920173 5.22067157,41.553522 Z M16.8433405,40.3690462 C18.585402,39.3239667 20.2353202,38.1276776 21.778919,36.7998677 L32.6486895,40.1438067 C31.6933909,41.8433405 30.7884956,43.5759514 29.9599923,45.3534526 L27.3728893,50.89702 L16.8433405,40.3690462 Z M17.7080708,74.8550907 C18.5286984,72.5310294 20.7369897,70.9677419 23.2051726,70.9677419 C26.4175907,70.9677419 29.0322581,73.5824093 29.0322581,76.7948274 C29.0322581,79.2630103 27.4713331,81.4713016 25.1449093,82.2919292 L13.6513988,86.3486012 L17.7080708,74.8550907 Z M23.5272806,90.0808026 L4.60795746,96.7584425 C3.9015246,96.6584236 3.34157641,96.0969002 3.24155746,95.3920425 L9.91919738,76.4727194 C11.1627395,72.9500062 14.1562185,70.412519 17.7049206,69.6320565 C16.343246,70.6755607 15.2627268,72.0915764 14.6657637,73.7824472 L8.36614798,91.633852 L26.219128,85.3318738 C27.9099988,84.735698 29.3260143,83.655179 30.3695185,82.2935042 C29.5890562,85.8453567 27.0499937,88.8372605 23.5272806,90.0808026 L23.5272806,90.0808026 Z M33.0889302,75.4662298 C31.6949659,71.4694115 28.5321635,68.3066091 24.5353452,66.912645 L27.6705835,62.209394 L37.7921812,72.3309917 L33.0889302,75.4662298 Z M37.4771611,67.4544796 C42.0693673,66.7937248 46.3552167,64.8917905 49.9243952,61.8841355 L54.538653,66.4983933 C54.1196762,66.7047317 53.7046371,66.9213081 53.2809351,67.1189831 L42.2757056,72.2545992 L37.4771611,67.4544796 Z M58.8599419,88.5600427 L63.0512853,92.7513861 C61.0516948,93.6271421 58.9694115,94.3178238 56.8319998,94.7777532 C57.2950794,92.6419165 57.9841859,90.5596333 58.8599419,88.5600427 L58.8599419,88.5600427 Z M79.0031187,72.6097845 C78.7400768,77.6532573 76.6514931,82.3580835 73.0531754,85.9564012 C70.9834929,88.0260837 68.6271421,89.7886214 66.0904423,91.2290512 L60.3854272,85.5240361 C61.8242819,82.9873363 63.5868196,80.6309855 65.658077,78.5613028 C69.2548198,74.9614101 73.959646,72.8728264 79.0031187,72.6097845 L79.0031187,72.6097845 Z M61.587229,78.221081 C60.2594192,79.7631048 59.0647052,81.414598 58.0180506,83.1566595 L48.0035597,73.1421685 L54.6449722,70.0415827 C55.9452179,69.435169 57.2163244,68.7838647 58.4756173,68.1097216 L61.587229,78.221081 Z M74.4810042,52.2712954 C69.4469821,57.30453 63.7592931,61.5439137 57.5455204,64.9421937 L52.2453062,59.6419796 C55.9901085,55.5270286 58.0645161,50.2567415 58.0645161,44.6564706 L58.0645161,41.9354839 L55.3435294,41.9354839 C49.7416835,41.9354839 44.4706087,44.0098915 40.3580204,47.756269 L35.0578062,42.4568423 C38.4560863,36.2422821 42.69547,30.5530179 47.7287046,25.5213585 C55.5435673,17.7064958 64.8886403,11.7919921 75.1661732,8.09365544 L91.9079196,24.835402 C88.2095829,35.1113597 82.2950794,44.4548577 74.4810042,52.2712954 L74.4810042,52.2712954 Z M94.8793472,14.1562185 C94.3871282,16.6125883 93.7681137,19.0287927 93.0404171,21.4032573 L78.5967427,6.95958286 C80.9712073,6.23188629 83.3874117,5.61287177 85.8437815,5.12065282 L95.2951738,3.23053185 C96.0787865,3.29511089 96.7064641,3.92121351 96.7694681,4.70482621 L94.8793472,14.1562185 Z" id="Shape" fill="#000000"></path>
      <path d="M70.9677419,16.1290323 C63.8530117,16.1290323 58.0645161,21.9175278 58.0645161,29.0322581 C58.0645161,36.1469883 63.8530117,41.9354839 70.9677419,41.9354839 C78.0824722,41.9354839 83.8709677,36.1469883 83.8709677,29.0322581 C83.8709677,21.9175278 78.0824722,16.1290323 70.9677419,16.1290323 Z M70.9677419,38.7096774 C65.6305129,38.7096774 61.2903226,34.3694871 61.2903226,29.0322581 C61.2903226,23.695029 65.6305129,19.3548387 70.9677419,19.3548387 C76.304971,19.3548387 80.6451613,23.695029 80.6451613,29.0322581 C80.6451613,34.3694871 76.304971,38.7096774 70.9677419,38.7096774 Z" id="Shape" fill="#000000"></path>
      <path d="M70.9677419,22.5806452 C67.4095891,22.5806452 64.516129,25.4741052 64.516129,29.0322581 C64.516129,32.5904109 67.4095891,35.483871 70.9677419,35.483871 C74.5258948,35.483871 77.4193548,32.5904109 77.4193548,29.0322581 C77.4193548,25.4741052 74.5258948,22.5806452 70.9677419,22.5806452 Z M70.9677419,32.2580645 C69.1886655,32.2580645 67.7419355,30.8113345 67.7419355,29.0322581 C67.7419355,27.2531817 69.1886655,25.8064516 70.9677419,25.8064516 C72.7468183,25.8064516 74.1935484,27.2531817 74.1935484,29.0322581 C74.1935484,30.8113345 72.7468183,32.2580645 70.9677419,32.2580645 Z" id="Shape" fill="#000000"></path>
    </g>
  </g>
</svg>