<svg height="512" viewBox="0 0 64 64" width="512" xmlns="http://www.w3.org/2000/svg"><g id="house-stay_at_home-coronavirus-covid19-covid" data-name="house-stay at home-coronavirus-covid19-covid"><path d="m48 7h8v10h-8z" fill="#ffdaaa"/><path d="m58 28v33h-52v-33l26-15z" fill="#c6c5ca"/><path d="m61 20v6l-29-17-29 17v-2-4l29-17z" fill="#ff9811"/><path d="m34 44v11h-22v-11a8 8 0 0 1 8-8h6a8 8 0 0 1 8 8z" fill="#91dc5a"/><path d="m52 44v11h-22v-11a8 8 0 0 1 8-8h6a8 8 0 0 1 8 8z" fill="#ffda44"/><path d="m43 48v10h-22v-10a8 8 0 0 1 8-8h6a8 8 0 0 1 8 8z" fill="#2488ff"/><circle cx="23" cy="30" fill="#f0d0b4" r="6"/><circle cx="41" cy="30" fill="#f0d0b4" r="6"/><circle cx="32" cy="34" fill="#f5e0cd" r="6"/><path d="m61.506 19.137-4.506-2.637v-9.5a1 1 0 0 0 -1-1h-8a1 1 0 0 0 -1 1v3.634l-14.494-8.5a1.006 1.006 0 0 0 -1.012 0l-29 17a1 1 0 0 0 -.494.866v6a1 1 0 0 0 1.506.863l28.494-16.704 28.479 16.7a1 1 0 0 0 1.521-.859v-6a1 1 0 0 0 -.494-.863zm-12.506-11.137h6v7.323l-6-3.517zm11 16.254-27.494-16.117a1 1 0 0 0 -1.012 0l-27.494 16.117v-3.681l28-16.414 28 16.414z"/><path d="m58.5 27.13-26-15a1.044 1.044 0 0 0 -1 0l-26 15a1 1 0 0 0 -.5.87v33a1 1 0 0 0 1 1h52a1 1 0 0 0 1-1v-33a1 1 0 0 0 -.5-.87zm-1.5 32.87h-50v-31.42l25-14.43 25 14.43z"/><path d="m45.71 35.17a7 7 0 1 0 -11.23-7.71 7.046 7.046 0 0 0 -2.48-.46 6.888 6.888 0 0 0 -2.49.47 6.924 6.924 0 0 0 -6.51-4.47 6.994 6.994 0 0 0 -4.71 12.17 9.013 9.013 0 0 0 -7.29 8.83v11a1 1 0 0 0 1 1h8v2a1 1 0 0 0 1 1h22a1 1 0 0 0 1-1v-2h8a1 1 0 0 0 1-1v-11a9.013 9.013 0 0 0 -7.29-8.83zm-4.71-10.17a5 5 0 1 1 -2.03 9.57 5.441 5.441 0 0 0 .03-.57 7 7 0 0 0 -2.74-5.54 5 5 0 0 1 4.74-3.46zm-9 4a5 5 0 1 1 -5 5 5 5 0 0 1 5-5zm-14 1a4.99 4.99 0 0 1 9.74-1.54 7 7 0 0 0 -2.74 5.54 5.441 5.441 0 0 0 .03.57 5 5 0 0 1 -7.03-4.57zm2 18v6h-7v-10a7.008 7.008 0 0 1 7-7h5.69a7.15 7.15 0 0 0 1.6 2.17 9.013 9.013 0 0 0 -7.29 8.83zm22 9h-2.09l-.91-9.1-2 .2.89 8.9h-11.78l.89-8.9-2-.2-.91 9.1h-2.09v-9a7.008 7.008 0 0 1 7-7h6a7.008 7.008 0 0 1 7 7zm9-3h-7v-6a9.013 9.013 0 0 0 -7.29-8.83 7.15 7.15 0 0 0 1.6-2.17h5.69a7.008 7.008 0 0 1 7 7z"/></g></svg>