<?xml version="1.0" encoding="UTF-8"?>
<svg width="100px" height="100px" viewBox="0 0 100 100" version="1.1" xmlns="http://www.w3.org/2000/svg" xmlns:xlink="http://www.w3.org/1999/xlink">
  <title>turbo-engine</title>
  <g id="Page-1" stroke="none" stroke-width="1" fill="none" fill-rule="evenodd">
    <g id="turbo-engine" fill-rule="nonzero">
      <path d="M98.3870968,3.22580645 L98.3870968,35.483871 C98.3870968,36.3706528 97.6609754,37.0967742 96.7741935,37.0967742 L93.5483871,37.0967742 C92.6616052,37.0967742 91.9354839,36.3706528 91.9354839,35.483871 L91.9354839,3.22580645 C91.9354839,2.3390246 92.6616052,1.61290323 93.5483871,1.61290323 L96.7741935,1.61290323 C97.6609754,1.61290323 98.3870968,2.3390246 98.3870968,3.22580645 Z" id="Path" fill="#969FAA"></path>
      <path d="M81.8067982,32.8384891 L77.3067351,32.3706843 C76.467994,32.306105 75.8064516,31.5965222 75.8064516,30.757781 L75.8064516,7.95189637 C75.8064516,7.11315524 76.467994,6.40357238 77.3067351,6.33899315 L91.9354839,4.83870968 L91.9354839,33.8709677 L81.8067982,32.8384891 Z" id="Path" fill="#AAB2BD"></path>
      <g id="Group" transform="translate(4.435484, 9.677419)" fill="#CCD1D9">
        <path d="M17.4355784,4.96786794 L17.789976,5.56483105 C12.1613532,8.77409899 7.32264355,13.2418726 3.75819052,18.6452558 L0.661542339,14.0160345 C-0.1937375,12.726027 -0.0157510081,11.032006 1.06476815,9.93573589 L8.72605847,2.27444556 C9.82232863,1.19392641 11.5163496,1.01593992 12.8063571,1.87121976 L17.4355784,4.96786794 Z" id="Path"></path>
        <path d="M17.0158141,75.9678994 L12.8063571,78.7739415 C11.5163496,79.6292214 9.82232863,79.4512349 8.72605847,78.3707157 L1.06476815,70.7094254 C-0.0157510081,69.6131552 -0.1937375,67.9191343 0.661542339,66.6291268 L3.46758448,62.4196698 C6.87058972,67.9191343 11.5163496,72.5648942 17.0158141,75.9678994 L17.0158141,75.9678994 Z" id="Path"></path>
        <path d="M48.6934538,81.1452558 L47.6932649,86.1131238 C47.3869077,87.6291583 46.0646107,88.7096774 44.5320375,88.7096774 L33.693769,88.7096774 C32.1611958,88.7096774 30.8388988,87.6291583 30.5325415,86.1131238 L29.5323526,81.1452558 C33.4197014,82.064327 37.5322895,82.4352633 41.7582851,82.1777343 C44.1288117,82.0320375 46.451298,81.6776399 48.6934538,81.1452558 L48.6934538,81.1452558 Z" id="Path"></path>
        <path d="M77.5642641,66.6291268 C78.419544,67.9191343 78.2415575,69.6131552 77.1610383,70.7094254 L69.499748,78.3707157 C68.4034778,79.4512349 66.7094569,79.6292214 65.4194494,78.7739415 L61.1611643,75.9190714 C66.6448778,72.5003149 71.2906375,67.8388042 74.709394,62.3550907 L77.5642641,66.6291268 Z" id="Path"></path>
        <polygon id="Path" points="64.9193548 0 71.3709677 0 71.3709677 19.3548387 64.9193548 19.3548387"></polygon>
      </g>
      <path d="M33.9678365,90.8226752 C29.4677734,89.7901966 25.2583165,88.0158456 21.451298,85.6453188 C15.9518335,82.2423135 11.3060736,77.5965536 7.90306835,72.0970891 C3.91963831,65.6935169 1.61290323,58.1125567 1.61290323,50 C1.61290323,47.9035407 1.79010202,45.7905431 2.12874879,43.7098349 C3.06435867,38.0481351 5.17735645,32.8550278 8.1936744,28.3226752 C11.7581274,22.9192919 16.5968371,18.4515183 22.2254599,15.2422504 C28.484123,11.6935484 35.709898,9.67741935 43.2900706,9.67741935 L69.3548387,9.67741935 L69.3548387,29.0322581 L75.8064516,29.0322581 L75.8064516,30.757781 C75.8064516,31.5965222 76.467994,32.306105 77.3067351,32.3706843 L81.8067982,32.8384891 C84.3222341,38.4190714 85.6610698,44.6454448 85.46812,51.2096774 C85.257844,58.7906375 82.9676474,65.919544 79.1448778,72.0325101 C75.7261214,77.5162236 71.0803617,82.1777343 65.5966482,85.5964907 C61.8061681,87.983556 57.5967113,89.7744456 53.1289377,90.8226752 C50.8867819,91.3550593 48.5642956,91.7094569 46.193769,91.8551536 C41.9677734,92.1126827 37.8551853,91.7417464 33.9678365,90.8226752 L33.9678365,90.8226752 Z" id="Path" fill="#838F9B"></path>
      <path d="M51.9192603,29.0322581 C60.257844,32.3549333 66.1290323,40.4997794 66.1290323,50 C66.1290323,62.4677105 56.0160976,72.5806452 43.5483871,72.5806452 C31.0806766,72.5806452 20.9677419,62.4677105 20.9677419,50 C20.9677419,37.5322895 31.0806766,27.4193548 43.5483871,27.4193548 C46.500126,27.4193548 49.3384577,27.9840284 51.9192603,29.0322581 L51.9192603,29.0322581 Z" id="Path" fill="#FFEAA7"></path>
      <path d="M79.0322581,50 C79.0322581,51.7814391 77.5878907,53.2258065 75.8064516,53.2258065 C74.0250125,53.2258065 72.5806452,51.7814391 72.5806452,50 C72.5806452,48.2185609 74.0250125,46.7741935 75.8064516,46.7741935 C77.5878907,46.7741935 79.0322581,48.2185609 79.0322581,50 Z" id="Path" fill="#FC6E51"></path>
      <path d="M59.6774194,50 C59.6774194,58.9079827 52.4563698,66.1290323 43.5483871,66.1290323 C34.6404044,66.1290323 27.4193548,58.9079827 27.4193548,50 C27.4193548,41.0920173 34.6404044,33.8709677 43.5483871,33.8709677 C52.4563698,33.8709677 59.6774194,41.0920173 59.6774194,50 Z" id="Path" fill="#FCD770"></path>
      <path d="M45.8228327,47.7255544 C46.4190083,48.3067665 46.7741935,49.1132181 46.7741935,50 C46.7741935,50.8867819 46.4190083,51.6932335 45.8228327,52.2744456 C45.2416206,52.8706212 44.435169,53.2258065 43.5483871,53.2258065 C42.6616052,53.2258065 41.8551536,52.8706212 41.2739415,52.2744456 C40.6777659,51.6932335 40.3225806,50.8867819 40.3225806,50 C40.3225806,49.1132181 40.6777659,48.3067665 41.2739415,47.7255544 C41.8551536,47.1293788 42.6616052,46.7741935 43.5483871,46.7741935 C44.435169,46.7741935 45.2416206,47.1293788 45.8228327,47.7255544 Z" id="Path" fill="#FC6E51"></path>
      <path d="M31.0050718,37.4566847 C27.6532573,40.8092867 25.8064516,45.2628843 25.8064516,50 C25.8064516,54.7371157 27.6532573,59.1907133 31.0050718,62.5433153 C34.3576738,65.8951298 38.8112714,67.7419355 43.5483871,67.7419355 C48.2855028,67.7419355 52.7391004,65.8951298 56.0917024,62.5433153 C59.4435169,59.1907133 61.2903226,54.7371157 61.2903226,50 C61.2903226,45.2628843 59.4435169,40.8092867 56.0917024,37.4566847 C52.7391004,34.1048702 48.2855028,32.2580645 43.5483871,32.2580645 C38.8112714,32.2580645 34.3576738,34.1048702 31.0050718,37.4566847 Z M57.9692226,51.6129032 C57.6675907,54.3449155 56.6067603,56.9083921 54.8851752,59.0544669 L47.9035407,52.0744077 C47.9759956,51.9239857 48.0374244,51.7712008 48.0933405,51.6129032 L57.9692226,51.6129032 Z M29.1275516,48.3870968 C29.4291835,45.6550845 30.4900139,43.0916079 32.211599,40.9455331 L39.1916583,47.9255923 C39.1192036,48.0760143 39.0577746,48.2287992 39.0018587,48.3870968 L29.1275516,48.3870968 Z M42.3985635,51.1191091 C42.1016571,50.8277155 41.9354839,50.4307901 41.9354839,50 C41.9354839,49.5692099 42.1016571,49.1722845 42.429278,48.8517516 C42.7206716,48.5516948 43.117597,48.3870968 43.5483871,48.3870968 C43.9791772,48.3870968 44.3761026,48.5516948 44.6982107,48.8808909 C44.9951171,49.1722845 45.1612903,49.5692099 45.1612903,50 C45.1612903,50.4307901 44.9951171,50.8277155 44.6659212,51.1482484 C44.0870716,51.7483619 43.0419921,51.7775012 42.3985635,51.1191091 Z M41.9354839,45.4904863 C41.7834867,45.540102 41.6370022,45.5983808 41.4920929,45.6629599 L34.4939202,38.6647871 C36.639995,36.9416268 39.2034716,35.8807964 41.9354839,35.5791645 L41.9354839,45.4904863 Z M41.4739794,54.3551536 C41.6244014,54.4276085 41.7771863,54.4890373 41.9354839,54.5449534 L41.9354839,64.4208355 C39.2034716,64.1192036 36.639995,63.0583732 34.4939202,61.3367881 L41.4739794,54.3551536 Z M45.1612903,54.5465284 C45.3195879,54.4906125 45.4739478,54.4291835 45.62437,54.3567288 L52.602854,61.3352129 C50.4567792,63.0567982 47.8933026,64.1192036 45.1612903,64.4192603 L45.1612903,54.5465284 Z M45.601531,45.6661101 C45.4566218,45.601531 45.310925,45.5432522 45.1612903,45.4936367 L45.1612903,35.5791645 C47.8933026,35.8807964 50.4567792,36.9416268 52.602854,38.6647871 L45.601531,45.6661101 Z M29.1275516,51.6129032 L39.0002835,51.6129032 C39.0561996,51.7712008 39.1176286,51.9255607 39.1900831,52.0759829 L32.211599,59.0544669 C30.4900139,56.9083921 29.4291835,54.3449155 29.1275516,51.6129032 Z M57.9692226,48.3870968 L48.0949155,48.3870968 C48.0389996,48.2287992 47.9775706,48.0760143 47.9051159,47.9240171 L54.8836,40.9455331 C56.6067603,43.0916079 57.6675907,45.6550845 57.9692226,48.3870968 Z" id="Shape" fill="#000000"></path>
      <path d="M96.7741935,0 L93.5483871,0 C91.7693107,0 90.3225806,1.44673004 90.3225806,3.22580645 L90.3225806,3.38410403 L77.1823022,4.73239032 C75.5048198,4.85997359 74.1935484,6.27598911 74.1935484,7.95189637 L74.1935484,8.06451613 L43.2900706,8.06451613 C36.1013105,8.06451613 28.9952431,9.85304315 22.6271107,13.2111581 L18.1325605,10.203503 C16.1983367,8.92294597 13.6884135,9.16787419 12.0211694,10.8114919 L4.35200363,18.4806577 C2.7422504,20.1148248 2.49023427,22.6806641 3.75661532,24.5904738 L6.27283891,28.3502395 C3.36756552,32.9707976 1.43255423,38.0386845 0.537109274,43.4499433 C0.180348992,45.641696 0,47.8468371 0,50 C0,57.7935988 2.09015887,65.3840097 6.01137218,72.0403855 L3.75189012,75.4158266 C2.47133306,77.3500504 2.71626129,79.8615486 4.35987903,81.5272177 L12.0290448,89.1963835 C12.9772556,90.1319935 14.2050466,90.6131867 15.4438633,90.6131867 C16.3708103,90.6131867 17.3064202,90.3438446 18.1372859,89.7933468 L21.5206024,87.5370149 C25.001575,89.5901589 28.7148752,91.1258821 32.5856855,92.1142579 L33.3874117,96.109501 C33.8418284,98.3626827 35.837481,100 38.1292528,100 L48.9690966,100 C51.2616556,100 53.2549458,98.3626827 53.7109375,96.1079258 L54.5126637,92.1095325 C58.3787488,91.1014679 62.0739353,89.553144 65.5273438,87.4968498 L68.9642137,89.7980722 C69.7919292,90.3454196 70.7228137,90.6147619 71.6481855,90.6147619 C72.8901524,90.6147619 74.1210938,90.1304183 75.0756048,89.1900831 L82.7447706,81.5209173 C84.3805129,79.8631238 84.6254411,77.3516254 83.3417339,75.4111012 L81.0420867,71.9773815 C84.7821635,65.6612274 86.8794103,58.5275958 87.0810232,51.2592931 C87.2487714,45.5416772 86.3147367,39.9823589 84.3206591,34.7144343 L90.3225806,35.3271484 L90.3225806,35.483871 C90.3225806,37.2629474 91.7693107,38.7096774 93.5483871,38.7096774 L96.7741935,38.7096774 C98.55327,38.7096774 100,37.2629474 100,35.483871 L100,3.22580645 C100,1.44673004 98.55327,0 96.7741935,0 Z M6.640625,20.7535282 L14.2932522,13.1001133 C14.8547758,12.5464655 15.6998173,12.4614101 16.344821,12.88905 L19.5115613,15.008348 C15.1304183,17.8128149 11.2855972,21.3772681 8.22753911,25.4741052 L6.4405871,22.8019468 C6.01137218,22.1514302 6.09485262,21.3063887 6.640625,20.7535282 Z M16.3534841,87.1062248 C15.7013923,87.5370149 14.8547758,87.4519595 14.3034903,86.9077621 L6.6500756,79.2551349 C6.09642762,78.6936113 6.01137218,77.8485698 6.4405871,77.2019909 L7.89834294,75.0141758 C10.7918032,79.1370022 14.4129599,82.7565839 18.5326361,85.6500442 L16.3534841,87.1062248 Z M48.9675214,96.7741935 L38.1292528,96.7741935 C37.3661165,96.7741935 36.7014238,96.2260585 36.5502141,95.4707976 L36.032006,92.8915702 C38.5096395,93.3286605 41.0321635,93.5483871 43.5743762,93.5483871 C44.4792718,93.5483871 45.3841671,93.5192478 46.2922127,93.4649069 C47.883852,93.3680381 49.4810042,93.1420111 51.0726435,92.8600681 L50.5497101,95.4692226 C50.3953504,96.2260585 49.7306577,96.7741935 48.9675214,96.7741935 L48.9675214,96.7741935 Z M80.4561492,79.2464718 L72.803522,86.8998867 C72.2419984,87.4535345 71.3953819,87.5385899 70.7535282,87.11095 L68.5003466,85.6051536 C72.6129347,82.7014554 76.2372417,79.0724232 79.148028,74.9432964 L80.6546119,77.196478 C81.085402,77.8485698 81.0019216,78.6936113 80.4561492,79.2464718 L80.4561492,79.2464718 Z M83.8552167,51.1647871 C83.6614794,58.2110004 81.5595073,65.1304183 77.7761151,71.1788054 C74.4888798,76.4498802 69.9825163,80.960969 64.7358556,84.2324534 C61.0225554,86.5706905 56.9934476,88.2599861 52.7564264,89.2530871 C50.5512853,89.7760206 48.3099169,90.1099419 46.09375,90.2454008 C42.1126827,90.4903288 38.1513042,90.1548325 34.3261718,89.2499371 C30.0836379,88.2773123 26.038779,86.60298 22.298702,84.2726185 C17.0323526,81.0160976 12.5291393,76.5113093 9.27104335,71.2449597 C5.31754032,64.8870653 3.22580645,57.5415827 3.22580645,50 C3.22580645,48.0193107 3.39355464,45.9905808 3.7211756,43.9728768 C4.60008185,38.6600617 6.55635706,33.695344 9.54038548,29.2110321 C12.9158266,24.0951046 17.5773375,19.7486139 23.0208859,16.6448778 C29.2000062,13.1418536 36.2084173,11.2903226 43.2900706,11.2903226 L67.7419355,11.2903226 L67.7419355,17.7419355 L70.9677419,17.7419355 L70.9677419,11.2903226 L74.1935484,11.2903226 L74.1935484,27.4193548 L70.9677419,27.4193548 L70.9677419,20.9677419 L67.7419355,20.9677419 L67.7419355,27.4193548 L52.1886026,27.4193548 C49.4565903,26.3577369 46.5528919,25.8064516 43.5483871,25.8064516 C30.2080708,25.8064516 19.3548387,36.6596837 19.3548387,50 C19.3548387,63.3403163 30.2080708,74.1935484 43.5483871,74.1935484 C56.8887034,74.1935484 67.7419355,63.3403163 67.7419355,50 C67.7419355,42.2064012 64.0743133,35.1271107 58.0597907,30.6451613 L74.1935484,30.6451613 L74.1935484,30.757781 C74.1935484,32.4352633 75.5048198,33.8497038 77.1389869,33.9757119 L80.6853264,34.3387726 C82.9534716,39.6760018 84.0276903,45.3290385 83.8552167,51.1647871 Z M64.516129,50 C64.516129,61.5612399 55.109627,70.9677419 43.5483871,70.9677419 C31.9871472,70.9677419 22.5806452,61.5612399 22.5806452,50 C22.5806452,38.4387601 31.9871472,29.0322581 43.5483871,29.0322581 C46.2599232,29.0322581 48.8706528,29.5355028 51.3222972,30.5309665 C59.3371976,33.7244835 64.516129,41.3660849 64.516129,50 Z M77.4193548,30.757781 L77.4193548,9.67741935 L77.4689706,7.94323347 L90.3225806,6.62566149 L90.3225806,32.0855909 L77.4193548,30.757781 Z M96.7741935,35.483871 L93.5483871,35.483871 L93.5483871,3.22580645 L96.7741935,3.22580645 L96.7741935,35.483871 Z" id="Shape" fill="#000000"></path>
      <path d="M70.9677419,50 C70.9677419,52.6674333 73.1390183,54.8387097 75.8064516,54.8387097 C78.4738849,54.8387097 80.6451613,52.6674333 80.6451613,50 C80.6451613,47.3325667 78.4738849,45.1612903 75.8064516,45.1612903 C73.1390183,45.1612903 70.9677419,47.3325667 70.9677419,50 Z M77.4193548,50 C77.4193548,50.8883569 76.6963835,51.6129032 75.8064516,51.6129032 C74.9165198,51.6129032 74.1935484,50.8883569 74.1935484,50 C74.1935484,49.1116431 74.9165198,48.3870968 75.8064516,48.3870968 C76.6963835,48.3870968 77.4193548,49.1116431 77.4193548,50 Z" id="Shape" fill="#000000"></path>
      <path d="M15.1485321,31.540606 L12.4645603,29.7512915 C11.8534212,30.6680002 11.2548829,31.6823651 10.6839089,32.7676097 L13.540354,34.2678931 C14.0577746,33.2803048 14.5980343,32.3628087 15.1485321,31.540606 Z" id="Path" fill="#000000"></path>
      <path d="M9.67741935,50 C9.67741935,45.412519 10.5791645,40.9644343 12.3566657,36.7754536 L9.3852381,35.5161605 C7.43841351,40.1052167 6.4516129,44.9777911 6.4516129,50 C6.4516129,70.4566218 23.0917653,87.0967742 43.5483871,87.0967742 L43.5483871,83.8709677 C24.8724169,83.8709677 9.67741935,68.6759702 9.67741935,50 Z" id="Path" fill="#000000"></path>
    </g>
  </g>
</svg>