<svg height="512" viewBox="0 0 512 512" width="512" xmlns="http://www.w3.org/2000/svg"><g><g><path d="m496 108v268h-480v-268a19.994 19.994 0 0 1 20-20h440a19.994 19.994 0 0 1 20 20z" fill="#78b9eb"/><path d="m496 376v28a19.994 19.994 0 0 1 -20 20h-440a19.994 19.994 0 0 1 -20-20v-28z" fill="#d8d7da"/><path d="m336 472h-160l16-48h128z" fill="#acabb1"/><path d="m320 248h-128v-88l64-40 64 40z" fill="#d8d7da"/><path d="m240 200h32v48h-32z" fill="#a0815c"/><path d="m152 272h208v24h-208z" fill="#ff9811"/></g><g><path d="m476 80h-440a28.031 28.031 0 0 0 -28 28v296a28.031 28.031 0 0 0 28 28h144.9l-12.49 37.47a8 8 0 0 0 7.59 10.53h160a8 8 0 0 0 7.59-10.53l-12.49-37.47h144.9a28.031 28.031 0 0 0 28-28v-296a28.031 28.031 0 0 0 -28-28zm-288.9 384 10.67-32h116.46l10.67 32zm300.9-60a12.01 12.01 0 0 1 -12 12h-440a12.01 12.01 0 0 1 -12-12v-20h464zm0-36h-464v-260a12.01 12.01 0 0 1 12-12h440a12.01 12.01 0 0 1 12 12z"/><path d="m324.24 153.22-64-40a7.964 7.964 0 0 0 -8.48 0l-64 40a7.987 7.987 0 0 0 -3.76 6.78v88a8 8 0 0 0 8 8h128a8 8 0 0 0 8-8v-88a7.987 7.987 0 0 0 -3.76-6.78zm-60.24 86.78h-16v-32h16zm48 0h-32v-40a8 8 0 0 0 -8-8h-32a8 8 0 0 0 -8 8v40h-32v-75.57l56-35 56 35z"/><path d="m338.343 229.657a8 8 0 0 0 11.314 0l24-24a8 8 0 0 0 0-11.314l-24-24a8 8 0 0 0 -11.314 11.314l18.344 18.343-18.344 18.343a8 8 0 0 0 0 11.314z"/><path d="m162.343 229.657a8 8 0 0 0 11.314-11.314l-18.344-18.343 18.344-18.343a8 8 0 0 0 -11.314-11.314l-24 24a8 8 0 0 0 0 11.314z"/><path d="m360 264h-208a8 8 0 0 0 -8 8v24a8 8 0 0 0 8 8h208a8 8 0 0 0 8-8v-24a8 8 0 0 0 -8-8zm-8 24h-192v-8h192z"/><path d="m280 328a8 8 0 0 0 0-16h-48a8 8 0 0 0 0 16z"/><path d="m344 336h-176a8 8 0 0 0 0 16h176a8 8 0 0 0 0-16z"/></g></g></svg>